<svg xmlns="http://www.w3.org/2000/svg" xmlns:xlink="http://www.w3.org/1999/xlink" version="1.2" width="210.00mm" height="297.00mm" viewBox="0 0 119.5016 169.0094">
<!-- Page: 1/1 -->
<text transform="translate(5.6906, 2.8453)" font-family="serif" font-size="2.2001" text-anchor="start" fill="currentColor">
<tspan/>
</text>
<line transform="translate(14.2264, 10.7053)" stroke-linejoin="round" stroke-linecap="round" stroke-width="0.1000" stroke="currentColor" x1="0.0500" y1="-0.0000" x2="36.4520" y2="-0.0000"/>
<line transform="translate(14.2264, 9.7053)" stroke-linejoin="round" stroke-linecap="round" stroke-width="0.1000" stroke="currentColor" x1="0.0500" y1="-0.0000" x2="36.4520" y2="-0.0000"/>
<line transform="translate(14.2264, 8.7053)" stroke-linejoin="round" stroke-linecap="round" stroke-width="0.1000" stroke="currentColor" x1="0.0500" y1="-0.0000" x2="36.4520" y2="-0.0000"/>
<line transform="translate(14.2264, 7.7053)" stroke-linejoin="round" stroke-linecap="round" stroke-width="0.1000" stroke="currentColor" x1="0.0500" y1="-0.0000" x2="36.4520" y2="-0.0000"/>
<line transform="translate(14.2264, 6.7053)" stroke-linejoin="round" stroke-linecap="round" stroke-width="0.1000" stroke="currentColor" x1="0.0500" y1="-0.0000" x2="36.4520" y2="-0.0000"/>
<rect transform="translate(5.6906, 11.7053)" x="38.4873" y="-0.1000" width="2.9430" height="0.2000" ry="0.1000" fill="currentColor"/>
<rect transform="translate(5.6906, 5.7053)" x="29.2930" y="-0.1000" width="1.9563" height="0.2000" ry="0.1000" fill="currentColor"/>
<rect transform="translate(5.6906, 5.7053)" x="26.4418" y="-0.1000" width="1.8053" height="0.2000" ry="0.1000" fill="currentColor"/>
<line transform="translate(14.2264, 19.7053)" stroke-linejoin="round" stroke-linecap="round" stroke-width="0.1000" stroke="currentColor" x1="0.0500" y1="-0.0000" x2="36.4520" y2="-0.0000"/>
<line transform="translate(14.2264, 18.7053)" stroke-linejoin="round" stroke-linecap="round" stroke-width="0.1000" stroke="currentColor" x1="0.0500" y1="-0.0000" x2="36.4520" y2="-0.0000"/>
<line transform="translate(14.2264, 17.7053)" stroke-linejoin="round" stroke-linecap="round" stroke-width="0.1000" stroke="currentColor" x1="0.0500" y1="-0.0000" x2="36.4520" y2="-0.0000"/>
<line transform="translate(14.2264, 16.7053)" stroke-linejoin="round" stroke-linecap="round" stroke-width="0.1000" stroke="currentColor" x1="0.0500" y1="-0.0000" x2="36.4520" y2="-0.0000"/>
<line transform="translate(14.2264, 15.7053)" stroke-linejoin="round" stroke-linecap="round" stroke-width="0.1000" stroke="currentColor" x1="0.0500" y1="-0.0000" x2="36.4520" y2="-0.0000"/>
<rect transform="translate(29.3701, 8.7053)" x="-0.0650" y="-0.8139" width="0.1300" height="0.0000" ry="0.0000" fill="currentColor"/>
<a style="color:inherit;" xlink:href="textedit:///Users/mbp-15_touch/Dropbox/tesis/GenoMus/ly/harmony/lilypond_framework_examples_GenoMus.ly:13:15:16">
<path transform="translate(29.3051, 7.7053) scale(0.0040, -0.0040)" d="M218 136c55 0 108 -28 108 -89c0 -71 -55 -121 -102 -149c-35 -21 -75 -34 -116 -34c-55 0 -108 28 -108 89c0 71 55 121 102 149c35 21 75 34 116 34z" fill="currentColor"/>
</a>
<path transform="translate(25.1529, 7.7053) scale(0.0040, -0.0040)" d="M27 41l-1 -66v-11c0 -22 1 -44 4 -66c45 38 93 80 93 139c0 33 -14 67 -43 67c-31 0 -52 -30 -53 -63zM-15 -138l-12 595c8 5 18 8 27 8s19 -3 27 -8l-7 -345c25 21 58 34 91 34c52 0 89 -48 89 -102c0 -80 -86 -117 -147 -169c-15 -13 -24 -38 -45 -38
c-13 0 -23 11 -23 25z" fill="currentColor"/>
<rect transform="translate(26.3679, 8.7053)" x="-0.0650" y="-0.8139" width="0.1300" height="0.0000" ry="0.0000" fill="currentColor"/>
<a style="color:inherit;" xlink:href="textedit:///Users/mbp-15_touch/Dropbox/tesis/GenoMus/ly/harmony/lilypond_framework_examples_GenoMus.ly:13:11:12">
<path transform="translate(26.3029, 7.7053) scale(0.0040, -0.0040)" d="M218 136c55 0 108 -28 108 -89c0 -71 -55 -121 -102 -149c-35 -21 -75 -34 -116 -34c-55 0 -108 28 -108 89c0 71 55 121 102 149c35 21 75 34 116 34z" fill="currentColor"/>
</a>
<rect transform="translate(24.5178, 8.7053)" x="-0.0650" y="0.3139" width="0.1300" height="0.0000" ry="0.0000" fill="currentColor"/>
<a style="color:inherit;" xlink:href="textedit:///Users/mbp-15_touch/Dropbox/tesis/GenoMus/ly/harmony/lilypond_framework_examples_GenoMus.ly:13:9:10">
<path transform="translate(23.2786, 9.2053) scale(0.0040, -0.0040)" d="M218 136c55 0 108 -28 108 -89c0 -71 -55 -121 -102 -149c-35 -21 -75 -34 -116 -34c-55 0 -108 28 -108 89c0 71 55 121 102 149c35 21 75 34 116 34z" fill="currentColor"/>
</a>
<path transform="translate(43.2184, 10.2053) scale(0.0040, -0.0040)" d="M216 -312c0 -10 -8 -19 -18 -19s-19 9 -19 19v145l-83 -31v-158c0 -10 -9 -19 -19 -19s-18 9 -18 19v145l-32 -12c-2 -1 -5 -1 -7 -1c-11 0 -20 9 -20 20v60c0 8 5 16 13 19l46 16v160l-32 -11c-2 -1 -5 -1 -7 -1c-11 0 -20 9 -20 20v60c0 8 5 15 13 18l46 17v158
c0 10 8 19 18 19s19 -9 19 -19v-145l83 31v158c0 10 9 19 19 19s18 -9 18 -19v-145l32 12c2 1 5 1 7 1c11 0 20 -9 20 -20v-60c0 -8 -5 -16 -13 -19l-46 -16v-160l32 11c2 1 5 1 7 1c11 0 20 -9 20 -20v-60c0 -8 -5 -15 -13 -18l-46 -17v-158zM96 65v-160l83 30v160z" fill="currentColor"/>
<a style="color:inherit;" xlink:href="textedit:///Users/mbp-15_touch/Dropbox/tesis/GenoMus/ly/harmony/lilypond_framework_examples_GenoMus.ly:13:30:31">
<path transform="translate(41.3141, 8.7053) scale(0.0040, -0.0040)" d="M218 136c55 0 108 -28 108 -89c0 -71 -55 -121 -102 -149c-35 -21 -75 -34 -116 -34c-55 0 -108 28 -108 89c0 71 55 121 102 149c35 21 75 34 116 34z" fill="currentColor"/>
</a>
<path transform="translate(30.8574, 16.7053) scale(0.0040, -0.0040)" d="M216 -312c0 -10 -8 -19 -18 -19s-19 9 -19 19v145l-83 -31v-158c0 -10 -9 -19 -19 -19s-18 9 -18 19v145l-32 -12c-2 -1 -5 -1 -7 -1c-11 0 -20 9 -20 20v60c0 8 5 16 13 19l46 16v160l-32 -11c-2 -1 -5 -1 -7 -1c-11 0 -20 9 -20 20v60c0 8 5 15 13 18l46 17v158
c0 10 8 19 18 19s19 -9 19 -19v-145l83 31v158c0 10 9 19 19 19s18 -9 18 -19v-145l32 12c2 1 5 1 7 1c11 0 20 -9 20 -20v-60c0 -8 -5 -16 -13 -19l-46 -16v-160l32 11c2 1 5 1 7 1c11 0 20 -9 20 -20v-60c0 -8 -5 -15 -13 -18l-46 -17v-158zM96 65v-160l83 30v160z" fill="currentColor"/>
<rect transform="translate(38.3769, 8.7053)" x="-0.0650" y="-2.3139" width="0.1300" height="0.0000" ry="0.0000" fill="currentColor"/>
<a style="color:inherit;" xlink:href="textedit:///Users/mbp-15_touch/Dropbox/tesis/GenoMus/ly/harmony/lilypond_framework_examples_GenoMus.ly:13:28:29">
<path transform="translate(38.3119, 6.2053) scale(0.0040, -0.0040)" d="M218 136c55 0 108 -28 108 -89c0 -71 -55 -121 -102 -149c-35 -21 -75 -34 -116 -34c-55 0 -108 28 -108 89c0 71 55 121 102 149c35 21 75 34 116 34z" fill="currentColor"/>
</a>
<rect transform="translate(35.3746, 8.7053)" x="-0.0650" y="-2.8139" width="0.1300" height="0.0000" ry="0.0000" fill="currentColor"/>
<a style="color:inherit;" xlink:href="textedit:///Users/mbp-15_touch/Dropbox/tesis/GenoMus/ly/harmony/lilypond_framework_examples_GenoMus.ly:13:24:25">
<path transform="translate(35.3096, 5.7053) scale(0.0040, -0.0040)" d="M218 136c55 0 108 -28 108 -89c0 -71 -55 -121 -102 -149c-35 -21 -75 -34 -116 -34c-55 0 -108 28 -108 89c0 71 55 121 102 149c35 21 75 34 116 34z" fill="currentColor"/>
</a>
<a style="color:inherit;" xlink:href="textedit:///Users/mbp-15_touch/Dropbox/tesis/GenoMus/ly/harmony/lilypond_framework_examples_GenoMus.ly:13:19:20">
<path transform="translate(32.3074, 5.7053) scale(0.0040, -0.0040)" d="M218 136c55 0 108 -28 108 -89c0 -71 -55 -121 -102 -149c-35 -21 -75 -34 -116 -34c-55 0 -108 28 -108 89c0 71 55 121 102 149c35 21 75 34 116 34z" fill="currentColor"/>
</a>
<path transform="translate(31.1574, 5.7053) scale(0.0040, -0.0040)" d="M27 41l-1 -66v-11c0 -22 1 -44 4 -66c45 38 93 80 93 139c0 33 -14 67 -43 67c-31 0 -52 -30 -53 -63zM-15 -138l-12 595c8 5 18 8 27 8s19 -3 27 -8l-7 -345c25 21 58 34 91 34c52 0 89 -48 89 -102c0 -80 -86 -117 -147 -169c-15 -13 -24 -38 -45 -38
c-13 0 -23 11 -23 25z" fill="currentColor"/>
<rect transform="translate(32.3724, 8.7053)" x="-0.0650" y="-2.8139" width="0.1300" height="0.0000" ry="0.0000" fill="currentColor"/>
<a style="color:inherit;" xlink:href="textedit:///Users/mbp-15_touch/Dropbox/tesis/GenoMus/ly/harmony/lilypond_framework_examples_GenoMus.ly:27:5:6">
<path transform="translate(32.3074, 16.7053) scale(0.0040, -0.0040)" d="M213 112c-50 0 -69 -43 -69 -88c0 -77 57 -136 134 -136c50 0 69 43 69 88c0 77 -57 136 -134 136zM491 0c0 -43 -34 -75 -72 -96c-53 -29 -114 -40 -174 -40s-120 11 -173 40c-38 21 -72 53 -72 96s34 75 72 96c53 29 113 40 173 40s121 -11 174 -40
c38 -21 72 -53 72 -96z" fill="currentColor"/>
</a>
<path transform="translate(15.0264, 16.7053) scale(0.0040, -0.0040)" d="M557 -125c0 28 23 51 51 51s51 -23 51 -51s-23 -51 -51 -51s-51 23 -51 51zM557 125c0 28 23 51 51 51s51 -23 51 -51s-23 -51 -51 -51s-51 23 -51 51zM232 263c172 0 293 -88 293 -251c0 -263 -263 -414 -516 -521c-3 -3 -6 -4 -9 -4c-7 0 -13 6 -13 13c0 3 1 6 4 9
c202 118 412 265 412 493c0 120 -63 235 -171 235c-74 0 -129 -54 -154 -126c11 5 22 8 34 8c55 0 100 -45 100 -100c0 -58 -44 -106 -100 -106c-60 0 -112 47 -112 106c0 133 102 244 232 244z" fill="currentColor"/>
<rect transform="translate(21.2656, 8.7053)" x="-0.0650" y="1.8139" width="0.1300" height="0.0000" ry="0.0000" fill="currentColor"/>
<a style="color:inherit;" xlink:href="textedit:///Users/mbp-15_touch/Dropbox/tesis/GenoMus/ly/harmony/lilypond_framework_examples_GenoMus.ly:27:2:3">
<path transform="translate(20.0264, 18.7053) scale(0.0040, -0.0040)" d="M213 112c-50 0 -69 -43 -69 -88c0 -77 57 -136 134 -136c50 0 69 43 69 88c0 77 -57 136 -134 136zM491 0c0 -43 -34 -75 -72 -96c-53 -29 -114 -40 -174 -40s-120 11 -173 40c-38 21 -72 53 -72 96s34 75 72 96c53 29 113 40 173 40s121 -11 174 -40
c38 -21 72 -53 72 -96z" fill="currentColor"/>
</a>
<path transform="translate(15.0264, 9.7053) scale(0.0040, -0.0040)" d="M376 262c4 0 9 1 13 1c155 0 256 -128 256 -261c0 -76 -33 -154 -107 -210c-22 -17 -47 -28 -73 -36c3 -35 5 -70 5 -105c0 -19 -1 -39 -2 -58c-7 -120 -90 -228 -208 -228c-108 0 -195 88 -195 197c0 58 53 103 112 103c54 0 95 -47 95 -103c0 -52 -43 -95 -95 -95
c-11 0 -21 2 -31 6c26 -39 68 -65 117 -65c96 0 157 92 163 191c1 18 2 37 2 55c0 31 -1 61 -4 92c-29 -5 -58 -8 -89 -8c-188 0 -333 172 -333 374c0 177 131 306 248 441c-19 62 -37 125 -45 190c-6 52 -7 104 -7 156c0 115 55 224 149 292c3 2 7 3 10 3c4 0 7 0 10 -3
c71 -84 133 -245 133 -358c0 -143 -86 -255 -180 -364c21 -68 39 -138 56 -207zM461 -203c68 24 113 95 113 164c0 90 -66 179 -173 190c24 -116 46 -231 60 -354zM74 28c0 -135 129 -247 264 -247c28 0 55 2 82 6c-14 127 -37 245 -63 364c-79 -8 -124 -61 -124 -119
c0 -44 25 -91 81 -123c5 -5 7 -10 7 -15c0 -11 -10 -22 -22 -22c-3 0 -6 1 -9 2c-80 43 -117 115 -117 185c0 88 58 174 160 197c-14 58 -29 117 -46 175c-107 -121 -213 -243 -213 -403zM408 1045c-99 -48 -162 -149 -162 -259c0 -74 18 -133 36 -194
c80 97 146 198 146 324c0 55 -4 79 -20 129z" fill="currentColor"/>
<a style="color:inherit;" xlink:href="textedit:///Users/mbp-15_touch/Dropbox/tesis/GenoMus/ly/harmony/lilypond_framework_examples_GenoMus.ly:13:3:4">
<path transform="translate(20.0264, 10.7053) scale(0.0040, -0.0040)" d="M218 136c55 0 108 -28 108 -89c0 -71 -55 -121 -102 -149c-35 -21 -75 -34 -116 -34c-55 0 -108 28 -108 89c0 71 55 121 102 149c35 21 75 34 116 34z" fill="currentColor"/>
</a>
<rect transform="translate(14.1664, 13.2053)" x="0.0000" y="-6.5500" width="0.1600" height="13.1000" ry="0.0500" fill="currentColor"/>
<path transform="translate(13.8664, 13.2053) scale(0.0040, -0.0040)" d="M-15 -498c0 -261 -102 -516 -102 -765c0 -135 30 -261 129 -360c3 -3 3 -9 3 -12c0 -9 -6 -18 -15 -18c-3 0 -9 3 -12 6c-132 135 -177 312 -177 501c0 267 108 528 108 780c0 135 -33 261 -129 360c-3 3 -3 3 -3 6s0 3 3 6c96 99 129 225 129 360
c0 252 -108 513 -108 780c0 189 45 366 177 501c3 3 9 6 12 6c9 0 15 -9 15 -18c0 -3 0 -9 -3 -12c-99 -99 -129 -225 -129 -360c0 -249 102 -504 102 -765c0 -186 -45 -363 -174 -498c129 -135 174 -312 174 -498z" fill="currentColor"/>
<a style="color:inherit;" xlink:href="textedit:///Users/mbp-15_touch/Dropbox/tesis/GenoMus/ly/harmony/lilypond_framework_examples_GenoMus.ly:13:40:41">
<path transform="translate(44.6684, 10.2053) scale(0.0040, -0.0040)" d="M213 112c-50 0 -69 -43 -69 -88c0 -77 57 -136 134 -136c50 0 69 43 69 88c0 77 -57 136 -134 136zM491 0c0 -43 -34 -75 -72 -96c-53 -29 -114 -40 -174 -40s-120 11 -173 40c-38 21 -72 53 -72 96s34 75 72 96c53 29 113 40 173 40s121 -11 174 -40
c38 -21 72 -53 72 -96z" fill="currentColor"/>
</a>
<path transform="translate(41.9184, 11.7053) scale(0.0040, -0.0040)" d="M216 -312c0 -10 -8 -19 -18 -19s-19 9 -19 19v145l-83 -31v-158c0 -10 -9 -19 -19 -19s-18 9 -18 19v145l-32 -12c-2 -1 -5 -1 -7 -1c-11 0 -20 9 -20 20v60c0 8 5 16 13 19l46 16v160l-32 -11c-2 -1 -5 -1 -7 -1c-11 0 -20 9 -20 20v60c0 8 5 15 13 18l46 17v158
c0 10 8 19 18 19s19 -9 19 -19v-145l83 31v158c0 10 9 19 19 19s18 -9 18 -19v-145l32 12c2 1 5 1 7 1c11 0 20 -9 20 -20v-60c0 -8 -5 -16 -13 -19l-46 -16v-160l32 11c2 1 5 1 7 1c11 0 20 -9 20 -20v-60c0 -8 -5 -15 -13 -18l-46 -17v-158zM96 65v-160l83 30v160z" fill="currentColor"/>
<a style="color:inherit;" xlink:href="textedit:///Users/mbp-15_touch/Dropbox/tesis/GenoMus/ly/harmony/lilypond_framework_examples_GenoMus.ly:27:14:15">
<path transform="translate(44.6684, 16.7053) scale(0.0040, -0.0040)" d="M213 112c-50 0 -69 -43 -69 -88c0 -77 57 -136 134 -136c50 0 69 43 69 88c0 77 -57 136 -134 136zM491 0c0 -43 -34 -75 -72 -96c-53 -29 -114 -40 -174 -40s-120 11 -173 40c-38 21 -72 53 -72 96s34 75 72 96c53 29 113 40 173 40s121 -11 174 -40
c38 -21 72 -53 72 -96z" fill="currentColor"/>
</a>
<a style="color:inherit;" xlink:href="textedit:///Users/mbp-15_touch/Dropbox/tesis/GenoMus/ly/harmony/lilypond_framework_examples_GenoMus.ly:27:12:13">
<path transform="translate(44.6684, 17.7053) scale(0.0040, -0.0040)" d="M213 112c-50 0 -69 -43 -69 -88c0 -77 57 -136 134 -136c50 0 69 43 69 88c0 77 -57 136 -134 136zM491 0c0 -43 -34 -75 -72 -96c-53 -29 -114 -40 -174 -40s-120 11 -173 40c-38 21 -72 53 -72 96s34 75 72 96c53 29 113 40 173 40s121 -11 174 -40
c38 -21 72 -53 72 -96z" fill="currentColor"/>
</a>
<a style="color:inherit;" xlink:href="textedit:///Users/mbp-15_touch/Dropbox/tesis/GenoMus/ly/harmony/lilypond_framework_examples_GenoMus.ly:13:46:47">
<path transform="translate(44.6684, 8.7053) scale(0.0040, -0.0040)" d="M213 112c-50 0 -69 -43 -69 -88c0 -77 57 -136 134 -136c50 0 69 43 69 88c0 77 -57 136 -134 136zM491 0c0 -43 -34 -75 -72 -96c-53 -29 -114 -40 -174 -40s-120 11 -173 40c-38 21 -72 53 -72 96s34 75 72 96c53 29 113 40 173 40s121 -11 174 -40
c38 -21 72 -53 72 -96z" fill="currentColor"/>
</a>
<a style="color:inherit;" xlink:href="textedit:///Users/mbp-15_touch/Dropbox/tesis/GenoMus/ly/harmony/lilypond_framework_examples_GenoMus.ly:13:44:45">
<path transform="translate(46.3704, 9.7053) scale(0.0040, -0.0040)" d="M213 112c-50 0 -69 -43 -69 -88c0 -77 57 -136 134 -136c50 0 69 43 69 88c0 77 -57 136 -134 136zM491 0c0 -43 -34 -75 -72 -96c-53 -29 -114 -40 -174 -40s-120 11 -173 40c-38 21 -72 53 -72 96s34 75 72 96c53 29 113 40 173 40s121 -11 174 -40
c38 -21 72 -53 72 -96z" fill="currentColor"/>
</a>
<a style="color:inherit;" xlink:href="textedit:///Users/mbp-15_touch/Dropbox/tesis/GenoMus/ly/harmony/lilypond_framework_examples_GenoMus.ly:13:35:36">
<path transform="translate(44.6684, 11.7053) scale(0.0040, -0.0040)" d="M213 112c-50 0 -69 -43 -69 -88c0 -77 57 -136 134 -136c50 0 69 43 69 88c0 77 -57 136 -134 136zM491 0c0 -43 -34 -75 -72 -96c-53 -29 -114 -40 -174 -40s-120 11 -173 40c-38 21 -72 53 -72 96s34 75 72 96c53 29 113 40 173 40s121 -11 174 -40
c38 -21 72 -53 72 -96z" fill="currentColor"/>
</a>
<path transform="translate(40.2737, 8.7053) scale(0.0040, -0.0040)" d="M-8 375c8 4 17 7 26 7s16 -3 24 -7l-2 -183l106 20h3c10 0 18 -7 18 -17l7 -570c-8 -4 -16 -7 -25 -7s-17 3 -25 7l3 183l-106 -20h-3c-10 0 -18 7 -18 17zM131 112l-92 -17l-3 -207l92 17z" fill="currentColor"/>
<rect transform="translate(41.3791, 8.7053)" x="-0.0650" y="0.1861" width="0.1300" height="0.0000" ry="0.0000" fill="currentColor"/>
</svg>
