<?xml version="1.0" encoding="UTF-8" standalone="no"?>
<svg
   xmlns:dc="http://purl.org/dc/elements/1.1/"
   xmlns:cc="http://creativecommons.org/ns#"
   xmlns:rdf="http://www.w3.org/1999/02/22-rdf-syntax-ns#"
   xmlns:svg="http://www.w3.org/2000/svg"
   xmlns="http://www.w3.org/2000/svg"
   xmlns:xlink="http://www.w3.org/1999/xlink"
   xmlns:sodipodi="http://sodipodi.sourceforge.net/DTD/sodipodi-0.dtd"
   xmlns:inkscape="http://www.inkscape.org/namespaces/inkscape"
   version="1.2"
   width="14.83127mm"
   height="16.413345mm"
   viewBox="0 0 8.439812 9.3400998"
   id="svg2"
   inkscape:version="0.91 r13725"
   sodipodi:docname="ex1_score.svg">
  <metadata
     id="metadata46">
    <rdf:RDF>
      <cc:Work
         rdf:about="">
        <dc:format>image/svg+xml</dc:format>
        <dc:type
           rdf:resource="http://purl.org/dc/dcmitype/StillImage" />
        <dc:title></dc:title>
      </cc:Work>
    </rdf:RDF>
  </metadata>
  <defs
     id="defs44" />
  <sodipodi:namedview
     pagecolor="#ffffff"
     bordercolor="#666666"
     borderopacity="1"
     objecttolerance="10"
     gridtolerance="10"
     guidetolerance="10"
     inkscape:pageopacity="0"
     inkscape:pageshadow="2"
     inkscape:window-width="1780"
     inkscape:window-height="970"
     id="namedview42"
     showgrid="false"
     fit-margin-top="0"
     fit-margin-left="0"
     fit-margin-right="0"
     fit-margin-bottom="0"
     inkscape:zoom="7.1762364"
     inkscape:cx="49.526964"
     inkscape:cy="25.22402"
     inkscape:window-x="1114"
     inkscape:window-y="321"
     inkscape:window-maximized="0"
     inkscape:current-layer="svg2" />
  <!-- Page: 1/1 -->
  <text
     font-size="2.2001"
     id="text4"
     style="font-size:2.20009995px;font-family:serif;text-anchor:start;fill:currentColor"
     x="-8.5350876"
     y="-1">
    <tspan
       id="tspan6" />
  </text>
  <line
     x1="0.050712124"
     y1="5.776"
     x2="8.2549124"
     y2="5.776"
     id="line8"
     style="stroke:currentColor;stroke-width:0.1;stroke-linecap:round;stroke-linejoin:round" />
  <line
     x1="0.050712124"
     y1="4.776"
     x2="8.2549124"
     y2="4.776"
     id="line10"
     style="stroke:currentColor;stroke-width:0.1;stroke-linecap:round;stroke-linejoin:round" />
  <line
     x1="0.050712124"
     y1="3.776"
     x2="8.2549124"
     y2="3.776"
     id="line12"
     style="stroke:currentColor;stroke-width:0.1;stroke-linecap:round;stroke-linejoin:round" />
  <line
     x1="0.050712124"
     y1="2.776"
     x2="8.2549124"
     y2="2.776"
     id="line14"
     style="stroke:currentColor;stroke-width:0.1;stroke-linecap:round;stroke-linejoin:round" />
  <line
     x1="0.050712124"
     y1="1.776"
     x2="8.2549124"
     y2="1.776"
     id="line16"
     style="stroke:currentColor;stroke-width:0.1;stroke-linecap:round;stroke-linejoin:round" />
  <path
     d="m 7.1049121,2.816 c 0,0.788 0.828,1.344 0.828,2.132 0,0.284 -0.06,0.564 -0.164,0.828 -0.02,0.032 -0.052,0.048 -0.08,0.048 -0.052,0 -0.104,-0.044 -0.092,-0.108 0.104,-0.244 0.168,-0.504 0.168,-0.768 0,-0.412 -0.376,-0.832 -0.66,-1.132 l -0.064,0 0,-1 0.064,0 z"
     id="path18"
     inkscape:connector-curvature="0"
     style="fill:currentColor" />
  <rect
     x="6.9749122"
     y="2.776"
     width="0.13"
     height="3.3139"
     ry="0.039999999"
     id="rect20"
     style="fill:currentColor" />
  <a
     style="color:inherit"
     xlink:href="textedit:///var/folders/_g/5m8jwnh13xl4zfc1dyffj2bw0000gn/T/frescobaldi-9hrf01x0/tmpsx5jvrvw/lilypond_framework_examples_GenoMus.ly:8:2:3"
     id="a22"
     transform="translate(-14.225688,-3.8453)" />
  <path
     d="m 2.3047121,3.728 c 0.016,0 0.036,-0.004 0.052,-0.004 0.62,0 1.024,0.512 1.024,1.044 0,0.304 -0.132,0.616 -0.428,0.84 -0.088,0.068 -0.188,0.112 -0.292,0.144 0.012,0.14 0.02,0.28 0.02,0.42 0,0.076 -0.004,0.156 -0.008,0.232 -0.028,0.48 -0.36,0.912 -0.832,0.912 -0.432,0 -0.78,-0.352 -0.78,-0.788 0,-0.232 0.212,-0.412 0.448,-0.412 0.216,0 0.38,0.188 0.38,0.412 0,0.208 -0.172,0.38 -0.38,0.38 -0.044,0 -0.084,-0.008 -0.124,-0.024 0.104,0.156 0.272,0.26 0.468,0.26 0.384,0 0.628,-0.368 0.652,-0.764 0.004,-0.072 0.008,-0.148 0.008,-0.22 0,-0.124 -0.004,-0.244 -0.016,-0.368 -0.116,0.02 -0.232,0.032 -0.356,0.032 -0.752,0 -1.33199998,-0.688 -1.33199998,-1.496 0,-0.708 0.52399998,-1.224 0.99199998,-1.764 -0.076,-0.248 -0.148,-0.5 -0.18,-0.76 -0.024,-0.208 -0.028,-0.416 -0.028,-0.624 0,-0.46 0.22,-0.896 0.596,-1.168 0.012,-0.008 0.028,-0.012 0.04,-0.012 0.016,0 0.028,0 0.04,0.012 0.284,0.336 0.532,0.98 0.532,1.432 0,0.572 -0.344,1.02 -0.72,1.456 0.084,0.272 0.156,0.552 0.224,0.828 z m 0.34,1.86 c 0.272,-0.096 0.452,-0.38 0.452,-0.656 0,-0.36 -0.264,-0.716 -0.692,-0.76 0.096,0.464 0.184,0.924 0.24,1.416 z m -1.548,-0.924 c 0,0.54 0.516,0.988 1.056,0.988 0.112,0 0.22,-0.008 0.328,-0.024 -0.056,-0.508 -0.148,-0.98 -0.252,-1.456 -0.316,0.032 -0.496,0.244 -0.496,0.476 0,0.176 0.1,0.364 0.324,0.492 0.02,0.02 0.028,0.04 0.028,0.06 0,0.044 -0.04,0.088 -0.088,0.088 -0.012,0 -0.024,-0.004 -0.036,-0.008 -0.32,-0.172 -0.468,-0.46 -0.468,-0.74 0,-0.352 0.232,-0.696 0.64,-0.788 -0.056,-0.232 -0.116,-0.468 -0.184,-0.7 -0.428,0.484 -0.852,0.972 -0.852,1.612 z m 1.336,-4.068 c -0.396,0.192 -0.648,0.596 -0.648,1.036 0,0.296 0.072,0.532 0.144,0.776 0.32,-0.388 0.584,-0.792 0.584,-1.296 0,-0.22 -0.016,-0.316 -0.08,-0.516 z"
     id="path24"
     inkscape:connector-curvature="0"
     style="fill:currentColor" />
  <a
     style="color:inherit"
     xlink:href="textedit:///var/folders/_g/5m8jwnh13xl4zfc1dyffj2bw0000gn/T/frescobaldi-9hrf01x0/tmpsx5jvrvw/lilypond_framework_examples_GenoMus.ly:17:5:6"
     id="a26"
     transform="translate(-14.225688,-3.8453)">
    <g
       transform="translate(19.1762,12.4934)"
       id="g28">
      <path
         transform="scale(0.004,-0.004)"
         d="m -41,146 c 26,76 82,153 149,153 22,0 36,-20 41,-45 22,26 51,45 81,45 23,0 38,-21 44,-46 22,27 51,46 80,46 33,0 59,-35 59,-69 0,-5 -1,-10 -2,-15 L 376,66 c 0,-2 -1,-4 -1,-5 0,-5 2,-8 7,-8 9,0 27,11 48,31 4,4 9,6 13,6 6,0 11,-4 11,-10 0,-4 -3,-8 -7,-12 -40,-38 -85,-75 -131,-75 -20,0 -32,13 -32,32 0,4 0,7 1,11 l 39,165 c 1,5 2,9 2,14 0,10 -4,18 -14,18 -16,0 -33,-16 -39,-32 L 220,18 C 217,8 208,0 198,0 l -41,0 c -10,0 -16,8 -13,18 l 52,183 c 2,6 3,11 3,16 0,9 -4,16 -13,16 -16,0 -35,-15 -41,-32 L 83,18 C 80,8 69,0 59,0 L 18,0 C 8,0 3,8 6,18 l 63,183 c 2,5 2,10 2,15 0,10 -3,17 -13,17 -29,0 -54,-53 -66,-87 -4,-11 -15,-17 -23,-17 -7,0 -12,4 -12,11 0,2 1,4 2,6 z"
         id="path30"
         inkscape:connector-curvature="0"
         style="fill:currentColor" />
      <path
         transform="matrix(0.004,0,0,-0.004,1.7413,0)"
         d="M 253,245 203,82 C 173,-17 82,-173 -15,-173 c -45,0 -87,27 -87,69 0,39 17,77 52,77 24,0 44,-20 44,-44 0,-30 -38,-24 -38,-54 0,-10 11,-11 23,-11 l 6,0 c 48,0 61,58 73,108 l 68,273 -49,0 c -11,0 -19,8 -19,19 0,11 8,19 19,19 l 60,0 c 32,96 118,191 213,191 45,0 87,-27 87,-69 0,-39 -17,-77 -52,-77 -24,0 -44,19 -44,43 0,30 38,25 38,55 0,10 -10,11 -22,11 l -7,0 c -62,0 -70,-88 -86,-154 l 55,0 c 11,0 19,-8 19,-19 0,-11 -8,-19 -19,-19 l -66,0 z"
         id="path32"
         inkscape:connector-curvature="0"
         style="fill:currentColor" />
    </g>
  </a>
  <a
     style="color:inherit"
     xlink:href="textedit:///var/folders/_g/5m8jwnh13xl4zfc1dyffj2bw0000gn/T/frescobaldi-9hrf01x0/tmpsx5jvrvw/lilypond_framework_examples_GenoMus.ly:17:2:3"
     id="a34"
     transform="translate(-14.225688,-3.8453)">
    <path
       transform="matrix(0.004,0,0,-0.004,20.0264,10.1213)"
       d="m 218,136 c 55,0 108,-28 108,-89 0,-71 -55,-121 -102,-149 -35,-21 -75,-34 -116,-34 -55,0 -108,28 -108,89 0,71 55,121 102,149 35,21 75,34 116,34 z"
       id="path36"
       inkscape:connector-curvature="0"
       style="fill:currentColor" />
  </a>
  <text
     font-size="2.2001"
     id="text38"
     style="font-size:2.20009995px;font-family:serif;text-anchor:start;fill:currentColor"
     x="-4.5671878"
     y="3.776">
    <tspan
       id="tspan40" />
  </text>
</svg>
