<?xml version="1.0" encoding="UTF-8" standalone="no"?>
<svg
   xmlns:dc="http://purl.org/dc/elements/1.1/"
   xmlns:cc="http://creativecommons.org/ns#"
   xmlns:rdf="http://www.w3.org/1999/02/22-rdf-syntax-ns#"
   xmlns:svg="http://www.w3.org/2000/svg"
   xmlns="http://www.w3.org/2000/svg"
   xmlns:xlink="http://www.w3.org/1999/xlink"
   version="1.2"
   width="34.252254mm"
   height="7.6881819mm"
   viewBox="0 0 19.491425 4.375"
   id="svg2">
  <metadata
     id="metadata50">
    <rdf:RDF>
      <cc:Work
         rdf:about="">
        <dc:format>image/svg+xml</dc:format>
        <dc:type
           rdf:resource="http://purl.org/dc/dcmitype/StillImage" />
        <dc:title></dc:title>
      </cc:Work>
    </rdf:RDF>
  </metadata>
  <defs
     id="defs48" />
  <!-- Page: 1/1 -->
  <text
     font-size="2.2001"
     id="text4"
     style="font-size:2.20009995px;font-family:serif;text-anchor:start;fill:currentColor"
     x="0.00071212446"
     y="-1">
    <tspan
       id="tspan6" />
  </text>
  <line
     x1="0.050712124"
     y1="1"
     x2="19.440712"
     y2="1"
     id="line8"
     style="stroke:currentColor;stroke-width:0.1;stroke-linecap:round;stroke-linejoin:round" />
  <path
     d="m 14.612212,4.335 -0.064,0 0,-1 0.064,0 c 0.388,-0.236 0.896,-0.592 0.896,-1.036 0,-0.228 -0.06,-0.448 -0.16,-0.652 -0.012,-0.064 0.04,-0.108 0.092,-0.108 0.028,0 0.06,0.012 0.08,0.044 0.1,0.224 0.16,0.468 0.16,0.716 0,0.812 -1.068,1.224 -1.068,2.036 z"
     id="path10"
     style="fill:currentColor" />
  <a
     style="color:inherit"
     xlink:href="textedit:///var/folders/_g/5m8jwnh13xl4zfc1dyffj2bw0000gn/T/frescobaldi-b52ul3fj/tmpjsjwci68/prolatio_examples.ly:23:10:11"
     id="a12"
     transform="translate(-5.6898879,-3.8453)">
    <path
       transform="matrix(0.004,0,0,-0.004,22.6763,4.8453)"
       d="m 218,136 c 55,0 108,-28 108,-89 0,-71 -55,-121 -102,-149 -35,-21 -75,-34 -116,-34 -55,0 -108,28 -108,89 0,71 55,121 102,149 35,21 75,34 116,34 z"
       id="path14"
       style="fill:currentColor" />
  </a>
  <rect
     x="16.986412"
     y="1.1861"
     width="0.13"
     height="3.1889"
     ry="0.039999999"
     id="rect16"
     style="fill:currentColor" />
  <path
     d="m 17.116412,4.335 -0.064,0 0,-1 0.064,0 c 0.388,-0.236 0.896,-0.592 0.896,-1.036 0,-0.228 -0.06,-0.448 -0.16,-0.652 -0.012,-0.064 0.04,-0.108 0.092,-0.108 0.028,0 0.06,0.012 0.08,0.044 0.1,0.224 0.16,0.468 0.16,0.716 0,0.812 -1.068,1.224 -1.068,2.036 z"
     id="path18"
     style="fill:currentColor" />
  <a
     style="color:inherit"
     xlink:href="textedit:///var/folders/_g/5m8jwnh13xl4zfc1dyffj2bw0000gn/T/frescobaldi-b52ul3fj/tmpjsjwci68/prolatio_examples.ly:23:6:7"
     id="a20"
     transform="translate(-5.6898879,-3.8453)">
    <path
       transform="matrix(0.004,0,0,-0.004,15.1948,4.8453)"
       d="m 314,65 c 0,24 -21,41 -42,41 -4,0 -8,0 -12,-1 C 229,96 182,65 145,41 108,17 61,-12 41,-37 34,-45 31,-55 31,-65 c 0,-24 21,-41 42,-41 4,0 8,0 12,1 31,9 77,40 114,64 37,24 84,53 104,78 7,8 11,18 11,28 z m -52,71 c 46,0 82,-21 82,-71 0,-19 -4,-39 -10,-57 -12,-37 -32,-72 -64,-94 -53,-36 -113,-50 -187,-50 -46,0 -83,21 -83,71 0,19 5,39 11,57 12,37 31,72 63,94 53,36 114,50 188,50 z"
       id="path22"
       style="fill:currentColor" />
  </a>
  <rect
     x="9.5049124"
     y="1.2590001"
     width="0.13"
     height="3.0743001"
     ry="0.039999999"
     id="rect24"
     style="fill:currentColor" />
  <a
     style="color:inherit"
     xlink:href="textedit:///var/folders/_g/5m8jwnh13xl4zfc1dyffj2bw0000gn/T/frescobaldi-b52ul3fj/tmpjsjwci68/prolatio_examples.ly:23:8:9"
     id="a26"
     transform="translate(-5.6898879,-3.8453)">
    <path
       transform="matrix(0.004,0,0,-0.004,20.1721,4.8453)"
       d="m 218,136 c 55,0 108,-28 108,-89 0,-71 -55,-121 -102,-149 -35,-21 -75,-34 -116,-34 -55,0 -108,28 -108,89 0,71 55,121 102,149 35,21 75,34 116,34 z"
       id="path28"
       style="fill:currentColor" />
  </a>
  <rect
     x="14.482212"
     y="1.1861"
     width="0.13"
     height="3.1889"
     ry="0.039999999"
     id="rect30"
     style="fill:currentColor" />
  <text
     font-size="2.2001"
     id="text32"
     style="font-size:2.20009995px;font-family:serif;text-anchor:start;fill:currentColor"
     x="-0.29928789"
     y="1">
    <tspan
       id="tspan34" />
  </text>
  <a
     style="color:inherit"
     xlink:href="textedit:///var/folders/_g/5m8jwnh13xl4zfc1dyffj2bw0000gn/T/frescobaldi-b52ul3fj/tmpjsjwci68/prolatio_examples.ly:23:2:3"
     id="a36"
     transform="translate(-5.6898879,-3.8453)">
    <path
       transform="matrix(0.004,0,0,-0.004,11.4906,4.8453)"
       d="m 218,136 c 55,0 108,-28 108,-89 0,-71 -55,-121 -102,-149 -35,-21 -75,-34 -116,-34 -55,0 -108,28 -108,89 0,71 55,121 102,149 35,21 75,34 116,34 z"
       id="path38"
       style="fill:currentColor" />
  </a>
  <path
     d="m 2.0907121,2 -0.368,0 c -0.024,0 -0.04,-0.016 -0.04,-0.04 l 0,-1.92 c 0,-0.024 0.016,-0.04 0.04,-0.04 l 0.368,0 c 0.024,0 0.04,0.016 0.04,0.04 l 0,1.92 c 0,0.024 -0.016,0.04 -0.04,0.04 z m -0.88,0 -0.37199998,0 c -0.024,0 -0.04,-0.016 -0.04,-0.04 l 0,-1.92 c 0,-0.024 0.016,-0.04 0.04,-0.04 L 1.2107121,0 c 0.024,0 0.04,0.016 0.04,0.04 l 0,1.92 c 0,0.024 -0.016,0.04 -0.04,0.04 z"
     id="path40"
     style="fill:currentColor" />
  <a
     style="color:inherit"
     xlink:href="textedit:///var/folders/_g/5m8jwnh13xl4zfc1dyffj2bw0000gn/T/frescobaldi-b52ul3fj/tmpjsjwci68/prolatio_examples.ly:8:2:3"
     id="a42"
     transform="translate(-5.6898879,-3.8453)" />
  <rect
     x="5.8007121"
     y="1.1861"
     width="0.13"
     height="3.1472001"
     ry="0.039999999"
     id="rect44"
     style="fill:currentColor" />
</svg>
