<?xml version="1.0" encoding="UTF-8" standalone="no"?>
<svg
   xmlns:dc="http://purl.org/dc/elements/1.1/"
   xmlns:cc="http://creativecommons.org/ns#"
   xmlns:rdf="http://www.w3.org/1999/02/22-rdf-syntax-ns#"
   xmlns:svg="http://www.w3.org/2000/svg"
   xmlns="http://www.w3.org/2000/svg"
   xmlns:xlink="http://www.w3.org/1999/xlink"
   id="svg2"
   viewBox="0 0 66.324328 9.1216625"
   height="16.029486mm"
   width="116.55165mm"
   version="1.2">
  <metadata
     id="metadata176">
    <rdf:RDF>
      <cc:Work
         rdf:about="">
        <dc:format>image/svg+xml</dc:format>
        <dc:type
           rdf:resource="http://purl.org/dc/dcmitype/StillImage" />
        <dc:title></dc:title>
      </cc:Work>
    </rdf:RDF>
  </metadata>
  <defs
     id="defs174" />
  <!-- Page: 1/1 -->
  <text
     y="-1"
     x="0.00071212446"
     style="font-size:2.20009995px;font-family:serif;text-anchor:start;fill:currentColor"
     id="text4"
     font-size="2.2001">
    <tspan
       id="tspan6" />
  </text>
  <line
     style="stroke:currentColor;stroke-width:0.1;stroke-linecap:round;stroke-linejoin:round"
     id="line8"
     y2="1"
     x2="66.273613"
     y1="1"
     x1="0.050712124" />
  <a
     transform="translate(-5.6898879,-3.8453)"
     id="a10"
     xlink:href="textedit:///var/folders/_g/5m8jwnh13xl4zfc1dyffj2bw0000gn/T/frescobaldi-b52ul3fj/tmpjsjwci68/prolatio_examples.ly:24:101:102"
     style="color:inherit">
    <path
       style="fill:currentColor"
       id="path12"
       d="m 218,136 c 55,0 108,-28 108,-89 0,-71 -55,-121 -102,-149 -35,-21 -75,-34 -116,-34 -55,0 -108,28 -108,89 0,71 55,121 102,149 35,21 75,34 116,34 z"
       transform="matrix(0.004,0,0,-0.004,60.5974,4.8453)" />
  </a>
  <a
     transform="translate(-5.6898879,-3.8453)"
     id="a14"
     xlink:href="textedit:///var/folders/_g/5m8jwnh13xl4zfc1dyffj2bw0000gn/T/frescobaldi-b52ul3fj/tmpjsjwci68/prolatio_examples.ly:24:75:76"
     style="color:inherit">
    <path
       style="fill:currentColor"
       id="path16"
       d="m 218,136 c 55,0 108,-28 108,-89 0,-71 -55,-121 -102,-149 -35,-21 -75,-34 -116,-34 -55,0 -108,28 -108,89 0,71 55,121 102,149 35,21 75,34 116,34 z"
       transform="matrix(0.004,0,0,-0.004,41.4375,4.8453)" />
  </a>
  <rect
     style="fill:currentColor"
     id="rect18"
     ry="0.039999999"
     height="3.3139"
     width="0.13"
     y="1.1861"
     x="49.697514" />
  <path
     style="fill:currentColor"
     id="path20"
     d="m 51.451712,0.5 c 0,-0.124 0.1,-0.224 0.224,-0.224 0.124,0 0.224,0.1 0.224,0.224 0,0.124 -0.1,0.224 -0.224,0.224 -0.124,0 -0.224,-0.1 -0.224,-0.224 z" />
  <a
     transform="translate(-5.6898879,-3.8453)"
     id="a22"
     xlink:href="textedit:///var/folders/_g/5m8jwnh13xl4zfc1dyffj2bw0000gn/T/frescobaldi-b52ul3fj/tmpjsjwci68/prolatio_examples.ly:24:97:98"
     style="color:inherit">
    <path
       style="fill:currentColor"
       id="path24"
       d="m 218,136 c 55,0 108,-28 108,-89 0,-71 -55,-121 -102,-149 -35,-21 -75,-34 -116,-34 -55,0 -108,28 -108,89 0,71 55,121 102,149 35,21 75,34 116,34 z"
       transform="matrix(0.004,0,0,-0.004,55.3874,4.8453)" />
  </a>
  <rect
     style="fill:currentColor"
     id="rect26"
     ry="0.039999999"
     height="3.3139"
     width="0.13"
     y="1.1861"
     x="42.238213" />
  <a
     transform="translate(-5.6898879,-3.8453)"
     id="a28"
     xlink:href="textedit:///var/folders/_g/5m8jwnh13xl4zfc1dyffj2bw0000gn/T/frescobaldi-b52ul3fj/tmpjsjwci68/prolatio_examples.ly:24:80:81"
     style="color:inherit">
    <path
       style="fill:currentColor"
       id="path30"
       d="m 218,136 c 55,0 108,-28 108,-89 0,-71 -55,-121 -102,-149 -35,-21 -75,-34 -116,-34 -55,0 -108,28 -108,89 0,71 55,121 102,149 35,21 75,34 116,34 z"
       transform="matrix(0.004,0,0,-0.004,47.9281,4.8453)" />
  </a>
  <rect
     style="fill:currentColor"
     id="rect32"
     ry="0.039999999"
     height="2.8139"
     width="0.13"
     y="1.1861"
     x="5.8007121" />
  <rect
     style="fill:currentColor"
     id="rect34"
     ry="0.039999999"
     height="4.8139"
     width="0.13"
     y="1.1861"
     x="35.747612" />
  <a
     transform="translate(-5.6898879,-3.8453)"
     id="a36"
     xlink:href="textedit:///var/folders/_g/5m8jwnh13xl4zfc1dyffj2bw0000gn/T/frescobaldi-b52ul3fj/tmpjsjwci68/prolatio_examples.ly:24:30:31"
     style="color:inherit">
    <polygon
       style="fill:currentColor;stroke:currentColor;stroke-width:0.08;stroke-linecap:round;stroke-linejoin:round"
       id="polygon38"
       points="0.04,-0.2 7.163,-0.2 7.163,0.2 0.04,0.2 "
       transform="translate(11.4906,7.8453)" />
  </a>
  <a
     transform="translate(-5.6898879,-3.8453)"
     id="a40"
     xlink:href="textedit:///var/folders/_g/5m8jwnh13xl4zfc1dyffj2bw0000gn/T/frescobaldi-b52ul3fj/tmpjsjwci68/prolatio_examples.ly:24:15:16"
     style="color:inherit" />
  <a
     transform="translate(-5.6898879,-3.8453)"
     id="a42"
     xlink:href="textedit:///var/folders/_g/5m8jwnh13xl4zfc1dyffj2bw0000gn/T/frescobaldi-b52ul3fj/tmpjsjwci68/prolatio_examples.ly:24:15:16"
     style="color:inherit">
    <text
       style="font-style:italic;font-size:1.74609995px;font-family:serif;text-anchor:start;fill:currentColor"
       id="text44"
       font-size="1.7461"
       font-style="italic"
       transform="translate(14.6482,9.7657)">
      <tspan
         style="font-style:italic;font-variant:normal;font-weight:normal;font-stretch:normal;font-family:'Times New Roman';-inkscape-font-specification:'Times New Roman,  Italic'"
         id="tspan46">5</tspan>
    </text>
  </a>
  <a
     transform="translate(-5.6898879,-6.0936999)"
     id="a48"
     xlink:href="textedit:///var/folders/_g/5m8jwnh13xl4zfc1dyffj2bw0000gn/T/frescobaldi-b52ul3fj/tmpjsjwci68/prolatio_examples.ly:24:2:3"
     style="color:inherit">
    <line
       style="stroke:currentColor;stroke-width:0.16;stroke-linecap:round;stroke-linejoin:round"
       id="line50"
       y2="-0.69999999"
       x2="55.144901"
       y1="0"
       x1="55.144901"
       transform="translate(11.4906,14.6144)" />
    <line
       style="stroke:currentColor;stroke-width:0.16;stroke-linecap:round;stroke-linejoin:round"
       id="line52"
       y2="-0.69999999"
       x2="-0.2"
       y1="0"
       x1="-0.2"
       transform="translate(11.4906,14.6144)" />
    <line
       style="stroke:currentColor;stroke-width:0.16;stroke-linecap:round;stroke-linejoin:round"
       id="line54"
       y2="0"
       x2="28.5163"
       y1="0"
       x1="55.144901"
       transform="translate(11.4906,14.6144)" />
    <line
       style="stroke:currentColor;stroke-width:0.16;stroke-linecap:round;stroke-linejoin:round"
       id="line56"
       y2="0"
       x2="26.628599"
       y1="0"
       x1="-0.2"
       transform="translate(11.4906,14.6144)" />
  </a>
  <a
     transform="translate(-5.6898879,-6.0936999)"
     id="a58"
     xlink:href="textedit:///var/folders/_g/5m8jwnh13xl4zfc1dyffj2bw0000gn/T/frescobaldi-b52ul3fj/tmpjsjwci68/prolatio_examples.ly:24:2:3"
     style="color:inherit">
    <text
       style="font-style:italic;font-size:1.74609995px;font-family:serif;text-anchor:start;fill:currentColor"
       id="text60"
       font-size="1.7461"
       font-style="italic"
       transform="translate(38.5191,15.1949)">
      <tspan
         style="font-style:italic;font-variant:normal;font-weight:normal;font-stretch:normal;font-family:'Times New Roman';-inkscape-font-specification:'Times New Roman,  Italic'"
         id="tspan62">3</tspan>
    </text>
  </a>
  <a
     transform="translate(-5.6898879,-3.8453)"
     id="a64"
     xlink:href="textedit:///var/folders/_g/5m8jwnh13xl4zfc1dyffj2bw0000gn/T/frescobaldi-b52ul3fj/tmpjsjwci68/prolatio_examples.ly:24:67:68"
     style="color:inherit">
    <polygon
       style="fill:currentColor;stroke:currentColor;stroke-width:0.08;stroke-linecap:round;stroke-linejoin:round"
       id="polygon66"
       points="0.04,-0.2 1.125,-0.2 1.125,0.2 0.04,0.2 "
       transform="translate(26.3386,6.3519)" />
    <polygon
       style="fill:currentColor;stroke:currentColor;stroke-width:0.08;stroke-linecap:round;stroke-linejoin:round"
       id="polygon68"
       points="0.04,-0.2 1.125,-0.2 1.125,0.2 0.04,0.2 "
       transform="translate(26.3386,7.2253)" />
    <polygon
       style="fill:currentColor;stroke:currentColor;stroke-width:0.08;stroke-linecap:round;stroke-linejoin:round"
       id="polygon70"
       points="0.04,-0.2 2.5942,-0.2 2.5942,0.2 0.04,0.2 "
       transform="translate(26.3386,8.0986)" />
    <polygon
       style="fill:currentColor;stroke:currentColor;stroke-width:0.08;stroke-linecap:round;stroke-linejoin:round"
       id="polygon72"
       points="0.04,-0.2 1.125,-0.2 1.125,0.2 0.04,0.2 "
       transform="translate(40.4025,8.9719)" />
    <polygon
       style="fill:currentColor;stroke:currentColor;stroke-width:0.08;stroke-linecap:round;stroke-linejoin:round"
       id="polygon74"
       points="0.04,-0.2 2.5942,-0.2 2.5942,0.2 0.04,0.2 "
       transform="translate(26.3386,8.9719)" />
    <polygon
       style="fill:currentColor;stroke:currentColor;stroke-width:0.08;stroke-linecap:round;stroke-linejoin:round"
       id="polygon76"
       points="0.04,-0.2 15.1889,-0.2 15.1889,0.2 0.04,0.2 "
       transform="translate(26.3386,9.8453)" />
  </a>
  <a
     transform="translate(-5.6898879,-3.8453)"
     id="a78"
     xlink:href="textedit:///var/folders/_g/5m8jwnh13xl4zfc1dyffj2bw0000gn/T/frescobaldi-b52ul3fj/tmpjsjwci68/prolatio_examples.ly:24:51:52"
     style="color:inherit">
    <line
       style="stroke:currentColor;stroke-width:0.16;stroke-linecap:round;stroke-linejoin:round"
       id="line80"
       y2="-0.69999999"
       x2="2.8341999"
       y1="0"
       x1="2.8341999"
       transform="translate(26.3386,11.1853)" />
    <line
       style="stroke:currentColor;stroke-width:0.16;stroke-linecap:round;stroke-linejoin:round"
       id="line82"
       y2="-0.69999999"
       x2="-0.2"
       y1="0"
       x1="-0.2"
       transform="translate(26.3386,11.1853)" />
    <line
       style="stroke:currentColor;stroke-width:0.16;stroke-linecap:round;stroke-linejoin:round"
       id="line84"
       y2="0"
       x2="2.3610001"
       y1="0"
       x1="2.8341999"
       transform="translate(26.3386,11.1853)" />
    <line
       style="stroke:currentColor;stroke-width:0.16;stroke-linecap:round;stroke-linejoin:round"
       id="line86"
       y2="0"
       x2="0.47319999"
       y1="0"
       x1="-0.2"
       transform="translate(26.3386,11.1853)" />
  </a>
  <a
     transform="translate(-5.6898879,-3.8453)"
     id="a88"
     xlink:href="textedit:///var/folders/_g/5m8jwnh13xl4zfc1dyffj2bw0000gn/T/frescobaldi-b52ul3fj/tmpjsjwci68/prolatio_examples.ly:24:51:52"
     style="color:inherit">
    <text
       style="font-style:italic;font-size:1.74609995px;font-family:serif;text-anchor:start;fill:currentColor"
       id="text90"
       font-size="1.7461"
       font-style="italic"
       transform="translate(27.2118,11.7657)">
      <tspan
         style="font-style:italic;font-variant:normal;font-weight:normal;font-stretch:normal;font-family:'Times New Roman';-inkscape-font-specification:'Times New Roman, Italic'"
         id="tspan92">5</tspan>
    </text>
  </a>
  <a
     transform="translate(-5.6898879,-3.8453)"
     id="a94"
     xlink:href="textedit:///var/folders/_g/5m8jwnh13xl4zfc1dyffj2bw0000gn/T/frescobaldi-b52ul3fj/tmpjsjwci68/prolatio_examples.ly:24:37:38"
     style="color:inherit" />
  <a
     transform="translate(-5.6898879,-5.4513001)"
     id="a96"
     xlink:href="textedit:///var/folders/_g/5m8jwnh13xl4zfc1dyffj2bw0000gn/T/frescobaldi-b52ul3fj/tmpjsjwci68/prolatio_examples.ly:24:37:38"
     style="color:inherit">
    <text
       style="font-style:italic;font-size:1.74609995px;font-family:serif;text-anchor:start;fill:currentColor"
       id="text98"
       font-size="1.7461"
       font-style="italic"
       transform="translate(33.5092,13.4803)">
      <tspan
         style="font-style:italic;font-variant:normal;font-weight:normal;font-stretch:normal;font-family:'Times New Roman';-inkscape-font-specification:'Times New Roman,  Italic'"
         id="tspan100">7</tspan>
    </text>
  </a>
  <a
     transform="translate(-5.6898879,-3.8453)"
     id="a102"
     xlink:href="textedit:///var/folders/_g/5m8jwnh13xl4zfc1dyffj2bw0000gn/T/frescobaldi-b52ul3fj/tmpjsjwci68/prolatio_examples.ly:24:81:82"
     style="color:inherit">
    <polygon
       style="fill:currentColor;stroke:currentColor;stroke-width:0.08;stroke-linecap:round;stroke-linejoin:round"
       id="polygon104"
       points="0.04,-0.2 1.125,-0.2 1.125,0.2 0.04,0.2 "
       transform="translate(55.3874,6.7253)" />
    <polygon
       style="fill:currentColor;stroke:currentColor;stroke-width:0.08;stroke-linecap:round;stroke-linejoin:round"
       id="polygon106"
       points="0.04,-0.2 11.008,-0.2 11.008,0.2 0.04,0.2 "
       transform="translate(55.3874,7.5353)" />
    <polygon
       style="fill:currentColor;stroke:currentColor;stroke-width:0.08;stroke-linecap:round;stroke-linejoin:round"
       id="polygon108"
       points="0.04,-0.2 18.4674,-0.2 18.4674,0.2 0.04,0.2 "
       transform="translate(47.9281,8.3453)" />
  </a>
  <a
     transform="translate(-5.6898879,-3.8453)"
     id="a110"
     xlink:href="textedit:///var/folders/_g/5m8jwnh13xl4zfc1dyffj2bw0000gn/T/frescobaldi-b52ul3fj/tmpjsjwci68/prolatio_examples.ly:24:83:84"
     style="color:inherit">
    <line
       style="stroke:currentColor;stroke-width:0.16;stroke-linecap:round;stroke-linejoin:round"
       id="line112"
       y2="-0.69999999"
       x2="11.248"
       y1="0"
       x1="11.248"
       transform="translate(55.3874,9.6853)" />
    <line
       style="stroke:currentColor;stroke-width:0.16;stroke-linecap:round;stroke-linejoin:round"
       id="line114"
       y2="-0.69999999"
       x2="-0.2"
       y1="0"
       x1="-0.2"
       transform="translate(55.3874,9.6853)" />
    <line
       style="stroke:currentColor;stroke-width:0.16;stroke-linecap:round;stroke-linejoin:round"
       id="line116"
       y2="0"
       x2="6.9435"
       y1="0"
       x1="11.248"
       transform="translate(55.3874,9.6853)" />
    <line
       style="stroke:currentColor;stroke-width:0.16;stroke-linecap:round;stroke-linejoin:round"
       id="line118"
       y2="0"
       x2="4.3045998"
       y1="0"
       x1="-0.2"
       transform="translate(55.3874,9.6853)" />
  </a>
  <a
     transform="translate(-5.6898879,-3.8453)"
     id="a120"
     xlink:href="textedit:///var/folders/_g/5m8jwnh13xl4zfc1dyffj2bw0000gn/T/frescobaldi-b52ul3fj/tmpjsjwci68/prolatio_examples.ly:24:83:84"
     style="color:inherit">
    <text
       style="font-style:italic;font-size:1.74609995px;font-family:serif;text-anchor:start;fill:currentColor"
       id="text122"
       font-size="1.7461"
       font-style="italic"
       transform="translate(60.092,10.2828)">
      <tspan
         style="font-style:italic;font-variant:normal;font-weight:normal;font-stretch:normal;font-family:'Times New Roman';-inkscape-font-specification:'Times New Roman,  Italic'"
         id="tspan124">11</tspan>
    </text>
  </a>
  <rect
     style="fill:currentColor"
     id="rect126"
     ry="0.039999999"
     height="3.3139"
     width="0.13"
     y="1.1861"
     x="54.907513" />
  <rect
     style="fill:currentColor"
     id="rect128"
     ry="0.039999999"
     height="3.3139"
     width="0.13"
     y="1.1861"
     x="60.615513" />
  <a
     transform="translate(-5.6898879,-3.8453)"
     id="a130"
     xlink:href="textedit:///var/folders/_g/5m8jwnh13xl4zfc1dyffj2bw0000gn/T/frescobaldi-b52ul3fj/tmpjsjwci68/prolatio_examples.ly:24:104:105"
     style="color:inherit">
    <path
       style="fill:currentColor"
       id="path132"
       d="m 218,136 c 55,0 108,-28 108,-89 0,-71 -55,-121 -102,-149 -35,-21 -75,-34 -116,-34 -55,0 -108,28 -108,89 0,71 55,121 102,149 35,21 75,34 116,34 z"
       transform="matrix(0.004,0,0,-0.004,66.3054,4.8453)" />
  </a>
  <a
     transform="translate(-5.6898879,-3.8453)"
     id="a134"
     xlink:href="textedit:///var/folders/_g/5m8jwnh13xl4zfc1dyffj2bw0000gn/T/frescobaldi-b52ul3fj/tmpjsjwci68/prolatio_examples.ly:24:28:29"
     style="color:inherit">
    <path
       style="fill:currentColor"
       id="path136"
       d="m 218,136 c 55,0 108,-28 108,-89 0,-71 -55,-121 -102,-149 -35,-21 -75,-34 -116,-34 -55,0 -108,28 -108,89 0,71 55,121 102,149 35,21 75,34 116,34 z"
       transform="matrix(0.004,0,0,-0.004,11.4906,4.8453)" />
  </a>
  <rect
     style="fill:currentColor"
     id="rect138"
     ry="0.039999999"
     height="2.8139"
     width="0.13"
     y="1.1861"
     x="12.873713" />
  <path
     style="fill:currentColor"
     id="path140"
     d="m 14.627912,0.5 c 0,-0.124 0.1,-0.224 0.224,-0.224 0.124,0 0.224,0.1 0.224,0.224 0,0.124 -0.1,0.224 -0.224,0.224 -0.124,0 -0.224,-0.1 -0.224,-0.224 z" />
  <a
     transform="translate(-5.6898879,-3.8453)"
     id="a142"
     xlink:href="textedit:///var/folders/_g/5m8jwnh13xl4zfc1dyffj2bw0000gn/T/frescobaldi-b52ul3fj/tmpjsjwci68/prolatio_examples.ly:24:32:33"
     style="color:inherit">
    <path
       style="fill:currentColor"
       id="path144"
       d="m 218,136 c 55,0 108,-28 108,-89 0,-71 -55,-121 -102,-149 -35,-21 -75,-34 -116,-34 -55,0 -108,28 -108,89 0,71 55,121 102,149 35,21 75,34 116,34 z"
       transform="matrix(0.004,0,0,-0.004,18.5636,4.8453)" />
  </a>
  <a
     transform="translate(-5.6898879,-3.8453)"
     id="a146"
     xlink:href="textedit:///var/folders/_g/5m8jwnh13xl4zfc1dyffj2bw0000gn/T/frescobaldi-b52ul3fj/tmpjsjwci68/prolatio_examples.ly:8:2:3"
     style="color:inherit" />
  <path
     style="fill:currentColor"
     id="path148"
     d="m 2.0907121,2 -0.368,0 c -0.024,0 -0.04,-0.016 -0.04,-0.04 l 0,-1.92 c 0,-0.024 0.016,-0.04 0.04,-0.04 l 0.368,0 c 0.024,0 0.04,0.016 0.04,0.04 l 0,1.92 c 0,0.024 -0.016,0.04 -0.04,0.04 z m -0.88,0 -0.37199998,0 c -0.024,0 -0.04,-0.016 -0.04,-0.04 l 0,-1.92 c 0,-0.024 0.016,-0.04 0.04,-0.04 L 1.2107121,0 c 0.024,0 0.04,0.016 0.04,0.04 l 0,1.92 c 0,0.024 -0.016,0.04 -0.04,0.04 z" />
  <text
     y="1"
     x="-0.29928789"
     style="font-size:2.20009995px;font-family:serif;text-anchor:start;fill:currentColor"
     id="text150"
     font-size="2.2001">
    <tspan
       id="tspan152" />
  </text>
  <rect
     style="fill:currentColor"
     id="rect154"
     ry="0.039999999"
     height="4.8139"
     width="0.13"
     y="1.1861"
     x="23.152912" />
  <rect
     style="fill:currentColor"
     id="rect156"
     ry="0.039999999"
     height="4.8139"
     width="0.13"
     y="1.1861"
     x="28.057112" />
  <a
     transform="translate(-5.6898879,-3.8453)"
     id="a158"
     xlink:href="textedit:///var/folders/_g/5m8jwnh13xl4zfc1dyffj2bw0000gn/T/frescobaldi-b52ul3fj/tmpjsjwci68/prolatio_examples.ly:24:73:74"
     style="color:inherit">
    <path
       style="fill:currentColor"
       id="path160"
       d="m 218,136 c 55,0 108,-28 108,-89 0,-71 -55,-121 -102,-149 -35,-21 -75,-34 -116,-34 -55,0 -108,28 -108,89 0,71 55,121 102,149 35,21 75,34 116,34 z"
       transform="matrix(0.004,0,0,-0.004,33.747,4.8453)" />
  </a>
  <a
     transform="translate(-5.6898879,-3.8453)"
     id="a162"
     xlink:href="textedit:///var/folders/_g/5m8jwnh13xl4zfc1dyffj2bw0000gn/T/frescobaldi-b52ul3fj/tmpjsjwci68/prolatio_examples.ly:24:69:70"
     style="color:inherit">
    <path
       style="fill:currentColor"
       id="path164"
       d="m 218,136 c 55,0 108,-28 108,-89 0,-71 -55,-121 -102,-149 -35,-21 -75,-34 -116,-34 -55,0 -108,28 -108,89 0,71 55,121 102,149 35,21 75,34 116,34 z"
       transform="matrix(0.004,0,0,-0.004,28.8428,4.8453)" />
  </a>
  <a
     transform="translate(-5.6898879,-3.8453)"
     id="a166"
     xlink:href="textedit:///var/folders/_g/5m8jwnh13xl4zfc1dyffj2bw0000gn/T/frescobaldi-b52ul3fj/tmpjsjwci68/prolatio_examples.ly:24:64:65"
     style="color:inherit">
    <path
       style="fill:currentColor"
       id="path168"
       d="m 218,136 c 55,0 108,-28 108,-89 0,-71 -55,-121 -102,-149 -35,-21 -75,-34 -116,-34 -55,0 -108,28 -108,89 0,71 55,121 102,149 35,21 75,34 116,34 z"
       transform="matrix(0.004,0,0,-0.004,26.3386,4.8453)" />
  </a>
  <rect
     style="fill:currentColor"
     id="rect170"
     ry="0.039999999"
     height="4.8139"
     width="0.13"
     y="1.1861"
     x="20.648712" />
</svg>
