<?xml version="1.0" encoding="UTF-8" standalone="no"?>
<svg
   xmlns:dc="http://purl.org/dc/elements/1.1/"
   xmlns:cc="http://creativecommons.org/ns#"
   xmlns:rdf="http://www.w3.org/1999/02/22-rdf-syntax-ns#"
   xmlns:svg="http://www.w3.org/2000/svg"
   xmlns="http://www.w3.org/2000/svg"
   xmlns:xlink="http://www.w3.org/1999/xlink"
   id="svg2"
   viewBox="0 0 11.861425 2"
   height="3.5145974mm"
   width="20.844067mm"
   version="1.2">
  <metadata
     id="metadata26">
    <rdf:RDF>
      <cc:Work
         rdf:about="">
        <dc:format>image/svg+xml</dc:format>
        <dc:type
           rdf:resource="http://purl.org/dc/dcmitype/StillImage" />
        <dc:title></dc:title>
      </cc:Work>
    </rdf:RDF>
  </metadata>
  <defs
     id="defs24" />
  <!-- Page: 1/1 -->
  <text
     y="-1"
     x="0.00071212446"
     style="font-size:2.20009995px;font-family:serif;text-anchor:start;fill:currentColor"
     id="text4"
     font-size="2.2001">
    <tspan
       id="tspan6" />
  </text>
  <line
     style="stroke:currentColor;stroke-width:0.1;stroke-linecap:round;stroke-linejoin:round"
     id="line8"
     y2="1"
     x2="11.810713"
     y1="1"
     x1="0.050712124" />
  <a
     transform="translate(-5.6898879,-3.8453)"
     id="a10"
     xlink:href="textedit:///var/folders/_g/5m8jwnh13xl4zfc1dyffj2bw0000gn/T/frescobaldi-b52ul3fj/tmpjsjwci68/prolatio_examples.ly:8:2:3"
     style="color:inherit" />
  <path
     style="fill:currentColor"
     id="path12"
     d="m 2.0907121,2 -0.368,0 c -0.024,0 -0.04,-0.016 -0.04,-0.04 l 0,-1.92 c 0,-0.024 0.016,-0.04 0.04,-0.04 l 0.368,0 c 0.024,0 0.04,0.016 0.04,0.04 l 0,1.92 c 0,0.024 -0.016,0.04 -0.04,0.04 z m -0.88,0 -0.37199998,0 c -0.024,0 -0.04,-0.016 -0.04,-0.04 l 0,-1.92 c 0,-0.024 0.016,-0.04 0.04,-0.04 L 1.2107121,0 c 0.024,0 0.04,0.016 0.04,0.04 l 0,1.92 c 0,0.024 -0.016,0.04 -0.04,0.04 z" />
  <a
     transform="translate(-5.6898879,-3.8453)"
     id="a14"
     xlink:href="textedit:///var/folders/_g/5m8jwnh13xl4zfc1dyffj2bw0000gn/T/frescobaldi-b52ul3fj/tmpjsjwci68/prolatio_examples.ly:23:2:3"
     style="color:inherit">
    <path
       style="fill:currentColor"
       id="path16"
       d="m 213,112 c -50,0 -69,-43 -69,-88 0,-77 57,-136 134,-136 50,0 69,43 69,88 0,77 -57,136 -134,136 z M 491,0 c 0,-43 -34,-75 -72,-96 -53,-29 -114,-40 -174,-40 -60,0 -120,11 -173,40 -38,21 -72,53 -72,96 0,43 34,75 72,96 53,29 113,40 173,40 60,0 121,-11 174,-40 38,-21 72,-53 72,-96 z"
       transform="matrix(0.004,0,0,-0.004,11.4906,4.8453)" />
  </a>
  <text
     y="1"
     x="-0.29928789"
     style="font-size:2.20009995px;font-family:serif;text-anchor:start;fill:currentColor"
     id="text18"
     font-size="2.2001">
    <tspan
       id="tspan20" />
  </text>
</svg>
