<?xml version="1.0" encoding="UTF-8" standalone="no"?>
<svg
   xmlns:dc="http://purl.org/dc/elements/1.1/"
   xmlns:cc="http://creativecommons.org/ns#"
   xmlns:rdf="http://www.w3.org/1999/02/22-rdf-syntax-ns#"
   xmlns:svg="http://www.w3.org/2000/svg"
   xmlns="http://www.w3.org/2000/svg"
   xmlns:xlink="http://www.w3.org/1999/xlink"
   id="svg2"
   viewBox="0 0 34.407923 6.135125"
   height="10.781247mm"
   width="60.464996mm"
   version="1.2">
  <metadata
     id="metadata98">
    <rdf:RDF>
      <cc:Work
         rdf:about="">
        <dc:format>image/svg+xml</dc:format>
        <dc:type
           rdf:resource="http://purl.org/dc/dcmitype/StillImage" />
        <dc:title></dc:title>
      </cc:Work>
    </rdf:RDF>
  </metadata>
  <defs
     id="defs96" />
  <!-- Page: 1/1 -->
  <text
     y="-1"
     x="0.00071212446"
     style="font-size:2.20009995px;font-family:serif;text-anchor:start;fill:currentColor"
     id="text4"
     font-size="2.2001">
    <tspan
       id="tspan6" />
  </text>
  <line
     style="stroke:currentColor;stroke-width:0.1;stroke-linecap:round;stroke-linejoin:round"
     id="line8"
     y2="1"
     x2="34.357212"
     y1="1"
     x1="0.050712124" />
  <rect
     style="fill:currentColor"
     id="rect10"
     ry="0.039999999"
     height="2.8139"
     width="0.13"
     y="1.1861"
     x="13.209112" />
  <a
     transform="translate(-5.6898879,-3.8453)"
     id="a12"
     xlink:href="textedit:///var/folders/_g/5m8jwnh13xl4zfc1dyffj2bw0000gn/T/frescobaldi-b52ul3fj/tmpjsjwci68/prolatio_examples.ly:23:22:23"
     style="color:inherit">
    <path
       style="fill:currentColor"
       id="path14"
       d="m 218,136 c 55,0 108,-28 108,-89 0,-71 -55,-121 -102,-149 -35,-21 -75,-34 -116,-34 -55,0 -108,28 -108,89 0,71 55,121 102,149 35,21 75,34 116,34 z"
       transform="matrix(0.004,0,0,-0.004,18.899,4.8453)" />
  </a>
  <rect
     style="fill:currentColor"
     id="rect16"
     ry="0.039999999"
     height="2.8139"
     width="0.13"
     y="1.1861"
     x="9.5049124" />
  <a
     transform="translate(-5.6898879,-3.8453)"
     id="a18"
     xlink:href="textedit:///var/folders/_g/5m8jwnh13xl4zfc1dyffj2bw0000gn/T/frescobaldi-b52ul3fj/tmpjsjwci68/prolatio_examples.ly:23:20:21"
     style="color:inherit">
    <path
       style="fill:currentColor"
       id="path20"
       d="m 218,136 c 55,0 108,-28 108,-89 0,-71 -55,-121 -102,-149 -35,-21 -75,-34 -116,-34 -55,0 -108,28 -108,89 0,71 55,121 102,149 35,21 75,34 116,34 z"
       transform="matrix(0.004,0,0,-0.004,15.1948,4.8453)" />
  </a>
  <rect
     style="fill:currentColor"
     id="rect22"
     ry="0.039999999"
     height="3.0039001"
     width="0.13"
     y="1.1861"
     x="31.903011" />
  <a
     transform="translate(-5.6898879,-3.8453)"
     id="a24"
     xlink:href="textedit:///var/folders/_g/5m8jwnh13xl4zfc1dyffj2bw0000gn/T/frescobaldi-b52ul3fj/tmpjsjwci68/prolatio_examples.ly:23:46:47"
     style="color:inherit">
    <path
       style="fill:currentColor"
       id="path26"
       d="m 218,136 c 55,0 108,-28 108,-89 0,-71 -55,-121 -102,-149 -35,-21 -75,-34 -116,-34 -55,0 -108,28 -108,89 0,71 55,121 102,149 35,21 75,34 116,34 z"
       transform="matrix(0.004,0,0,-0.004,37.5929,4.8453)" />
  </a>
  <a
     transform="translate(-5.6898879,-3.8453)"
     id="a28"
     xlink:href="textedit:///var/folders/_g/5m8jwnh13xl4zfc1dyffj2bw0000gn/T/frescobaldi-b52ul3fj/tmpjsjwci68/prolatio_examples.ly:23:18:19"
     style="color:inherit">
    <polygon
       style="fill:currentColor;stroke:currentColor;stroke-width:0.08;stroke-linecap:round;stroke-linejoin:round"
       id="polygon30"
       points="0.04,-0.2 7.4984,-0.2 7.4984,0.2 0.04,0.2 "
       transform="translate(11.4906,7.8453)" />
  </a>
  <a
     transform="translate(-5.6898879,-3.8453)"
     id="a32"
     xlink:href="textedit:///var/folders/_g/5m8jwnh13xl4zfc1dyffj2bw0000gn/T/frescobaldi-b52ul3fj/tmpjsjwci68/prolatio_examples.ly:23:26:27"
     style="color:inherit">
    <path
       style="fill:currentColor"
       id="path34"
       d="m 314,65 c 0,24 -21,41 -42,41 -4,0 -8,0 -12,-1 C 229,96 182,65 145,41 108,17 61,-12 41,-37 34,-45 31,-55 31,-65 c 0,-24 21,-41 42,-41 4,0 8,0 12,1 31,9 77,40 114,64 37,24 84,53 104,78 7,8 11,18 11,28 z m -52,71 c 46,0 82,-21 82,-71 0,-19 -4,-39 -10,-57 -12,-37 -32,-72 -64,-94 -53,-36 -113,-50 -187,-50 -46,0 -83,21 -83,71 0,19 5,39 11,57 12,37 31,72 63,94 53,36 114,50 188,50 z"
       transform="matrix(0.004,0,0,-0.004,22.6032,4.8453)" />
  </a>
  <rect
     style="fill:currentColor"
     id="rect36"
     ry="0.039999999"
     height="3.0743001"
     width="0.13"
     y="1.2590001"
     x="16.913313" />
  <a
     transform="translate(-5.6898879,-3.8453)"
     id="a38"
     xlink:href="textedit:///var/folders/_g/5m8jwnh13xl4zfc1dyffj2bw0000gn/T/frescobaldi-b52ul3fj/tmpjsjwci68/prolatio_examples.ly:23:28:29"
     style="color:inherit">
    <path
       style="fill:currentColor"
       id="path40"
       d="m 218,136 c 55,0 108,-28 108,-89 0,-71 -55,-121 -102,-149 -35,-21 -75,-34 -116,-34 -55,0 -108,28 -108,89 0,71 55,121 102,149 35,21 75,34 116,34 z"
       transform="matrix(0.004,0,0,-0.004,29.4825,4.8453)" />
  </a>
  <rect
     style="fill:currentColor"
     id="rect42"
     ry="0.039999999"
     height="3.0039001"
     width="0.13"
     y="1.1861"
     x="23.792612" />
  <a
     transform="translate(-5.6898879,-3.8453)"
     id="a44"
     xlink:href="textedit:///var/folders/_g/5m8jwnh13xl4zfc1dyffj2bw0000gn/T/frescobaldi-b52ul3fj/tmpjsjwci68/prolatio_examples.ly:23:31:32"
     style="color:inherit">
    <text
       style="font-style:italic;font-size:1.74609995px;font-family:serif;text-anchor:start;fill:currentColor"
       id="text46"
       font-size="1.7461"
       font-style="italic"
       transform="translate(35.3619,9.9557)">
      <tspan
         id="tspan48">3</tspan>
    </text>
  </a>
  <a
     transform="translate(-5.6898879,-3.8453)"
     id="a50"
     xlink:href="textedit:///var/folders/_g/5m8jwnh13xl4zfc1dyffj2bw0000gn/T/frescobaldi-b52ul3fj/tmpjsjwci68/prolatio_examples.ly:23:31:32"
     style="color:inherit">
    <line
       style="stroke:currentColor;stroke-width:0.16;stroke-linecap:round;stroke-linejoin:round"
       id="line52"
       y2="-0.69999999"
       x2="4.0342002"
       y1="0"
       x1="4.0342002"
       transform="translate(33.8887,9.3753)" />
    <line
       style="stroke:currentColor;stroke-width:0.16;stroke-linecap:round;stroke-linejoin:round"
       id="line54"
       y2="-0.69999999"
       x2="-0.2"
       y1="0"
       x1="-0.2"
       transform="translate(33.8887,9.3753)" />
    <line
       style="stroke:currentColor;stroke-width:0.16;stroke-linecap:round;stroke-linejoin:round"
       id="line56"
       y2="0"
       x2="2.961"
       y1="0"
       x1="4.0342002"
       transform="translate(33.8887,9.3753)" />
    <line
       style="stroke:currentColor;stroke-width:0.16;stroke-linecap:round;stroke-linejoin:round"
       id="line58"
       y2="0"
       x2="1.0732"
       y1="0"
       x1="-0.2"
       transform="translate(33.8887,9.3753)" />
  </a>
  <a
     transform="translate(-5.6898879,-3.8453)"
     id="a60"
     xlink:href="textedit:///var/folders/_g/5m8jwnh13xl4zfc1dyffj2bw0000gn/T/frescobaldi-b52ul3fj/tmpjsjwci68/prolatio_examples.ly:23:29:30"
     style="color:inherit">
    <polygon
       style="fill:currentColor;stroke:currentColor;stroke-width:0.08;stroke-linecap:round;stroke-linejoin:round"
       id="polygon62"
       points="0.04,-0.2 1.125,-0.2 1.125,0.2 0.04,0.2 "
       transform="translate(36.5579,7.2253)" />
    <polygon
       style="fill:currentColor;stroke:currentColor;stroke-width:0.08;stroke-linecap:round;stroke-linejoin:round"
       id="polygon64"
       points="0.04,-0.2 8.2004,-0.2 8.2004,0.2 0.04,0.2 "
       transform="translate(29.4825,8.0353)" />
  </a>
  <a
     transform="translate(-5.6898879,-3.8453)"
     id="a66"
     xlink:href="textedit:///var/folders/_g/5m8jwnh13xl4zfc1dyffj2bw0000gn/T/frescobaldi-b52ul3fj/tmpjsjwci68/prolatio_examples.ly:23:2:3"
     style="color:inherit">
    <text
       style="font-style:italic;font-size:1.74609995px;font-family:serif;text-anchor:start;fill:currentColor"
       id="text68"
       font-size="1.7461"
       font-style="italic"
       transform="translate(14.8159,9.7657)">
      <tspan
         id="tspan70">3</tspan>
    </text>
  </a>
  <a
     transform="translate(-5.6898879,-3.8453)"
     id="a72"
     xlink:href="textedit:///var/folders/_g/5m8jwnh13xl4zfc1dyffj2bw0000gn/T/frescobaldi-b52ul3fj/tmpjsjwci68/prolatio_examples.ly:23:2:3"
     style="color:inherit" />
  <a
     transform="translate(-5.6898879,-3.8453)"
     id="a74"
     xlink:href="textedit:///var/folders/_g/5m8jwnh13xl4zfc1dyffj2bw0000gn/T/frescobaldi-b52ul3fj/tmpjsjwci68/prolatio_examples.ly:8:2:3"
     style="color:inherit" />
  <rect
     style="fill:currentColor"
     id="rect76"
     ry="0.039999999"
     height="2.8139"
     width="0.13"
     y="1.1861"
     x="5.8007121" />
  <path
     style="fill:currentColor"
     id="path78"
     d="m 2.0907121,2 -0.368,0 c -0.024,0 -0.04,-0.016 -0.04,-0.04 l 0,-1.92 c 0,-0.024 0.016,-0.04 0.04,-0.04 l 0.368,0 c 0.024,0 0.04,0.016 0.04,0.04 l 0,1.92 c 0,0.024 -0.016,0.04 -0.04,0.04 z m -0.88,0 -0.37199998,0 c -0.024,0 -0.04,-0.016 -0.04,-0.04 l 0,-1.92 c 0,-0.024 0.016,-0.04 0.04,-0.04 L 1.2107121,0 c 0.024,0 0.04,0.016 0.04,0.04 l 0,1.92 c 0,0.024 -0.016,0.04 -0.04,0.04 z" />
  <a
     transform="translate(-5.6898879,-3.8453)"
     id="a80"
     xlink:href="textedit:///var/folders/_g/5m8jwnh13xl4zfc1dyffj2bw0000gn/T/frescobaldi-b52ul3fj/tmpjsjwci68/prolatio_examples.ly:23:15:16"
     style="color:inherit">
    <path
       style="fill:currentColor"
       id="path82"
       d="m 218,136 c 55,0 108,-28 108,-89 0,-71 -55,-121 -102,-149 -35,-21 -75,-34 -116,-34 -55,0 -108,28 -108,89 0,71 55,121 102,149 35,21 75,34 116,34 z"
       transform="matrix(0.004,0,0,-0.004,11.4906,4.8453)" />
  </a>
  <text
     y="1"
     x="-0.29928789"
     style="font-size:2.20009995px;font-family:serif;text-anchor:start;fill:currentColor"
     id="text84"
     font-size="2.2001">
    <tspan
       id="tspan86" />
  </text>
  <rect
     style="fill:currentColor"
     id="rect88"
     ry="0.039999999"
     height="3.0039001"
     width="0.13"
     y="1.1861"
     x="28.198812" />
  <a
     transform="translate(-5.6898879,-3.8453)"
     id="a90"
     xlink:href="textedit:///var/folders/_g/5m8jwnh13xl4zfc1dyffj2bw0000gn/T/frescobaldi-b52ul3fj/tmpjsjwci68/prolatio_examples.ly:23:44:45"
     style="color:inherit">
    <path
       style="fill:currentColor"
       id="path92"
       d="m 218,136 c 55,0 108,-28 108,-89 0,-71 -55,-121 -102,-149 -35,-21 -75,-34 -116,-34 -55,0 -108,28 -108,89 0,71 55,121 102,149 35,21 75,34 116,34 z"
       transform="matrix(0.004,0,0,-0.004,33.8887,4.8453)" />
  </a>
</svg>
