<?xml version="1.0" encoding="UTF-8" standalone="no"?>
<svg
   xmlns:dc="http://purl.org/dc/elements/1.1/"
   xmlns:cc="http://creativecommons.org/ns#"
   xmlns:rdf="http://www.w3.org/1999/02/22-rdf-syntax-ns#"
   xmlns:svg="http://www.w3.org/2000/svg"
   xmlns="http://www.w3.org/2000/svg"
   xmlns:xlink="http://www.w3.org/1999/xlink"
   id="svg2"
   viewBox="0 0 26.005523 6.135125"
   height="10.781247mm"
   width="45.699471mm"
   version="1.2">
  <metadata
     id="metadata86">
    <rdf:RDF>
      <cc:Work
         rdf:about="">
        <dc:format>image/svg+xml</dc:format>
        <dc:type
           rdf:resource="http://purl.org/dc/dcmitype/StillImage" />
        <dc:title></dc:title>
      </cc:Work>
    </rdf:RDF>
  </metadata>
  <defs
     id="defs84" />
  <!-- Page: 1/1 -->
  <text
     y="-1"
     x="0.00071212446"
     style="font-size:2.20009995px;font-family:serif;text-anchor:start;fill:currentColor"
     id="text4"
     font-size="2.2001">
    <tspan
       id="tspan6" />
  </text>
  <line
     style="stroke:currentColor;stroke-width:0.1;stroke-linecap:round;stroke-linejoin:round"
     id="line8"
     y2="1"
     x2="25.954811"
     y1="1"
     x1="0.050712124" />
  <a
     transform="translate(-5.6898879,-3.8453)"
     id="a10"
     xlink:href="textedit:///var/folders/_g/5m8jwnh13xl4zfc1dyffj2bw0000gn/T/frescobaldi-b52ul3fj/tmpjsjwci68/prolatio_examples.ly:24:24:25"
     style="color:inherit">
    <path
       style="fill:currentColor"
       id="path12"
       d="m 218,136 c 55,0 108,-28 108,-89 0,-71 -55,-121 -102,-149 -35,-21 -75,-34 -116,-34 -55,0 -108,28 -108,89 0,71 55,121 102,149 35,21 75,34 116,34 z"
       transform="matrix(0.004,0,0,-0.004,19.1736,4.8453)" />
  </a>
  <rect
     style="fill:currentColor"
     id="rect14"
     ry="0.039999999"
     height="3.0039001"
     width="0.13"
     y="1.1861"
     x="10.593112" />
  <a
     transform="translate(-5.6898879,-3.8453)"
     id="a16"
     xlink:href="textedit:///var/folders/_g/5m8jwnh13xl4zfc1dyffj2bw0000gn/T/frescobaldi-b52ul3fj/tmpjsjwci68/prolatio_examples.ly:24:7:8"
     style="color:inherit">
    <path
       style="fill:currentColor"
       id="path18"
       d="m 218,136 c 55,0 108,-28 108,-89 0,-71 -55,-121 -102,-149 -35,-21 -75,-34 -116,-34 -55,0 -108,28 -108,89 0,71 55,121 102,149 35,21 75,34 116,34 z"
       transform="matrix(0.004,0,0,-0.004,16.283,4.8453)" />
  </a>
  <rect
     style="fill:currentColor"
     id="rect20"
     ry="0.039999999"
     height="3.0039001"
     width="0.13"
     y="1.1861"
     x="23.500513" />
  <a
     transform="translate(-5.6898879,-3.8453)"
     id="a22"
     xlink:href="textedit:///var/folders/_g/5m8jwnh13xl4zfc1dyffj2bw0000gn/T/frescobaldi-b52ul3fj/tmpjsjwci68/prolatio_examples.ly:24:37:38"
     style="color:inherit">
    <path
       style="fill:currentColor"
       id="path24"
       d="m 218,136 c 55,0 108,-28 108,-89 0,-71 -55,-121 -102,-149 -35,-21 -75,-34 -116,-34 -55,0 -108,28 -108,89 0,71 55,121 102,149 35,21 75,34 116,34 z"
       transform="matrix(0.004,0,0,-0.004,29.1904,4.8453)" />
  </a>
  <a
     transform="translate(-5.6898879,-3.8453)"
     id="a26"
     xlink:href="textedit:///var/folders/_g/5m8jwnh13xl4zfc1dyffj2bw0000gn/T/frescobaldi-b52ul3fj/tmpjsjwci68/prolatio_examples.ly:24:5:6"
     style="color:inherit">
    <polygon
       style="fill:currentColor;stroke:currentColor;stroke-width:0.08;stroke-linecap:round;stroke-linejoin:round"
       id="polygon28"
       points="0.04,-0.2 1.125,-0.2 1.125,0.2 0.04,0.2 "
       transform="translate(15.248,7.2253)" />
    <polygon
       style="fill:currentColor;stroke:currentColor;stroke-width:0.08;stroke-linecap:round;stroke-linejoin:round"
       id="polygon30"
       points="0.04,-0.2 4.8825,-0.2 4.8825,0.2 0.04,0.2 "
       transform="translate(11.4906,8.0353)" />
  </a>
  <rect
     style="fill:currentColor"
     id="rect32"
     ry="0.039999999"
     height="3.0039001"
     width="0.13"
     y="1.1861"
     x="13.483712" />
  <a
     transform="translate(-5.6898879,-3.8453)"
     id="a34"
     xlink:href="textedit:///var/folders/_g/5m8jwnh13xl4zfc1dyffj2bw0000gn/T/frescobaldi-b52ul3fj/tmpjsjwci68/prolatio_examples.ly:24:28:29"
     style="color:inherit">
    <path
       style="fill:currentColor"
       id="path36"
       d="m 218,136 c 55,0 108,-28 108,-89 0,-71 -55,-121 -102,-149 -35,-21 -75,-34 -116,-34 -55,0 -108,28 -108,89 0,71 55,121 102,149 35,21 75,34 116,34 z"
       transform="matrix(0.004,0,0,-0.004,21.6778,4.8453)" />
  </a>
  <rect
     style="fill:currentColor"
     id="rect38"
     ry="0.039999999"
     height="3.0039001"
     width="0.13"
     y="1.1861"
     x="15.987912" />
  <a
     transform="translate(-5.6898879,-3.8453)"
     id="a40"
     xlink:href="textedit:///var/folders/_g/5m8jwnh13xl4zfc1dyffj2bw0000gn/T/frescobaldi-b52ul3fj/tmpjsjwci68/prolatio_examples.ly:24:31:32"
     style="color:inherit">
    <path
       style="fill:currentColor"
       id="path42"
       d="m 218,136 c 55,0 108,-28 108,-89 0,-71 -55,-121 -102,-149 -35,-21 -75,-34 -116,-34 -55,0 -108,28 -108,89 0,71 55,121 102,149 35,21 75,34 116,34 z"
       transform="matrix(0.004,0,0,-0.004,24.182,4.8453)" />
  </a>
  <rect
     style="fill:currentColor"
     id="rect44"
     ry="0.039999999"
     height="3.0039001"
     width="0.13"
     y="1.1861"
     x="18.492111" />
  <a
     transform="translate(-5.6898879,-3.8453)"
     id="a46"
     xlink:href="textedit:///var/folders/_g/5m8jwnh13xl4zfc1dyffj2bw0000gn/T/frescobaldi-b52ul3fj/tmpjsjwci68/prolatio_examples.ly:24:11:12"
     style="color:inherit">
    <text
       style="font-style:italic;font-size:1.74609995px;font-family:serif;text-anchor:start;fill:currentColor"
       id="text48"
       font-size="1.7461"
       font-style="italic"
       transform="translate(23.8031,9.9557)">
      <tspan
         id="tspan50">5</tspan>
    </text>
  </a>
  <a
     transform="translate(-5.6898879,-3.8453)"
     id="a52"
     xlink:href="textedit:///var/folders/_g/5m8jwnh13xl4zfc1dyffj2bw0000gn/T/frescobaldi-b52ul3fj/tmpjsjwci68/prolatio_examples.ly:24:11:12"
     style="color:inherit" />
  <a
     transform="translate(-5.6898879,-3.8453)"
     id="a54"
     xlink:href="textedit:///var/folders/_g/5m8jwnh13xl4zfc1dyffj2bw0000gn/T/frescobaldi-b52ul3fj/tmpjsjwci68/prolatio_examples.ly:24:26:27"
     style="color:inherit">
    <polygon
       style="fill:currentColor;stroke:currentColor;stroke-width:0.08;stroke-linecap:round;stroke-linejoin:round"
       id="polygon56"
       points="0.04,-0.2 10.1068,-0.2 10.1068,0.2 0.04,0.2 "
       transform="translate(19.1736,7.2253)" />
    <polygon
       style="fill:currentColor;stroke:currentColor;stroke-width:0.08;stroke-linecap:round;stroke-linejoin:round"
       id="polygon58"
       points="0.04,-0.2 10.1068,-0.2 10.1068,0.2 0.04,0.2 "
       transform="translate(19.1736,8.0353)" />
  </a>
  <a
     transform="translate(-5.6898879,-3.8453)"
     id="a60"
     xlink:href="textedit:///var/folders/_g/5m8jwnh13xl4zfc1dyffj2bw0000gn/T/frescobaldi-b52ul3fj/tmpjsjwci68/prolatio_examples.ly:8:2:3"
     style="color:inherit" />
  <rect
     style="fill:currentColor"
     id="rect62"
     ry="0.039999999"
     height="3.0039001"
     width="0.13"
     y="1.1861"
     x="5.8007121" />
  <path
     style="fill:currentColor"
     id="path64"
     d="m 7.5549121,0.5 c 0,-0.124 0.1,-0.224 0.224,-0.224 0.124,0 0.224,0.1 0.224,0.224 0,0.124 -0.1,0.224 -0.224,0.224 -0.124,0 -0.224,-0.1 -0.224,-0.224 z" />
  <path
     style="fill:currentColor"
     id="path66"
     d="m 2.0907121,2 -0.368,0 c -0.024,0 -0.04,-0.016 -0.04,-0.04 l 0,-1.92 c 0,-0.024 0.016,-0.04 0.04,-0.04 l 0.368,0 c 0.024,0 0.04,0.016 0.04,0.04 l 0,1.92 c 0,0.024 -0.016,0.04 -0.04,0.04 z m -0.88,0 -0.37199998,0 c -0.024,0 -0.04,-0.016 -0.04,-0.04 l 0,-1.92 c 0,-0.024 0.016,-0.04 0.04,-0.04 L 1.2107121,0 c 0.024,0 0.04,0.016 0.04,0.04 l 0,1.92 c 0,0.024 -0.016,0.04 -0.04,0.04 z" />
  <a
     transform="translate(-5.6898879,-3.8453)"
     id="a68"
     xlink:href="textedit:///var/folders/_g/5m8jwnh13xl4zfc1dyffj2bw0000gn/T/frescobaldi-b52ul3fj/tmpjsjwci68/prolatio_examples.ly:24:2:3"
     style="color:inherit">
    <path
       style="fill:currentColor"
       id="path70"
       d="m 218,136 c 55,0 108,-28 108,-89 0,-71 -55,-121 -102,-149 -35,-21 -75,-34 -116,-34 -55,0 -108,28 -108,89 0,71 55,121 102,149 35,21 75,34 116,34 z"
       transform="matrix(0.004,0,0,-0.004,11.4906,4.8453)" />
  </a>
  <text
     y="1"
     x="-0.29928789"
     style="font-size:2.20009995px;font-family:serif;text-anchor:start;fill:currentColor"
     id="text72"
     font-size="2.2001">
    <tspan
       id="tspan74" />
  </text>
  <rect
     style="fill:currentColor"
     id="rect76"
     ry="0.039999999"
     height="3.0039001"
     width="0.13"
     y="1.1861"
     x="20.996311" />
  <a
     transform="translate(-5.6898879,-3.8453)"
     id="a78"
     xlink:href="textedit:///var/folders/_g/5m8jwnh13xl4zfc1dyffj2bw0000gn/T/frescobaldi-b52ul3fj/tmpjsjwci68/prolatio_examples.ly:24:34:35"
     style="color:inherit">
    <path
       style="fill:currentColor"
       id="path80"
       d="m 218,136 c 55,0 108,-28 108,-89 0,-71 -55,-121 -102,-149 -35,-21 -75,-34 -116,-34 -55,0 -108,28 -108,89 0,71 55,121 102,149 35,21 75,34 116,34 z"
       transform="matrix(0.004,0,0,-0.004,26.6862,4.8453)" />
  </a>
</svg>
