<svg xmlns="http://www.w3.org/2000/svg" xmlns:xlink="http://www.w3.org/1999/xlink" version="1.2" width="210.00mm" height="297.00mm" viewBox="0 0 119.5016 169.0094">
<!-- Page: 1/1 -->
<text transform="translate(5.6906, 2.8453)" font-family="serif" font-size="2.2001" text-anchor="start" fill="currentColor">
<tspan/>
</text>
<line transform="translate(5.6906, 7.2203)" stroke-linejoin="round" stroke-linecap="round" stroke-width="0.1000" stroke="currentColor" x1="0.0500" y1="-0.0000" x2="101.8287" y2="-0.0000"/>
<path transform="translate(40.6733, 15.7703) scale(0.0040, -0.0040)" d="M0 0c0 31 25 56 56 56s56 -25 56 -56s-25 -56 -56 -56s-56 25 -56 56z" fill="currentColor"/>
<path transform="translate(40.6733, 16.6703) scale(0.0040, -0.0040)" d="M0 0c0 31 25 56 56 56s56 -25 56 -56s-25 -56 -56 -56s-56 25 -56 56z" fill="currentColor"/>
<path transform="translate(42.8133, 15.7703) scale(0.0040, -0.0040)" d="M0 0c0 31 25 56 56 56s56 -25 56 -56s-25 -56 -56 -56s-56 25 -56 56z" fill="currentColor"/>
<path transform="translate(42.8133, 16.6703) scale(0.0040, -0.0040)" d="M0 0c0 31 25 56 56 56s56 -25 56 -56s-25 -56 -56 -56s-56 25 -56 56z" fill="currentColor"/>
<rect transform="translate(41.9133, 16.2203)" x="0.0000" y="-1.1000" width="0.6000" height="2.1500" ry="0.0000" fill="currentColor"/>
<rect transform="translate(41.4233, 16.2203)" x="0.0000" y="-1.1000" width="0.1900" height="2.1500" ry="0.0000" fill="currentColor"/>
<rect transform="translate(41.9133, 3.8453)" x="0.0000" y="4.4250" width="0.6000" height="6.9500" ry="0.0000" fill="currentColor"/>
<rect transform="translate(41.4233, 3.8453)" x="0.0000" y="4.4250" width="0.1900" height="6.9500" ry="0.0000" fill="currentColor"/>
<path transform="translate(73.2773, 15.7703) scale(0.0040, -0.0040)" d="M0 0c0 31 25 56 56 56s56 -25 56 -56s-25 -56 -56 -56s-56 25 -56 56z" fill="currentColor"/>
<path transform="translate(73.2773, 16.6703) scale(0.0040, -0.0040)" d="M0 0c0 31 25 56 56 56s56 -25 56 -56s-25 -56 -56 -56s-56 25 -56 56z" fill="currentColor"/>
<path transform="translate(75.4173, 15.7703) scale(0.0040, -0.0040)" d="M0 0c0 31 25 56 56 56s56 -25 56 -56s-25 -56 -56 -56s-56 25 -56 56z" fill="currentColor"/>
<path transform="translate(75.4173, 16.6703) scale(0.0040, -0.0040)" d="M0 0c0 31 25 56 56 56s56 -25 56 -56s-25 -56 -56 -56s-56 25 -56 56z" fill="currentColor"/>
<rect transform="translate(74.5173, 16.2203)" x="0.0000" y="-1.1000" width="0.6000" height="2.1500" ry="0.0000" fill="currentColor"/>
<rect transform="translate(74.0273, 16.2203)" x="0.0000" y="-1.1000" width="0.1900" height="2.1500" ry="0.0000" fill="currentColor"/>
<rect transform="translate(9.4206, 3.8453)" x="0.0000" y="4.4250" width="0.1900" height="6.9500" ry="0.0000" fill="currentColor"/>
<rect transform="translate(8.5206, 3.8453)" x="0.0000" y="4.4250" width="0.6000" height="6.9500" ry="0.0000" fill="currentColor"/>
<path transform="translate(9.9106, 15.7703) scale(0.0040, -0.0040)" d="M0 0c0 31 25 56 56 56s56 -25 56 -56s-25 -56 -56 -56s-56 25 -56 56z" fill="currentColor"/>
<path transform="translate(9.9106, 16.6703) scale(0.0040, -0.0040)" d="M0 0c0 31 25 56 56 56s56 -25 56 -56s-25 -56 -56 -56s-56 25 -56 56z" fill="currentColor"/>
<rect transform="translate(9.4206, 16.2203)" x="0.0000" y="-1.1000" width="0.1900" height="2.1500" ry="0.0000" fill="currentColor"/>
<rect transform="translate(8.5206, 16.2203)" x="0.0000" y="-1.1000" width="0.6000" height="2.1500" ry="0.0000" fill="currentColor"/>
<rect transform="translate(74.5173, 3.8453)" x="0.0000" y="4.4250" width="0.6000" height="6.9500" ry="0.0000" fill="currentColor"/>
<rect transform="translate(74.0273, 3.8453)" x="0.0000" y="4.4250" width="0.1900" height="6.9500" ry="0.0000" fill="currentColor"/>
<path transform="translate(73.2773, 6.7703) scale(0.0040, -0.0040)" d="M0 0c0 31 25 56 56 56s56 -25 56 -56s-25 -56 -56 -56s-56 25 -56 56z" fill="currentColor"/>
<path transform="translate(73.2773, 7.6703) scale(0.0040, -0.0040)" d="M0 0c0 31 25 56 56 56s56 -25 56 -56s-25 -56 -56 -56s-56 25 -56 56z" fill="currentColor"/>
<path transform="translate(75.4173, 6.7703) scale(0.0040, -0.0040)" d="M0 0c0 31 25 56 56 56s56 -25 56 -56s-25 -56 -56 -56s-56 25 -56 56z" fill="currentColor"/>
<path transform="translate(75.4173, 7.6703) scale(0.0040, -0.0040)" d="M0 0c0 31 25 56 56 56s56 -25 56 -56s-25 -56 -56 -56s-56 25 -56 56z" fill="currentColor"/>
<rect transform="translate(74.5173, 7.2203)" x="0.0000" y="-1.0500" width="0.6000" height="2.1500" ry="0.0000" fill="currentColor"/>
<rect transform="translate(74.0273, 7.2203)" x="0.0000" y="-1.0500" width="0.1900" height="2.1500" ry="0.0000" fill="currentColor"/>
<path transform="translate(9.9106, 6.7703) scale(0.0040, -0.0040)" d="M0 0c0 31 25 56 56 56s56 -25 56 -56s-25 -56 -56 -56s-56 25 -56 56z" fill="currentColor"/>
<path transform="translate(9.9106, 7.6703) scale(0.0040, -0.0040)" d="M0 0c0 31 25 56 56 56s56 -25 56 -56s-25 -56 -56 -56s-56 25 -56 56z" fill="currentColor"/>
<rect transform="translate(9.4206, 7.2203)" x="0.0000" y="-1.0500" width="0.1900" height="2.1500" ry="0.0000" fill="currentColor"/>
<rect transform="translate(8.5206, 7.2203)" x="0.0000" y="-1.0500" width="0.6000" height="2.1500" ry="0.0000" fill="currentColor"/>
<path transform="translate(105.7292, 6.7703) scale(0.0040, -0.0040)" d="M0 0c0 31 25 56 56 56s56 -25 56 -56s-25 -56 -56 -56s-56 25 -56 56z" fill="currentColor"/>
<path transform="translate(105.7292, 7.6703) scale(0.0040, -0.0040)" d="M0 0c0 31 25 56 56 56s56 -25 56 -56s-25 -56 -56 -56s-56 25 -56 56z" fill="currentColor"/>
<rect transform="translate(106.9692, 7.2203)" x="0.0000" y="-1.0500" width="0.6000" height="2.1500" ry="0.0000" fill="currentColor"/>
<rect transform="translate(106.4792, 7.2203)" x="0.0000" y="-1.0500" width="0.1900" height="2.1500" ry="0.0000" fill="currentColor"/>
<path transform="translate(40.6733, 6.7703) scale(0.0040, -0.0040)" d="M0 0c0 31 25 56 56 56s56 -25 56 -56s-25 -56 -56 -56s-56 25 -56 56z" fill="currentColor"/>
<path transform="translate(40.6733, 7.6703) scale(0.0040, -0.0040)" d="M0 0c0 31 25 56 56 56s56 -25 56 -56s-25 -56 -56 -56s-56 25 -56 56z" fill="currentColor"/>
<path transform="translate(42.8133, 6.7703) scale(0.0040, -0.0040)" d="M0 0c0 31 25 56 56 56s56 -25 56 -56s-25 -56 -56 -56s-56 25 -56 56z" fill="currentColor"/>
<path transform="translate(42.8133, 7.6703) scale(0.0040, -0.0040)" d="M0 0c0 31 25 56 56 56s56 -25 56 -56s-25 -56 -56 -56s-56 25 -56 56z" fill="currentColor"/>
<rect transform="translate(41.9133, 7.2203)" x="0.0000" y="-1.0500" width="0.6000" height="2.1500" ry="0.0000" fill="currentColor"/>
<rect transform="translate(41.4233, 7.2203)" x="0.0000" y="-1.0500" width="0.1900" height="2.1500" ry="0.0000" fill="currentColor"/>
<path transform="translate(105.7292, 15.7703) scale(0.0040, -0.0040)" d="M0 0c0 31 25 56 56 56s56 -25 56 -56s-25 -56 -56 -56s-56 25 -56 56z" fill="currentColor"/>
<path transform="translate(105.7292, 16.6703) scale(0.0040, -0.0040)" d="M0 0c0 31 25 56 56 56s56 -25 56 -56s-25 -56 -56 -56s-56 25 -56 56z" fill="currentColor"/>
<rect transform="translate(106.9692, 16.2203)" x="0.0000" y="-1.1000" width="0.6000" height="2.1500" ry="0.0000" fill="currentColor"/>
<rect transform="translate(106.4792, 16.2203)" x="0.0000" y="-1.1000" width="0.1900" height="2.1500" ry="0.0000" fill="currentColor"/>
<rect transform="translate(106.9692, 3.8453)" x="0.0000" y="4.4250" width="0.6000" height="6.9500" ry="0.0000" fill="currentColor"/>
<rect transform="translate(106.4792, 3.8453)" x="0.0000" y="4.4250" width="0.1900" height="6.9500" ry="0.0000" fill="currentColor"/>
<line transform="translate(5.6906, 16.2203)" stroke-linejoin="round" stroke-linecap="round" stroke-width="0.1000" stroke="currentColor" x1="0.0500" y1="-0.0000" x2="101.8287" y2="-0.0000"/>
<a style="color:inherit;" xlink:href="textedit:///Users/mbp-15_touch/Dropbox/tesis/GenoMus/articles/GenoMus_grammar/clapping_music/score/clapping.ly:35:35:36">
<path transform="translate(38.4733, 16.2203) scale(0.0040, -0.0040)" d="M72 -250l117 326c-34 -12 -69 -22 -105 -22c-46 0 -87 33 -87 79c0 40 33 72 73 72c25 0 48 -15 56 -39c10 -28 6 -59 35 -59c16 0 54 48 61 63c6 12 23 12 28 0l-123 -420c-8 -7 -17 -10 -27 -10s-20 3 -28 10z" fill="currentColor"/>
</a>
<a style="color:inherit;" xlink:href="textedit:///Users/mbp-15_touch/Dropbox/tesis/GenoMus/articles/GenoMus_grammar/clapping_music/score/clapping.ly:24:11:12">
<path transform="translate(51.5238, 7.2203) scale(0.0040, -0.0040)" d="M72 -250l117 326c-34 -12 -69 -22 -105 -22c-46 0 -87 33 -87 79c0 40 33 72 73 72c25 0 48 -15 56 -39c10 -28 6 -59 35 -59c16 0 54 48 61 63c6 12 23 12 28 0l-123 -420c-8 -7 -17 -10 -27 -10s-20 3 -28 10z" fill="currentColor"/>
</a>
<rect transform="translate(44.2283, 16.2203)" x="-0.0650" y="0.1861" width="0.1300" height="2.8139" ry="0.0400" fill="currentColor"/>
<a style="color:inherit;" xlink:href="textedit:///Users/mbp-15_touch/Dropbox/tesis/GenoMus/articles/GenoMus_grammar/clapping_music/score/clapping.ly:23:35:36">
<path transform="translate(38.4733, 7.2203) scale(0.0040, -0.0040)" d="M72 -250l117 326c-34 -12 -69 -22 -105 -22c-46 0 -87 33 -87 79c0 40 33 72 73 72c25 0 48 -15 56 -39c10 -28 6 -59 35 -59c16 0 54 48 61 63c6 12 23 12 28 0l-123 -420c-8 -7 -17 -10 -27 -10s-20 3 -28 10z" fill="currentColor"/>
</a>
<rect transform="translate(45.4025, 7.2203)" x="-0.0650" y="-3.0000" width="0.1300" height="2.8139" ry="0.0400" fill="currentColor"/>
<a style="color:inherit;" xlink:href="textedit:///Users/mbp-15_touch/Dropbox/tesis/GenoMus/articles/GenoMus_grammar/clapping_music/score/clapping.ly:36:2:3">
<path transform="translate(44.1633, 16.2203) scale(0.0040, -0.0040)" d="M218 136c55 0 108 -28 108 -89c0 -71 -55 -121 -102 -149c-35 -21 -75 -34 -116 -34c-55 0 -108 28 -108 89c0 71 55 121 102 149c35 21 75 34 116 34z" fill="currentColor"/>
</a>
<a style="color:inherit;" xlink:href="textedit:///Users/mbp-15_touch/Dropbox/tesis/GenoMus/articles/GenoMus_grammar/clapping_music/score/clapping.ly:24:2:3">
<path transform="translate(44.1633, 7.2203) scale(0.0040, -0.0040)" d="M218 136c55 0 108 -28 108 -89c0 -71 -55 -121 -102 -149c-35 -21 -75 -34 -116 -34c-55 0 -108 28 -108 89c0 71 55 121 102 149c35 21 75 34 116 34z" fill="currentColor"/>
</a>
<a style="color:inherit;" xlink:href="textedit:///Users/mbp-15_touch/Dropbox/tesis/GenoMus/articles/GenoMus_grammar/clapping_music/score/clapping.ly:24:8:9">
<path transform="translate(49.1717, 7.2203) scale(0.0040, -0.0040)" d="M218 136c55 0 108 -28 108 -89c0 -71 -55 -121 -102 -149c-35 -21 -75 -34 -116 -34c-55 0 -108 28 -108 89c0 71 55 121 102 149c35 21 75 34 116 34z" fill="currentColor"/>
</a>
<a style="color:inherit;" xlink:href="textedit:///Users/mbp-15_touch/Dropbox/tesis/GenoMus/articles/GenoMus_grammar/clapping_music/score/clapping.ly:36:8:9">
<path transform="translate(49.1717, 16.2203) scale(0.0040, -0.0040)" d="M72 -250l117 326c-34 -12 -69 -22 -105 -22c-46 0 -87 33 -87 79c0 40 33 72 73 72c25 0 48 -15 56 -39c10 -28 6 -59 35 -59c16 0 54 48 61 63c6 12 23 12 28 0l-123 -420c-8 -7 -17 -10 -27 -10s-20 3 -28 10z" fill="currentColor"/>
</a>
<rect transform="translate(50.4109, 7.2203)" x="-0.0650" y="-3.0000" width="0.1300" height="2.8139" ry="0.0400" fill="currentColor"/>
<rect transform="translate(46.7325, 16.2203)" x="-0.0650" y="0.1861" width="0.1300" height="2.8139" ry="0.0400" fill="currentColor"/>
<rect transform="translate(47.9067, 7.2203)" x="-0.0650" y="-3.0000" width="0.1300" height="2.8139" ry="0.0400" fill="currentColor"/>
<a style="color:inherit;" xlink:href="textedit:///Users/mbp-15_touch/Dropbox/tesis/GenoMus/articles/GenoMus_grammar/clapping_music/score/clapping.ly:36:5:6">
<path transform="translate(46.6675, 16.2203) scale(0.0040, -0.0040)" d="M218 136c55 0 108 -28 108 -89c0 -71 -55 -121 -102 -149c-35 -21 -75 -34 -116 -34c-55 0 -108 28 -108 89c0 71 55 121 102 149c35 21 75 34 116 34z" fill="currentColor"/>
</a>
<a style="color:inherit;" xlink:href="textedit:///Users/mbp-15_touch/Dropbox/tesis/GenoMus/articles/GenoMus_grammar/clapping_music/score/clapping.ly:24:6:7">
<path transform="translate(46.6675, 7.2203) scale(0.0040, -0.0040)" d="M218 136c55 0 108 -28 108 -89c0 -71 -55 -121 -102 -149c-35 -21 -75 -34 -116 -34c-55 0 -108 28 -108 89c0 71 55 121 102 149c35 21 75 34 116 34z" fill="currentColor"/>
</a>
<a style="color:inherit;" xlink:href="textedit:///Users/mbp-15_touch/Dropbox/tesis/GenoMus/articles/GenoMus_grammar/clapping_music/score/clapping.ly:35:26:27">
<path transform="translate(31.2648, 16.2203) scale(0.0040, -0.0040)" d="M72 -250l117 326c-34 -12 -69 -22 -105 -22c-46 0 -87 33 -87 79c0 40 33 72 73 72c25 0 48 -15 56 -39c10 -28 6 -59 35 -59c16 0 54 48 61 63c6 12 23 12 28 0l-123 -420c-8 -7 -17 -10 -27 -10s-20 3 -28 10z" fill="currentColor"/>
</a>
<a style="color:inherit;" xlink:href="textedit:///Users/mbp-15_touch/Dropbox/tesis/GenoMus/articles/GenoMus_grammar/clapping_music/score/clapping.ly:23:26:27">
<path transform="translate(31.2648, 7.2203) scale(0.0040, -0.0040)" d="M72 -250l117 326c-34 -12 -69 -22 -105 -22c-46 0 -87 33 -87 79c0 40 33 72 73 72c25 0 48 -15 56 -39c10 -28 6 -59 35 -59c16 0 54 48 61 63c6 12 23 12 28 0l-123 -420c-8 -7 -17 -10 -27 -10s-20 3 -28 10z" fill="currentColor"/>
</a>
<path transform="translate(28.7624, 19.5553) scale(0.0040, -0.0040)" d="M0 0h-16v250h16c97 59 224 148 224 259c0 57 -15 112 -40 163c-3 16 10 27 23 27c7 0 15 -3 20 -11c25 -56 40 -117 40 -179c0 -203 -267 -306 -267 -509z" fill="currentColor"/>
<rect transform="translate(28.6974, 16.2203)" x="-0.0650" y="0.1861" width="0.1300" height="3.1889" ry="0.0400" fill="currentColor"/>
<path transform="translate(29.9366, 3.8853) scale(0.0040, -0.0040)" d="M0 0c0 -197 207 -336 207 -533c0 -71 -15 -141 -41 -207c-5 -8 -13 -12 -20 -12c-13 0 -26 11 -23 27c26 61 42 126 42 192c0 103 -94 208 -165 283h-16v250h16z" fill="currentColor"/>
<rect transform="translate(29.8716, 7.2203)" x="-0.0650" y="-3.3750" width="0.1300" height="3.1889" ry="0.0400" fill="currentColor"/>
<a style="color:inherit;" xlink:href="textedit:///Users/mbp-15_touch/Dropbox/tesis/GenoMus/articles/GenoMus_grammar/clapping_music/score/clapping.ly:35:24:25">
<path transform="translate(28.6324, 16.2203) scale(0.0040, -0.0040)" d="M218 136c55 0 108 -28 108 -89c0 -71 -55 -121 -102 -149c-35 -21 -75 -34 -116 -34c-55 0 -108 28 -108 89c0 71 55 121 102 149c35 21 75 34 116 34z" fill="currentColor"/>
</a>
<a style="color:inherit;" xlink:href="textedit:///Users/mbp-15_touch/Dropbox/tesis/GenoMus/articles/GenoMus_grammar/clapping_music/score/clapping.ly:23:24:25">
<path transform="translate(28.6324, 7.2203) scale(0.0040, -0.0040)" d="M218 136c55 0 108 -28 108 -89c0 -71 -55 -121 -102 -149c-35 -21 -75 -34 -116 -34c-55 0 -108 28 -108 89c0 71 55 121 102 149c35 21 75 34 116 34z" fill="currentColor"/>
</a>
<a style="color:inherit;" xlink:href="textedit:///Users/mbp-15_touch/Dropbox/tesis/GenoMus/articles/GenoMus_grammar/clapping_music/score/clapping.ly:35:21:22">
<path transform="translate(26.4324, 16.2203) scale(0.0040, -0.0040)" d="M72 -250l117 326c-34 -12 -69 -22 -105 -22c-46 0 -87 33 -87 79c0 40 33 72 73 72c25 0 48 -15 56 -39c10 -28 6 -59 35 -59c16 0 54 48 61 63c6 12 23 12 28 0l-123 -420c-8 -7 -17 -10 -27 -10s-20 3 -28 10z" fill="currentColor"/>
</a>
<a style="color:inherit;" xlink:href="textedit:///Users/mbp-15_touch/Dropbox/tesis/GenoMus/articles/GenoMus_grammar/clapping_music/score/clapping.ly:23:21:22">
<path transform="translate(26.4324, 7.2203) scale(0.0040, -0.0040)" d="M72 -250l117 326c-34 -12 -69 -22 -105 -22c-46 0 -87 33 -87 79c0 40 33 72 73 72c25 0 48 -15 56 -39c10 -28 6 -59 35 -59c16 0 54 48 61 63c6 12 23 12 28 0l-123 -420c-8 -7 -17 -10 -27 -10s-20 3 -28 10z" fill="currentColor"/>
</a>
<rect transform="translate(23.9932, 16.2203)" x="-0.0650" y="0.1861" width="0.1300" height="2.8139" ry="0.0400" fill="currentColor"/>
<a style="color:inherit;" xlink:href="textedit:///Users/mbp-15_touch/Dropbox/tesis/GenoMus/articles/GenoMus_grammar/clapping_music/score/clapping.ly:23:5:6">
<polygon transform="translate(12.8856, 4.2203)" stroke-linejoin="round" stroke-linecap="round" stroke-width="0.0800" fill="currentColor" stroke="currentColor" points="5.0984 -0.2000 5.0984 0.2000 0.0400 0.2000 0.0400 -0.2000"/>
</a>
<rect transform="translate(33.5298, 16.2203)" x="-0.0650" y="0.1861" width="0.1300" height="2.8139" ry="0.0400" fill="currentColor"/>
<rect transform="translate(36.0341, 16.2203)" x="-0.0650" y="0.1861" width="0.1300" height="2.8139" ry="0.0400" fill="currentColor"/>
<rect transform="translate(37.2083, 7.2203)" x="-0.0650" y="-3.0000" width="0.1300" height="2.8139" ry="0.0400" fill="currentColor"/>
<a style="color:inherit;" xlink:href="textedit:///Users/mbp-15_touch/Dropbox/tesis/GenoMus/articles/GenoMus_grammar/clapping_music/score/clapping.ly:35:32:33">
<path transform="translate(35.9691, 16.2203) scale(0.0040, -0.0040)" d="M218 136c55 0 108 -28 108 -89c0 -71 -55 -121 -102 -149c-35 -21 -75 -34 -116 -34c-55 0 -108 28 -108 89c0 71 55 121 102 149c35 21 75 34 116 34z" fill="currentColor"/>
</a>
<a style="color:inherit;" xlink:href="textedit:///Users/mbp-15_touch/Dropbox/tesis/GenoMus/articles/GenoMus_grammar/clapping_music/score/clapping.ly:23:32:33">
<path transform="translate(35.9691, 7.2203) scale(0.0040, -0.0040)" d="M218 136c55 0 108 -28 108 -89c0 -71 -55 -121 -102 -149c-35 -21 -75 -34 -116 -34c-55 0 -108 28 -108 89c0 71 55 121 102 149c35 21 75 34 116 34z" fill="currentColor"/>
</a>
<rect transform="translate(34.7041, 7.2203)" x="-0.0650" y="-3.0000" width="0.1300" height="2.8139" ry="0.0400" fill="currentColor"/>
<a style="color:inherit;" xlink:href="textedit:///Users/mbp-15_touch/Dropbox/tesis/GenoMus/articles/GenoMus_grammar/clapping_music/score/clapping.ly:35:29:30">
<path transform="translate(33.4648, 16.2203) scale(0.0040, -0.0040)" d="M218 136c55 0 108 -28 108 -89c0 -71 -55 -121 -102 -149c-35 -21 -75 -34 -116 -34c-55 0 -108 28 -108 89c0 71 55 121 102 149c35 21 75 34 116 34z" fill="currentColor"/>
</a>
<a style="color:inherit;" xlink:href="textedit:///Users/mbp-15_touch/Dropbox/tesis/GenoMus/articles/GenoMus_grammar/clapping_music/score/clapping.ly:23:29:30">
<path transform="translate(33.4648, 7.2203) scale(0.0040, -0.0040)" d="M218 136c55 0 108 -28 108 -89c0 -71 -55 -121 -102 -149c-35 -21 -75 -34 -116 -34c-55 0 -108 28 -108 89c0 71 55 121 102 149c35 21 75 34 116 34z" fill="currentColor"/>
</a>
<rect transform="translate(69.8123, 7.2203)" x="-0.0650" y="-3.0000" width="0.1300" height="2.8139" ry="0.0400" fill="currentColor"/>
<rect transform="translate(70.9902, 16.2203)" x="-0.0650" y="0.1861" width="0.1300" height="3.1889" ry="0.0400" fill="currentColor"/>
<a style="color:inherit;" xlink:href="textedit:///Users/mbp-15_touch/Dropbox/tesis/GenoMus/articles/GenoMus_grammar/clapping_music/score/clapping.ly:36:34:35">
<path transform="translate(70.9252, 16.2203) scale(0.0040, -0.0040)" d="M218 136c55 0 108 -28 108 -89c0 -71 -55 -121 -102 -149c-35 -21 -75 -34 -116 -34c-55 0 -108 28 -108 89c0 71 55 121 102 149c35 21 75 34 116 34z" fill="currentColor"/>
</a>
<a style="color:inherit;" xlink:href="textedit:///Users/mbp-15_touch/Dropbox/tesis/GenoMus/articles/GenoMus_grammar/clapping_music/score/clapping.ly:24:34:35">
<path transform="translate(70.9252, 7.2203) scale(0.0040, -0.0040)" d="M72 -250l117 326c-34 -12 -69 -22 -105 -22c-46 0 -87 33 -87 79c0 40 33 72 73 72c25 0 48 -15 56 -39c10 -28 6 -59 35 -59c16 0 54 48 61 63c6 12 23 12 28 0l-123 -420c-8 -7 -17 -10 -27 -10s-20 3 -28 10z" fill="currentColor"/>
</a>
<a style="color:inherit;" xlink:href="textedit:///Users/mbp-15_touch/Dropbox/tesis/GenoMus/articles/GenoMus_grammar/clapping_music/score/clapping.ly:36:31:32">
<path transform="translate(68.5731, 16.2203) scale(0.0040, -0.0040)" d="M72 -250l117 326c-34 -12 -69 -22 -105 -22c-46 0 -87 33 -87 79c0 40 33 72 73 72c25 0 48 -15 56 -39c10 -28 6 -59 35 -59c16 0 54 48 61 63c6 12 23 12 28 0l-123 -420c-8 -7 -17 -10 -27 -10s-20 3 -28 10z" fill="currentColor"/>
</a>
<a style="color:inherit;" xlink:href="textedit:///Users/mbp-15_touch/Dropbox/tesis/GenoMus/articles/GenoMus_grammar/clapping_music/score/clapping.ly:24:31:32">
<path transform="translate(68.5731, 7.2203) scale(0.0040, -0.0040)" d="M218 136c55 0 108 -28 108 -89c0 -71 -55 -121 -102 -149c-35 -21 -75 -34 -116 -34c-55 0 -108 28 -108 89c0 71 55 121 102 149c35 21 75 34 116 34z" fill="currentColor"/>
</a>
<rect transform="translate(66.1339, 16.2203)" x="-0.0650" y="0.1861" width="0.1300" height="2.8139" ry="0.0400" fill="currentColor"/>
<rect transform="translate(67.3081, 7.2203)" x="-0.0650" y="-3.0000" width="0.1300" height="2.8139" ry="0.0400" fill="currentColor"/>
<a style="color:inherit;" xlink:href="textedit:///Users/mbp-15_touch/Dropbox/tesis/GenoMus/articles/GenoMus_grammar/clapping_music/score/clapping.ly:36:28:29">
<path transform="translate(66.0689, 16.2203) scale(0.0040, -0.0040)" d="M218 136c55 0 108 -28 108 -89c0 -71 -55 -121 -102 -149c-35 -21 -75 -34 -116 -34c-55 0 -108 28 -108 89c0 71 55 121 102 149c35 21 75 34 116 34z" fill="currentColor"/>
</a>
<a style="color:inherit;" xlink:href="textedit:///Users/mbp-15_touch/Dropbox/tesis/GenoMus/articles/GenoMus_grammar/clapping_music/score/clapping.ly:24:28:29">
<path transform="translate(66.0689, 7.2203) scale(0.0040, -0.0040)" d="M218 136c55 0 108 -28 108 -89c0 -71 -55 -121 -102 -149c-35 -21 -75 -34 -116 -34c-55 0 -108 28 -108 89c0 71 55 121 102 149c35 21 75 34 116 34z" fill="currentColor"/>
</a>
<a style="color:inherit;" xlink:href="textedit:///Users/mbp-15_touch/Dropbox/tesis/GenoMus/articles/GenoMus_grammar/clapping_music/score/clapping.ly:25:29:30">
<polygon transform="translate(99.6950, 4.2203)" stroke-linejoin="round" stroke-linecap="round" stroke-width="0.0800" fill="currentColor" stroke="currentColor" points="2.4421 -0.2000 2.4421 0.2000 0.0400 0.2000 0.0400 -0.2000"/>
</a>
<a style="color:inherit;" xlink:href="textedit:///Users/mbp-15_touch/Dropbox/tesis/GenoMus/articles/GenoMus_grammar/clapping_music/score/clapping.ly:35:5:6">
<polygon transform="translate(11.7113, 19.2203)" stroke-linejoin="round" stroke-linecap="round" stroke-width="0.0800" fill="currentColor" stroke="currentColor" points="5.0984 -0.2000 5.0984 0.2000 0.0400 0.2000 0.0400 -0.2000"/>
</a>
<a style="color:inherit;" xlink:href="textedit:///Users/mbp-15_touch/Dropbox/tesis/GenoMus/articles/GenoMus_grammar/clapping_music/score/clapping.ly:23:16:17">
<polygon transform="translate(22.5982, 4.2203)" stroke-linejoin="round" stroke-linecap="round" stroke-width="0.0800" fill="currentColor" stroke="currentColor" points="2.5942 -0.2000 2.5942 0.2000 0.0400 0.2000 0.0400 -0.2000"/>
</a>
<a style="color:inherit;" xlink:href="textedit:///Users/mbp-15_touch/Dropbox/tesis/GenoMus/articles/GenoMus_grammar/clapping_music/score/clapping.ly:35:16:17">
<polygon transform="translate(21.4240, 19.2203)" stroke-linejoin="round" stroke-linecap="round" stroke-width="0.0800" fill="currentColor" stroke="currentColor" points="2.5942 -0.2000 2.5942 0.2000 0.0400 0.2000 0.0400 -0.2000"/>
</a>
<a style="color:inherit;" xlink:href="textedit:///Users/mbp-15_touch/Dropbox/tesis/GenoMus/articles/GenoMus_grammar/clapping_music/score/clapping.ly:23:30:31">
<polygon transform="translate(34.6391, 4.2203)" stroke-linejoin="round" stroke-linecap="round" stroke-width="0.0800" fill="currentColor" stroke="currentColor" points="2.5942 -0.2000 2.5942 0.2000 0.0400 0.2000 0.0400 -0.2000"/>
</a>
<a style="color:inherit;" xlink:href="textedit:///Users/mbp-15_touch/Dropbox/tesis/GenoMus/articles/GenoMus_grammar/clapping_music/score/clapping.ly:35:30:31">
<polygon transform="translate(33.4648, 19.2203)" stroke-linejoin="round" stroke-linecap="round" stroke-width="0.0800" fill="currentColor" stroke="currentColor" points="2.5942 -0.2000 2.5942 0.2000 0.0400 0.2000 0.0400 -0.2000"/>
</a>
<a style="color:inherit;" xlink:href="textedit:///Users/mbp-15_touch/Dropbox/tesis/GenoMus/articles/GenoMus_grammar/clapping_music/score/clapping.ly:24:4:5">
<polygon transform="translate(45.3375, 4.2203)" stroke-linejoin="round" stroke-linecap="round" stroke-width="0.0800" fill="currentColor" stroke="currentColor" points="5.0984 -0.2000 5.0984 0.2000 0.0400 0.2000 0.0400 -0.2000"/>
</a>
<a style="color:inherit;" xlink:href="textedit:///Users/mbp-15_touch/Dropbox/tesis/GenoMus/articles/GenoMus_grammar/clapping_music/score/clapping.ly:36:3:4">
<polygon transform="translate(44.1633, 19.2203)" stroke-linejoin="round" stroke-linecap="round" stroke-width="0.0800" fill="currentColor" stroke="currentColor" points="2.5942 -0.2000 2.5942 0.2000 0.0400 0.2000 0.0400 -0.2000"/>
</a>
<a style="color:inherit;" xlink:href="textedit:///Users/mbp-15_touch/Dropbox/tesis/GenoMus/articles/GenoMus_grammar/clapping_music/score/clapping.ly:36:12:13">
<polygon transform="translate(51.5238, 19.2203)" stroke-linejoin="round" stroke-linecap="round" stroke-width="0.0800" fill="currentColor" stroke="currentColor" points="2.4421 -0.2000 2.4421 0.2000 0.0400 0.2000 0.0400 -0.2000"/>
</a>
<a style="color:inherit;" xlink:href="textedit:///Users/mbp-15_touch/Dropbox/tesis/GenoMus/articles/GenoMus_grammar/clapping_music/score/clapping.ly:24:15:16">
<polygon transform="translate(55.0501, 4.2203)" stroke-linejoin="round" stroke-linecap="round" stroke-width="0.0800" fill="currentColor" stroke="currentColor" points="2.5942 -0.2000 2.5942 0.2000 0.0400 0.2000 0.0400 -0.2000"/>
</a>
<a style="color:inherit;" xlink:href="textedit:///Users/mbp-15_touch/Dropbox/tesis/GenoMus/articles/GenoMus_grammar/clapping_music/score/clapping.ly:36:26:27">
<polygon transform="translate(63.7168, 19.2203)" stroke-linejoin="round" stroke-linecap="round" stroke-width="0.0800" fill="currentColor" stroke="currentColor" points="2.4421 -0.2000 2.4421 0.2000 0.0400 0.2000 0.0400 -0.2000"/>
</a>
<a style="color:inherit;" xlink:href="textedit:///Users/mbp-15_touch/Dropbox/tesis/GenoMus/articles/GenoMus_grammar/clapping_music/score/clapping.ly:24:29:30">
<polygon transform="translate(67.2431, 4.2203)" stroke-linejoin="round" stroke-linecap="round" stroke-width="0.0800" fill="currentColor" stroke="currentColor" points="2.5942 -0.2000 2.5942 0.2000 0.0400 0.2000 0.0400 -0.2000"/>
</a>
<a style="color:inherit;" xlink:href="textedit:///Users/mbp-15_touch/Dropbox/tesis/GenoMus/articles/GenoMus_grammar/clapping_music/score/clapping.ly:25:4:5">
<polygon transform="translate(77.9415, 4.2203)" stroke-linejoin="round" stroke-linecap="round" stroke-width="0.0800" fill="currentColor" stroke="currentColor" points="4.9463 -0.2000 4.9463 0.2000 0.0400 0.2000 0.0400 -0.2000"/>
</a>
<a style="color:inherit;" xlink:href="textedit:///Users/mbp-15_touch/Dropbox/tesis/GenoMus/articles/GenoMus_grammar/clapping_music/score/clapping.ly:37:8:9">
<polygon transform="translate(81.6236, 19.2203)" stroke-linejoin="round" stroke-linecap="round" stroke-width="0.0800" fill="currentColor" stroke="currentColor" points="2.5942 -0.2000 2.5942 0.2000 0.0400 0.2000 0.0400 -0.2000"/>
</a>
<a style="color:inherit;" xlink:href="textedit:///Users/mbp-15_touch/Dropbox/tesis/GenoMus/articles/GenoMus_grammar/clapping_music/score/clapping.ly:25:15:16">
<polygon transform="translate(87.6541, 4.2203)" stroke-linejoin="round" stroke-linecap="round" stroke-width="0.0800" fill="currentColor" stroke="currentColor" points="2.4421 -0.2000 2.4421 0.2000 0.0400 0.2000 0.0400 -0.2000"/>
</a>
<a style="color:inherit;" xlink:href="textedit:///Users/mbp-15_touch/Dropbox/tesis/GenoMus/articles/GenoMus_grammar/clapping_music/score/clapping.ly:37:22:23">
<polygon transform="translate(93.5362, 19.2203)" stroke-linejoin="round" stroke-linecap="round" stroke-width="0.0800" fill="currentColor" stroke="currentColor" points="2.7224 -0.2000 2.7224 0.2000 0.0400 0.2000 0.0400 -0.2000"/>
</a>
<a style="color:inherit;" xlink:href="textedit:///Users/mbp-15_touch/Dropbox/tesis/GenoMus/articles/GenoMus_grammar/clapping_music/score/clapping.ly:37:31:32">
<polygon transform="translate(100.8729, 19.2203)" stroke-linejoin="round" stroke-linecap="round" stroke-width="0.0800" fill="currentColor" stroke="currentColor" points="2.5942 -0.2000 2.5942 0.2000 0.0400 0.2000 0.0400 -0.2000"/>
</a>
<rect transform="translate(78.0065, 7.2203)" x="-0.0650" y="-3.0000" width="0.1300" height="2.8139" ry="0.0400" fill="currentColor"/>
<a style="color:inherit;" xlink:href="textedit:///Users/mbp-15_touch/Dropbox/tesis/GenoMus/articles/GenoMus_grammar/clapping_music/score/clapping.ly:37:2:3">
<path transform="translate(76.7673, 16.2203) scale(0.0040, -0.0040)" d="M218 136c55 0 108 -28 108 -89c0 -71 -55 -121 -102 -149c-35 -21 -75 -34 -116 -34c-55 0 -108 28 -108 89c0 71 55 121 102 149c35 21 75 34 116 34z" fill="currentColor"/>
</a>
<a style="color:inherit;" xlink:href="textedit:///Users/mbp-15_touch/Dropbox/tesis/GenoMus/articles/GenoMus_grammar/clapping_music/score/clapping.ly:25:2:3">
<path transform="translate(76.7673, 7.2203) scale(0.0040, -0.0040)" d="M218 136c55 0 108 -28 108 -89c0 -71 -55 -121 -102 -149c-35 -21 -75 -34 -116 -34c-55 0 -108 28 -108 89c0 71 55 121 102 149c35 21 75 34 116 34z" fill="currentColor"/>
</a>
<path transform="translate(71.0552, 19.5553) scale(0.0040, -0.0040)" d="M0 0h-16v250h16c97 59 224 148 224 259c0 57 -15 112 -40 163c-3 16 10 27 23 27c7 0 15 -3 20 -11c25 -56 40 -117 40 -179c0 -203 -267 -306 -267 -509z" fill="currentColor"/>
<rect transform="translate(57.6193, 7.2203)" x="-0.0650" y="-3.0000" width="0.1300" height="2.8139" ry="0.0400" fill="currentColor"/>
<a style="color:inherit;" xlink:href="textedit:///Users/mbp-15_touch/Dropbox/tesis/GenoMus/articles/GenoMus_grammar/clapping_music/score/clapping.ly:36:17:18">
<path transform="translate(56.3801, 16.2203) scale(0.0040, -0.0040)" d="M72 -250l117 326c-34 -12 -69 -22 -105 -22c-46 0 -87 33 -87 79c0 40 33 72 73 72c25 0 48 -15 56 -39c10 -28 6 -59 35 -59c16 0 54 48 61 63c6 12 23 12 28 0l-123 -420c-8 -7 -17 -10 -27 -10s-20 3 -28 10z" fill="currentColor"/>
</a>
<a style="color:inherit;" xlink:href="textedit:///Users/mbp-15_touch/Dropbox/tesis/GenoMus/articles/GenoMus_grammar/clapping_music/score/clapping.ly:24:17:18">
<path transform="translate(56.3801, 7.2203) scale(0.0040, -0.0040)" d="M218 136c55 0 108 -28 108 -89c0 -71 -55 -121 -102 -149c-35 -21 -75 -34 -116 -34c-55 0 -108 28 -108 89c0 71 55 121 102 149c35 21 75 34 116 34z" fill="currentColor"/>
</a>
<rect transform="translate(53.9409, 16.2203)" x="-0.0650" y="0.1861" width="0.1300" height="2.8139" ry="0.0400" fill="currentColor"/>
<rect transform="translate(55.1151, 7.2203)" x="-0.0650" y="-3.0000" width="0.1300" height="2.8139" ry="0.0400" fill="currentColor"/>
<a style="color:inherit;" xlink:href="textedit:///Users/mbp-15_touch/Dropbox/tesis/GenoMus/articles/GenoMus_grammar/clapping_music/score/clapping.ly:36:14:15">
<path transform="translate(53.8759, 16.2203) scale(0.0040, -0.0040)" d="M218 136c55 0 108 -28 108 -89c0 -71 -55 -121 -102 -149c-35 -21 -75 -34 -116 -34c-55 0 -108 28 -108 89c0 71 55 121 102 149c35 21 75 34 116 34z" fill="currentColor"/>
</a>
<a style="color:inherit;" xlink:href="textedit:///Users/mbp-15_touch/Dropbox/tesis/GenoMus/articles/GenoMus_grammar/clapping_music/score/clapping.ly:24:14:15">
<path transform="translate(53.8759, 7.2203) scale(0.0040, -0.0040)" d="M218 136c55 0 108 -28 108 -89c0 -71 -55 -121 -102 -149c-35 -21 -75 -34 -116 -34c-55 0 -108 28 -108 89c0 71 55 121 102 149c35 21 75 34 116 34z" fill="currentColor"/>
</a>
<rect transform="translate(51.5888, 16.2203)" x="-0.0650" y="0.1861" width="0.1300" height="2.8139" ry="0.0400" fill="currentColor"/>
<path transform="translate(62.3885, 3.8853) scale(0.0040, -0.0040)" d="M0 0c0 -197 207 -336 207 -533c0 -71 -15 -141 -41 -207c-5 -8 -13 -12 -20 -12c-13 0 -26 11 -23 27c26 61 42 126 42 192c0 103 -94 208 -165 283h-16v250h16z" fill="currentColor"/>
<rect transform="translate(63.7818, 16.2203)" x="-0.0650" y="0.1861" width="0.1300" height="2.8139" ry="0.0400" fill="currentColor"/>
<a style="color:inherit;" xlink:href="textedit:///Users/mbp-15_touch/Dropbox/tesis/GenoMus/articles/GenoMus_grammar/clapping_music/score/clapping.ly:36:25:26">
<path transform="translate(63.7168, 16.2203) scale(0.0040, -0.0040)" d="M218 136c55 0 108 -28 108 -89c0 -71 -55 -121 -102 -149c-35 -21 -75 -34 -116 -34c-55 0 -108 28 -108 89c0 71 55 121 102 149c35 21 75 34 116 34z" fill="currentColor"/>
</a>
<a style="color:inherit;" xlink:href="textedit:///Users/mbp-15_touch/Dropbox/tesis/GenoMus/articles/GenoMus_grammar/clapping_music/score/clapping.ly:24:25:26">
<path transform="translate(63.7168, 7.2203) scale(0.0040, -0.0040)" d="M72 -250l117 326c-34 -12 -69 -22 -105 -22c-46 0 -87 33 -87 79c0 40 33 72 73 72c25 0 48 -15 56 -39c10 -28 6 -59 35 -59c16 0 54 48 61 63c6 12 23 12 28 0l-123 -420c-8 -7 -17 -10 -27 -10s-20 3 -28 10z" fill="currentColor"/>
</a>
<a style="color:inherit;" xlink:href="textedit:///Users/mbp-15_touch/Dropbox/tesis/GenoMus/articles/GenoMus_grammar/clapping_music/score/clapping.ly:36:11:12">
<path transform="translate(51.5238, 16.2203) scale(0.0040, -0.0040)" d="M218 136c55 0 108 -28 108 -89c0 -71 -55 -121 -102 -149c-35 -21 -75 -34 -116 -34c-55 0 -108 28 -108 89c0 71 55 121 102 149c35 21 75 34 116 34z" fill="currentColor"/>
</a>
<rect transform="translate(62.3235, 7.2203)" x="-0.0650" y="-3.3750" width="0.1300" height="3.1889" ry="0.0400" fill="currentColor"/>
<a style="color:inherit;" xlink:href="textedit:///Users/mbp-15_touch/Dropbox/tesis/GenoMus/articles/GenoMus_grammar/clapping_music/score/clapping.ly:36:22:23">
<path transform="translate(61.0843, 16.2203) scale(0.0040, -0.0040)" d="M72 -250l117 326c-34 -12 -69 -22 -105 -22c-46 0 -87 33 -87 79c0 40 33 72 73 72c25 0 48 -15 56 -39c10 -28 6 -59 35 -59c16 0 54 48 61 63c6 12 23 12 28 0l-123 -420c-8 -7 -17 -10 -27 -10s-20 3 -28 10z" fill="currentColor"/>
</a>
<a style="color:inherit;" xlink:href="textedit:///Users/mbp-15_touch/Dropbox/tesis/GenoMus/articles/GenoMus_grammar/clapping_music/score/clapping.ly:24:23:24">
<path transform="translate(61.0843, 7.2203) scale(0.0040, -0.0040)" d="M218 136c55 0 108 -28 108 -89c0 -71 -55 -121 -102 -149c-35 -21 -75 -34 -116 -34c-55 0 -108 28 -108 89c0 71 55 121 102 149c35 21 75 34 116 34z" fill="currentColor"/>
</a>
<path transform="translate(58.8622, 19.5553) scale(0.0040, -0.0040)" d="M0 0h-16v250h16c97 59 224 148 224 259c0 57 -15 112 -40 163c-3 16 10 27 23 27c7 0 15 -3 20 -11c25 -56 40 -117 40 -179c0 -203 -267 -306 -267 -509z" fill="currentColor"/>
<rect transform="translate(58.7972, 16.2203)" x="-0.0650" y="0.1861" width="0.1300" height="3.1889" ry="0.0400" fill="currentColor"/>
<a style="color:inherit;" xlink:href="textedit:///Users/mbp-15_touch/Dropbox/tesis/GenoMus/articles/GenoMus_grammar/clapping_music/score/clapping.ly:36:20:21">
<path transform="translate(58.7322, 16.2203) scale(0.0040, -0.0040)" d="M218 136c55 0 108 -28 108 -89c0 -71 -55 -121 -102 -149c-35 -21 -75 -34 -116 -34c-55 0 -108 28 -108 89c0 71 55 121 102 149c35 21 75 34 116 34z" fill="currentColor"/>
</a>
<a style="color:inherit;" xlink:href="textedit:///Users/mbp-15_touch/Dropbox/tesis/GenoMus/articles/GenoMus_grammar/clapping_music/score/clapping.ly:24:20:21">
<path transform="translate(58.7322, 7.2203) scale(0.0040, -0.0040)" d="M72 -250l117 326c-34 -12 -69 -22 -105 -22c-46 0 -87 33 -87 79c0 40 33 72 73 72c25 0 48 -15 56 -39c10 -28 6 -59 35 -59c16 0 54 48 61 63c6 12 23 12 28 0l-123 -420c-8 -7 -17 -10 -27 -10s-20 3 -28 10z" fill="currentColor"/>
</a>
<a style="color:inherit;" xlink:href="textedit:///Users/mbp-15_touch/Dropbox/tesis/GenoMus/articles/GenoMus_grammar/clapping_music/score/clapping.ly:37:16:17">
<path transform="translate(88.8320, 16.2203) scale(0.0040, -0.0040)" d="M218 136c55 0 108 -28 108 -89c0 -71 -55 -121 -102 -149c-35 -21 -75 -34 -116 -34c-55 0 -108 28 -108 89c0 71 55 121 102 149c35 21 75 34 116 34z" fill="currentColor"/>
</a>
<a style="color:inherit;" xlink:href="textedit:///Users/mbp-15_touch/Dropbox/tesis/GenoMus/articles/GenoMus_grammar/clapping_music/score/clapping.ly:25:17:18">
<path transform="translate(88.8320, 7.2203) scale(0.0040, -0.0040)" d="M218 136c55 0 108 -28 108 -89c0 -71 -55 -121 -102 -149c-35 -21 -75 -34 -116 -34c-55 0 -108 28 -108 89c0 71 55 121 102 149c35 21 75 34 116 34z" fill="currentColor"/>
</a>
<rect transform="translate(87.7191, 7.2203)" x="-0.0650" y="-3.0000" width="0.1300" height="2.8139" ry="0.0400" fill="currentColor"/>
<a style="color:inherit;" xlink:href="textedit:///Users/mbp-15_touch/Dropbox/tesis/GenoMus/articles/GenoMus_grammar/clapping_music/score/clapping.ly:37:13:14">
<path transform="translate(86.4799, 16.2203) scale(0.0040, -0.0040)" d="M72 -250l117 326c-34 -12 -69 -22 -105 -22c-46 0 -87 33 -87 79c0 40 33 72 73 72c25 0 48 -15 56 -39c10 -28 6 -59 35 -59c16 0 54 48 61 63c6 12 23 12 28 0l-123 -420c-8 -7 -17 -10 -27 -10s-20 3 -28 10z" fill="currentColor"/>
</a>
<a style="color:inherit;" xlink:href="textedit:///Users/mbp-15_touch/Dropbox/tesis/GenoMus/articles/GenoMus_grammar/clapping_music/score/clapping.ly:25:14:15">
<path transform="translate(86.4799, 7.2203) scale(0.0040, -0.0040)" d="M218 136c55 0 108 -28 108 -89c0 -71 -55 -121 -102 -149c-35 -21 -75 -34 -116 -34c-55 0 -108 28 -108 89c0 71 55 121 102 149c35 21 75 34 116 34z" fill="currentColor"/>
</a>
<rect transform="translate(90.0712, 7.2203)" x="-0.0650" y="-3.0000" width="0.1300" height="2.8139" ry="0.0400" fill="currentColor"/>
<rect transform="translate(84.1928, 16.2203)" x="-0.0650" y="0.1861" width="0.1300" height="2.8139" ry="0.0400" fill="currentColor"/>
<a style="color:inherit;" xlink:href="textedit:///Users/mbp-15_touch/Dropbox/tesis/GenoMus/articles/GenoMus_grammar/clapping_music/score/clapping.ly:37:10:11">
<path transform="translate(84.1278, 16.2203) scale(0.0040, -0.0040)" d="M218 136c55 0 108 -28 108 -89c0 -71 -55 -121 -102 -149c-35 -21 -75 -34 -116 -34c-55 0 -108 28 -108 89c0 71 55 121 102 149c35 21 75 34 116 34z" fill="currentColor"/>
</a>
<a style="color:inherit;" xlink:href="textedit:///Users/mbp-15_touch/Dropbox/tesis/GenoMus/articles/GenoMus_grammar/clapping_music/score/clapping.ly:25:11:12">
<path transform="translate(84.1278, 7.2203) scale(0.0040, -0.0040)" d="M72 -250l117 326c-34 -12 -69 -22 -105 -22c-46 0 -87 33 -87 79c0 40 33 72 73 72c25 0 48 -15 56 -39c10 -28 6 -59 35 -59c16 0 54 48 61 63c6 12 23 12 28 0l-123 -420c-8 -7 -17 -10 -27 -10s-20 3 -28 10z" fill="currentColor"/>
</a>
<rect transform="translate(81.6886, 16.2203)" x="-0.0650" y="0.1861" width="0.1300" height="2.8139" ry="0.0400" fill="currentColor"/>
<rect transform="translate(93.6012, 16.2203)" x="-0.0650" y="0.1861" width="0.1300" height="2.8139" ry="0.0400" fill="currentColor"/>
<rect transform="translate(94.7755, 7.2203)" x="-0.0650" y="-3.3750" width="0.1300" height="3.1889" ry="0.0400" fill="currentColor"/>
<a style="color:inherit;" xlink:href="textedit:///Users/mbp-15_touch/Dropbox/tesis/GenoMus/articles/GenoMus_grammar/clapping_music/score/clapping.ly:37:21:22">
<path transform="translate(93.5362, 16.2203) scale(0.0040, -0.0040)" d="M218 136c55 0 108 -28 108 -89c0 -71 -55 -121 -102 -149c-35 -21 -75 -34 -116 -34c-55 0 -108 28 -108 89c0 71 55 121 102 149c35 21 75 34 116 34z" fill="currentColor"/>
</a>
<a style="color:inherit;" xlink:href="textedit:///Users/mbp-15_touch/Dropbox/tesis/GenoMus/articles/GenoMus_grammar/clapping_music/score/clapping.ly:25:23:24">
<path transform="translate(93.5362, 7.2203) scale(0.0040, -0.0040)" d="M218 136c55 0 108 -28 108 -89c0 -71 -55 -121 -102 -149c-35 -21 -75 -34 -116 -34c-55 0 -108 28 -108 89c0 71 55 121 102 149c35 21 75 34 116 34z" fill="currentColor"/>
</a>
<a style="color:inherit;" xlink:href="textedit:///Users/mbp-15_touch/Dropbox/tesis/GenoMus/articles/GenoMus_grammar/clapping_music/score/clapping.ly:37:18:19">
<path transform="translate(91.3362, 16.2203) scale(0.0040, -0.0040)" d="M72 -250l117 326c-34 -12 -69 -22 -105 -22c-46 0 -87 33 -87 79c0 40 33 72 73 72c25 0 48 -15 56 -39c10 -28 6 -59 35 -59c16 0 54 48 61 63c6 12 23 12 28 0l-123 -420c-8 -7 -17 -10 -27 -10s-20 3 -28 10z" fill="currentColor"/>
</a>
<a style="color:inherit;" xlink:href="textedit:///Users/mbp-15_touch/Dropbox/tesis/GenoMus/articles/GenoMus_grammar/clapping_music/score/clapping.ly:25:20:21">
<path transform="translate(91.3362, 7.2203) scale(0.0040, -0.0040)" d="M72 -250l117 326c-34 -12 -69 -22 -105 -22c-46 0 -87 33 -87 79c0 40 33 72 73 72c25 0 48 -15 56 -39c10 -28 6 -59 35 -59c16 0 54 48 61 63c6 12 23 12 28 0l-123 -420c-8 -7 -17 -10 -27 -10s-20 3 -28 10z" fill="currentColor"/>
</a>
<path transform="translate(88.9620, 19.5553) scale(0.0040, -0.0040)" d="M0 0h-16v250h16c97 59 224 148 224 259c0 57 -15 112 -40 163c-3 16 10 27 23 27c7 0 15 -3 20 -11c25 -56 40 -117 40 -179c0 -203 -267 -306 -267 -509z" fill="currentColor"/>
<rect transform="translate(88.8970, 16.2203)" x="-0.0650" y="0.1861" width="0.1300" height="3.1889" ry="0.0400" fill="currentColor"/>
<rect transform="translate(12.9506, 7.2203)" x="-0.0650" y="-3.0000" width="0.1300" height="2.8139" ry="0.0400" fill="currentColor"/>
<rect transform="translate(11.7763, 16.2203)" x="-0.0650" y="0.1861" width="0.1300" height="2.8139" ry="0.0400" fill="currentColor"/>
<a style="color:inherit;" xlink:href="textedit:///Users/mbp-15_touch/Dropbox/tesis/GenoMus/articles/GenoMus_grammar/clapping_music/score/clapping.ly:8:2:3">
</a>
<path transform="translate(5.8206, 16.2203) scale(0.0040, -0.0040)" d="M490 -250h-92c-6 0 -10 4 -10 10v480c0 6 4 10 10 10h92c6 0 10 -4 10 -10v-480c0 -6 -4 -10 -10 -10zM270 -250h-93c-6 0 -10 4 -10 10v480c0 6 4 10 10 10h93c6 0 10 -4 10 -10v-480c0 -6 -4 -10 -10 -10z" fill="currentColor"/>
<a style="color:inherit;" xlink:href="textedit:///Users/mbp-15_touch/Dropbox/tesis/GenoMus/articles/GenoMus_grammar/clapping_music/score/clapping.ly:35:2:3">
<path transform="translate(11.7113, 16.2203) scale(0.0040, -0.0040)" d="M218 136c55 0 108 -28 108 -89c0 -71 -55 -121 -102 -149c-35 -21 -75 -34 -116 -34c-55 0 -108 28 -108 89c0 71 55 121 102 149c35 21 75 34 116 34z" fill="currentColor"/>
</a>
<a style="color:inherit;" xlink:href="textedit:///Users/mbp-15_touch/Dropbox/tesis/GenoMus/articles/GenoMus_grammar/clapping_music/score/clapping.ly:8:2:3">
</a>
<path transform="translate(5.8206, 7.2203) scale(0.0040, -0.0040)" d="M490 -250h-92c-6 0 -10 4 -10 10v480c0 6 4 10 10 10h92c6 0 10 -4 10 -10v-480c0 -6 -4 -10 -10 -10zM270 -250h-93c-6 0 -10 4 -10 10v480c0 6 4 10 10 10h93c6 0 10 -4 10 -10v-480c0 -6 -4 -10 -10 -10z" fill="currentColor"/>
<a style="color:inherit;" xlink:href="textedit:///Users/mbp-15_touch/Dropbox/tesis/GenoMus/articles/GenoMus_grammar/clapping_music/score/clapping.ly:23:2:3">
<path transform="translate(11.7113, 7.2203) scale(0.0040, -0.0040)" d="M218 136c55 0 108 -28 108 -89c0 -71 -55 -121 -102 -149c-35 -21 -75 -34 -116 -34c-55 0 -108 28 -108 89c0 71 55 121 102 149c35 21 75 34 116 34z" fill="currentColor"/>
</a>
<rect transform="translate(5.6306, 11.7203)" x="0.0000" y="-4.5500" width="0.1600" height="9.1000" ry="0.0500" fill="currentColor"/>
<path transform="translate(4.3806, 6.9453) scale(0.0040, -0.0040)" d="M450 333c9 0 16 -8 16 -16c0 -3 -1 -6 -3 -9c-99 -144 -215 -364 -388 -364h-75v87c0 14 11 25 25 25h50c159 0 271 136 362 270c3 4 8 7 13 7z" fill="currentColor"/>
<path transform="translate(4.3806, 16.4953) scale(0.0040, -0.0040)" d="M466 -317c0 -8 -7 -16 -16 -16c-5 0 -10 3 -13 7c-91 134 -203 270 -362 270h-50c-14 0 -25 11 -25 25v87h75c173 0 289 -220 388 -364c2 -3 3 -6 3 -9z" fill="currentColor"/>
<rect transform="translate(4.3806, 11.7203)" x="0.0000" y="-4.5950" width="0.4500" height="9.1900" ry="0.0000" fill="currentColor"/>
<rect transform="translate(82.8628, 7.2203)" x="-0.0650" y="-3.0000" width="0.1300" height="2.8139" ry="0.0400" fill="currentColor"/>
<a style="color:inherit;" xlink:href="textedit:///Users/mbp-15_touch/Dropbox/tesis/GenoMus/articles/GenoMus_grammar/clapping_music/score/clapping.ly:37:7:8">
<path transform="translate(81.6236, 16.2203) scale(0.0040, -0.0040)" d="M218 136c55 0 108 -28 108 -89c0 -71 -55 -121 -102 -149c-35 -21 -75 -34 -116 -34c-55 0 -108 28 -108 89c0 71 55 121 102 149c35 21 75 34 116 34z" fill="currentColor"/>
</a>
<a style="color:inherit;" xlink:href="textedit:///Users/mbp-15_touch/Dropbox/tesis/GenoMus/articles/GenoMus_grammar/clapping_music/score/clapping.ly:25:8:9">
<path transform="translate(81.6236, 7.2203) scale(0.0040, -0.0040)" d="M218 136c55 0 108 -28 108 -89c0 -71 -55 -121 -102 -149c-35 -21 -75 -34 -116 -34c-55 0 -108 28 -108 89c0 71 55 121 102 149c35 21 75 34 116 34z" fill="currentColor"/>
</a>
<rect transform="translate(80.5107, 7.2203)" x="-0.0650" y="-3.0000" width="0.1300" height="2.8139" ry="0.0400" fill="currentColor"/>
<a style="color:inherit;" xlink:href="textedit:///Users/mbp-15_touch/Dropbox/tesis/GenoMus/articles/GenoMus_grammar/clapping_music/score/clapping.ly:37:4:5">
<path transform="translate(79.2715, 16.2203) scale(0.0040, -0.0040)" d="M72 -250l117 326c-34 -12 -69 -22 -105 -22c-46 0 -87 33 -87 79c0 40 33 72 73 72c25 0 48 -15 56 -39c10 -28 6 -59 35 -59c16 0 54 48 61 63c6 12 23 12 28 0l-123 -420c-8 -7 -17 -10 -27 -10s-20 3 -28 10z" fill="currentColor"/>
</a>
<a style="color:inherit;" xlink:href="textedit:///Users/mbp-15_touch/Dropbox/tesis/GenoMus/articles/GenoMus_grammar/clapping_music/score/clapping.ly:25:6:7">
<path transform="translate(79.2715, 7.2203) scale(0.0040, -0.0040)" d="M218 136c55 0 108 -28 108 -89c0 -71 -55 -121 -102 -149c-35 -21 -75 -34 -116 -34c-55 0 -108 28 -108 89c0 71 55 121 102 149c35 21 75 34 116 34z" fill="currentColor"/>
</a>
<path transform="translate(94.8405, 3.8853) scale(0.0040, -0.0040)" d="M0 0c0 -197 207 -336 207 -533c0 -71 -15 -141 -41 -207c-5 -8 -13 -12 -20 -12c-13 0 -26 11 -23 27c26 61 42 126 42 192c0 103 -94 208 -165 283h-16v250h16z" fill="currentColor"/>
<path transform="translate(76.8973, 19.5553) scale(0.0040, -0.0040)" d="M0 0h-16v250h16c97 59 224 148 224 259c0 57 -15 112 -40 163c-3 16 10 27 23 27c7 0 15 -3 20 -11c25 -56 40 -117 40 -179c0 -203 -267 -306 -267 -509z" fill="currentColor"/>
<rect transform="translate(76.8323, 16.2203)" x="-0.0650" y="0.1861" width="0.1300" height="3.1889" ry="0.0400" fill="currentColor"/>
<rect transform="translate(17.9590, 7.2203)" x="-0.0650" y="-3.0000" width="0.1300" height="2.8139" ry="0.0400" fill="currentColor"/>
<a style="color:inherit;" xlink:href="textedit:///Users/mbp-15_touch/Dropbox/tesis/GenoMus/articles/GenoMus_grammar/clapping_music/score/clapping.ly:35:9:10">
<path transform="translate(16.7198, 16.2203) scale(0.0040, -0.0040)" d="M218 136c55 0 108 -28 108 -89c0 -71 -55 -121 -102 -149c-35 -21 -75 -34 -116 -34c-55 0 -108 28 -108 89c0 71 55 121 102 149c35 21 75 34 116 34z" fill="currentColor"/>
</a>
<a style="color:inherit;" xlink:href="textedit:///Users/mbp-15_touch/Dropbox/tesis/GenoMus/articles/GenoMus_grammar/clapping_music/score/clapping.ly:23:9:10">
<path transform="translate(16.7198, 7.2203) scale(0.0040, -0.0040)" d="M218 136c55 0 108 -28 108 -89c0 -71 -55 -121 -102 -149c-35 -21 -75 -34 -116 -34c-55 0 -108 28 -108 89c0 71 55 121 102 149c35 21 75 34 116 34z" fill="currentColor"/>
</a>
<rect transform="translate(14.2806, 16.2203)" x="-0.0650" y="0.1861" width="0.1300" height="2.8139" ry="0.0400" fill="currentColor"/>
<rect transform="translate(16.7848, 16.2203)" x="-0.0650" y="0.1861" width="0.1300" height="2.8139" ry="0.0400" fill="currentColor"/>
<rect transform="translate(15.4548, 7.2203)" x="-0.0650" y="-3.0000" width="0.1300" height="2.8139" ry="0.0400" fill="currentColor"/>
<a style="color:inherit;" xlink:href="textedit:///Users/mbp-15_touch/Dropbox/tesis/GenoMus/articles/GenoMus_grammar/clapping_music/score/clapping.ly:35:7:8">
<path transform="translate(14.2156, 16.2203) scale(0.0040, -0.0040)" d="M218 136c55 0 108 -28 108 -89c0 -71 -55 -121 -102 -149c-35 -21 -75 -34 -116 -34c-55 0 -108 28 -108 89c0 71 55 121 102 149c35 21 75 34 116 34z" fill="currentColor"/>
</a>
<a style="color:inherit;" xlink:href="textedit:///Users/mbp-15_touch/Dropbox/tesis/GenoMus/articles/GenoMus_grammar/clapping_music/score/clapping.ly:23:7:8">
<path transform="translate(14.2156, 7.2203) scale(0.0040, -0.0040)" d="M218 136c55 0 108 -28 108 -89c0 -71 -55 -121 -102 -149c-35 -21 -75 -34 -116 -34c-55 0 -108 28 -108 89c0 71 55 121 102 149c35 21 75 34 116 34z" fill="currentColor"/>
</a>
<a style="color:inherit;" xlink:href="textedit:///Users/mbp-15_touch/Dropbox/tesis/GenoMus/articles/GenoMus_grammar/clapping_music/score/clapping.ly:25:25:26">
<path transform="translate(96.1687, 7.2203) scale(0.0040, -0.0040)" d="M72 -250l117 326c-34 -12 -69 -22 -105 -22c-46 0 -87 33 -87 79c0 40 33 72 73 72c25 0 48 -15 56 -39c10 -28 6 -59 35 -59c16 0 54 48 61 63c6 12 23 12 28 0l-123 -420c-8 -7 -17 -10 -27 -10s-20 3 -28 10z" fill="currentColor"/>
</a>
<a style="color:inherit;" xlink:href="textedit:///Users/mbp-15_touch/Dropbox/tesis/GenoMus/articles/GenoMus_grammar/clapping_music/score/clapping.ly:23:15:16">
<path transform="translate(21.4240, 7.2203) scale(0.0040, -0.0040)" d="M218 136c55 0 108 -28 108 -89c0 -71 -55 -121 -102 -149c-35 -21 -75 -34 -116 -34c-55 0 -108 28 -108 89c0 71 55 121 102 149c35 21 75 34 116 34z" fill="currentColor"/>
</a>
<rect transform="translate(25.1674, 7.2203)" x="-0.0650" y="-3.0000" width="0.1300" height="2.8139" ry="0.0400" fill="currentColor"/>
<a style="color:inherit;" xlink:href="textedit:///Users/mbp-15_touch/Dropbox/tesis/GenoMus/articles/GenoMus_grammar/clapping_music/score/clapping.ly:35:18:19">
<path transform="translate(23.9282, 16.2203) scale(0.0040, -0.0040)" d="M218 136c55 0 108 -28 108 -89c0 -71 -55 -121 -102 -149c-35 -21 -75 -34 -116 -34c-55 0 -108 28 -108 89c0 71 55 121 102 149c35 21 75 34 116 34z" fill="currentColor"/>
</a>
<a style="color:inherit;" xlink:href="textedit:///Users/mbp-15_touch/Dropbox/tesis/GenoMus/articles/GenoMus_grammar/clapping_music/score/clapping.ly:23:18:19">
<path transform="translate(23.9282, 7.2203) scale(0.0040, -0.0040)" d="M218 136c55 0 108 -28 108 -89c0 -71 -55 -121 -102 -149c-35 -21 -75 -34 -116 -34c-55 0 -108 28 -108 89c0 71 55 121 102 149c35 21 75 34 116 34z" fill="currentColor"/>
</a>
<rect transform="translate(21.4890, 16.2203)" x="-0.0650" y="0.1861" width="0.1300" height="2.8139" ry="0.0400" fill="currentColor"/>
<rect transform="translate(22.6632, 7.2203)" x="-0.0650" y="-3.0000" width="0.1300" height="2.8139" ry="0.0400" fill="currentColor"/>
<a style="color:inherit;" xlink:href="textedit:///Users/mbp-15_touch/Dropbox/tesis/GenoMus/articles/GenoMus_grammar/clapping_music/score/clapping.ly:35:15:16">
<path transform="translate(21.4240, 16.2203) scale(0.0040, -0.0040)" d="M218 136c55 0 108 -28 108 -89c0 -71 -55 -121 -102 -149c-35 -21 -75 -34 -116 -34c-55 0 -108 28 -108 89c0 71 55 121 102 149c35 21 75 34 116 34z" fill="currentColor"/>
</a>
<a style="color:inherit;" xlink:href="textedit:///Users/mbp-15_touch/Dropbox/tesis/GenoMus/articles/GenoMus_grammar/clapping_music/score/clapping.ly:35:12:13">
<path transform="translate(19.2240, 16.2203) scale(0.0040, -0.0040)" d="M72 -250l117 326c-34 -12 -69 -22 -105 -22c-46 0 -87 33 -87 79c0 40 33 72 73 72c25 0 48 -15 56 -39c10 -28 6 -59 35 -59c16 0 54 48 61 63c6 12 23 12 28 0l-123 -420c-8 -7 -17 -10 -27 -10s-20 3 -28 10z" fill="currentColor"/>
</a>
<a style="color:inherit;" xlink:href="textedit:///Users/mbp-15_touch/Dropbox/tesis/GenoMus/articles/GenoMus_grammar/clapping_music/score/clapping.ly:23:12:13">
<path transform="translate(19.2240, 7.2203) scale(0.0040, -0.0040)" d="M72 -250l117 326c-34 -12 -69 -22 -105 -22c-46 0 -87 33 -87 79c0 40 33 72 73 72c25 0 48 -15 56 -39c10 -28 6 -59 35 -59c16 0 54 48 61 63c6 12 23 12 28 0l-123 -420c-8 -7 -17 -10 -27 -10s-20 3 -28 10z" fill="currentColor"/>
</a>
<a style="color:inherit;" xlink:href="textedit:///Users/mbp-15_touch/Dropbox/tesis/GenoMus/articles/GenoMus_grammar/clapping_music/score/clapping.ly:37:30:31">
<path transform="translate(100.8729, 16.2203) scale(0.0040, -0.0040)" d="M218 136c55 0 108 -28 108 -89c0 -71 -55 -121 -102 -149c-35 -21 -75 -34 -116 -34c-55 0 -108 28 -108 89c0 71 55 121 102 149c35 21 75 34 116 34z" fill="currentColor"/>
</a>
<rect transform="translate(100.9379, 16.2203)" x="-0.0650" y="0.1861" width="0.1300" height="2.8139" ry="0.0400" fill="currentColor"/>
<a style="color:inherit;" xlink:href="textedit:///Users/mbp-15_touch/Dropbox/tesis/GenoMus/articles/GenoMus_grammar/clapping_music/score/clapping.ly:25:28:29">
<path transform="translate(98.5208, 7.2203) scale(0.0040, -0.0040)" d="M218 136c55 0 108 -28 108 -89c0 -71 -55 -121 -102 -149c-35 -21 -75 -34 -116 -34c-55 0 -108 28 -108 89c0 71 55 121 102 149c35 21 75 34 116 34z" fill="currentColor"/>
</a>
<rect transform="translate(102.1121, 7.2203)" x="-0.0650" y="-3.0000" width="0.1300" height="2.8139" ry="0.0400" fill="currentColor"/>
<a style="color:inherit;" xlink:href="textedit:///Users/mbp-15_touch/Dropbox/tesis/GenoMus/articles/GenoMus_grammar/clapping_music/score/clapping.ly:25:31:32">
<path transform="translate(100.8729, 7.2203) scale(0.0040, -0.0040)" d="M218 136c55 0 108 -28 108 -89c0 -71 -55 -121 -102 -149c-35 -21 -75 -34 -116 -34c-55 0 -108 28 -108 89c0 71 55 121 102 149c35 21 75 34 116 34z" fill="currentColor"/>
</a>
<a style="color:inherit;" xlink:href="textedit:///Users/mbp-15_touch/Dropbox/tesis/GenoMus/articles/GenoMus_grammar/clapping_music/score/clapping.ly:37:27:28">
<path transform="translate(98.5208, 16.2203) scale(0.0040, -0.0040)" d="M72 -250l117 326c-34 -12 -69 -22 -105 -22c-46 0 -87 33 -87 79c0 40 33 72 73 72c25 0 48 -15 56 -39c10 -28 6 -59 35 -59c16 0 54 48 61 63c6 12 23 12 28 0l-123 -420c-8 -7 -17 -10 -27 -10s-20 3 -28 10z" fill="currentColor"/>
</a>
<rect transform="translate(99.7600, 7.2203)" x="-0.0650" y="-3.0000" width="0.1300" height="2.8139" ry="0.0400" fill="currentColor"/>
<a style="color:inherit;" xlink:href="textedit:///Users/mbp-15_touch/Dropbox/tesis/GenoMus/articles/GenoMus_grammar/clapping_music/score/clapping.ly:25:34:35">
<path transform="translate(103.3771, 7.2203) scale(0.0040, -0.0040)" d="M72 -250l117 326c-34 -12 -69 -22 -105 -22c-46 0 -87 33 -87 79c0 40 33 72 73 72c25 0 48 -15 56 -39c10 -28 6 -59 35 -59c16 0 54 48 61 63c6 12 23 12 28 0l-123 -420c-8 -7 -17 -10 -27 -10s-20 3 -28 10z" fill="currentColor"/>
</a>
<a style="color:inherit;" xlink:href="textedit:///Users/mbp-15_touch/Dropbox/tesis/GenoMus/articles/GenoMus_grammar/clapping_music/score/clapping.ly:37:24:25">
<path transform="translate(96.1687, 16.2203) scale(0.0040, -0.0040)" d="M218 136c55 0 108 -28 108 -89c0 -71 -55 -121 -102 -149c-35 -21 -75 -34 -116 -34c-55 0 -108 28 -108 89c0 71 55 121 102 149c35 21 75 34 116 34z" fill="currentColor"/>
</a>
<rect transform="translate(103.4421, 16.2203)" x="-0.0650" y="0.1861" width="0.1300" height="2.8139" ry="0.0400" fill="currentColor"/>
<a style="color:inherit;" xlink:href="textedit:///Users/mbp-15_touch/Dropbox/tesis/GenoMus/articles/GenoMus_grammar/clapping_music/score/clapping.ly:37:33:34">
<path transform="translate(103.3771, 16.2203) scale(0.0040, -0.0040)" d="M218 136c55 0 108 -28 108 -89c0 -71 -55 -121 -102 -149c-35 -21 -75 -34 -116 -34c-55 0 -108 28 -108 89c0 71 55 121 102 149c35 21 75 34 116 34z" fill="currentColor"/>
</a>
<rect transform="translate(96.2337, 16.2203)" x="-0.0650" y="0.1861" width="0.1300" height="2.8139" ry="0.0400" fill="currentColor"/>
</svg>
