<?xml version="1.0" encoding="UTF-8" standalone="no"?>
<svg
   xmlns:dc="http://purl.org/dc/elements/1.1/"
   xmlns:cc="http://creativecommons.org/ns#"
   xmlns:rdf="http://www.w3.org/1999/02/22-rdf-syntax-ns#"
   xmlns:svg="http://www.w3.org/2000/svg"
   xmlns="http://www.w3.org/2000/svg"
   xmlns:sodipodi="http://sodipodi.sourceforge.net/DTD/sodipodi-0.dtd"
   xmlns:inkscape="http://www.inkscape.org/namespaces/inkscape"
   version="1.2"
   width="210.00mm"
   height="297.00mm"
   viewBox="0 0 119.5016 169.0094"
   id="svg2"
   inkscape:version="0.91 r13725"
   sodipodi:docname="clapping.svg">
  <metadata
     id="metadata416">
    <rdf:RDF>
      <cc:Work
         rdf:about="">
        <dc:format>image/svg+xml</dc:format>
        <dc:type
           rdf:resource="http://purl.org/dc/dcmitype/StillImage" />
      </cc:Work>
    </rdf:RDF>
  </metadata>
  <defs
     id="defs414" />
  <sodipodi:namedview
     pagecolor="#ffffff"
     bordercolor="#666666"
     borderopacity="1"
     objecttolerance="10"
     gridtolerance="10"
     guidetolerance="10"
     inkscape:pageopacity="0"
     inkscape:pageshadow="2"
     inkscape:window-width="1667"
     inkscape:window-height="1020"
     id="namedview412"
     showgrid="false"
     inkscape:zoom="1.7940591"
     inkscape:cx="270.25216"
     inkscape:cy="1110.1475"
     inkscape:window-x="0"
     inkscape:window-y="0"
     inkscape:window-maximized="0"
     inkscape:current-layer="svg2" />
  <rect
     style="opacity:1;fill:none;fill-opacity:1;stroke:#929292;stroke-width:0.14655058;stroke-miterlimit:10;stroke-dasharray:none;stroke-dashoffset:0;stroke-opacity:1"
     id="rect3744-2-8-7"
     width="17.280464"
     height="8.9645052"
     x="10.717971"
     y="0.016011078"
     ry="0.006275217" />
  <rect
     style="opacity:1;fill:none;fill-opacity:1;stroke:#929292;stroke-width:0.14454003;stroke-miterlimit:10;stroke-dasharray:none;stroke-dashoffset:0;stroke-opacity:1"
     id="rect3744-2-8"
     width="11.642858"
     height="6.5942969"
     x="28.378275"
     y="2.0515332"
     ry="0.0046160542" />
  <rect
     style="opacity:1;fill:none;fill-opacity:1;stroke:#929292;stroke-width:0.14454003;stroke-miterlimit:10;stroke-dasharray:none;stroke-dashoffset:0;stroke-opacity:1"
     id="rect3744-2"
     width="6.8089023"
     height="6.5942969"
     x="20.851545"
     y="2.0515332"
     ry="0.0046160542" />
  <rect
     style="opacity:1;fill:none;fill-opacity:1;stroke:#929292;stroke-width:0.14454003;stroke-miterlimit:10;stroke-dasharray:none;stroke-dashoffset:0;stroke-opacity:1"
     id="rect3744"
     width="9.5264349"
     height="6.5942979"
     x="11.07725"
     y="2.0515327"
     ry="0.0046160542" />
  <!-- Page: 1/1 -->
  <text
     transform="translate(5.6906, 2.8453)"
     font-family="serif"
     font-size="2.2001"
     text-anchor="start"
     fill="currentColor"
     id="text4">
    <tspan
       id="tspan6" />
  </text>
  <line
     x1="8.9624338"
     y1="7.2195077"
     x2="107.5201"
     y2="7.2195077"
     id="line8"
     style="stroke:currentColor;stroke-width:0.09842694;stroke-linecap:round;stroke-linejoin:round" />
  <path
     d="m 40.6733,11.9159 c 0,-0.124 0.1,-0.224 0.224,-0.224 0.124,0 0.224,0.1 0.224,0.224 0,0.124 -0.1,0.224 -0.224,0.224 -0.124,0 -0.224,-0.1 -0.224,-0.224 z"
     id="path10"
     inkscape:connector-curvature="0"
     style="fill:currentColor" />
  <path
     d="m 40.6733,12.815899 c 0,-0.124 0.1,-0.224 0.224,-0.224 0.124,0 0.224,0.1 0.224,0.224 0,0.124 -0.1,0.224 -0.224,0.224 -0.124,0 -0.224,-0.1 -0.224,-0.224 z"
     id="path12"
     inkscape:connector-curvature="0"
     style="fill:currentColor" />
  <path
     d="m 42.8133,11.9159 c 0,-0.124 0.1,-0.224 0.224,-0.224 0.124,0 0.224,0.1 0.224,0.224 0,0.124 -0.1,0.224 -0.224,0.224 -0.124,0 -0.224,-0.1 -0.224,-0.224 z"
     id="path14"
     inkscape:connector-curvature="0"
     style="fill:currentColor" />
  <path
     d="m 42.8133,12.815899 c 0,-0.124 0.1,-0.224 0.224,-0.224 0.124,0 0.224,0.1 0.224,0.224 0,0.124 -0.1,0.224 -0.224,0.224 -0.124,0 -0.224,-0.1 -0.224,-0.224 z"
     id="path16"
     inkscape:connector-curvature="0"
     style="fill:currentColor" />
  <rect
     x="41.9133"
     y="8.9198446"
     width="0.60000002"
     height="1.6940403"
     ry="0.0000"
     id="rect18"
     style="fill:currentColor" />
  <rect
     x="41.423302"
     y="8.9198446"
     width="0.19"
     height="1.6940403"
     ry="0.0000"
     id="rect20"
     style="fill:currentColor" />
  <rect
     x="41.9133"
     y="7.8249445"
     width="0.60000002"
     height="5.4760833"
     ry="0.0000"
     id="rect22"
     style="fill:currentColor" />
  <rect
     x="41.423302"
     y="7.8249445"
     width="0.19"
     height="5.4760833"
     ry="0.0000"
     id="rect24"
     style="fill:currentColor" />
  <path
     d="m 73.2773,11.9159 c 0,-0.124 0.1,-0.224 0.224,-0.224 0.124,0 0.224,0.1 0.224,0.224 0,0.124 -0.1,0.224 -0.224,0.224 -0.124,0 -0.224,-0.1 -0.224,-0.224 z"
     id="path26"
     inkscape:connector-curvature="0"
     style="fill:currentColor" />
  <path
     d="m 73.2773,12.815899 c 0,-0.124 0.1,-0.224 0.224,-0.224 0.124,0 0.224,0.1 0.224,0.224 0,0.124 -0.1,0.224 -0.224,0.224 -0.124,0 -0.224,-0.1 -0.224,-0.224 z"
     id="path28"
     inkscape:connector-curvature="0"
     style="fill:currentColor" />
  <path
     d="m 75.4173,11.9159 c 0,-0.124 0.1,-0.224 0.224,-0.224 0.124,0 0.224,0.1 0.224,0.224 0,0.124 -0.1,0.224 -0.224,0.224 -0.124,0 -0.224,-0.1 -0.224,-0.224 z"
     id="path30"
     inkscape:connector-curvature="0"
     style="fill:currentColor" />
  <path
     d="m 75.4173,12.815899 c 0,-0.124 0.1,-0.224 0.224,-0.224 0.124,0 0.224,0.1 0.224,0.224 0,0.124 -0.1,0.224 -0.224,0.224 -0.124,0 -0.224,-0.1 -0.224,-0.224 z"
     id="path32"
     inkscape:connector-curvature="0"
     style="fill:currentColor" />
  <rect
     x="74.517303"
     y="8.9198446"
     width="0.60000002"
     height="1.6940403"
     ry="0.0000"
     id="rect34"
     style="fill:currentColor" />
  <rect
     x="74.027298"
     y="8.293087"
     width="0.19"
     height="1.3078843"
     ry="0.0000"
     id="rect36"
     style="fill:currentColor" />
  <rect
     x="9.4205999"
     y="8.8903294"
     width="0.19"
     height="4.5746722"
     ry="0.0000"
     id="rect38"
     style="fill:currentColor" />
  <rect
     x="8.5206003"
     y="7.4477687"
     width="0.60000002"
     height="4.2278118"
     ry="0.0000"
     id="rect40"
     style="fill:currentColor" />
  <path
     d="m 9.9106,11.9159 c 0,-0.124 0.1,-0.224 0.224,-0.224 0.124,0 0.224,0.1 0.224,0.224 0,0.124 -0.1,0.224 -0.224,0.224 -0.124,0 -0.224,-0.1 -0.224,-0.224 z"
     id="path42"
     inkscape:connector-curvature="0"
     style="fill:currentColor" />
  <path
     d="m 9.9106,12.815899 c 0,-0.124 0.1,-0.224 0.224,-0.224 0.124,0 0.224,0.1 0.224,0.224 0,0.124 -0.1,0.224 -0.224,0.224 -0.124,0 -0.224,-0.1 -0.224,-0.224 z"
     id="path44"
     inkscape:connector-curvature="0"
     style="fill:currentColor" />
  <rect
     x="9.4205999"
     y="8.9198446"
     width="0.19"
     height="1.6940403"
     ry="0.0000"
     id="rect46"
     style="fill:currentColor" />
  <rect
     x="8.5206003"
     y="11.265899"
     width="0.60000002"
     height="2.1947589"
     ry="0.0000"
     id="rect48"
     style="fill:currentColor" />
  <rect
     x="74.517303"
     y="7.8249445"
     width="0.60000002"
     height="5.4760833"
     ry="0.0000"
     id="rect50"
     style="fill:currentColor" />
  <rect
     x="74.027298"
     y="7.4477687"
     width="0.19"
     height="5.8503199"
     ry="0.0000"
     id="rect52"
     style="fill:currentColor" />
  <path
     transform="translate(73.2773, 6.7703) scale(0.0040, -0.0040)"
     d="M0 0c0 31 25 56 56 56s56 -25 56 -56s-25 -56 -56 -56s-56 25 -56 56z"
     fill="currentColor"
     id="path54" />
  <path
     transform="translate(73.2773, 7.6703) scale(0.0040, -0.0040)"
     d="M0 0c0 31 25 56 56 56s56 -25 56 -56s-25 -56 -56 -56s-56 25 -56 56z"
     fill="currentColor"
     id="path56" />
  <path
     transform="translate(75.4173, 6.7703) scale(0.0040, -0.0040)"
     d="M0 0c0 31 25 56 56 56s56 -25 56 -56s-25 -56 -56 -56s-56 25 -56 56z"
     fill="currentColor"
     id="path58" />
  <path
     transform="translate(75.4173, 7.6703) scale(0.0040, -0.0040)"
     d="M0 0c0 31 25 56 56 56s56 -25 56 -56s-25 -56 -56 -56s-56 25 -56 56z"
     fill="currentColor"
     id="path60" />
  <rect
     x="74.517303"
     y="6.1703"
     width="0.60000002"
     height="1.6940403"
     ry="0.0000"
     id="rect62"
     style="fill:currentColor" />
  <rect
     x="74.027298"
     y="6.1703"
     width="0.19"
     height="1.3078843"
     ry="0.0000"
     id="rect64"
     style="fill:currentColor" />
  <path
     transform="translate(9.9106, 6.7703) scale(0.0040, -0.0040)"
     d="M0 0c0 31 25 56 56 56s56 -25 56 -56s-25 -56 -56 -56s-56 25 -56 56z"
     fill="currentColor"
     id="path66" />
  <path
     transform="translate(9.9106, 7.6703) scale(0.0040, -0.0040)"
     d="M0 0c0 31 25 56 56 56s56 -25 56 -56s-25 -56 -56 -56s-56 25 -56 56z"
     fill="currentColor"
     id="path68" />
  <rect
     x="9.4205999"
     y="6.1703"
     width="0.19"
     height="2.7847929"
     ry="0.0000"
     id="rect70"
     style="fill:currentColor" />
  <rect
     transform="translate(8.5206, 7.2203)"
     x="0.0000"
     y="-1.0500"
     width="0.6000"
     height="2.1500"
     ry="0.0000"
     fill="currentColor"
     id="rect72" />
  <path
     transform="translate(105.7292, 6.7703) scale(0.0040, -0.0040)"
     d="M0 0c0 31 25 56 56 56s56 -25 56 -56s-25 -56 -56 -56s-56 25 -56 56z"
     fill="currentColor"
     id="path74" />
  <path
     transform="translate(105.7292, 7.6703) scale(0.0040, -0.0040)"
     d="M0 0c0 31 25 56 56 56s56 -25 56 -56s-25 -56 -56 -56s-56 25 -56 56z"
     fill="currentColor"
     id="path76" />
  <rect
     x="106.9692"
     y="6.1703"
     width="0.60000002"
     height="1.6940403"
     ry="0.0000"
     id="rect78"
     style="fill:currentColor" />
  <rect
     x="106.4792"
     y="6.1703"
     width="0.19"
     height="1.6940403"
     ry="0.0000"
     id="rect80"
     style="fill:currentColor" />
  <path
     transform="translate(40.6733, 6.7703) scale(0.0040, -0.0040)"
     d="M0 0c0 31 25 56 56 56s56 -25 56 -56s-25 -56 -56 -56s-56 25 -56 56z"
     fill="currentColor"
     id="path82" />
  <path
     transform="translate(40.6733, 7.6703) scale(0.0040, -0.0040)"
     d="M0 0c0 31 25 56 56 56s56 -25 56 -56s-25 -56 -56 -56s-56 25 -56 56z"
     fill="currentColor"
     id="path84" />
  <path
     transform="translate(42.8133, 6.7703) scale(0.0040, -0.0040)"
     d="M0 0c0 31 25 56 56 56s56 -25 56 -56s-25 -56 -56 -56s-56 25 -56 56z"
     fill="currentColor"
     id="path86" />
  <path
     transform="translate(42.8133, 7.6703) scale(0.0040, -0.0040)"
     d="M0 0c0 31 25 56 56 56s56 -25 56 -56s-25 -56 -56 -56s-56 25 -56 56z"
     fill="currentColor"
     id="path88" />
  <rect
     x="41.9133"
     y="6.1703"
     width="0.60000002"
     height="1.6940403"
     ry="0.0000"
     id="rect90"
     style="fill:currentColor" />
  <rect
     x="41.423302"
     y="6.1703"
     width="0.19"
     height="1.6940403"
     ry="0.0000"
     id="rect92"
     style="fill:currentColor" />
  <path
     d="m 105.7292,11.9159 c 0,-0.124 0.1,-0.224 0.224,-0.224 0.124,0 0.224,0.1 0.224,0.224 0,0.124 -0.1,0.224 -0.224,0.224 -0.124,0 -0.224,-0.1 -0.224,-0.224 z"
     id="path94"
     inkscape:connector-curvature="0"
     style="fill:currentColor" />
  <path
     d="m 105.7292,12.815899 c 0,-0.124 0.1,-0.224 0.224,-0.224 0.124,0 0.224,0.1 0.224,0.224 0,0.124 -0.1,0.224 -0.224,0.224 -0.124,0 -0.224,-0.1 -0.224,-0.224 z"
     id="path96"
     inkscape:connector-curvature="0"
     style="fill:currentColor" />
  <rect
     x="106.9692"
     y="8.9198446"
     width="0.60000002"
     height="1.6940403"
     ry="0.0000"
     id="rect98"
     style="fill:currentColor" />
  <rect
     x="106.4792"
     y="8.9198446"
     width="0.19"
     height="1.6940403"
     ry="0.0000"
     id="rect100"
     style="fill:currentColor" />
  <rect
     x="106.9692"
     y="7.8249445"
     width="0.60000002"
     height="5.4760833"
     ry="0.0000"
     id="rect102"
     style="fill:currentColor" />
  <rect
     x="106.4792"
     y="7.8249445"
     width="0.19"
     height="5.4760833"
     ry="0.0000"
     id="rect104"
     style="fill:currentColor" />
  <line
     x1="8.9624338"
     y1="12.366692"
     x2="107.52009"
     y2="12.366692"
     id="line106"
     style="stroke:currentColor;stroke-width:0.09842694;stroke-linecap:round;stroke-linejoin:round" />
  <path
     d="m 38.7613,13.365899 0.468,-1.303999 c -0.136,0.048 -0.276,0.088 -0.42,0.088 -0.184,0 -0.348,-0.132 -0.348,-0.316 0,-0.16 0.132,-0.288001 0.292,-0.288001 0.1,0 0.192,0.06 0.224,0.156001 0.04,0.112 0.024,0.236 0.14,0.236 0.064,0 0.216,-0.192 0.244,-0.252 0.024,-0.048 0.092,-0.048 0.112,0 l -0.492,1.679999 c -0.032,0.028 -0.068,0.04 -0.108,0.04 -0.04,0 -0.08,-0.012 -0.112,-0.04 z"
     id="path108"
     inkscape:connector-curvature="0"
     style="fill:currentColor" />
  <path
     transform="translate(51.5238, 7.2203) scale(0.0040, -0.0040)"
     d="M72 -250l117 326c-34 -12 -69 -22 -105 -22c-46 0 -87 33 -87 79c0 40 33 72 73 72c25 0 48 -15 56 -39c10 -28 6 -59 35 -59c16 0 54 48 61 63c6 12 23 12 28 0l-123 -420c-8 -7 -17 -10 -27 -10s-20 3 -28 10z"
     fill="currentColor"
     id="path110" />
  <rect
     x="44.1633"
     y="12.551999"
     width="0.13"
     height="2.8139"
     ry="0.039999999"
     id="rect112"
     style="fill:currentColor" />
  <path
     transform="translate(38.4733, 7.2203) scale(0.0040, -0.0040)"
     d="M72 -250l117 326c-34 -12 -69 -22 -105 -22c-46 0 -87 33 -87 79c0 40 33 72 73 72c25 0 48 -15 56 -39c10 -28 6 -59 35 -59c16 0 54 48 61 63c6 12 23 12 28 0l-123 -420c-8 -7 -17 -10 -27 -10s-20 3 -28 10z"
     fill="currentColor"
     id="path114" />
  <rect
     transform="translate(45.4025, 7.2203)"
     x="-0.0650"
     y="-3.0000"
     width="0.1300"
     height="2.8139"
     ry="0.0400"
     fill="currentColor"
     id="rect116" />
  <path
     d="m 45.0353,11.8219 c 0.22,0 0.432,0.112 0.432,0.356 0,0.283999 -0.22,0.483999 -0.408,0.595999 -0.14,0.084 -0.3,0.136 -0.464,0.136 -0.22,0 -0.432,-0.112 -0.432,-0.356 0,-0.284 0.22,-0.483999 0.408,-0.595999 0.14,-0.084 0.3,-0.136 0.464,-0.136 z"
     id="path118"
     inkscape:connector-curvature="0"
     style="fill:currentColor" />
  <path
     transform="translate(44.1633, 7.2203) scale(0.0040, -0.0040)"
     d="M218 136c55 0 108 -28 108 -89c0 -71 -55 -121 -102 -149c-35 -21 -75 -34 -116 -34c-55 0 -108 28 -108 89c0 71 55 121 102 149c35 21 75 34 116 34z"
     fill="currentColor"
     id="path120" />
  <path
     transform="translate(49.1717, 7.2203) scale(0.0040, -0.0040)"
     d="M218 136c55 0 108 -28 108 -89c0 -71 -55 -121 -102 -149c-35 -21 -75 -34 -116 -34c-55 0 -108 28 -108 89c0 71 55 121 102 149c35 21 75 34 116 34z"
     fill="currentColor"
     id="path122" />
  <path
     d="m 49.4597,13.365899 0.468,-1.303999 c -0.136,0.048 -0.276,0.088 -0.42,0.088 -0.184,0 -0.348,-0.132 -0.348,-0.316 0,-0.16 0.132,-0.288001 0.292,-0.288001 0.1,0 0.192,0.06 0.224,0.156001 0.04,0.112 0.024,0.236 0.14,0.236 0.064,0 0.216,-0.192 0.244,-0.252 0.024,-0.048 0.092,-0.048 0.112,0 l -0.492,1.679999 c -0.032,0.028 -0.068,0.04 -0.108,0.04 -0.04,0 -0.08,-0.012 -0.112,-0.04 z"
     id="path124"
     inkscape:connector-curvature="0"
     style="fill:currentColor" />
  <rect
     transform="translate(50.4109, 7.2203)"
     x="-0.0650"
     y="-3.0000"
     width="0.1300"
     height="2.8139"
     ry="0.0400"
     fill="currentColor"
     id="rect126" />
  <rect
     x="46.6675"
     y="12.551999"
     width="0.13"
     height="2.8139"
     ry="0.039999999"
     id="rect128"
     style="fill:currentColor" />
  <rect
     transform="translate(47.9067, 7.2203)"
     x="-0.0650"
     y="-3.0000"
     width="0.1300"
     height="2.8139"
     ry="0.0400"
     fill="currentColor"
     id="rect130" />
  <path
     d="m 47.5395,11.8219 c 0.22,0 0.432,0.112 0.432,0.356 0,0.283999 -0.22,0.483999 -0.408,0.595999 -0.14,0.084 -0.3,0.136 -0.464,0.136 -0.22,0 -0.432,-0.112 -0.432,-0.356 0,-0.284 0.22,-0.483999 0.408,-0.595999 0.14,-0.084 0.3,-0.136 0.464,-0.136 z"
     id="path132"
     inkscape:connector-curvature="0"
     style="fill:currentColor" />
  <path
     transform="translate(46.6675, 7.2203) scale(0.0040, -0.0040)"
     d="M218 136c55 0 108 -28 108 -89c0 -71 -55 -121 -102 -149c-35 -21 -75 -34 -116 -34c-55 0 -108 28 -108 89c0 71 55 121 102 149c35 21 75 34 116 34z"
     fill="currentColor"
     id="path134" />
  <path
     d="m 31.5528,13.365899 0.468,-1.303999 c -0.136,0.048 -0.276,0.088 -0.42,0.088 -0.184,0 -0.348,-0.132 -0.348,-0.316 0,-0.16 0.132,-0.288001 0.292,-0.288001 0.1,0 0.192,0.06 0.224,0.156001 0.04,0.112 0.024,0.236 0.14,0.236 0.064,0 0.216,-0.192 0.244,-0.252 0.024,-0.048 0.092,-0.048 0.112,0 l -0.492,1.679999 c -0.032,0.028 -0.068,0.04 -0.108,0.04 -0.04,0 -0.08,-0.012 -0.112,-0.04 z"
     id="path136"
     inkscape:connector-curvature="0"
     style="fill:currentColor" />
  <path
     transform="translate(31.2648, 7.2203) scale(0.0040, -0.0040)"
     d="M72 -250l117 326c-34 -12 -69 -22 -105 -22c-46 0 -87 33 -87 79c0 40 33 72 73 72c25 0 48 -15 56 -39c10 -28 6 -59 35 -59c16 0 54 48 61 63c6 12 23 12 28 0l-123 -420c-8 -7 -17 -10 -27 -10s-20 3 -28 10z"
     fill="currentColor"
     id="path138" />
  <path
     d="m 28.7624,15.700899 -0.064,0 0,-1 0.064,0 c 0.388,-0.236 0.896,-0.592 0.896,-1.036 0,-0.228 -0.06,-0.448 -0.16,-0.652 -0.012,-0.064 0.04,-0.108 0.092,-0.108 0.028,0 0.06,0.012 0.08,0.044 0.1,0.224 0.16,0.468 0.16,0.716 0,0.812 -1.068,1.224 -1.068,2.036 z"
     id="path140"
     inkscape:connector-curvature="0"
     style="fill:currentColor" />
  <rect
     x="28.632401"
     y="12.551999"
     width="0.13"
     height="3.1889"
     ry="0.039999999"
     id="rect142"
     style="fill:currentColor" />
  <path
     transform="translate(29.9366, 3.8853) scale(0.0040, -0.0040)"
     d="M0 0c0 -197 207 -336 207 -533c0 -71 -15 -141 -41 -207c-5 -8 -13 -12 -20 -12c-13 0 -26 11 -23 27c26 61 42 126 42 192c0 103 -94 208 -165 283h-16v250h16z"
     fill="currentColor"
     id="path144" />
  <rect
     transform="translate(29.8716, 7.2203)"
     x="-0.0650"
     y="-3.3750"
     width="0.1300"
     height="3.1889"
     ry="0.0400"
     fill="currentColor"
     id="rect146" />
  <path
     d="m 29.5044,11.8219 c 0.22,0 0.432,0.112 0.432,0.356 0,0.283999 -0.22,0.483999 -0.408,0.595999 -0.14,0.084 -0.3,0.136 -0.464,0.136 -0.22,0 -0.432,-0.112 -0.432,-0.356 0,-0.284 0.22,-0.483999 0.408,-0.595999 0.14,-0.084 0.3,-0.136 0.464,-0.136 z"
     id="path148"
     inkscape:connector-curvature="0"
     style="fill:currentColor" />
  <path
     transform="translate(28.6324, 7.2203) scale(0.0040, -0.0040)"
     d="M218 136c55 0 108 -28 108 -89c0 -71 -55 -121 -102 -149c-35 -21 -75 -34 -116 -34c-55 0 -108 28 -108 89c0 71 55 121 102 149c35 21 75 34 116 34z"
     fill="currentColor"
     id="path150" />
  <path
     d="m 26.7204,13.365899 0.468,-1.303999 c -0.136,0.048 -0.276,0.088 -0.42,0.088 -0.184,0 -0.348,-0.132 -0.348,-0.316 0,-0.16 0.132,-0.288001 0.292,-0.288001 0.1,0 0.192,0.06 0.224,0.156001 0.04,0.112 0.024,0.236 0.14,0.236 0.064,0 0.216,-0.192 0.244,-0.252 0.024,-0.048 0.092,-0.048 0.112,0 l -0.492,1.679999 c -0.032,0.028 -0.068,0.04 -0.108,0.04 -0.04,0 -0.08,-0.012 -0.112,-0.04 z"
     id="path152"
     inkscape:connector-curvature="0"
     style="fill:currentColor" />
  <path
     transform="translate(26.4324, 7.2203) scale(0.0040, -0.0040)"
     d="M72 -250l117 326c-34 -12 -69 -22 -105 -22c-46 0 -87 33 -87 79c0 40 33 72 73 72c25 0 48 -15 56 -39c10 -28 6 -59 35 -59c16 0 54 48 61 63c6 12 23 12 28 0l-123 -420c-8 -7 -17 -10 -27 -10s-20 3 -28 10z"
     fill="currentColor"
     id="path154" />
  <rect
     x="23.9282"
     y="12.551999"
     width="0.13"
     height="2.8139"
     ry="0.039999999"
     id="rect156"
     style="fill:currentColor" />
  <polygon
     transform="translate(12.8856, 4.2203)"
     stroke-linejoin="round"
     stroke-linecap="round"
     stroke-width="0.0800"
     fill="currentColor"
     stroke="currentColor"
     points="5.0984 -0.2000 5.0984 0.2000 0.0400 0.2000 0.0400 -0.2000"
     id="polygon158" />
  <rect
     x="33.464802"
     y="12.551999"
     width="0.13"
     height="2.8139"
     ry="0.039999999"
     id="rect160"
     style="fill:currentColor" />
  <rect
     x="35.969101"
     y="12.551999"
     width="0.13"
     height="2.8139"
     ry="0.039999999"
     id="rect162"
     style="fill:currentColor" />
  <rect
     transform="translate(37.2083, 7.2203)"
     x="-0.0650"
     y="-3.0000"
     width="0.1300"
     height="2.8139"
     ry="0.0400"
     fill="currentColor"
     id="rect164" />
  <path
     d="m 36.8411,11.8219 c 0.22,0 0.432,0.112 0.432,0.356 0,0.283999 -0.22,0.483999 -0.408,0.595999 -0.14,0.084 -0.3,0.136 -0.464,0.136 -0.22,0 -0.432,-0.112 -0.432,-0.356 0,-0.284 0.22,-0.483999 0.408,-0.595999 0.14,-0.084 0.3,-0.136 0.464,-0.136 z"
     id="path166"
     inkscape:connector-curvature="0"
     style="fill:currentColor" />
  <path
     transform="translate(35.9691, 7.2203) scale(0.0040, -0.0040)"
     d="M218 136c55 0 108 -28 108 -89c0 -71 -55 -121 -102 -149c-35 -21 -75 -34 -116 -34c-55 0 -108 28 -108 89c0 71 55 121 102 149c35 21 75 34 116 34z"
     fill="currentColor"
     id="path168" />
  <rect
     transform="translate(34.7041, 7.2203)"
     x="-0.0650"
     y="-3.0000"
     width="0.1300"
     height="2.8139"
     ry="0.0400"
     fill="currentColor"
     id="rect170" />
  <path
     d="m 34.3368,11.8219 c 0.22,0 0.432,0.112 0.432,0.356 0,0.283999 -0.22,0.483999 -0.408,0.595999 -0.14,0.084 -0.3,0.136 -0.464,0.136 -0.22,0 -0.432,-0.112 -0.432,-0.356 0,-0.284 0.22,-0.483999 0.408,-0.595999 0.14,-0.084 0.3,-0.136 0.464,-0.136 z"
     id="path172"
     inkscape:connector-curvature="0"
     style="fill:currentColor" />
  <path
     transform="translate(33.4648, 7.2203) scale(0.0040, -0.0040)"
     d="M218 136c55 0 108 -28 108 -89c0 -71 -55 -121 -102 -149c-35 -21 -75 -34 -116 -34c-55 0 -108 28 -108 89c0 71 55 121 102 149c35 21 75 34 116 34z"
     fill="currentColor"
     id="path174" />
  <rect
     transform="translate(69.8123, 7.2203)"
     x="-0.0650"
     y="-3.0000"
     width="0.1300"
     height="2.8139"
     ry="0.0400"
     fill="currentColor"
     id="rect176" />
  <rect
     x="70.925201"
     y="12.551999"
     width="0.13"
     height="3.1889"
     ry="0.039999999"
     id="rect178"
     style="fill:currentColor" />
  <path
     d="m 71.7972,11.8219 c 0.22,0 0.432,0.112 0.432,0.356 0,0.283999 -0.22,0.483999 -0.408,0.595999 -0.14,0.084 -0.3,0.136 -0.464,0.136 -0.22,0 -0.432,-0.112 -0.432,-0.356 0,-0.284 0.22,-0.483999 0.408,-0.595999 0.14,-0.084 0.3,-0.136 0.464,-0.136 z"
     id="path180"
     inkscape:connector-curvature="0"
     style="fill:currentColor" />
  <path
     transform="translate(70.9252, 7.2203) scale(0.0040, -0.0040)"
     d="M72 -250l117 326c-34 -12 -69 -22 -105 -22c-46 0 -87 33 -87 79c0 40 33 72 73 72c25 0 48 -15 56 -39c10 -28 6 -59 35 -59c16 0 54 48 61 63c6 12 23 12 28 0l-123 -420c-8 -7 -17 -10 -27 -10s-20 3 -28 10z"
     fill="currentColor"
     id="path182" />
  <path
     d="m 68.8611,13.365899 0.468,-1.303999 c -0.136,0.048 -0.276,0.088 -0.42,0.088 -0.184,0 -0.348,-0.132 -0.348,-0.316 0,-0.16 0.132,-0.288001 0.292,-0.288001 0.1,0 0.192,0.06 0.224,0.156001 0.04,0.112 0.024,0.236 0.14,0.236 0.064,0 0.216,-0.192 0.244,-0.252 0.024,-0.048 0.092,-0.048 0.112,0 l -0.492,1.679999 c -0.032,0.028 -0.068,0.04 -0.108,0.04 -0.04,0 -0.08,-0.012 -0.112,-0.04 z"
     id="path184"
     inkscape:connector-curvature="0"
     style="fill:currentColor" />
  <path
     transform="translate(68.5731, 7.2203) scale(0.0040, -0.0040)"
     d="M218 136c55 0 108 -28 108 -89c0 -71 -55 -121 -102 -149c-35 -21 -75 -34 -116 -34c-55 0 -108 28 -108 89c0 71 55 121 102 149c35 21 75 34 116 34z"
     fill="currentColor"
     id="path186" />
  <rect
     x="66.068901"
     y="12.551999"
     width="0.13"
     height="2.8139"
     ry="0.039999999"
     id="rect188"
     style="fill:currentColor" />
  <rect
     transform="translate(67.3081, 7.2203)"
     x="-0.0650"
     y="-3.0000"
     width="0.1300"
     height="2.8139"
     ry="0.0400"
     fill="currentColor"
     id="rect190" />
  <path
     d="m 66.9409,11.8219 c 0.22,0 0.432,0.112 0.432,0.356 0,0.283999 -0.22,0.483999 -0.408,0.595999 -0.14,0.084 -0.3,0.136 -0.464,0.136 -0.22,0 -0.432,-0.112 -0.432,-0.356 0,-0.284 0.22,-0.483999 0.408,-0.595999 0.14,-0.084 0.3,-0.136 0.464,-0.136 z"
     id="path192"
     inkscape:connector-curvature="0"
     style="fill:currentColor" />
  <path
     transform="translate(66.0689, 7.2203) scale(0.0040, -0.0040)"
     d="M218 136c55 0 108 -28 108 -89c0 -71 -55 -121 -102 -149c-35 -21 -75 -34 -116 -34c-55 0 -108 28 -108 89c0 71 55 121 102 149c35 21 75 34 116 34z"
     fill="currentColor"
     id="path194" />
  <polygon
     transform="translate(99.6950, 4.2203)"
     stroke-linejoin="round"
     stroke-linecap="round"
     stroke-width="0.0800"
     fill="currentColor"
     stroke="currentColor"
     points="2.4421 -0.2000 2.4421 0.2000 0.0400 0.2000 0.0400 -0.2000"
     id="polygon196" />
  <polygon
     transform="translate(11.7113,15.365899)"
     points="0.04,-0.2 5.0984,-0.2 5.0984,0.2 0.04,0.2 "
     id="polygon198"
     style="fill:currentColor;stroke:currentColor;stroke-width:0.08;stroke-linecap:round;stroke-linejoin:round" />
  <polygon
     transform="translate(22.5982, 4.2203)"
     stroke-linejoin="round"
     stroke-linecap="round"
     stroke-width="0.0800"
     fill="currentColor"
     stroke="currentColor"
     points="2.5942 -0.2000 2.5942 0.2000 0.0400 0.2000 0.0400 -0.2000"
     id="polygon200" />
  <polygon
     transform="translate(21.424,15.365899)"
     points="0.04,-0.2 2.5942,-0.2 2.5942,0.2 0.04,0.2 "
     id="polygon202"
     style="fill:currentColor;stroke:currentColor;stroke-width:0.08;stroke-linecap:round;stroke-linejoin:round" />
  <polygon
     transform="translate(34.6391, 4.2203)"
     stroke-linejoin="round"
     stroke-linecap="round"
     stroke-width="0.0800"
     fill="currentColor"
     stroke="currentColor"
     points="2.5942 -0.2000 2.5942 0.2000 0.0400 0.2000 0.0400 -0.2000"
     id="polygon204" />
  <polygon
     transform="translate(33.4648,15.365899)"
     points="0.04,-0.2 2.5942,-0.2 2.5942,0.2 0.04,0.2 "
     id="polygon206"
     style="fill:currentColor;stroke:currentColor;stroke-width:0.08;stroke-linecap:round;stroke-linejoin:round" />
  <polygon
     transform="translate(45.3375, 4.2203)"
     stroke-linejoin="round"
     stroke-linecap="round"
     stroke-width="0.0800"
     fill="currentColor"
     stroke="currentColor"
     points="5.0984 -0.2000 5.0984 0.2000 0.0400 0.2000 0.0400 -0.2000"
     id="polygon208" />
  <polygon
     transform="translate(44.1633,15.365899)"
     points="0.04,-0.2 2.5942,-0.2 2.5942,0.2 0.04,0.2 "
     id="polygon210"
     style="fill:currentColor;stroke:currentColor;stroke-width:0.08;stroke-linecap:round;stroke-linejoin:round" />
  <polygon
     transform="translate(51.5238,15.365899)"
     points="0.04,-0.2 2.4421,-0.2 2.4421,0.2 0.04,0.2 "
     id="polygon212"
     style="fill:currentColor;stroke:currentColor;stroke-width:0.08;stroke-linecap:round;stroke-linejoin:round" />
  <polygon
     transform="translate(55.0501, 4.2203)"
     stroke-linejoin="round"
     stroke-linecap="round"
     stroke-width="0.0800"
     fill="currentColor"
     stroke="currentColor"
     points="2.5942 -0.2000 2.5942 0.2000 0.0400 0.2000 0.0400 -0.2000"
     id="polygon214" />
  <polygon
     transform="translate(63.7168,15.365899)"
     points="0.04,-0.2 2.4421,-0.2 2.4421,0.2 0.04,0.2 "
     id="polygon216"
     style="fill:currentColor;stroke:currentColor;stroke-width:0.08;stroke-linecap:round;stroke-linejoin:round" />
  <polygon
     transform="translate(67.2431, 4.2203)"
     stroke-linejoin="round"
     stroke-linecap="round"
     stroke-width="0.0800"
     fill="currentColor"
     stroke="currentColor"
     points="2.5942 -0.2000 2.5942 0.2000 0.0400 0.2000 0.0400 -0.2000"
     id="polygon218" />
  <polygon
     transform="translate(77.9415, 4.2203)"
     stroke-linejoin="round"
     stroke-linecap="round"
     stroke-width="0.0800"
     fill="currentColor"
     stroke="currentColor"
     points="4.9463 -0.2000 4.9463 0.2000 0.0400 0.2000 0.0400 -0.2000"
     id="polygon220" />
  <polygon
     transform="translate(81.6236,15.365899)"
     points="0.04,-0.2 2.5942,-0.2 2.5942,0.2 0.04,0.2 "
     id="polygon222"
     style="fill:currentColor;stroke:currentColor;stroke-width:0.08;stroke-linecap:round;stroke-linejoin:round" />
  <polygon
     transform="translate(87.6541, 4.2203)"
     stroke-linejoin="round"
     stroke-linecap="round"
     stroke-width="0.0800"
     fill="currentColor"
     stroke="currentColor"
     points="2.4421 -0.2000 2.4421 0.2000 0.0400 0.2000 0.0400 -0.2000"
     id="polygon224" />
  <polygon
     transform="translate(93.5362,15.365899)"
     points="0.04,-0.2 2.7224,-0.2 2.7224,0.2 0.04,0.2 "
     id="polygon226"
     style="fill:currentColor;stroke:currentColor;stroke-width:0.08;stroke-linecap:round;stroke-linejoin:round" />
  <polygon
     transform="translate(100.8729,15.365899)"
     points="0.04,-0.2 2.5942,-0.2 2.5942,0.2 0.04,0.2 "
     id="polygon228"
     style="fill:currentColor;stroke:currentColor;stroke-width:0.08;stroke-linecap:round;stroke-linejoin:round" />
  <rect
     transform="translate(78.0065, 7.2203)"
     x="-0.0650"
     y="-3.0000"
     width="0.1300"
     height="2.8139"
     ry="0.0400"
     fill="currentColor"
     id="rect230" />
  <path
     d="m 77.6393,11.8219 c 0.22,0 0.432,0.112 0.432,0.356 0,0.283999 -0.22,0.483999 -0.408,0.595999 -0.14,0.084 -0.3,0.136 -0.464,0.136 -0.22,0 -0.432,-0.112 -0.432,-0.356 0,-0.284 0.22,-0.483999 0.408,-0.595999 0.14,-0.084 0.3,-0.136 0.464,-0.136 z"
     id="path232"
     inkscape:connector-curvature="0"
     style="fill:currentColor" />
  <path
     transform="translate(76.7673, 7.2203) scale(0.0040, -0.0040)"
     d="M218 136c55 0 108 -28 108 -89c0 -71 -55 -121 -102 -149c-35 -21 -75 -34 -116 -34c-55 0 -108 28 -108 89c0 71 55 121 102 149c35 21 75 34 116 34z"
     fill="currentColor"
     id="path234" />
  <path
     d="m 71.0552,15.700899 -0.064,0 0,-1 0.064,0 c 0.388,-0.236 0.896,-0.592 0.896,-1.036 0,-0.228 -0.06,-0.448 -0.16,-0.652 -0.012,-0.064 0.04,-0.108 0.092,-0.108 0.028,0 0.06,0.012 0.08,0.044 0.1,0.224 0.16,0.468 0.16,0.716 0,0.812 -1.068,1.224 -1.068,2.036 z"
     id="path236"
     inkscape:connector-curvature="0"
     style="fill:currentColor" />
  <rect
     transform="translate(57.6193, 7.2203)"
     x="-0.0650"
     y="-3.0000"
     width="0.1300"
     height="2.8139"
     ry="0.0400"
     fill="currentColor"
     id="rect238" />
  <path
     d="m 56.6681,13.365899 0.468,-1.303999 c -0.136,0.048 -0.276,0.088 -0.42,0.088 -0.184,0 -0.348,-0.132 -0.348,-0.316 0,-0.16 0.132,-0.288001 0.292,-0.288001 0.1,0 0.192,0.06 0.224,0.156001 0.04,0.112 0.024,0.236 0.14,0.236 0.064,0 0.216,-0.192 0.244,-0.252 0.024,-0.048 0.092,-0.048 0.112,0 l -0.492,1.679999 c -0.032,0.028 -0.068,0.04 -0.108,0.04 -0.04,0 -0.08,-0.012 -0.112,-0.04 z"
     id="path240"
     inkscape:connector-curvature="0"
     style="fill:currentColor" />
  <path
     transform="translate(56.3801, 7.2203) scale(0.0040, -0.0040)"
     d="M218 136c55 0 108 -28 108 -89c0 -71 -55 -121 -102 -149c-35 -21 -75 -34 -116 -34c-55 0 -108 28 -108 89c0 71 55 121 102 149c35 21 75 34 116 34z"
     fill="currentColor"
     id="path242" />
  <rect
     x="53.8759"
     y="12.551999"
     width="0.13"
     height="2.8139"
     ry="0.039999999"
     id="rect244"
     style="fill:currentColor" />
  <rect
     transform="translate(55.1151, 7.2203)"
     x="-0.0650"
     y="-3.0000"
     width="0.1300"
     height="2.8139"
     ry="0.0400"
     fill="currentColor"
     id="rect246" />
  <path
     d="m 54.7479,11.8219 c 0.22,0 0.432,0.112 0.432,0.356 0,0.283999 -0.22,0.483999 -0.408,0.595999 -0.14,0.084 -0.3,0.136 -0.464,0.136 -0.22,0 -0.432,-0.112 -0.432,-0.356 0,-0.284 0.22,-0.483999 0.408,-0.595999 0.14,-0.084 0.3,-0.136 0.464,-0.136 z"
     id="path248"
     inkscape:connector-curvature="0"
     style="fill:currentColor" />
  <path
     transform="translate(53.8759, 7.2203) scale(0.0040, -0.0040)"
     d="M218 136c55 0 108 -28 108 -89c0 -71 -55 -121 -102 -149c-35 -21 -75 -34 -116 -34c-55 0 -108 28 -108 89c0 71 55 121 102 149c35 21 75 34 116 34z"
     fill="currentColor"
     id="path250" />
  <rect
     x="51.5238"
     y="12.551999"
     width="0.13"
     height="2.8139"
     ry="0.039999999"
     id="rect252"
     style="fill:currentColor" />
  <path
     transform="translate(62.3885, 3.8853) scale(0.0040, -0.0040)"
     d="M0 0c0 -197 207 -336 207 -533c0 -71 -15 -141 -41 -207c-5 -8 -13 -12 -20 -12c-13 0 -26 11 -23 27c26 61 42 126 42 192c0 103 -94 208 -165 283h-16v250h16z"
     fill="currentColor"
     id="path254" />
  <rect
     x="63.716801"
     y="12.551999"
     width="0.13"
     height="2.8139"
     ry="0.039999999"
     id="rect256"
     style="fill:currentColor" />
  <path
     d="m 64.5888,11.8219 c 0.22,0 0.432,0.112 0.432,0.356 0,0.283999 -0.22,0.483999 -0.408,0.595999 -0.14,0.084 -0.3,0.136 -0.464,0.136 -0.22,0 -0.432,-0.112 -0.432,-0.356 0,-0.284 0.22,-0.483999 0.408,-0.595999 0.14,-0.084 0.3,-0.136 0.464,-0.136 z"
     id="path258"
     inkscape:connector-curvature="0"
     style="fill:currentColor" />
  <path
     transform="translate(63.7168, 7.2203) scale(0.0040, -0.0040)"
     d="M72 -250l117 326c-34 -12 -69 -22 -105 -22c-46 0 -87 33 -87 79c0 40 33 72 73 72c25 0 48 -15 56 -39c10 -28 6 -59 35 -59c16 0 54 48 61 63c6 12 23 12 28 0l-123 -420c-8 -7 -17 -10 -27 -10s-20 3 -28 10z"
     fill="currentColor"
     id="path260" />
  <path
     d="m 52.3958,11.8219 c 0.22,0 0.432,0.112 0.432,0.356 0,0.283999 -0.22,0.483999 -0.408,0.595999 -0.14,0.084 -0.3,0.136 -0.464,0.136 -0.22,0 -0.432,-0.112 -0.432,-0.356 0,-0.284 0.22,-0.483999 0.408,-0.595999 0.14,-0.084 0.3,-0.136 0.464,-0.136 z"
     id="path262"
     inkscape:connector-curvature="0"
     style="fill:currentColor" />
  <rect
     transform="translate(62.3235, 7.2203)"
     x="-0.0650"
     y="-3.3750"
     width="0.1300"
     height="3.1889"
     ry="0.0400"
     fill="currentColor"
     id="rect264" />
  <path
     d="m 61.3723,13.365899 0.468,-1.303999 c -0.136,0.048 -0.276,0.088 -0.42,0.088 -0.184,0 -0.348,-0.132 -0.348,-0.316 0,-0.16 0.132,-0.288001 0.292,-0.288001 0.1,0 0.192,0.06 0.224,0.156001 0.04,0.112 0.024,0.236 0.14,0.236 0.064,0 0.216,-0.192 0.244,-0.252 0.024,-0.048 0.092,-0.048 0.112,0 l -0.492,1.679999 c -0.032,0.028 -0.068,0.04 -0.108,0.04 -0.04,0 -0.08,-0.012 -0.112,-0.04 z"
     id="path266"
     inkscape:connector-curvature="0"
     style="fill:currentColor" />
  <path
     transform="translate(61.0843, 7.2203) scale(0.0040, -0.0040)"
     d="M218 136c55 0 108 -28 108 -89c0 -71 -55 -121 -102 -149c-35 -21 -75 -34 -116 -34c-55 0 -108 28 -108 89c0 71 55 121 102 149c35 21 75 34 116 34z"
     fill="currentColor"
     id="path268" />
  <path
     d="m 58.8622,15.700899 -0.064,0 0,-1 0.064,0 c 0.388,-0.236 0.896,-0.592 0.896,-1.036 0,-0.228 -0.06,-0.448 -0.16,-0.652 -0.012,-0.064 0.04,-0.108 0.092,-0.108 0.028,0 0.06,0.012 0.08,0.044 0.1,0.224 0.16,0.468 0.16,0.716 0,0.812 -1.068,1.224 -1.068,2.036 z"
     id="path270"
     inkscape:connector-curvature="0"
     style="fill:currentColor" />
  <rect
     x="58.732201"
     y="12.551999"
     width="0.13"
     height="3.1889"
     ry="0.039999999"
     id="rect272"
     style="fill:currentColor" />
  <path
     d="m 59.6042,11.8219 c 0.22,0 0.432,0.112 0.432,0.356 0,0.283999 -0.22,0.483999 -0.408,0.595999 -0.14,0.084 -0.3,0.136 -0.464,0.136 -0.22,0 -0.432,-0.112 -0.432,-0.356 0,-0.284 0.22,-0.483999 0.408,-0.595999 0.14,-0.084 0.3,-0.136 0.464,-0.136 z"
     id="path274"
     inkscape:connector-curvature="0"
     style="fill:currentColor" />
  <path
     transform="translate(58.7322, 7.2203) scale(0.0040, -0.0040)"
     d="M72 -250l117 326c-34 -12 -69 -22 -105 -22c-46 0 -87 33 -87 79c0 40 33 72 73 72c25 0 48 -15 56 -39c10 -28 6 -59 35 -59c16 0 54 48 61 63c6 12 23 12 28 0l-123 -420c-8 -7 -17 -10 -27 -10s-20 3 -28 10z"
     fill="currentColor"
     id="path276" />
  <path
     d="m 89.704,11.8219 c 0.22,0 0.432,0.112 0.432,0.356 0,0.283999 -0.22,0.483999 -0.408,0.595999 -0.14,0.084 -0.3,0.136 -0.464,0.136 -0.22,0 -0.432,-0.112 -0.432,-0.356 0,-0.284 0.22,-0.483999 0.408,-0.595999 0.14,-0.084 0.3,-0.136 0.464,-0.136 z"
     id="path278"
     inkscape:connector-curvature="0"
     style="fill:currentColor" />
  <path
     transform="translate(88.8320, 7.2203) scale(0.0040, -0.0040)"
     d="M218 136c55 0 108 -28 108 -89c0 -71 -55 -121 -102 -149c-35 -21 -75 -34 -116 -34c-55 0 -108 28 -108 89c0 71 55 121 102 149c35 21 75 34 116 34z"
     fill="currentColor"
     id="path280" />
  <rect
     transform="translate(87.7191, 7.2203)"
     x="-0.0650"
     y="-3.0000"
     width="0.1300"
     height="2.8139"
     ry="0.0400"
     fill="currentColor"
     id="rect282" />
  <path
     d="m 86.7679,13.365899 0.468,-1.303999 c -0.136,0.048 -0.276,0.088 -0.42,0.088 -0.184,0 -0.348,-0.132 -0.348,-0.316 0,-0.16 0.132,-0.288001 0.292,-0.288001 0.1,0 0.192,0.06 0.224,0.156001 0.04,0.112 0.024,0.236 0.14,0.236 0.064,0 0.216,-0.192 0.244,-0.252 0.024,-0.048 0.092,-0.048 0.112,0 l -0.492,1.679999 c -0.032,0.028 -0.068,0.04 -0.108,0.04 -0.04,0 -0.08,-0.012 -0.112,-0.04 z"
     id="path284"
     inkscape:connector-curvature="0"
     style="fill:currentColor" />
  <path
     transform="translate(86.4799, 7.2203) scale(0.0040, -0.0040)"
     d="M218 136c55 0 108 -28 108 -89c0 -71 -55 -121 -102 -149c-35 -21 -75 -34 -116 -34c-55 0 -108 28 -108 89c0 71 55 121 102 149c35 21 75 34 116 34z"
     fill="currentColor"
     id="path286" />
  <rect
     transform="translate(90.0712, 7.2203)"
     x="-0.0650"
     y="-3.0000"
     width="0.1300"
     height="2.8139"
     ry="0.0400"
     fill="currentColor"
     id="rect288" />
  <rect
     x="84.1278"
     y="12.551999"
     width="0.13"
     height="2.8139"
     ry="0.039999999"
     id="rect290"
     style="fill:currentColor" />
  <path
     d="m 84.9998,11.8219 c 0.22,0 0.432,0.112 0.432,0.356 0,0.283999 -0.22,0.483999 -0.408,0.595999 -0.14,0.084 -0.3,0.136 -0.464,0.136 -0.22,0 -0.432,-0.112 -0.432,-0.356 0,-0.284 0.22,-0.483999 0.408,-0.595999 0.14,-0.084 0.3,-0.136 0.464,-0.136 z"
     id="path292"
     inkscape:connector-curvature="0"
     style="fill:currentColor" />
  <path
     transform="translate(84.1278, 7.2203) scale(0.0040, -0.0040)"
     d="M72 -250l117 326c-34 -12 -69 -22 -105 -22c-46 0 -87 33 -87 79c0 40 33 72 73 72c25 0 48 -15 56 -39c10 -28 6 -59 35 -59c16 0 54 48 61 63c6 12 23 12 28 0l-123 -420c-8 -7 -17 -10 -27 -10s-20 3 -28 10z"
     fill="currentColor"
     id="path294" />
  <rect
     x="81.623596"
     y="12.551999"
     width="0.13"
     height="2.8139"
     ry="0.039999999"
     id="rect296"
     style="fill:currentColor" />
  <rect
     x="93.536201"
     y="12.551999"
     width="0.13"
     height="2.8139"
     ry="0.039999999"
     id="rect298"
     style="fill:currentColor" />
  <rect
     transform="translate(94.7755, 7.2203)"
     x="-0.0650"
     y="-3.3750"
     width="0.1300"
     height="3.1889"
     ry="0.0400"
     fill="currentColor"
     id="rect300" />
  <path
     d="m 94.4082,11.8219 c 0.22,0 0.432,0.112 0.432,0.356 0,0.283999 -0.22,0.483999 -0.408,0.595999 -0.14,0.084 -0.3,0.136 -0.464,0.136 -0.22,0 -0.432,-0.112 -0.432,-0.356 0,-0.284 0.22,-0.483999 0.408,-0.595999 0.14,-0.084 0.3,-0.136 0.464,-0.136 z"
     id="path302"
     inkscape:connector-curvature="0"
     style="fill:currentColor" />
  <path
     transform="translate(93.5362, 7.2203) scale(0.0040, -0.0040)"
     d="M218 136c55 0 108 -28 108 -89c0 -71 -55 -121 -102 -149c-35 -21 -75 -34 -116 -34c-55 0 -108 28 -108 89c0 71 55 121 102 149c35 21 75 34 116 34z"
     fill="currentColor"
     id="path304" />
  <path
     d="m 91.6242,13.365899 0.468,-1.303999 c -0.136,0.048 -0.276,0.088 -0.42,0.088 -0.184,0 -0.348,-0.132 -0.348,-0.316 0,-0.16 0.132,-0.288001 0.292,-0.288001 0.1,0 0.192,0.06 0.224,0.156001 0.04,0.112 0.024,0.236 0.14,0.236 0.064,0 0.216,-0.192 0.244,-0.252 0.024,-0.048 0.092,-0.048 0.112,0 l -0.492,1.679999 c -0.032,0.028 -0.068,0.04 -0.108,0.04 -0.04,0 -0.08,-0.012 -0.112,-0.04 z"
     id="path306"
     inkscape:connector-curvature="0"
     style="fill:currentColor" />
  <path
     transform="translate(91.3362, 7.2203) scale(0.0040, -0.0040)"
     d="M72 -250l117 326c-34 -12 -69 -22 -105 -22c-46 0 -87 33 -87 79c0 40 33 72 73 72c25 0 48 -15 56 -39c10 -28 6 -59 35 -59c16 0 54 48 61 63c6 12 23 12 28 0l-123 -420c-8 -7 -17 -10 -27 -10s-20 3 -28 10z"
     fill="currentColor"
     id="path308" />
  <path
     d="m 88.962,15.700899 -0.064,0 0,-1 0.064,0 c 0.388,-0.236 0.896,-0.592 0.896,-1.036 0,-0.228 -0.06,-0.448 -0.16,-0.652 -0.012,-0.064 0.04,-0.108 0.092,-0.108 0.028,0 0.06,0.012 0.08,0.044 0.1,0.224 0.16,0.468 0.16,0.716 0,0.812 -1.068,1.224 -1.068,2.036 z"
     id="path310"
     inkscape:connector-curvature="0"
     style="fill:currentColor" />
  <rect
     x="88.832001"
     y="12.551999"
     width="0.13"
     height="3.1889"
     ry="0.039999999"
     id="rect312"
     style="fill:currentColor" />
  <rect
     transform="translate(12.9506, 7.2203)"
     x="-0.0650"
     y="-3.0000"
     width="0.1300"
     height="2.8139"
     ry="0.0400"
     fill="currentColor"
     id="rect314" />
  <rect
     x="11.7113"
     y="12.551999"
     width="0.13"
     height="2.8139"
     ry="0.039999999"
     id="rect316"
     style="fill:currentColor" />
  <path
     d="m 12.5833,11.8219 c 0.22,0 0.432,0.112 0.432,0.356 0,0.283999 -0.22,0.483999 -0.408,0.595999 -0.14,0.084 -0.3,0.136 -0.464,0.136 -0.22,0 -0.432,-0.112 -0.432,-0.356 0,-0.284 0.22,-0.483999 0.408,-0.595999 0.14,-0.084 0.3,-0.136 0.464,-0.136 z"
     id="path320"
     inkscape:connector-curvature="0"
     style="fill:currentColor" />
  <path
     transform="translate(11.7113, 7.2203) scale(0.0040, -0.0040)"
     d="M218 136c55 0 108 -28 108 -89c0 -71 -55 -121 -102 -149c-35 -21 -75 -34 -116 -34c-55 0 -108 28 -108 89c0 71 55 121 102 149c35 21 75 34 116 34z"
     fill="currentColor"
     id="path324" />
  <rect
     transform="translate(82.8628, 7.2203)"
     x="-0.0650"
     y="-3.0000"
     width="0.1300"
     height="2.8139"
     ry="0.0400"
     fill="currentColor"
     id="rect334" />
  <path
     d="m 82.4956,11.8219 c 0.22,0 0.432,0.112 0.432,0.356 0,0.283999 -0.22,0.483999 -0.408,0.595999 -0.14,0.084 -0.3,0.136 -0.464,0.136 -0.22,0 -0.432,-0.112 -0.432,-0.356 0,-0.284 0.22,-0.483999 0.408,-0.595999 0.14,-0.084 0.3,-0.136 0.464,-0.136 z"
     id="path336"
     inkscape:connector-curvature="0"
     style="fill:currentColor" />
  <path
     transform="translate(81.6236, 7.2203) scale(0.0040, -0.0040)"
     d="M218 136c55 0 108 -28 108 -89c0 -71 -55 -121 -102 -149c-35 -21 -75 -34 -116 -34c-55 0 -108 28 -108 89c0 71 55 121 102 149c35 21 75 34 116 34z"
     fill="currentColor"
     id="path338" />
  <rect
     transform="translate(80.5107, 7.2203)"
     x="-0.0650"
     y="-3.0000"
     width="0.1300"
     height="2.8139"
     ry="0.0400"
     fill="currentColor"
     id="rect340" />
  <path
     d="m 79.5595,13.365899 0.468,-1.303999 c -0.136,0.048 -0.276,0.088 -0.42,0.088 -0.184,0 -0.348,-0.132 -0.348,-0.316 0,-0.16 0.132,-0.288001 0.292,-0.288001 0.1,0 0.192,0.06 0.224,0.156001 0.04,0.112 0.024,0.236 0.14,0.236 0.064,0 0.216,-0.192 0.244,-0.252 0.024,-0.048 0.092,-0.048 0.112,0 l -0.492,1.679999 c -0.032,0.028 -0.068,0.04 -0.108,0.04 -0.04,0 -0.08,-0.012 -0.112,-0.04 z"
     id="path342"
     inkscape:connector-curvature="0"
     style="fill:currentColor" />
  <path
     transform="translate(79.2715, 7.2203) scale(0.0040, -0.0040)"
     d="M218 136c55 0 108 -28 108 -89c0 -71 -55 -121 -102 -149c-35 -21 -75 -34 -116 -34c-55 0 -108 28 -108 89c0 71 55 121 102 149c35 21 75 34 116 34z"
     fill="currentColor"
     id="path344" />
  <path
     transform="translate(94.8405, 3.8853) scale(0.0040, -0.0040)"
     d="M0 0c0 -197 207 -336 207 -533c0 -71 -15 -141 -41 -207c-5 -8 -13 -12 -20 -12c-13 0 -26 11 -23 27c26 61 42 126 42 192c0 103 -94 208 -165 283h-16v250h16z"
     fill="currentColor"
     id="path346" />
  <path
     d="m 76.8973,15.700899 -0.064,0 0,-1 0.064,0 c 0.388,-0.236 0.896,-0.592 0.896,-1.036 0,-0.228 -0.06,-0.448 -0.16,-0.652 -0.012,-0.064 0.04,-0.108 0.092,-0.108 0.028,0 0.06,0.012 0.08,0.044 0.1,0.224 0.16,0.468 0.16,0.716 0,0.812 -1.068,1.224 -1.068,2.036 z"
     id="path348"
     inkscape:connector-curvature="0"
     style="fill:currentColor" />
  <rect
     x="76.767303"
     y="12.551999"
     width="0.13"
     height="3.1889"
     ry="0.039999999"
     id="rect350"
     style="fill:currentColor" />
  <rect
     transform="translate(17.9590, 7.2203)"
     x="-0.0650"
     y="-3.0000"
     width="0.1300"
     height="2.8139"
     ry="0.0400"
     fill="currentColor"
     id="rect352" />
  <path
     d="m 17.5918,11.8219 c 0.22,0 0.432,0.112 0.432,0.356 0,0.283999 -0.22,0.483999 -0.408,0.595999 -0.14,0.084 -0.3,0.136 -0.464,0.136 -0.22,0 -0.432,-0.112 -0.432,-0.356 0,-0.284 0.22,-0.483999 0.408,-0.595999 0.14,-0.084 0.3,-0.136 0.464,-0.136 z"
     id="path354"
     inkscape:connector-curvature="0"
     style="fill:currentColor" />
  <path
     transform="translate(16.7198, 7.2203) scale(0.0040, -0.0040)"
     d="M218 136c55 0 108 -28 108 -89c0 -71 -55 -121 -102 -149c-35 -21 -75 -34 -116 -34c-55 0 -108 28 -108 89c0 71 55 121 102 149c35 21 75 34 116 34z"
     fill="currentColor"
     id="path356" />
  <rect
     x="14.2156"
     y="12.551999"
     width="0.13"
     height="2.8139"
     ry="0.039999999"
     id="rect358"
     style="fill:currentColor" />
  <rect
     x="16.719801"
     y="12.551999"
     width="0.13"
     height="2.8139"
     ry="0.039999999"
     id="rect360"
     style="fill:currentColor" />
  <rect
     transform="translate(15.4548, 7.2203)"
     x="-0.0650"
     y="-3.0000"
     width="0.1300"
     height="2.8139"
     ry="0.0400"
     fill="currentColor"
     id="rect362" />
  <path
     d="m 15.0876,11.8219 c 0.22,0 0.432,0.112 0.432,0.356 0,0.283999 -0.22,0.483999 -0.408,0.595999 -0.14,0.084 -0.3,0.136 -0.464,0.136 -0.22,0 -0.432,-0.112 -0.432,-0.356 0,-0.284 0.22,-0.483999 0.408,-0.595999 0.14,-0.084 0.3,-0.136 0.464,-0.136 z"
     id="path364"
     inkscape:connector-curvature="0"
     style="fill:currentColor" />
  <path
     transform="translate(14.2156, 7.2203) scale(0.0040, -0.0040)"
     d="M218 136c55 0 108 -28 108 -89c0 -71 -55 -121 -102 -149c-35 -21 -75 -34 -116 -34c-55 0 -108 28 -108 89c0 71 55 121 102 149c35 21 75 34 116 34z"
     fill="currentColor"
     id="path366" />
  <path
     transform="translate(96.1687, 7.2203) scale(0.0040, -0.0040)"
     d="M72 -250l117 326c-34 -12 -69 -22 -105 -22c-46 0 -87 33 -87 79c0 40 33 72 73 72c25 0 48 -15 56 -39c10 -28 6 -59 35 -59c16 0 54 48 61 63c6 12 23 12 28 0l-123 -420c-8 -7 -17 -10 -27 -10s-20 3 -28 10z"
     fill="currentColor"
     id="path368" />
  <path
     transform="translate(21.4240, 7.2203) scale(0.0040, -0.0040)"
     d="M218 136c55 0 108 -28 108 -89c0 -71 -55 -121 -102 -149c-35 -21 -75 -34 -116 -34c-55 0 -108 28 -108 89c0 71 55 121 102 149c35 21 75 34 116 34z"
     fill="currentColor"
     id="path370" />
  <rect
     transform="translate(25.1674, 7.2203)"
     x="-0.0650"
     y="-3.0000"
     width="0.1300"
     height="2.8139"
     ry="0.0400"
     fill="currentColor"
     id="rect372" />
  <path
     d="m 24.8002,11.8219 c 0.22,0 0.432,0.112 0.432,0.356 0,0.283999 -0.22,0.483999 -0.408,0.595999 -0.14,0.084 -0.3,0.136 -0.464,0.136 -0.22,0 -0.432,-0.112 -0.432,-0.356 0,-0.284 0.22,-0.483999 0.408,-0.595999 0.14,-0.084 0.3,-0.136 0.464,-0.136 z"
     id="path374"
     inkscape:connector-curvature="0"
     style="fill:currentColor" />
  <path
     transform="translate(23.9282, 7.2203) scale(0.0040, -0.0040)"
     d="M218 136c55 0 108 -28 108 -89c0 -71 -55 -121 -102 -149c-35 -21 -75 -34 -116 -34c-55 0 -108 28 -108 89c0 71 55 121 102 149c35 21 75 34 116 34z"
     fill="currentColor"
     id="path376" />
  <rect
     x="21.424"
     y="12.551999"
     width="0.13"
     height="2.8139"
     ry="0.039999999"
     id="rect378"
     style="fill:currentColor" />
  <rect
     transform="translate(22.6632, 7.2203)"
     x="-0.0650"
     y="-3.0000"
     width="0.1300"
     height="2.8139"
     ry="0.0400"
     fill="currentColor"
     id="rect380" />
  <path
     d="m 22.296,11.8219 c 0.22,0 0.432,0.112 0.432,0.356 0,0.283999 -0.22,0.483999 -0.408,0.595999 -0.14,0.084 -0.3,0.136 -0.464,0.136 -0.22,0 -0.432,-0.112 -0.432,-0.356 0,-0.284 0.22,-0.483999 0.408,-0.595999 0.14,-0.084 0.3,-0.136 0.464,-0.136 z"
     id="path382"
     inkscape:connector-curvature="0"
     style="fill:currentColor" />
  <path
     d="M 19.512,13.365899 19.98,12.0619 c -0.136,0.048 -0.276,0.088 -0.42,0.088 -0.184,0 -0.348,-0.132 -0.348,-0.316 0,-0.16 0.132,-0.288001 0.292,-0.288001 0.1,0 0.192,0.06 0.224,0.156001 0.04,0.112 0.024,0.236 0.14,0.236 0.064,0 0.216,-0.192 0.244,-0.252 0.024,-0.048 0.092,-0.048 0.112,0 l -0.492,1.679999 c -0.032,0.028 -0.068,0.04 -0.108,0.04 -0.04,0 -0.08,-0.012 -0.112,-0.04 z"
     id="path384"
     inkscape:connector-curvature="0"
     style="fill:currentColor" />
  <path
     transform="translate(19.2240, 7.2203) scale(0.0040, -0.0040)"
     d="M72 -250l117 326c-34 -12 -69 -22 -105 -22c-46 0 -87 33 -87 79c0 40 33 72 73 72c25 0 48 -15 56 -39c10 -28 6 -59 35 -59c16 0 54 48 61 63c6 12 23 12 28 0l-123 -420c-8 -7 -17 -10 -27 -10s-20 3 -28 10z"
     fill="currentColor"
     id="path386" />
  <path
     d="m 101.7449,11.8219 c 0.22,0 0.432,0.112 0.432,0.356 0,0.283999 -0.22,0.483999 -0.408,0.595999 -0.14,0.084 -0.3,0.136 -0.464,0.136 -0.22,0 -0.432,-0.112 -0.432,-0.356 0,-0.284 0.22,-0.483999 0.408,-0.595999 0.14,-0.084 0.3,-0.136 0.464,-0.136 z"
     id="path388"
     inkscape:connector-curvature="0"
     style="fill:currentColor" />
  <rect
     x="100.8729"
     y="12.551999"
     width="0.13"
     height="2.8139"
     ry="0.039999999"
     id="rect390"
     style="fill:currentColor" />
  <path
     transform="translate(98.5208, 7.2203) scale(0.0040, -0.0040)"
     d="M218 136c55 0 108 -28 108 -89c0 -71 -55 -121 -102 -149c-35 -21 -75 -34 -116 -34c-55 0 -108 28 -108 89c0 71 55 121 102 149c35 21 75 34 116 34z"
     fill="currentColor"
     id="path392" />
  <rect
     transform="translate(102.1121, 7.2203)"
     x="-0.0650"
     y="-3.0000"
     width="0.1300"
     height="2.8139"
     ry="0.0400"
     fill="currentColor"
     id="rect394" />
  <path
     transform="translate(100.8729, 7.2203) scale(0.0040, -0.0040)"
     d="M218 136c55 0 108 -28 108 -89c0 -71 -55 -121 -102 -149c-35 -21 -75 -34 -116 -34c-55 0 -108 28 -108 89c0 71 55 121 102 149c35 21 75 34 116 34z"
     fill="currentColor"
     id="path396" />
  <path
     d="m 98.8088,13.365899 0.468,-1.303999 c -0.136,0.048 -0.276,0.088 -0.42,0.088 -0.184,0 -0.348,-0.132 -0.348,-0.316 0,-0.16 0.132,-0.288001 0.292,-0.288001 0.1,0 0.192,0.06 0.224,0.156001 0.04,0.112 0.024,0.236 0.14,0.236 0.064,0 0.216,-0.192 0.244,-0.252 0.024,-0.048 0.092,-0.048 0.112,0 l -0.492,1.679999 c -0.032,0.028 -0.068,0.04 -0.108,0.04 -0.04,0 -0.08,-0.012 -0.112,-0.04 z"
     id="path398"
     inkscape:connector-curvature="0"
     style="fill:currentColor" />
  <rect
     transform="translate(99.7600, 7.2203)"
     x="-0.0650"
     y="-3.0000"
     width="0.1300"
     height="2.8139"
     ry="0.0400"
     fill="currentColor"
     id="rect400" />
  <path
     transform="translate(103.3771, 7.2203) scale(0.0040, -0.0040)"
     d="M72 -250l117 326c-34 -12 -69 -22 -105 -22c-46 0 -87 33 -87 79c0 40 33 72 73 72c25 0 48 -15 56 -39c10 -28 6 -59 35 -59c16 0 54 48 61 63c6 12 23 12 28 0l-123 -420c-8 -7 -17 -10 -27 -10s-20 3 -28 10z"
     fill="currentColor"
     id="path402" />
  <path
     d="m 97.0407,11.8219 c 0.22,0 0.432,0.112 0.432,0.356 0,0.283999 -0.22,0.483999 -0.408,0.595999 -0.14,0.084 -0.3,0.136 -0.464,0.136 -0.22,0 -0.432,-0.112 -0.432,-0.356 0,-0.284 0.22,-0.483999 0.408,-0.595999 0.14,-0.084 0.3,-0.136 0.464,-0.136 z"
     id="path404"
     inkscape:connector-curvature="0"
     style="fill:currentColor" />
  <rect
     x="103.3771"
     y="12.551999"
     width="0.13"
     height="2.8139"
     ry="0.039999999"
     id="rect406"
     style="fill:currentColor" />
  <path
     d="m 104.2491,11.8219 c 0.22,0 0.432,0.112 0.432,0.356 0,0.283999 -0.22,0.483999 -0.408,0.595999 -0.14,0.084 -0.3,0.136 -0.464,0.136 -0.22,0 -0.432,-0.112 -0.432,-0.356 0,-0.284 0.22,-0.483999 0.408,-0.595999 0.14,-0.084 0.3,-0.136 0.464,-0.136 z"
     id="path408"
     inkscape:connector-curvature="0"
     style="fill:currentColor" />
  <rect
     x="96.168701"
     y="12.551999"
     width="0.13"
     height="2.8139"
     ry="0.039999999"
     id="rect410"
     style="fill:currentColor" />
  <text
     xml:space="preserve"
     style="font-style:normal;font-weight:normal;font-size:1.94200087px;line-height:125%;font-family:sans-serif;letter-spacing:0px;word-spacing:0px;fill:#000000;fill-opacity:1;stroke:none;stroke-width:1px;stroke-linecap:butt;stroke-linejoin:miter;stroke-opacity:1"
     x="11.381384"
     y="3.7149837"
     id="text4591"
     sodipodi:linespacing="125%"><tspan
       sodipodi:role="line"
       id="tspan4593"
       x="11.381384"
       y="3.7149837"
       style="-inkscape-font-specification:'sans-serif Bold';font-family:sans-serif;font-weight:bold;font-style:normal;font-stretch:normal;font-variant:normal">A</tspan></text>
  <text
     xml:space="preserve"
     style="font-style:normal;font-weight:normal;font-size:1.94200087px;line-height:125%;font-family:sans-serif;letter-spacing:0px;word-spacing:0px;fill:#000000;fill-opacity:1;stroke:none;stroke-width:1px;stroke-linecap:butt;stroke-linejoin:miter;stroke-opacity:1"
     x="20.999512"
     y="3.6395671"
     id="text4591-8"
     sodipodi:linespacing="125%"><tspan
       sodipodi:role="line"
       id="tspan4593-9"
       x="20.999512"
       y="3.6395671"
       style="font-style:normal;font-variant:normal;font-weight:bold;font-stretch:normal;font-family:sans-serif;-inkscape-font-specification:'sans-serif Bold'">B</tspan></text>
  <text
     xml:space="preserve"
     style="font-style:normal;font-weight:normal;font-size:1.94200087px;line-height:125%;font-family:sans-serif;letter-spacing:0px;word-spacing:0px;fill:#000000;fill-opacity:1;stroke:none;stroke-width:1px;stroke-linecap:butt;stroke-linejoin:miter;stroke-opacity:1"
     x="10.913208"
     y="1.7149369"
     id="text4591-8-8"
     sodipodi:linespacing="125%"><tspan
       sodipodi:role="line"
       id="tspan4593-9-6"
       x="10.913208"
       y="1.7149369"
       style="font-style:normal;font-variant:normal;font-weight:bold;font-stretch:normal;font-family:sans-serif;-inkscape-font-specification:'sans-serif Bold'">C</tspan></text>
  <text
     xml:space="preserve"
     style="font-style:normal;font-weight:normal;font-size:1.94200087px;line-height:125%;font-family:sans-serif;letter-spacing:0px;word-spacing:0px;fill:#000000;fill-opacity:1;stroke:none;stroke-width:1px;stroke-linecap:butt;stroke-linejoin:miter;stroke-opacity:1"
     x="28.46656"
     y="3.6619465"
     id="text4591-8-2"
     sodipodi:linespacing="125%"><tspan
       sodipodi:role="line"
       id="tspan4593-9-9"
       x="28.46656"
       y="3.6619465"
       style="font-style:normal;font-variant:normal;font-weight:bold;font-stretch:normal;font-family:sans-serif;-inkscape-font-specification:'sans-serif Bold'">D</tspan></text>
  <rect
     style="opacity:1;fill:none;fill-opacity:1;stroke:#929292;stroke-width:0.13271932;stroke-miterlimit:10;stroke-dasharray:none;stroke-dashoffset:0;stroke-opacity:1"
     id="rect3744-2-8-7-5"
     width="30.13839"
     height="11.214586"
     x="10.33145"
     y="-1.9370683"
     ry="0.0078502893" />
  <text
     xml:space="preserve"
     style="font-style:normal;font-weight:normal;font-size:1.94200087px;line-height:125%;font-family:sans-serif;letter-spacing:0px;word-spacing:0px;fill:#000000;fill-opacity:1;stroke:none;stroke-width:1px;stroke-linecap:butt;stroke-linejoin:miter;stroke-opacity:1"
     x="10.479579"
     y="-0.27683204"
     id="text4591-8-2-3"
     sodipodi:linespacing="125%"><tspan
       sodipodi:role="line"
       id="tspan4593-9-9-0"
       x="10.479579"
       y="-0.27683204"
       style="font-style:normal;font-variant:normal;font-weight:bold;font-stretch:normal;font-family:sans-serif;-inkscape-font-specification:'sans-serif Bold'">E</tspan></text>
  <rect
     style="opacity:1;fill:none;fill-opacity:1;stroke:#929292;stroke-width:0.14454003;stroke-miterlimit:10;stroke-dasharray:none;stroke-dashoffset:0;stroke-opacity:1"
     id="rect3744-2-8-7-5-5"
     width="33.965923"
     height="13.47556"
     x="8.1715097"
     y="-3.8955941"
     ry="0.0094329873" />
  <text
     xml:space="preserve"
     style="font-style:normal;font-weight:normal;font-size:1.94200087px;line-height:125%;font-family:sans-serif;letter-spacing:0px;word-spacing:0px;fill:#000000;fill-opacity:1;stroke:none;stroke-width:1px;stroke-linecap:butt;stroke-linejoin:miter;stroke-opacity:1"
     x="8.3152151"
     y="-2.2462213"
     id="text4591-8-2-3-7"
     sodipodi:linespacing="125%"><tspan
       sodipodi:role="line"
       id="tspan4593-9-9-0-4"
       x="8.3152151"
       y="-2.2462213"
       style="font-style:normal;font-variant:normal;font-weight:bold;font-stretch:normal;font-family:sans-serif;-inkscape-font-specification:'sans-serif Bold'">F</tspan></text>
  <rect
     style="opacity:1;fill:none;fill-opacity:1;stroke:#929292;stroke-width:0.14454003;stroke-miterlimit:10;stroke-dasharray:none;stroke-dashoffset:0;stroke-opacity:1"
     id="rect3744-2-8-7-5-5-3"
     width="104.73154"
     height="15.625542"
     x="7.211484"
     y="-5.8401089"
     ry="0.01093799" />
  <text
     xml:space="preserve"
     style="font-style:normal;font-weight:normal;font-size:1.94200087px;line-height:125%;font-family:sans-serif;letter-spacing:0px;word-spacing:0px;fill:#000000;fill-opacity:1;stroke:none;stroke-width:1px;stroke-linecap:butt;stroke-linejoin:miter;stroke-opacity:1"
     x="7.4946337"
     y="-4.3537941"
     id="text4591-8-2-3-7-9"
     sodipodi:linespacing="125%"><tspan
       sodipodi:role="line"
       id="tspan4593-9-9-0-4-0"
       x="7.4946337"
       y="-4.3537941"
       style="font-style:normal;font-variant:normal;font-weight:bold;font-stretch:normal;font-family:sans-serif;-inkscape-font-specification:'sans-serif Bold'">G</tspan></text>
  <rect
     style="opacity:1;fill:none;fill-opacity:1;stroke:#929292;stroke-width:0.15340447;stroke-miterlimit:10;stroke-dasharray:none;stroke-dashoffset:0;stroke-opacity:1"
     id="rect3744-2-8-7-5-5-3-2"
     width="69.969833"
     height="7.0925231"
     x="41.866024"
     y="10.328981"
     ry="0.0049648164" />
  <text
     xml:space="preserve"
     style="font-style:normal;font-weight:normal;font-size:1.94200087px;line-height:125%;font-family:sans-serif;letter-spacing:0px;word-spacing:0px;fill:#000000;fill-opacity:1;stroke:none;stroke-width:1px;stroke-linecap:butt;stroke-linejoin:miter;stroke-opacity:1"
     x="41.926174"
     y="17.178171"
     id="text4591-8-2-3-7-9-7"
     sodipodi:linespacing="125%"><tspan
       sodipodi:role="line"
       id="tspan4593-9-9-0-4-0-4"
       x="41.926174"
       y="17.178171"
       style="font-style:normal;font-variant:normal;font-weight:bold;font-stretch:normal;font-family:sans-serif;-inkscape-font-specification:'sans-serif Bold'">H</tspan></text>
</svg>
