<?xml version="1.0" encoding="UTF-8" standalone="no"?>
<svg
   xmlns:dc="http://purl.org/dc/elements/1.1/"
   xmlns:cc="http://creativecommons.org/ns#"
   xmlns:rdf="http://www.w3.org/1999/02/22-rdf-syntax-ns#"
   xmlns:svg="http://www.w3.org/2000/svg"
   xmlns="http://www.w3.org/2000/svg"
   version="1.1"
   id="svg2"
   viewBox="0 0 151 245.16797"
   height="69.191849mm"
   width="42.615555mm">
  <defs
     id="defs4" />
  <metadata
     id="metadata7">
    <rdf:RDF>
      <cc:Work
         rdf:about="">
        <dc:format>image/svg+xml</dc:format>
        <dc:type
           rdf:resource="http://purl.org/dc/dcmitype/StillImage" />
        <dc:title></dc:title>
      </cc:Work>
    </rdf:RDF>
  </metadata>
  <g
     transform="translate(482.42859,-14.400087)"
     id="layer1">
    <path
       id="path3347"
       d="m -375.48405,184.39407 c -21.6945,-16.01105 -40.00704,-29.82206 -40.69454,-30.69113 -0.94999,-1.20089 -1.25,-10.63496 -1.25,-39.30722 0,-20.749896 0.29286,-38.490266 0.65081,-39.423056 0.64953,-1.69266 4.114,-4.33244 54.67188,-41.65779 22.85558,-16.87358 27.10774,-19.64982 28.75,-18.77091 1.8829,1.0077 1.92731,3.28404 1.92731,98.796276 0,99.44891 -0.025,100.16482 -3.50546,100.16482 -0.608,0 -18.8555,-13.09995 -40.55,-29.11099 z m -106.33755,-31.4708 c -0.33384,-0.86998 -0.60699,-18.77998 -0.60699,-39.8 0,-28.391936 0.30853,-38.526736 1.2,-39.418206 1.70979,-1.70979 53.89021,-1.70979 55.6,0 1.72291,1.72291 1.72291,77.877086 0,79.599996 -0.87449,0.87449 -8.57622,1.2 -28.39301,1.2 -23.87398,0 -27.2671,-0.19306 -27.8,-1.58179 z"
       style="fill:#000000" />
  </g>
</svg>
