<svg xmlns="http://www.w3.org/2000/svg" xmlns:xlink="http://www.w3.org/1999/xlink" version="1.2" width="210.00mm" height="297.00mm" viewBox="0 0 119.5016 169.0094">
<!-- Page: 1/1 -->
<text transform="translate(5.6906, 2.8453)" font-family="serif" font-size="2.2001" text-anchor="start" fill="currentColor">
<tspan/>
</text>
<line transform="translate(5.6906, 4.8453)" stroke-linejoin="round" stroke-linecap="round" stroke-width="0.1000" stroke="currentColor" x1="0.0500" y1="-0.0000" x2="60.4619" y2="-0.0000"/>
<a style="color:inherit;" xlink:href="textedit:///Users/mbp-15_touch/Dropbox/tesis/GenoMus/ly/rhythm/prolatio_examples.ly:23:29:30">
<path transform="translate(28.2996, 4.8453) scale(0.0040, -0.0040)" d="M218 136c55 0 108 -28 108 -89c0 -71 -55 -121 -102 -149c-35 -21 -75 -34 -116 -34c-55 0 -108 28 -108 89c0 71 55 121 102 149c35 21 75 34 116 34z" fill="currentColor"/>
</a>
<a style="color:inherit;" xlink:href="textedit:///Users/mbp-15_touch/Dropbox/tesis/GenoMus/ly/rhythm/prolatio_examples.ly:23:64:65">
<path transform="translate(62.0002, 4.8453) scale(0.0040, -0.0040)" d="M218 136c55 0 108 -28 108 -89c0 -71 -55 -121 -102 -149c-35 -21 -75 -34 -116 -34c-55 0 -108 28 -108 89c0 71 55 121 102 149c35 21 75 34 116 34z" fill="currentColor"/>
</a>
<rect transform="translate(24.1623, 4.8453)" x="-0.0650" y="0.1861" width="0.1300" height="3.0039" ry="0.0400" fill="currentColor"/>
<a style="color:inherit;" xlink:href="textedit:///Users/mbp-15_touch/Dropbox/tesis/GenoMus/ly/rhythm/prolatio_examples.ly:23:26:27">
<path transform="translate(24.0973, 4.8453) scale(0.0040, -0.0040)" d="M218 136c55 0 108 -28 108 -89c0 -71 -55 -121 -102 -149c-35 -21 -75 -34 -116 -34c-55 0 -108 28 -108 89c0 71 55 121 102 149c35 21 75 34 116 34z" fill="currentColor"/>
</a>
<rect transform="translate(19.9601, 4.8453)" x="-0.0650" y="0.1861" width="0.1300" height="3.0039" ry="0.0400" fill="currentColor"/>
<a style="color:inherit;" xlink:href="textedit:///Users/mbp-15_touch/Dropbox/tesis/GenoMus/ly/rhythm/prolatio_examples.ly:23:23:24">
<path transform="translate(19.8951, 4.8453) scale(0.0040, -0.0040)" d="M218 136c55 0 108 -28 108 -89c0 -71 -55 -121 -102 -149c-35 -21 -75 -34 -116 -34c-55 0 -108 28 -108 89c0 71 55 121 102 149c35 21 75 34 116 34z" fill="currentColor"/>
</a>
<rect transform="translate(15.7578, 4.8453)" x="-0.0650" y="0.1861" width="0.1300" height="3.0039" ry="0.0400" fill="currentColor"/>
<a style="color:inherit;" xlink:href="textedit:///Users/mbp-15_touch/Dropbox/tesis/GenoMus/ly/rhythm/prolatio_examples.ly:23:20:21">
<path transform="translate(15.6928, 4.8453) scale(0.0040, -0.0040)" d="M218 136c55 0 108 -28 108 -89c0 -71 -55 -121 -102 -149c-35 -21 -75 -34 -116 -34c-55 0 -108 28 -108 89c0 71 55 121 102 149c35 21 75 34 116 34z" fill="currentColor"/>
</a>
<rect transform="translate(62.0652, 4.8453)" x="-0.0650" y="0.1861" width="0.1300" height="4.0039" ry="0.0400" fill="currentColor"/>
<a style="color:inherit;" xlink:href="textedit:///Users/mbp-15_touch/Dropbox/tesis/GenoMus/ly/rhythm/prolatio_examples.ly:23:18:19">
<polygon transform="translate(11.4906, 7.2253)" stroke-linejoin="round" stroke-linecap="round" stroke-width="0.0800" fill="currentColor" stroke="currentColor" points="12.6968 -0.2000 12.6968 0.2000 0.0400 0.2000 0.0400 -0.2000"/>
<polygon transform="translate(11.4906, 8.0353)" stroke-linejoin="round" stroke-linecap="round" stroke-width="0.0800" fill="currentColor" stroke="currentColor" points="16.8990 -0.2000 16.8990 0.2000 0.0400 0.2000 0.0400 -0.2000"/>
</a>
<rect transform="translate(42.3442, 4.8453)" x="-0.0650" y="0.1861" width="0.1300" height="4.0039" ry="0.0400" fill="currentColor"/>
<a style="color:inherit;" xlink:href="textedit:///Users/mbp-15_touch/Dropbox/tesis/GenoMus/ly/rhythm/prolatio_examples.ly:23:2:3">
</a>
<a style="color:inherit;" xlink:href="textedit:///Users/mbp-15_touch/Dropbox/tesis/GenoMus/ly/rhythm/prolatio_examples.ly:23:2:3">
<text transform="translate(19.5162, 9.9728)" font-family="serif" font-style="italic" font-size="1.7461" text-anchor="start" fill="currentColor">
<tspan>
6</tspan>
</text>
</a>
<a style="color:inherit;" xlink:href="textedit:///Users/mbp-15_touch/Dropbox/tesis/GenoMus/ly/rhythm/prolatio_examples.ly:23:38:39">
<polygon transform="translate(45.6503, 6.4153)" stroke-linejoin="round" stroke-linecap="round" stroke-width="0.0800" fill="currentColor" stroke="currentColor" points="1.1250 -0.2000 1.1250 0.2000 0.0400 0.2000 0.0400 -0.2000"/>
<polygon transform="translate(42.2792, 7.2886)" stroke-linejoin="round" stroke-linecap="round" stroke-width="0.0800" fill="currentColor" stroke="currentColor" points="10.7046 -0.2000 10.7046 0.2000 0.0400 0.2000 0.0400 -0.2000"/>
<polygon transform="translate(60.9652, 8.1619)" stroke-linejoin="round" stroke-linecap="round" stroke-width="0.0800" fill="currentColor" stroke="currentColor" points="1.1250 -0.2000 1.1250 0.2000 0.0400 0.2000 0.0400 -0.2000"/>
<polygon transform="translate(42.2792, 8.1619)" stroke-linejoin="round" stroke-linecap="round" stroke-width="0.0800" fill="currentColor" stroke="currentColor" points="10.7046 -0.2000 10.7046 0.2000 0.0400 0.2000 0.0400 -0.2000"/>
<polygon transform="translate(42.2792, 9.0353)" stroke-linejoin="round" stroke-linecap="round" stroke-width="0.0800" fill="currentColor" stroke="currentColor" points="19.8111 -0.2000 19.8111 0.2000 0.0400 0.2000 0.0400 -0.2000"/>
</a>
<a style="color:inherit;" xlink:href="textedit:///Users/mbp-15_touch/Dropbox/tesis/GenoMus/ly/rhythm/prolatio_examples.ly:23:49:50">
<line transform="translate(56.5980, 10.3753)" stroke-linejoin="round" stroke-linecap="round" stroke-width="0.1600" stroke="currentColor" x1="5.7323" y1="-0.0000" x2="5.7323" y2="-0.7000"/>
<line transform="translate(56.5980, 10.3753)" stroke-linejoin="round" stroke-linecap="round" stroke-width="0.1600" stroke="currentColor" x1="-0.2000" y1="-0.0000" x2="-0.2000" y2="-0.7000"/>
<line transform="translate(56.5980, 10.3753)" stroke-linejoin="round" stroke-linecap="round" stroke-width="0.1600" stroke="currentColor" x1="5.7323" y1="-0.0000" x2="3.8100" y2="-0.0000"/>
<line transform="translate(56.5980, 10.3753)" stroke-linejoin="round" stroke-linecap="round" stroke-width="0.1600" stroke="currentColor" x1="-0.2000" y1="-0.0000" x2="1.9223" y2="-0.0000"/>
</a>
<a style="color:inherit;" xlink:href="textedit:///Users/mbp-15_touch/Dropbox/tesis/GenoMus/ly/rhythm/prolatio_examples.ly:23:49:50">
<text transform="translate(58.9203, 10.9557)" font-family="serif" font-style="italic" font-size="1.7461" text-anchor="start" fill="currentColor">
<tspan>
3</tspan>
</text>
</a>
<a style="color:inherit;" xlink:href="textedit:///Users/mbp-15_touch/Dropbox/tesis/GenoMus/ly/rhythm/prolatio_examples.ly:23:40:41">
<path transform="translate(46.6853, 4.8453) scale(0.0040, -0.0040)" d="M218 136c55 0 108 -28 108 -89c0 -71 -55 -121 -102 -149c-35 -21 -75 -34 -116 -34c-55 0 -108 28 -108 89c0 71 55 121 102 149c35 21 75 34 116 34z" fill="currentColor"/>
</a>
<rect transform="translate(28.3646, 4.8453)" x="-0.0650" y="0.1861" width="0.1300" height="3.0039" ry="0.0400" fill="currentColor"/>
<path transform="translate(44.0334, 4.3453) scale(0.0040, -0.0040)" d="M0 0c0 31 25 56 56 56s56 -25 56 -56s-25 -56 -56 -56s-56 25 -56 56z" fill="currentColor"/>
<a style="color:inherit;" xlink:href="textedit:///Users/mbp-15_touch/Dropbox/tesis/GenoMus/ly/rhythm/prolatio_examples.ly:23:35:36">
<path transform="translate(42.2792, 4.8453) scale(0.0040, -0.0040)" d="M218 136c55 0 108 -28 108 -89c0 -71 -55 -121 -102 -149c-35 -21 -75 -34 -116 -34c-55 0 -108 28 -108 89c0 71 55 121 102 149c35 21 75 34 116 34z" fill="currentColor"/>
</a>
<rect transform="translate(33.7668, 4.8453)" x="-0.0650" y="0.2590" width="0.1300" height="3.0743" ry="0.0400" fill="currentColor"/>
<a style="color:inherit;" xlink:href="textedit:///Users/mbp-15_touch/Dropbox/tesis/GenoMus/ly/rhythm/prolatio_examples.ly:23:33:34">
<path transform="translate(33.7018, 4.8453) scale(0.0040, -0.0040)" d="M314 65c0 24 -21 41 -42 41c-4 0 -8 0 -12 -1c-31 -9 -78 -40 -115 -64s-84 -53 -104 -78c-7 -8 -10 -18 -10 -28c0 -24 21 -41 42 -41c4 0 8 0 12 1c31 9 77 40 114 64s84 53 104 78c7 8 11 18 11 28zM262 136c46 0 82 -21 82 -71c0 -19 -4 -39 -10 -57
c-12 -37 -32 -72 -64 -94c-53 -36 -113 -50 -187 -50c-46 0 -83 21 -83 71c0 19 5 39 11 57c12 37 31 72 63 94c53 36 114 50 188 50z" fill="currentColor"/>
</a>
<rect transform="translate(46.7503, 4.8453)" x="-0.0650" y="0.1861" width="0.1300" height="4.0039" ry="0.0400" fill="currentColor"/>
<rect transform="translate(11.5556, 4.8453)" x="-0.0650" y="0.1861" width="0.1300" height="3.0039" ry="0.0400" fill="currentColor"/>
<a style="color:inherit;" xlink:href="textedit:///Users/mbp-15_touch/Dropbox/tesis/GenoMus/ly/rhythm/prolatio_examples.ly:8:2:3">
</a>
<path transform="translate(5.8206, 4.8453) scale(0.0040, -0.0040)" d="M490 -250h-92c-6 0 -10 4 -10 10v480c0 6 4 10 10 10h92c6 0 10 -4 10 -10v-480c0 -6 -4 -10 -10 -10zM270 -250h-93c-6 0 -10 4 -10 10v480c0 6 4 10 10 10h93c6 0 10 -4 10 -10v-480c0 -6 -4 -10 -10 -10z" fill="currentColor"/>
<a style="color:inherit;" xlink:href="textedit:///Users/mbp-15_touch/Dropbox/tesis/GenoMus/ly/rhythm/prolatio_examples.ly:23:15:16">
<path transform="translate(11.4906, 4.8453) scale(0.0040, -0.0040)" d="M218 136c55 0 108 -28 108 -89c0 -71 -55 -121 -102 -149c-35 -21 -75 -34 -116 -34c-55 0 -108 28 -108 89c0 71 55 121 102 149c35 21 75 34 116 34z" fill="currentColor"/>
</a>
<text transform="translate(5.3906, 4.8453)" font-family="serif" font-size="2.2001" text-anchor="start" fill="currentColor">
<tspan/>
</text>
<rect transform="translate(52.9588, 4.8453)" x="-0.0650" y="0.1861" width="0.1300" height="4.0039" ry="0.0400" fill="currentColor"/>
<a style="color:inherit;" xlink:href="textedit:///Users/mbp-15_touch/Dropbox/tesis/GenoMus/ly/rhythm/prolatio_examples.ly:23:62:63">
<path transform="translate(56.5980, 4.8453) scale(0.0040, -0.0040)" d="M218 136c55 0 108 -28 108 -89c0 -71 -55 -121 -102 -149c-35 -21 -75 -34 -116 -34c-55 0 -108 28 -108 89c0 71 55 121 102 149c35 21 75 34 116 34z" fill="currentColor"/>
</a>
<a style="color:inherit;" xlink:href="textedit:///Users/mbp-15_touch/Dropbox/tesis/GenoMus/ly/rhythm/prolatio_examples.ly:23:46:47">
<path transform="translate(52.8938, 4.8453) scale(0.0040, -0.0040)" d="M218 136c55 0 108 -28 108 -89c0 -71 -55 -121 -102 -149c-35 -21 -75 -34 -116 -34c-55 0 -108 28 -108 89c0 71 55 121 102 149c35 21 75 34 116 34z" fill="currentColor"/>
</a>
<rect transform="translate(56.6630, 4.8453)" x="-0.0650" y="0.1861" width="0.1300" height="4.0039" ry="0.0400" fill="currentColor"/>
<rect transform="translate(49.2546, 4.8453)" x="-0.0650" y="0.1861" width="0.1300" height="4.0039" ry="0.0400" fill="currentColor"/>
<a style="color:inherit;" xlink:href="textedit:///Users/mbp-15_touch/Dropbox/tesis/GenoMus/ly/rhythm/prolatio_examples.ly:23:43:44">
<path transform="translate(49.1896, 4.8453) scale(0.0040, -0.0040)" d="M218 136c55 0 108 -28 108 -89c0 -71 -55 -121 -102 -149c-35 -21 -75 -34 -116 -34c-55 0 -108 28 -108 89c0 71 55 121 102 149c35 21 75 34 116 34z" fill="currentColor"/>
</a>
</svg>
