<svg xmlns="http://www.w3.org/2000/svg" xmlns:xlink="http://www.w3.org/1999/xlink" version="1.2" width="210.00mm" height="297.00mm" viewBox="0 0 119.5016 169.0094">
<!-- Page: 1/1 -->
<text transform="translate(5.6906, 2.8453)" font-family="serif" font-size="2.2001" text-anchor="start" fill="currentColor">
<tspan/>
</text>
<line transform="translate(5.6906, 5.0755)" stroke-linejoin="round" stroke-linecap="round" stroke-width="0.1000" stroke="currentColor" x1="0.0500" y1="-0.0000" x2="43.0507" y2="-0.0000"/>
<rect transform="translate(42.0500, 5.0755)" x="-0.0650" y="0.1861" width="0.1300" height="4.0039" ry="0.0400" fill="currentColor"/>
<rect transform="translate(19.9601, 5.0755)" x="-0.0650" y="0.1861" width="0.1300" height="3.1472" ry="0.0400" fill="currentColor"/>
<a style="color:inherit;" xlink:href="textedit:///Users/mbp-15_touch/Dropbox/tesis/GenoMus/ly/rhythm/prolatio_examples.ly:29:24:25">
<path transform="translate(19.8951, 5.0755) scale(0.0040, -0.0040)" d="M218 136c55 0 108 -28 108 -89c0 -71 -55 -121 -102 -149c-35 -21 -75 -34 -116 -34c-55 0 -108 28 -108 89c0 71 55 121 102 149c35 21 75 34 116 34z" fill="currentColor"/>
</a>
<rect transform="translate(15.7578, 5.0755)" x="-0.0650" y="0.1861" width="0.1300" height="3.0039" ry="0.0400" fill="currentColor"/>
<a style="color:inherit;" xlink:href="textedit:///Users/mbp-15_touch/Dropbox/tesis/GenoMus/ly/rhythm/prolatio_examples.ly:29:20:21">
<path transform="translate(15.6928, 5.0755) scale(0.0040, -0.0040)" d="M218 136c55 0 108 -28 108 -89c0 -71 -55 -121 -102 -149c-35 -21 -75 -34 -116 -34c-55 0 -108 28 -108 89c0 71 55 121 102 149c35 21 75 34 116 34z" fill="currentColor"/>
</a>
<a style="color:inherit;" xlink:href="textedit:///Users/mbp-15_touch/Dropbox/tesis/GenoMus/ly/rhythm/prolatio_examples.ly:29:18:19">
<polygon transform="translate(11.4906, 7.4555)" stroke-linejoin="round" stroke-linecap="round" stroke-width="0.0800" fill="currentColor" stroke="currentColor" points="4.2923 -0.2000 4.2923 0.2000 0.0400 0.2000 0.0400 -0.2000"/>
<polygon transform="translate(11.4906, 8.2655)" stroke-linejoin="round" stroke-linecap="round" stroke-width="0.0800" fill="currentColor" stroke="currentColor" points="4.2923 -0.2000 4.2923 0.2000 0.0400 0.2000 0.0400 -0.2000"/>
</a>
<rect transform="translate(35.1397, 5.0755)" x="-0.0650" y="0.1861" width="0.1300" height="4.0039" ry="0.0400" fill="currentColor"/>
<a style="color:inherit;" xlink:href="textedit:///Users/mbp-15_touch/Dropbox/tesis/GenoMus/ly/rhythm/prolatio_examples.ly:29:2:3">
<line transform="translate(11.4906, 9.6055)" stroke-linejoin="round" stroke-linecap="round" stroke-width="0.1600" stroke="currentColor" x1="8.7345" y1="-0.0000" x2="8.7345" y2="-0.7000"/>
<line transform="translate(11.4906, 9.6055)" stroke-linejoin="round" stroke-linecap="round" stroke-width="0.1600" stroke="currentColor" x1="-0.2000" y1="-0.0000" x2="-0.2000" y2="-0.7000"/>
<line transform="translate(11.4906, 9.6055)" stroke-linejoin="round" stroke-linecap="round" stroke-width="0.1600" stroke="currentColor" x1="8.7345" y1="-0.0000" x2="5.3111" y2="-0.0000"/>
<line transform="translate(11.4906, 9.6055)" stroke-linejoin="round" stroke-linecap="round" stroke-width="0.1600" stroke="currentColor" x1="-0.2000" y1="-0.0000" x2="3.4234" y2="-0.0000"/>
</a>
<a style="color:inherit;" xlink:href="textedit:///Users/mbp-15_touch/Dropbox/tesis/GenoMus/ly/rhythm/prolatio_examples.ly:29:2:3">
<text transform="translate(15.3139, 10.2030)" font-family="serif" font-style="italic" font-size="1.7461" text-anchor="start" fill="currentColor">
<tspan>
6</tspan>
</text>
</a>
<a style="color:inherit;" xlink:href="textedit:///Users/mbp-15_touch/Dropbox/tesis/GenoMus/ly/rhythm/prolatio_examples.ly:29:32:33">
<polygon transform="translate(38.4458, 6.6455)" stroke-linejoin="round" stroke-linecap="round" stroke-width="0.0800" fill="currentColor" stroke="currentColor" points="1.1250 -0.2000 1.1250 0.2000 0.0400 0.2000 0.0400 -0.2000"/>
<polygon transform="translate(35.0747, 7.5188)" stroke-linejoin="round" stroke-linecap="round" stroke-width="0.0800" fill="currentColor" stroke="currentColor" points="4.4962 -0.2000 4.4962 0.2000 0.0400 0.2000 0.0400 -0.2000"/>
<polygon transform="translate(35.0747, 8.3921)" stroke-linejoin="round" stroke-linecap="round" stroke-width="0.0800" fill="currentColor" stroke="currentColor" points="4.4962 -0.2000 4.4962 0.2000 0.0400 0.2000 0.0400 -0.2000"/>
<polygon transform="translate(35.0747, 9.2655)" stroke-linejoin="round" stroke-linecap="round" stroke-width="0.0800" fill="currentColor" stroke="currentColor" points="7.0004 -0.2000 7.0004 0.2000 0.0400 0.2000 0.0400 -0.2000"/>
</a>
<a style="color:inherit;" xlink:href="textedit:///Users/mbp-15_touch/Dropbox/tesis/GenoMus/ly/rhythm/prolatio_examples.ly:29:36:37">
<path transform="translate(39.4808, 5.0755)" stroke-width="0.0800" stroke-linejoin="round" stroke-linecap="round" stroke="currentColor" fill="currentColor" d="M0.8521 -0.7500C1.3589 -1.3405 2.4495 -1.3405 2.9563 -0.7500L2.9563 -0.7500C2.4495 -1.2205 1.3589 -1.2205 0.8521 -0.7500z"/>
</a>
<path transform="translate(36.8289, 4.5755) scale(0.0040, -0.0040)" d="M0 0c0 31 25 56 56 56s56 -25 56 -56s-25 -56 -56 -56s-56 25 -56 56z" fill="currentColor"/>
<a style="color:inherit;" xlink:href="textedit:///Users/mbp-15_touch/Dropbox/tesis/GenoMus/ly/rhythm/prolatio_examples.ly:29:29:30">
<path transform="translate(35.0747, 5.0755) scale(0.0040, -0.0040)" d="M218 136c55 0 108 -28 108 -89c0 -71 -55 -121 -102 -149c-35 -21 -75 -34 -116 -34c-55 0 -108 28 -108 89c0 71 55 121 102 149c35 21 75 34 116 34z" fill="currentColor"/>
</a>
<rect transform="translate(26.5623, 5.0755)" x="-0.0650" y="0.2590" width="0.1300" height="3.0743" ry="0.0400" fill="currentColor"/>
<a style="color:inherit;" xlink:href="textedit:///Users/mbp-15_touch/Dropbox/tesis/GenoMus/ly/rhythm/prolatio_examples.ly:29:27:28">
<path transform="translate(26.4973, 5.0755) scale(0.0040, -0.0040)" d="M314 65c0 24 -21 41 -42 41c-4 0 -8 0 -12 -1c-31 -9 -78 -40 -115 -64s-84 -53 -104 -78c-7 -8 -10 -18 -10 -28c0 -24 21 -41 42 -41c4 0 8 0 12 1c31 9 77 40 114 64s84 53 104 78c7 8 11 18 11 28zM262 136c46 0 82 -21 82 -71c0 -19 -4 -39 -10 -57
c-12 -37 -32 -72 -64 -94c-53 -36 -113 -50 -187 -50c-46 0 -83 21 -83 71c0 19 5 39 11 57c12 37 31 72 63 94c53 36 114 50 188 50z" fill="currentColor"/>
</a>
<path transform="translate(43.7393, 4.5755) scale(0.0040, -0.0040)" d="M0 0c0 31 25 56 56 56s56 -25 56 -56s-25 -56 -56 -56s-56 25 -56 56z" fill="currentColor"/>
<rect transform="translate(11.5556, 5.0755)" x="-0.0650" y="0.1861" width="0.1300" height="3.0039" ry="0.0400" fill="currentColor"/>
<a style="color:inherit;" xlink:href="textedit:///Users/mbp-15_touch/Dropbox/tesis/GenoMus/ly/rhythm/prolatio_examples.ly:8:2:3">
</a>
<path transform="translate(5.8206, 5.0755) scale(0.0040, -0.0040)" d="M490 -250h-92c-6 0 -10 4 -10 10v480c0 6 4 10 10 10h92c6 0 10 -4 10 -10v-480c0 -6 -4 -10 -10 -10zM270 -250h-93c-6 0 -10 4 -10 10v480c0 6 4 10 10 10h93c6 0 10 -4 10 -10v-480c0 -6 -4 -10 -10 -10z" fill="currentColor"/>
<a style="color:inherit;" xlink:href="textedit:///Users/mbp-15_touch/Dropbox/tesis/GenoMus/ly/rhythm/prolatio_examples.ly:29:15:16">
<path transform="translate(11.4906, 5.0755) scale(0.0040, -0.0040)" d="M218 136c55 0 108 -28 108 -89c0 -71 -55 -121 -102 -149c-35 -21 -75 -34 -116 -34c-55 0 -108 28 -108 89c0 71 55 121 102 149c35 21 75 34 116 34z" fill="currentColor"/>
</a>
<text transform="translate(5.3906, 5.0755)" font-family="serif" font-size="2.2001" text-anchor="start" fill="currentColor">
<tspan/>
</text>
<rect transform="translate(39.5458, 5.0755)" x="-0.0650" y="0.1861" width="0.1300" height="4.0039" ry="0.0400" fill="currentColor"/>
<a style="color:inherit;" xlink:href="textedit:///Users/mbp-15_touch/Dropbox/tesis/GenoMus/ly/rhythm/prolatio_examples.ly:29:38:39">
<path transform="translate(41.9850, 5.0755) scale(0.0040, -0.0040)" d="M218 136c55 0 108 -28 108 -89c0 -71 -55 -121 -102 -149c-35 -21 -75 -34 -116 -34c-55 0 -108 28 -108 89c0 71 55 121 102 149c35 21 75 34 116 34z" fill="currentColor"/>
</a>
<a style="color:inherit;" xlink:href="textedit:///Users/mbp-15_touch/Dropbox/tesis/GenoMus/ly/rhythm/prolatio_examples.ly:29:34:35">
<path transform="translate(39.4808, 5.0755) scale(0.0040, -0.0040)" d="M218 136c55 0 108 -28 108 -89c0 -71 -55 -121 -102 -149c-35 -21 -75 -34 -116 -34c-55 0 -108 28 -108 89c0 71 55 121 102 149c35 21 75 34 116 34z" fill="currentColor"/>
</a>
</svg>
