<?xml version="1.0" encoding="UTF-8" standalone="no"?>
<svg
   xmlns:dc="http://purl.org/dc/elements/1.1/"
   xmlns:cc="http://creativecommons.org/ns#"
   xmlns:rdf="http://www.w3.org/1999/02/22-rdf-syntax-ns#"
   xmlns:svg="http://www.w3.org/2000/svg"
   xmlns="http://www.w3.org/2000/svg"
   xmlns:xlink="http://www.w3.org/1999/xlink"
   id="svg2"
   viewBox="0 0 45.697707 7.3200003"
   height="12.863427mm"
   width="80.30452mm"
   version="1.2">
  <metadata
     id="metadata60">
    <rdf:RDF>
      <cc:Work
         rdf:about="">
        <dc:format>image/svg+xml</dc:format>
        <dc:type
           rdf:resource="http://purl.org/dc/dcmitype/StillImage" />
        <dc:title></dc:title>
      </cc:Work>
    </rdf:RDF>
  </metadata>
  <defs
     id="defs58" />
  <!-- Page: 1/1 -->
  <text
     y="-1"
     x="-8.5350876"
     style="font-size:2.20009995px;font-family:serif;text-anchor:start;fill:currentColor"
     id="text4"
     font-size="2.2001">
    <tspan
       id="tspan6" />
  </text>
  <line
     style="stroke:currentColor;stroke-width:0.1;stroke-linecap:round;stroke-linejoin:round"
     id="line8"
     y2="5.776"
     x2="21.355911"
     y1="5.776"
     x1="0.050712124" />
  <line
     style="stroke:currentColor;stroke-width:0.1;stroke-linecap:round;stroke-linejoin:round"
     id="line10"
     y2="4.776"
     x2="21.355911"
     y1="4.776"
     x1="0.050712124" />
  <line
     style="stroke:currentColor;stroke-width:0.1;stroke-linecap:round;stroke-linejoin:round"
     id="line12"
     y2="3.776"
     x2="21.355911"
     y1="3.776"
     x1="0.050712124" />
  <line
     style="stroke:currentColor;stroke-width:0.1;stroke-linecap:round;stroke-linejoin:round"
     id="line14"
     y2="2.776"
     x2="21.355911"
     y1="2.776"
     x1="0.050712124" />
  <line
     style="stroke:currentColor;stroke-width:0.1;stroke-linecap:round;stroke-linejoin:round"
     id="line16"
     y2="1.776"
     x2="21.355911"
     y1="1.776"
     x1="0.050712124" />
  <rect
     style="fill:currentColor"
     id="rect18"
     ry="0.1"
     height="0.2"
     width="1.9563"
     y="6.6760001"
     x="8.4769115" />
  <a
     transform="translate(-14.225688,-3.8453)"
     id="a20"
     xlink:href="textedit:///var/folders/_g/5m8jwnh13xl4zfc1dyffj2bw0000gn/T/frescobaldi-wkpy2jbp/tmpcbso81a4/lilypond_framework_examples_GenoMus.ly:14:9:10"
     style="color:inherit">
    <path
       style="fill:currentColor"
       id="path22"
       d="m 218,136 c 55,0 108,-28 108,-89 0,-71 -55,-121 -102,-149 -35,-21 -75,-34 -116,-34 -55,0 -108,28 -108,89 0,71 55,121 102,149 35,21 75,34 116,34 z"
       transform="matrix(0.004,0,0,-0.004,26.2809,9.1213)" />
  </a>
  <rect
     style="fill:currentColor"
     id="rect24"
     ry="0.0000"
     height="0"
     width="0.13"
     y="5.0899"
     x="13.229412" />
  <path
     style="fill:currentColor"
     id="path26"
     d="m 2.3047121,3.728 c 0.016,0 0.036,-0.004 0.052,-0.004 0.62,0 1.024,0.512 1.024,1.044 0,0.304 -0.132,0.616 -0.428,0.84 -0.088,0.068 -0.188,0.112 -0.292,0.144 0.012,0.14 0.02,0.28 0.02,0.42 0,0.076 -0.004,0.156 -0.008,0.232 -0.028,0.48 -0.36,0.912 -0.832,0.912 -0.432,0 -0.78,-0.352 -0.78,-0.788 0,-0.232 0.212,-0.412 0.448,-0.412 0.216,0 0.38,0.188 0.38,0.412 0,0.208 -0.172,0.38 -0.38,0.38 -0.044,0 -0.084,-0.008 -0.124,-0.024 0.104,0.156 0.272,0.26 0.468,0.26 0.384,0 0.628,-0.368 0.652,-0.764 0.004,-0.072 0.008,-0.148 0.008,-0.22 0,-0.124 -0.004,-0.244 -0.016,-0.368 -0.116,0.02 -0.232,0.032 -0.356,0.032 -0.752,0 -1.33199997,-0.688 -1.33199997,-1.496 0,-0.708 0.52399997,-1.224 0.99199997,-1.764 -0.076,-0.248 -0.148,-0.5 -0.18,-0.76 -0.024,-0.208 -0.028,-0.416 -0.028,-0.624 0,-0.46 0.22,-0.896 0.596,-1.168 0.012,-0.008 0.028,-0.012 0.04,-0.012 0.016,0 0.028,0 0.04,0.012 0.284,0.336 0.532,0.98 0.532,1.432 0,0.572 -0.344,1.02 -0.72,1.456 0.084,0.272 0.156,0.552 0.224,0.828 z m 0.34,1.86 c 0.272,-0.096 0.452,-0.38 0.452,-0.656 0,-0.36 -0.264,-0.716 -0.692,-0.76 0.096,0.464 0.184,0.924 0.24,1.416 z m -1.548,-0.924 c 0,0.54 0.516,0.988 1.056,0.988 0.112,0 0.22,-0.008 0.328,-0.024 -0.056,-0.508 -0.148,-0.98 -0.252,-1.456 -0.316,0.032 -0.496,0.244 -0.496,0.476 0,0.176 0.1,0.364 0.324,0.492 0.02,0.02 0.028,0.04 0.028,0.06 0,0.044 -0.04,0.088 -0.088,0.088 -0.012,0 -0.024,-0.004 -0.036,-0.008 -0.32,-0.172 -0.468,-0.46 -0.468,-0.74 0,-0.352 0.232,-0.696 0.64,-0.788 -0.056,-0.232 -0.116,-0.468 -0.184,-0.7 -0.428,0.484 -0.852,0.972 -0.852,1.612 z m 1.336,-4.068 c -0.396,0.192 -0.648,0.596 -0.648,1.036 0,0.296 0.072,0.532 0.144,0.776 0.32,-0.388 0.584,-0.792 0.584,-1.296 0,-0.22 -0.016,-0.316 -0.08,-0.516 z" />
  <a
     transform="translate(-14.225688,-3.8453)"
     id="a28"
     xlink:href="textedit:///var/folders/_g/5m8jwnh13xl4zfc1dyffj2bw0000gn/T/frescobaldi-wkpy2jbp/tmpcbso81a4/lilypond_framework_examples_GenoMus.ly:14:11:12"
     style="color:inherit">
    <path
       style="fill:currentColor"
       id="path30"
       d="m 218,136 c 55,0 108,-28 108,-89 0,-71 -55,-121 -102,-149 -35,-21 -75,-34 -116,-34 -55,0 -108,28 -108,89 0,71 55,121 102,149 35,21 75,34 116,34 z"
       transform="matrix(0.004,0,0,-0.004,29.4551,8.1213)" />
  </a>
  <rect
     style="fill:currentColor"
     id="rect32"
     ry="0.0000"
     height="0"
     width="0.13"
     y="4.0899"
     x="16.403612" />
  <path
     style="fill:currentColor"
     id="path34"
     d="m 14.187412,4.112 -0.004,0.264 0,0.044 c 0,0.088 0.004,0.176 0.016,0.264 0.18,-0.152 0.372,-0.32 0.372,-0.556 0,-0.132 -0.056,-0.268 -0.172,-0.268 -0.124,0 -0.208,0.12 -0.212,0.252 z m -0.168,0.716 -0.048,-2.38 c 0.032,-0.02 0.072,-0.032 0.108,-0.032 0.036,0 0.076,0.012 0.108,0.032 l -0.028,1.38 c 0.1,-0.084 0.232,-0.136 0.364,-0.136 0.208,0 0.356,0.192 0.356,0.408 0,0.32 -0.344,0.468 -0.588,0.676 -0.06,0.052 -0.096,0.152 -0.18,0.152 -0.052,0 -0.092,-0.044 -0.092,-0.1 z" />
  <a
     transform="translate(-14.225688,-3.8453)"
     id="a36"
     xlink:href="textedit:///var/folders/_g/5m8jwnh13xl4zfc1dyffj2bw0000gn/T/frescobaldi-wkpy2jbp/tmpcbso81a4/lilypond_framework_examples_GenoMus.ly:14:15:16"
     style="color:inherit">
    <path
       style="fill:currentColor"
       id="path38"
       d="m 218,136 c 55,0 108,-28 108,-89 0,-71 -55,-121 -102,-149 -35,-21 -75,-34 -116,-34 -55,0 -108,28 -108,89 0,71 55,121 102,149 35,21 75,34 116,34 z"
       transform="matrix(0.004,0,0,-0.004,32.6293,9.6213)" />
  </a>
  <rect
     style="fill:currentColor"
     id="rect40"
     ry="0.0000"
     height="0"
     width="0.13"
     y="5.5899"
     x="19.577812" />
  <path
     style="fill:currentColor"
     id="path42"
     d="m 17.361612,5.612 -0.004,0.264 0,0.044 c 0,0.088 0.004,0.176 0.016,0.264 0.18,-0.152 0.372,-0.32 0.372,-0.556 0,-0.132 -0.056,-0.268 -0.172,-0.268 -0.124,0 -0.208,0.12 -0.212,0.252 z m -0.168,0.716 -0.048,-2.38 c 0.032,-0.02 0.072,-0.032 0.108,-0.032 0.036,0 0.076,0.012 0.108,0.032 l -0.028,1.38 c 0.1,-0.084 0.232,-0.136 0.364,-0.136 0.208,0 0.356,0.192 0.356,0.408 0,0.32 -0.344,0.468 -0.588,0.676 -0.06,0.052 -0.096,0.152 -0.18,0.152 -0.052,0 -0.092,-0.044 -0.092,-0.1 z" />
  <rect
     style="fill:currentColor"
     id="rect44"
     ry="0.0000"
     height="0"
     width="0.13"
     y="3.9621"
     x="5.8007121" />
  <a
     transform="translate(-14.225688,-3.8453)"
     id="a46"
     xlink:href="textedit:///var/folders/_g/5m8jwnh13xl4zfc1dyffj2bw0000gn/T/frescobaldi-wkpy2jbp/tmpcbso81a4/lilypond_framework_examples_GenoMus.ly:14:6:7"
     style="color:inherit">
    <path
       style="fill:currentColor"
       id="path48"
       d="m 218,136 c 55,0 108,-28 108,-89 0,-71 -55,-121 -102,-149 -35,-21 -75,-34 -116,-34 -55,0 -108,28 -108,89 0,71 55,121 102,149 35,21 75,34 116,34 z"
       transform="matrix(0.004,0,0,-0.004,23.0286,10.6213)" />
  </a>
  <rect
     style="fill:currentColor"
     id="rect50"
     ry="0.0000"
     height="0"
     width="0.13"
     y="6.5899"
     x="9.9771118" />
  <a
     transform="translate(-14.225688,-3.8453)"
     id="a52"
     xlink:href="textedit:///var/folders/_g/5m8jwnh13xl4zfc1dyffj2bw0000gn/T/frescobaldi-wkpy2jbp/tmpcbso81a4/lilypond_framework_examples_GenoMus.ly:14:2:3"
     style="color:inherit">
    <path
       style="fill:currentColor"
       id="path54"
       d="m 218,136 c 55,0 108,-28 108,-89 0,-71 -55,-121 -102,-149 -35,-21 -75,-34 -116,-34 -55,0 -108,28 -108,89 0,71 55,121 102,149 35,21 75,34 116,34 z"
       transform="matrix(0.004,0,0,-0.004,20.0264,7.6213)" />
  </a>
  <text
     y="-1.006294"
     x="9.6607332"
     style="font-size:2.20009995px;font-family:serif;text-anchor:start;fill:currentColor"
     id="text4-0"
     font-size="2.2001">
    <tspan
       id="tspan6-5" />
  </text>
  <line
     style="stroke:currentColor;stroke-width:0.08758062;stroke-linecap:round;stroke-linejoin:round"
     id="line8-1"
     y2="5.7799201"
     x2="45.65329"
     y1="5.7799201"
     x1="29.859379" />
  <line
     style="stroke:currentColor;stroke-width:0.08758062;stroke-linecap:round;stroke-linejoin:round"
     id="line10-9"
     y2="4.7767925"
     x2="45.65329"
     y1="4.7767925"
     x1="29.859379" />
  <line
     style="stroke:currentColor;stroke-width:0.08758062;stroke-linecap:round;stroke-linejoin:round"
     id="line12-4"
     y2="3.7736602"
     x2="45.65329"
     y1="3.7736602"
     x1="29.859379" />
  <line
     style="stroke:currentColor;stroke-width:0.08758062;stroke-linecap:round;stroke-linejoin:round"
     id="line14-2"
     y2="2.7705324"
     x2="45.65329"
     y1="2.7705324"
     x1="29.859379" />
  <line
     style="stroke:currentColor;stroke-width:0.08758062;stroke-linecap:round;stroke-linejoin:round"
     id="line16-1"
     y2="1.7674069"
     x2="45.65329"
     y1="1.7674069"
     x1="29.859379" />
  <a
     transform="translate(11.036533,-0.31839399)"
     id="a18"
     xlink:href="textedit:///var/folders/_g/5m8jwnh13xl4zfc1dyffj2bw0000gn/T/frescobaldi-wkpy2jbp/tmpcbso81a4/lilypond_framework_examples_GenoMus.ly:15:13:14"
     style="color:inherit">
    <path
       style="fill:currentColor"
       id="path20"
       d="m 218,136 c 55,0 108,-28 108,-89 0,-71 -55,-121 -102,-149 -35,-21 -75,-34 -116,-34 -55,0 -108,28 -108,89 0,71 55,121 102,149 35,21 75,34 116,34 z"
       transform="matrix(0.004,0,0,-0.004,29.2271,6.1213)" />
  </a>
  <rect
     style="fill:currentColor"
     id="rect22"
     ry="0.0000"
     height="0"
     width="0.13000001"
     y="2.4558039"
     x="33.197231" />
  <a
     transform="translate(11.036533,-3.8515955)"
     id="a24"
     xlink:href="textedit:///var/folders/_g/5m8jwnh13xl4zfc1dyffj2bw0000gn/T/frescobaldi-wkpy2jbp/tmpcbso81a4/lilypond_framework_examples_GenoMus.ly:15:15:16"
     style="color:inherit">
    <path
       style="fill:currentColor"
       id="path26-3"
       d="m 218,136 c 55,0 108,-28 108,-89 0,-71 -55,-121 -102,-149 -35,-21 -75,-34 -116,-34 -55,0 -108,28 -108,89 0,71 55,121 102,149 35,21 75,34 116,34 z"
       transform="matrix(0.004,0,0,-0.004,31.9793,7.6213)" />
  </a>
  <rect
     style="fill:currentColor"
     id="rect28"
     ry="0.0000"
     height="0"
     width="0.13000001"
     y="3.9558043"
     x="35.949436" />
  <a
     transform="translate(11.036533,-3.8515955)"
     id="a30"
     xlink:href="textedit:///var/folders/_g/5m8jwnh13xl4zfc1dyffj2bw0000gn/T/frescobaldi-wkpy2jbp/tmpcbso81a4/lilypond_framework_examples_GenoMus.ly:15:5:6"
     style="color:inherit">
    <path
       style="fill:currentColor"
       id="path32"
       d="m 218,136 c 55,0 108,-28 108,-89 0,-71 -55,-121 -102,-149 -35,-21 -75,-34 -116,-34 -55,0 -108,28 -108,89 0,71 55,121 102,149 35,21 75,34 116,34 z"
       transform="matrix(0.004,0,0,-0.004,23.2006,8.1213)" />
  </a>
  <path
     style="fill:currentColor"
     id="path34-7"
     d="m 33.195136,4.1057046 -0.004,0.2639999 0,0.044 c 0,0.088 0.004,0.176 0.016,0.264 0.18,-0.1519999 0.372,-0.3199999 0.372,-0.5560001 0,-0.1319999 -0.056,-0.2679998 -0.172,-0.2679998 -0.124,0 -0.208,0.1199998 -0.212,0.2519999 z m -0.168,0.716 -0.048,-2.38 c 0.032,-0.02 0.072,-0.032 0.108,-0.032 0.036,0 0.076,0.012 0.108,0.032 l -0.028,1.38 c 0.1,-0.084 0.232,-0.136 0.364,-0.136 0.208,0 0.356,0.192 0.356,0.4079999 0,0.3200001 -0.344,0.4680001 -0.588,0.6760001 -0.06,0.052 -0.096,0.1519999 -0.18,0.1519999 -0.052,0 -0.092,-0.044 -0.092,-0.1 z" />
  <a
     transform="translate(11.036533,-0.31839399)"
     id="a36-5"
     xlink:href="textedit:///var/folders/_g/5m8jwnh13xl4zfc1dyffj2bw0000gn/T/frescobaldi-wkpy2jbp/tmpcbso81a4/lilypond_framework_examples_GenoMus.ly:15:9:10"
     style="color:inherit">
    <path
       style="fill:currentColor"
       id="path38-8"
       d="m 218,136 c 55,0 108,-28 108,-89 0,-71 -55,-121 -102,-149 -35,-21 -75,-34 -116,-34 -55,0 -108,28 -108,89 0,71 55,121 102,149 35,21 75,34 116,34 z"
       transform="matrix(0.004,0,0,-0.004,26.2248,6.6213)" />
  </a>
  <rect
     style="fill:currentColor"
     id="rect40-2"
     ry="0.0000"
     height="0"
     width="0.13000001"
     y="2.9558036"
     x="30.194929" />
  <path
     style="fill:currentColor"
     id="path42-0"
     d="m 36.219336,6.1389053 -0.004,0.264 0,0.044 c 0,0.088 0.004,0.176 0.016,0.264 0.18,-0.1520001 0.372,-0.3200001 0.372,-0.556 0,-0.1320001 -0.056,-0.2680001 -0.172,-0.2680001 -0.124,0 -0.208,0.1200001 -0.212,0.2520001 z m -0.168,0.7159999 -0.048,-2.3799999 c 0.032,-0.02 0.072,-0.032 0.108,-0.032 0.036,0 0.076,0.012 0.108,0.032 l -0.028,1.3799999 c 0.1,-0.084 0.232,-0.136 0.364,-0.136 0.208,0 0.356,0.1920001 0.356,0.4080001 0,0.32 -0.344,0.468 -0.588,0.676 -0.06,0.052 -0.096,0.1519999 -0.18,0.1519999 -0.052,0 -0.092,-0.044 -0.092,-0.1 z" />
  <rect
     style="fill:currentColor"
     id="rect44-6"
     ry="0.0000"
     height="0"
     width="0.13000001"
     y="4.5836086"
     x="25.170732" />
  <rect
     style="fill:currentColor"
     id="rect46"
     ry="0.0000"
     height="0"
     width="0.13000001"
     y="4.0836058"
     x="28.344931" />
  <a
     transform="translate(11.036533,-3.8515955)"
     id="a48"
     xlink:href="textedit:///var/folders/_g/5m8jwnh13xl4zfc1dyffj2bw0000gn/T/frescobaldi-wkpy2jbp/tmpcbso81a4/lilypond_framework_examples_GenoMus.ly:15:2:3"
     style="color:inherit">
    <path
       style="fill:currentColor"
       id="path50"
       d="m 218,136 c 55,0 108,-28 108,-89 0,-71 -55,-121 -102,-149 -35,-21 -75,-34 -116,-34 -55,0 -108,28 -108,89 0,71 55,121 102,149 35,21 75,34 116,34 z"
       transform="matrix(0.004,0,0,-0.004,20.0264,8.6213)" />
  </a>
  <g
     id="text3567"
     style="font-style:normal;font-weight:normal;font-size:6.42400122px;line-height:125%;font-family:sans-serif;letter-spacing:0px;word-spacing:0px;fill:#000000;fill-opacity:1;stroke:none;stroke-width:1px;stroke-linecap:butt;stroke-linejoin:miter;stroke-opacity:1">
    <path
       id="path3572"
       d="m 28.030227,3.6432735 0,0.2823047 -1.232731,1.2327307 -0.376406,-0.3764063 0.730855,-0.7308556 -3.82366,0 0,-0.5332423 3.82366,0 -0.730855,-0.7308556 0.376406,-0.3764063 1.232731,1.2327307 z" />
  </g>
</svg>
