<?xml version="1.0" encoding="UTF-8" standalone="no"?>
<svg
   xmlns:dc="http://purl.org/dc/elements/1.1/"
   xmlns:cc="http://creativecommons.org/ns#"
   xmlns:rdf="http://www.w3.org/1999/02/22-rdf-syntax-ns#"
   xmlns:svg="http://www.w3.org/2000/svg"
   xmlns="http://www.w3.org/2000/svg"
   xmlns:xlink="http://www.w3.org/1999/xlink"
   xmlns:sodipodi="http://sodipodi.sourceforge.net/DTD/sodipodi-0.dtd"
   xmlns:inkscape="http://www.inkscape.org/namespaces/inkscape"
   version="1.2"
   width="36.47559mm"
   height="12.856397mm"
   viewBox="0 0 20.756625 7.3159996"
   id="svg2"
   inkscape:version="0.91 r13725"
   sodipodi:docname="chord-aes.svg">
  <metadata
     id="metadata58">
    <rdf:RDF>
      <cc:Work
         rdf:about="">
        <dc:format>image/svg+xml</dc:format>
        <dc:type
           rdf:resource="http://purl.org/dc/dcmitype/StillImage" />
        <dc:title></dc:title>
      </cc:Work>
    </rdf:RDF>
  </metadata>
  <defs
     id="defs56" />
  <sodipodi:namedview
     pagecolor="#ffffff"
     bordercolor="#666666"
     borderopacity="1"
     objecttolerance="10"
     gridtolerance="10"
     guidetolerance="10"
     inkscape:pageopacity="0"
     inkscape:pageshadow="2"
     inkscape:window-width="1071"
     inkscape:window-height="1266"
     id="namedview54"
     showgrid="false"
     fit-margin-top="0"
     fit-margin-left="0"
     fit-margin-right="0"
     fit-margin-bottom="0"
     inkscape:zoom="3.5881182"
     inkscape:cx="82.806597"
     inkscape:cy="33.824201"
     inkscape:window-x="0"
     inkscape:window-y="0"
     inkscape:window-maximized="0"
     inkscape:current-layer="svg2" />
  <!-- Page: 1/1 -->
  <text
     font-size="2.2001"
     id="text4"
     style="font-size:2.20009995px;font-family:serif;text-anchor:start;fill:currentColor"
     x="-8.5350876"
     y="-1">
    <tspan
       id="tspan6" />
  </text>
  <line
     x1="0.050712124"
     y1="5.776"
     x2="20.705912"
     y2="5.776"
     id="line8"
     style="stroke:currentColor;stroke-width:0.1;stroke-linecap:round;stroke-linejoin:round" />
  <line
     x1="0.050712124"
     y1="4.776"
     x2="20.705912"
     y2="4.776"
     id="line10"
     style="stroke:currentColor;stroke-width:0.1;stroke-linecap:round;stroke-linejoin:round" />
  <line
     x1="0.050712124"
     y1="3.776"
     x2="20.705912"
     y2="3.776"
     id="line12"
     style="stroke:currentColor;stroke-width:0.1;stroke-linecap:round;stroke-linejoin:round" />
  <line
     x1="0.050712124"
     y1="2.776"
     x2="20.705912"
     y2="2.776"
     id="line14"
     style="stroke:currentColor;stroke-width:0.1;stroke-linecap:round;stroke-linejoin:round" />
  <line
     x1="0.050712124"
     y1="1.776"
     x2="20.705912"
     y2="1.776"
     id="line16"
     style="stroke:currentColor;stroke-width:0.1;stroke-linecap:round;stroke-linejoin:round" />
  <a
     style="color:inherit"
     xlink:href="textedit:///var/folders/_g/5m8jwnh13xl4zfc1dyffj2bw0000gn/T/frescobaldi-wkpy2jbp/tmpcbso81a4/lilypond_framework_examples_GenoMus.ly:15:13:14"
     id="a18"
     transform="translate(-14.225688,-0.31209929)">
    <path
       transform="matrix(0.004,0,0,-0.004,29.2271,6.1213)"
       d="m 218,136 c 55,0 108,-28 108,-89 0,-71 -55,-121 -102,-149 -35,-21 -75,-34 -116,-34 -55,0 -108,28 -108,89 0,71 55,121 102,149 35,21 75,34 116,34 z"
       id="path20"
       inkscape:connector-curvature="0"
       style="fill:currentColor" />
  </a>
  <rect
     x="15.001412"
     y="2.4621"
     width="0.13"
     height="0"
     ry="0.0000"
     id="rect22"
     style="fill:currentColor" />
  <a
     style="color:inherit"
     xlink:href="textedit:///var/folders/_g/5m8jwnh13xl4zfc1dyffj2bw0000gn/T/frescobaldi-wkpy2jbp/tmpcbso81a4/lilypond_framework_examples_GenoMus.ly:15:15:16"
     id="a24"
     transform="translate(-14.225688,-3.8453)">
    <path
       transform="matrix(0.004,0,0,-0.004,31.9793,7.6213)"
       d="m 218,136 c 55,0 108,-28 108,-89 0,-71 -55,-121 -102,-149 -35,-21 -75,-34 -116,-34 -55,0 -108,28 -108,89 0,71 55,121 102,149 35,21 75,34 116,34 z"
       id="path26"
       inkscape:connector-curvature="0"
       style="fill:currentColor" />
  </a>
  <rect
     x="17.753613"
     y="3.9621"
     width="0.13"
     height="0"
     ry="0.0000"
     id="rect28"
     style="fill:currentColor" />
  <a
     style="color:inherit"
     xlink:href="textedit:///var/folders/_g/5m8jwnh13xl4zfc1dyffj2bw0000gn/T/frescobaldi-wkpy2jbp/tmpcbso81a4/lilypond_framework_examples_GenoMus.ly:15:5:6"
     id="a30"
     transform="translate(-14.225688,-3.8453)">
    <path
       transform="matrix(0.004,0,0,-0.004,23.2006,8.1213)"
       d="m 218,136 c 55,0 108,-28 108,-89 0,-71 -55,-121 -102,-149 -35,-21 -75,-34 -116,-34 -55,0 -108,28 -108,89 0,71 55,121 102,149 35,21 75,34 116,34 z"
       id="path32"
       inkscape:connector-curvature="0"
       style="fill:currentColor" />
  </a>
  <path
     d="m 7.9329121,4.112 -0.004,0.264 0,0.044 c 0,0.088 0.004,0.176 0.016,0.264 0.18,-0.152 0.372,-0.32 0.372,-0.556 0,-0.132 -0.056,-0.268 -0.172,-0.268 -0.124,0 -0.208,0.12 -0.212,0.252 z m -0.168,0.716 -0.048,-2.38 c 0.032,-0.02 0.072,-0.032 0.108,-0.032 0.036,0 0.076,0.012 0.108,0.032 l -0.028,1.38 c 0.1,-0.084 0.232,-0.136 0.364,-0.136 0.208,0 0.356,0.192 0.356,0.408 0,0.32 -0.344,0.468 -0.588,0.676 -0.06,0.052 -0.096,0.152 -0.18,0.152 -0.052,0 -0.092,-0.044 -0.092,-0.1 z"
     id="path34"
     inkscape:connector-curvature="0"
     style="fill:currentColor" />
  <a
     style="color:inherit"
     xlink:href="textedit:///var/folders/_g/5m8jwnh13xl4zfc1dyffj2bw0000gn/T/frescobaldi-wkpy2jbp/tmpcbso81a4/lilypond_framework_examples_GenoMus.ly:15:9:10"
     id="a36"
     transform="translate(-14.225688,-0.31209929)">
    <path
       transform="matrix(0.004,0,0,-0.004,26.2248,6.6213)"
       d="m 218,136 c 55,0 108,-28 108,-89 0,-71 -55,-121 -102,-149 -35,-21 -75,-34 -116,-34 -55,0 -108,28 -108,89 0,71 55,121 102,149 35,21 75,34 116,34 z"
       id="path38"
       inkscape:connector-curvature="0"
       style="fill:currentColor" />
  </a>
  <rect
     x="11.999112"
     y="2.9621"
     width="0.13"
     height="0"
     ry="0.0000"
     id="rect40"
     style="fill:currentColor" />
  <path
     d="m 10.957112,6.1452007 -0.004,0.264 0,0.044 c 0,0.088 0.004,0.176 0.016,0.264 0.18,-0.152 0.372,-0.32 0.372,-0.556 0,-0.132 -0.056,-0.268 -0.172,-0.268 -0.124,0 -0.208,0.12 -0.212,0.252 z m -0.168,0.716 -0.048,-2.38 c 0.032,-0.02 0.072,-0.032 0.108,-0.032 0.036,0 0.076,0.012 0.108,0.032 l -0.028,1.38 c 0.1,-0.084 0.232,-0.136 0.364,-0.136 0.208,0 0.356,0.192 0.356,0.408 0,0.32 -0.344,0.468 -0.588,0.676 -0.06,0.052 -0.096,0.152 -0.18,0.152 -0.052,0 -0.092,-0.044 -0.092,-0.1 z"
     id="path42"
     inkscape:connector-curvature="0"
     style="fill:currentColor" />
  <rect
     x="6.9749122"
     y="4.5899"
     width="0.13"
     height="0"
     ry="0.0000"
     id="rect44"
     style="fill:currentColor" />
  <rect
     x="10.149112"
     y="4.0899"
     width="0.13"
     height="0"
     ry="0.0000"
     id="rect46"
     style="fill:currentColor" />
  <a
     style="color:inherit"
     xlink:href="textedit:///var/folders/_g/5m8jwnh13xl4zfc1dyffj2bw0000gn/T/frescobaldi-wkpy2jbp/tmpcbso81a4/lilypond_framework_examples_GenoMus.ly:15:2:3"
     id="a48"
     transform="translate(-14.225688,-3.8453)">
    <path
       transform="matrix(0.004,0,0,-0.004,20.0264,8.6213)"
       d="m 218,136 c 55,0 108,-28 108,-89 0,-71 -55,-121 -102,-149 -35,-21 -75,-34 -116,-34 -55,0 -108,28 -108,89 0,71 55,121 102,149 35,21 75,34 116,34 z"
       id="path50"
       inkscape:connector-curvature="0"
       style="fill:currentColor" />
  </a>
  <path
     d="m 2.3047121,3.728 c 0.016,0 0.036,-0.004 0.052,-0.004 0.62,0 1.024,0.512 1.024,1.044 0,0.304 -0.132,0.616 -0.428,0.84 -0.088,0.068 -0.188,0.112 -0.292,0.144 0.012,0.14 0.02,0.28 0.02,0.42 0,0.076 -0.004,0.156 -0.008,0.232 -0.028,0.48 -0.36,0.912 -0.832,0.912 -0.432,0 -0.78,-0.352 -0.78,-0.788 0,-0.232 0.212,-0.412 0.448,-0.412 0.216,0 0.38,0.188 0.38,0.412 0,0.208 -0.172,0.38 -0.38,0.38 -0.044,0 -0.084,-0.008 -0.124,-0.024 0.104,0.156 0.272,0.26 0.468,0.26 0.384,0 0.628,-0.368 0.652,-0.764 0.004,-0.072 0.008,-0.148 0.008,-0.22 0,-0.124 -0.004,-0.244 -0.016,-0.368 -0.116,0.02 -0.232,0.032 -0.356,0.032 -0.752,0 -1.33199998,-0.688 -1.33199998,-1.496 0,-0.708 0.52399998,-1.224 0.99199998,-1.764 -0.076,-0.248 -0.148,-0.5 -0.18,-0.76 -0.024,-0.208 -0.028,-0.416 -0.028,-0.624 0,-0.46 0.22,-0.896 0.596,-1.168 0.012,-0.008 0.028,-0.012 0.04,-0.012 0.016,0 0.028,0 0.04,0.012 0.284,0.336 0.532,0.98 0.532,1.432 0,0.572 -0.344,1.02 -0.72,1.456 0.084,0.272 0.156,0.552 0.224,0.828 z m 0.34,1.86 c 0.272,-0.096 0.452,-0.38 0.452,-0.656 0,-0.36 -0.264,-0.716 -0.692,-0.76 0.096,0.464 0.184,0.924 0.24,1.416 z m -1.548,-0.924 c 0,0.54 0.516,0.988 1.056,0.988 0.112,0 0.22,-0.008 0.328,-0.024 -0.056,-0.508 -0.148,-0.98 -0.252,-1.456 -0.316,0.032 -0.496,0.244 -0.496,0.476 0,0.176 0.1,0.364 0.324,0.492 0.02,0.02 0.028,0.04 0.028,0.06 0,0.044 -0.04,0.088 -0.088,0.088 -0.012,0 -0.024,-0.004 -0.036,-0.008 -0.32,-0.172 -0.468,-0.46 -0.468,-0.74 0,-0.352 0.232,-0.696 0.64,-0.788 -0.056,-0.232 -0.116,-0.468 -0.184,-0.7 -0.428,0.484 -0.852,0.972 -0.852,1.612 z m 1.336,-4.068 c -0.396,0.192 -0.648,0.596 -0.648,1.036 0,0.296 0.072,0.532 0.144,0.776 0.32,-0.388 0.584,-0.792 0.584,-1.296 0,-0.22 -0.016,-0.316 -0.08,-0.516 z"
     id="path52"
     inkscape:connector-curvature="0"
     style="fill:currentColor" />
</svg>
