<?xml version="1.0" encoding="UTF-8" standalone="no"?>
<svg
   xmlns:dc="http://purl.org/dc/elements/1.1/"
   xmlns:cc="http://creativecommons.org/ns#"
   xmlns:rdf="http://www.w3.org/1999/02/22-rdf-syntax-ns#"
   xmlns:svg="http://www.w3.org/2000/svg"
   xmlns="http://www.w3.org/2000/svg"
   xmlns:xlink="http://www.w3.org/1999/xlink"
   id="svg2"
   viewBox="0 0 8.3056246 9.03"
   height="15.868407mm"
   width="14.595463mm"
   version="1.2">
  <metadata
     id="metadata46">
    <rdf:RDF>
      <cc:Work
         rdf:about="">
        <dc:format>image/svg+xml</dc:format>
        <dc:type
           rdf:resource="http://purl.org/dc/dcmitype/StillImage" />
        <dc:title></dc:title>
      </cc:Work>
    </rdf:RDF>
  </metadata>
  <defs
     id="defs44" />
  <!-- Page: 1/1 -->
  <text
     y="-1"
     x="-8.5350876"
     style="font-size:2.20009995px;font-family:serif;text-anchor:start;fill:currentColor"
     id="text4"
     font-size="2.2001">
    <tspan
       id="tspan6" />
  </text>
  <line
     style="stroke:currentColor;stroke-width:0.1;stroke-linecap:round;stroke-linejoin:round"
     id="line8"
     y2="5.776"
     x2="8.2549124"
     y1="5.776"
     x1="0.050712124" />
  <line
     style="stroke:currentColor;stroke-width:0.1;stroke-linecap:round;stroke-linejoin:round"
     id="line10"
     y2="4.776"
     x2="8.2549124"
     y1="4.776"
     x1="0.050712124" />
  <line
     style="stroke:currentColor;stroke-width:0.1;stroke-linecap:round;stroke-linejoin:round"
     id="line12"
     y2="3.776"
     x2="8.2549124"
     y1="3.776"
     x1="0.050712124" />
  <line
     style="stroke:currentColor;stroke-width:0.1;stroke-linecap:round;stroke-linejoin:round"
     id="line14"
     y2="2.776"
     x2="8.2549124"
     y1="2.776"
     x1="0.050712124" />
  <line
     style="stroke:currentColor;stroke-width:0.1;stroke-linecap:round;stroke-linejoin:round"
     id="line16"
     y2="1.776"
     x2="8.2549124"
     y1="1.776"
     x1="0.050712124" />
  <rect
     style="fill:currentColor"
     id="rect18"
     ry="0.039999999"
     height="3.3139"
     width="0.13"
     y="0.77600002"
     x="6.9749122" />
  <a
     transform="translate(-14.225688,-3.8453)"
     id="a20"
     xlink:href="textedit:///Users/mbp-15_touch/Dropbox/tesis/GenoMus/ly/lilypond_framework_examples_GenoMus.ly:8:2:3"
     style="color:inherit" />
  <path
     style="fill:currentColor"
     id="path22"
     d="m 2.3047121,3.728 c 0.016,0 0.036,-0.004 0.052,-0.004 0.62,0 1.024,0.512 1.024,1.044 0,0.304 -0.132,0.616 -0.428,0.84 -0.088,0.068 -0.188,0.112 -0.292,0.144 0.012,0.14 0.02,0.28 0.02,0.42 0,0.076 -0.004,0.156 -0.008,0.232 -0.028,0.48 -0.36,0.912 -0.832,0.912 -0.432,0 -0.78,-0.352 -0.78,-0.788 0,-0.232 0.212,-0.412 0.448,-0.412 0.216,0 0.38,0.188 0.38,0.412 0,0.208 -0.172,0.38 -0.38,0.38 -0.044,0 -0.084,-0.008 -0.124,-0.024 0.104,0.156 0.272,0.26 0.468,0.26 0.384,0 0.628,-0.368 0.652,-0.764 0.004,-0.072 0.008,-0.148 0.008,-0.22 0,-0.124 -0.004,-0.244 -0.016,-0.368 -0.116,0.02 -0.232,0.032 -0.356,0.032 -0.752,0 -1.33199998,-0.688 -1.33199998,-1.496 0,-0.708 0.52399998,-1.224 0.99199998,-1.764 -0.076,-0.248 -0.148,-0.5 -0.18,-0.76 -0.024,-0.208 -0.028,-0.416 -0.028,-0.624 0,-0.46 0.22,-0.896 0.596,-1.168 0.012,-0.008 0.028,-0.012 0.04,-0.012 0.016,0 0.028,0 0.04,0.012 0.284,0.336 0.532,0.98 0.532,1.432 0,0.572 -0.344,1.02 -0.72,1.456 0.084,0.272 0.156,0.552 0.224,0.828 z m 0.34,1.86 c 0.272,-0.096 0.452,-0.38 0.452,-0.656 0,-0.36 -0.264,-0.716 -0.692,-0.76 0.096,0.464 0.184,0.924 0.24,1.416 z m -1.548,-0.924 c 0,0.54 0.516,0.988 1.056,0.988 0.112,0 0.22,-0.008 0.328,-0.024 -0.056,-0.508 -0.148,-0.98 -0.252,-1.456 -0.316,0.032 -0.496,0.244 -0.496,0.476 0,0.176 0.1,0.364 0.324,0.492 0.02,0.02 0.028,0.04 0.028,0.06 0,0.044 -0.04,0.088 -0.088,0.088 -0.012,0 -0.024,-0.004 -0.036,-0.008 -0.32,-0.172 -0.468,-0.46 -0.468,-0.74 0,-0.352 0.232,-0.696 0.64,-0.788 -0.056,-0.232 -0.116,-0.468 -0.184,-0.7 -0.428,0.484 -0.852,0.972 -0.852,1.612 z m 1.336,-4.068 c -0.396,0.192 -0.648,0.596 -0.648,1.036 0,0.296 0.072,0.532 0.144,0.776 0.32,-0.388 0.584,-0.792 0.584,-1.296 0,-0.22 -0.016,-0.316 -0.08,-0.516 z" />
  <a
     transform="translate(-14.225688,-3.8453)"
     id="a24"
     xlink:href="textedit:///Users/mbp-15_touch/Dropbox/tesis/GenoMus/ly/lilypond_framework_examples_GenoMus.ly:17:5:6"
     style="color:inherit">
    <path
       style="fill:currentColor"
       id="path26"
       d="M -50,0 C -50,28 -28,50 0,50 28,50 50,28 50,0 50,-28 28,-50 0,-50 -28,-50 -50,-28 -50,0 Z"
       transform="matrix(0.004,0,0,-0.004,20.6785,9.1213)" />
  </a>
  <a
     transform="translate(-14.225688,-3.8453)"
     id="a28"
     xlink:href="textedit:///Users/mbp-15_touch/Dropbox/tesis/GenoMus/ly/lilypond_framework_examples_GenoMus.ly:17:7:8"
     style="color:inherit">
    <path
       style="fill:currentColor"
       id="path30"
       d="M 253,245 203,82 C 173,-17 82,-173 -15,-173 c -45,0 -87,27 -87,69 0,39 17,77 52,77 24,0 44,-20 44,-44 0,-30 -38,-24 -38,-54 0,-10 11,-11 23,-11 l 6,0 c 48,0 61,58 73,108 l 68,273 -49,0 c -11,0 -19,8 -19,19 0,11 8,19 19,19 l 60,0 c 32,96 118,191 213,191 45,0 87,-27 87,-69 0,-39 -17,-77 -52,-77 -24,0 -44,19 -44,43 0,30 38,25 38,55 0,10 -10,11 -22,11 l -7,0 c -62,0 -70,-88 -86,-154 l 55,0 c 11,0 19,-8 19,-19 0,-11 -8,-19 -19,-19 l -66,0 z"
       transform="matrix(0.004,0,0,-0.004,20.0468,12.1833)" />
  </a>
  <a
     transform="translate(-14.225688,-3.8453)"
     id="a32"
     xlink:href="textedit:///Users/mbp-15_touch/Dropbox/tesis/GenoMus/ly/lilypond_framework_examples_GenoMus.ly:17:2:3"
     style="color:inherit">
    <path
       style="fill:currentColor"
       id="path34"
       d="m 218,136 c 55,0 108,-28 108,-89 0,-71 -55,-121 -102,-149 -35,-21 -75,-34 -116,-34 -55,0 -108,28 -108,89 0,71 55,121 102,149 35,21 75,34 116,34 z"
       transform="matrix(0.004,0,0,-0.004,20.0264,8.1213)" />
  </a>
  <path
     style="fill:currentColor"
     id="path36"
     d="m 7.1049121,0.816 c 0,0.708 0.804,1.172 0.804,1.88 0,0.132 -0.036,0.26 -0.092,0.38 0.072,0.148 0.116,0.3 0.116,0.468 0,0.252 -0.06,0.5 -0.164,0.732 -0.02,0.032 -0.052,0.048 -0.08,0.048 -0.052,0 -0.104,-0.044 -0.092,-0.108 0.104,-0.208 0.168,-0.44 0.168,-0.672 0,-0.388 -0.376,-0.76 -0.66,-1.028 l 0,0.3 -0.064,0 0,-2 0.064,0 z m 0.604,2.068 c 0.02,-0.06 0.032,-0.124 0.032,-0.188 0,-0.384 -0.364,-0.76 -0.636,-1.028 0,0.472 0.36,0.824 0.604,1.216 z" />
  <text
     y="3.776"
     x="-4.5671878"
     style="font-size:2.20009995px;font-family:serif;text-anchor:start;fill:currentColor"
     id="text38"
     font-size="2.2001">
    <tspan
       id="tspan40" />
  </text>
</svg>
