<?xml version="1.0" encoding="UTF-8" standalone="no"?>
<svg
   xmlns:dc="http://purl.org/dc/elements/1.1/"
   xmlns:cc="http://creativecommons.org/ns#"
   xmlns:rdf="http://www.w3.org/1999/02/22-rdf-syntax-ns#"
   xmlns:svg="http://www.w3.org/2000/svg"
   xmlns="http://www.w3.org/2000/svg"
   xmlns:xlink="http://www.w3.org/1999/xlink"
   xmlns:sodipodi="http://sodipodi.sourceforge.net/DTD/sodipodi-0.dtd"
   xmlns:inkscape="http://www.inkscape.org/namespaces/inkscape"
   version="1.2"
   width="35.772842mm"
   height="17.539246mm"
   viewBox="0 0 20.356723 9.9807992"
   id="svg2"
   inkscape:version="0.91 r13725"
   sodipodi:docname="ex3_score.svg">
  <metadata
     id="metadata68">
    <rdf:RDF>
      <cc:Work
         rdf:about="">
        <dc:format>image/svg+xml</dc:format>
        <dc:type
           rdf:resource="http://purl.org/dc/dcmitype/StillImage" />
        <dc:title></dc:title>
      </cc:Work>
    </rdf:RDF>
  </metadata>
  <defs
     id="defs66" />
  <sodipodi:namedview
     pagecolor="#ffffff"
     bordercolor="#666666"
     borderopacity="1"
     objecttolerance="10"
     gridtolerance="10"
     guidetolerance="10"
     inkscape:pageopacity="0"
     inkscape:pageshadow="2"
     inkscape:window-width="1059"
     inkscape:window-height="742"
     id="namedview64"
     showgrid="false"
     fit-margin-top="0"
     fit-margin-left="0"
     fit-margin-right="0"
     fit-margin-bottom="0"
     inkscape:zoom="0.89702955"
     inkscape:cx="-28.672451"
     inkscape:cy="184.19183"
     inkscape:window-x="0"
     inkscape:window-y="0"
     inkscape:window-maximized="0"
     inkscape:current-layer="svg2" />
  <!-- Page: 1/1 -->
  <text
     font-size="2.2001"
     id="text4"
     style="font-size:2.20009995px;font-family:serif;text-anchor:start;fill:currentColor"
     x="-8.5350876"
     y="-1">
    <tspan
       id="tspan6" />
  </text>
  <line
     x1="0.050712124"
     y1="5.776"
     x2="20.306011"
     y2="5.776"
     id="line8"
     style="stroke:currentColor;stroke-width:0.1;stroke-linecap:round;stroke-linejoin:round" />
  <line
     x1="0.050712124"
     y1="4.776"
     x2="20.306011"
     y2="4.776"
     id="line10"
     style="stroke:currentColor;stroke-width:0.1;stroke-linecap:round;stroke-linejoin:round" />
  <line
     x1="0.050712124"
     y1="3.776"
     x2="20.306011"
     y2="3.776"
     id="line12"
     style="stroke:currentColor;stroke-width:0.1;stroke-linecap:round;stroke-linejoin:round" />
  <line
     x1="0.050712124"
     y1="2.776"
     x2="20.306011"
     y2="2.776"
     id="line14"
     style="stroke:currentColor;stroke-width:0.1;stroke-linecap:round;stroke-linejoin:round" />
  <line
     x1="0.050712124"
     y1="1.776"
     x2="20.306011"
     y2="1.776"
     id="line16"
     style="stroke:currentColor;stroke-width:0.1;stroke-linecap:round;stroke-linejoin:round" />
  <rect
     x="17.178812"
     y="6.6760001"
     width="1.8053"
     height="0.2"
     ry="0.1"
     id="rect18"
     style="fill:currentColor" />
  <a
     style="color:inherit"
     xlink:href="textedit:///var/folders/_g/5m8jwnh13xl4zfc1dyffj2bw0000gn/T/frescobaldi-9hrf01x0/tmpsx5jvrvw/lilypond_framework_examples_GenoMus.ly:17:6:7"
     id="a20"
     transform="translate(-14.225688,-3.8453)">
    <path
       transform="translate(20.0264,7.6213)"
       d="m 0.6294,3.045 c 1.7055,1.8862 9.3879,2.8865 11.5196,1.5 l 0,0 C 10.0315,5.8224 2.3491,4.8221 0.6294,3.045 Z"
       id="path22"
       inkscape:connector-curvature="0"
       style="fill:currentColor;stroke:currentColor;stroke-width:0.1;stroke-linecap:round;stroke-linejoin:round" />
  </a>
  <a
     style="color:inherit"
     xlink:href="textedit:///var/folders/_g/5m8jwnh13xl4zfc1dyffj2bw0000gn/T/frescobaldi-9hrf01x0/tmpsx5jvrvw/lilypond_framework_examples_GenoMus.ly:17:18:19"
     id="a24"
     transform="translate(-14.225688,-3.8453)">
    <path
       transform="matrix(0.004,0,0,-0.004,31.5794,11.1213)"
       d="m 218,136 c 55,0 108,-28 108,-89 0,-71 -55,-121 -102,-149 -35,-21 -75,-34 -116,-34 -55,0 -108,28 -108,89 0,71 55,121 102,149 35,21 75,34 116,34 z"
       id="path26"
       inkscape:connector-curvature="0"
       style="fill:currentColor" />
  </a>
  <rect
     x="18.527912"
     y="3.776"
     width="0.13"
     height="3.3139"
     ry="0.039999999"
     id="rect28"
     style="fill:currentColor" />
  <path
     d="m 16.311712,7.112 -0.004,0.264 0,0.044 c 0,0.088 0.004,0.176 0.016,0.264 0.18,-0.152 0.372,-0.32 0.372,-0.556 0,-0.132 -0.056,-0.268 -0.172,-0.268 -0.124,0 -0.208,0.12 -0.212,0.252 z m -0.168,0.716 -0.048,-2.38 c 0.032,-0.02 0.072,-0.032 0.108,-0.032 0.036,0 0.076,0.012 0.108,0.032 l -0.028,1.38 c 0.1,-0.084 0.232,-0.136 0.364,-0.136 0.208,0 0.356,0.192 0.356,0.408 0,0.32 -0.344,0.468 -0.588,0.676 -0.06,0.052 -0.096,0.152 -0.18,0.152 -0.052,0 -0.092,-0.044 -0.092,-0.1 z"
     id="path30"
     inkscape:connector-curvature="0"
     style="fill:currentColor" />
  <a
     style="color:inherit"
     xlink:href="textedit:///var/folders/_g/5m8jwnh13xl4zfc1dyffj2bw0000gn/T/frescobaldi-9hrf01x0/tmpsx5jvrvw/lilypond_framework_examples_GenoMus.ly:17:11:12"
     id="a32"
     transform="translate(-14.225688,-3.8453)">
    <path
       transform="matrix(0.004,0,0,-0.004,24.5518,8.6213)"
       d="m 218,136 c 55,0 108,-28 108,-89 0,-71 -55,-121 -102,-149 -35,-21 -75,-34 -116,-34 -55,0 -108,28 -108,89 0,71 55,121 102,149 35,21 75,34 116,34 z"
       id="path34"
       inkscape:connector-curvature="0"
       style="fill:currentColor" />
  </a>
  <rect
     x="11.500312"
     y="1.276"
     width="0.13"
     height="3.3139"
     ry="0.039999999"
     id="rect36"
     style="fill:currentColor" />
  <a
     style="color:inherit"
     xlink:href="textedit:///var/folders/_g/5m8jwnh13xl4zfc1dyffj2bw0000gn/T/frescobaldi-9hrf01x0/tmpsx5jvrvw/lilypond_framework_examples_GenoMus.ly:17:14:15"
     id="a38"
     transform="translate(-14.225688,-3.8453)">
    <path
       transform="matrix(0.004,0,0,-0.004,27.304,9.6213)"
       d="m 314,65 c 0,24 -21,41 -42,41 -4,0 -8,0 -12,-1 C 229,96 182,65 145,41 108,17 61,-12 41,-37 34,-45 31,-55 31,-65 c 0,-24 21,-41 42,-41 4,0 8,0 12,1 31,9 77,40 114,64 37,24 84,53 104,78 7,8 11,18 11,28 z m -52,71 c 46,0 82,-21 82,-71 0,-19 -4,-39 -10,-57 -12,-37 -32,-72 -64,-94 -53,-36 -113,-50 -187,-50 -46,0 -83,21 -83,71 0,19 5,39 11,57 12,37 31,72 63,94 53,36 114,50 188,50 z"
       id="path40"
       inkscape:connector-curvature="0"
       style="fill:currentColor" />
  </a>
  <rect
     x="14.325712"
     y="2.276"
     width="0.13"
     height="3.2409999"
     ry="0.039999999"
     id="rect42"
     style="fill:currentColor" />
  <text
     font-size="2.2001"
     id="text44"
     style="font-size:2.20009995px;font-family:serif;text-anchor:start;fill:currentColor"
     x="-4.5671878"
     y="3.776">
    <tspan
       id="tspan46" />
  </text>
  <a
     style="color:inherit"
     xlink:href="textedit:///var/folders/_g/5m8jwnh13xl4zfc1dyffj2bw0000gn/T/frescobaldi-9hrf01x0/tmpsx5jvrvw/lilypond_framework_examples_GenoMus.ly:17:2:3"
     id="a48"
     transform="translate(-14.225688,-3.8453)">
    <path
       transform="matrix(0.004,0,0,-0.004,20.0264,9.6213)"
       d="m 314,65 c 0,24 -21,41 -42,41 -4,0 -8,0 -12,-1 C 229,96 182,65 145,41 108,17 61,-12 41,-37 34,-45 31,-55 31,-65 c 0,-24 21,-41 42,-41 4,0 8,0 12,1 31,9 77,40 114,64 37,24 84,53 104,78 7,8 11,18 11,28 z m -52,71 c 46,0 82,-21 82,-71 0,-19 -4,-39 -10,-57 -12,-37 -32,-72 -64,-94 -53,-36 -113,-50 -187,-50 -46,0 -83,21 -83,71 0,19 5,39 11,57 12,37 31,72 63,94 53,36 114,50 188,50 z"
       id="path50"
       inkscape:connector-curvature="0"
       style="fill:currentColor" />
  </a>
  <a
     style="color:inherit"
     xlink:href="textedit:///var/folders/_g/5m8jwnh13xl4zfc1dyffj2bw0000gn/T/frescobaldi-9hrf01x0/tmpsx5jvrvw/lilypond_framework_examples_GenoMus.ly:17:8:9"
     id="a52"
     transform="translate(-14.225688,-3.8453)">
    <path
       transform="matrix(0.004,0,0,-0.004,19.981,13.2421)"
       d="M 233,243 C 177,243 131,136 131,70 c 0,-22 8,-38 30,-38 64,0 97,126 97,178 0,18 -7,33 -25,33 z M 112,-146 c -38,0 -78,5 -116,5 -39,0 -78,-5 -115,-5 -9,0 -14,7 -14,14 0,18 31,15 48,16 22,1 47,5 54,25 L 71,209 c 2,7 4,14 4,20 0,8 -2,14 -11,14 -33,0 -63,-60 -79,-97 -5,-12 -15,-17 -24,-17 -8,0 -14,4 -14,12 0,2 1,5 2,8 30,68 72,143 132,143 35,0 59,-21 66,-52 29,31 67,52 103,52 69,0 107,-49 107,-114 0,-21 -4,-44 -12,-67 C 325,53 254,-8 198,-8 c -27,0 -52,5 -73,17 -4,2 -7,3 -11,3 -7,0 -14,-3 -16,-9 L 69,-83 c -1,-2 -1,-5 -1,-7 0,-20 21,-26 44,-28 9,-1 13,-8 13,-14 0,-7 -4,-14 -13,-14 z"
       id="path54"
       inkscape:connector-curvature="0"
       style="fill:currentColor" />
  </a>
  <path
     d="m 2.3047121,3.728 c 0.016,0 0.036,-0.004 0.052,-0.004 0.62,0 1.024,0.512 1.024,1.044 0,0.304 -0.132,0.616 -0.428,0.84 -0.088,0.068 -0.188,0.112 -0.292,0.144 0.012,0.14 0.02,0.28 0.02,0.42 0,0.076 -0.004,0.156 -0.008,0.232 -0.028,0.48 -0.36,0.912 -0.832,0.912 -0.432,0 -0.78,-0.352 -0.78,-0.788 0,-0.232 0.212,-0.412 0.448,-0.412 0.216,0 0.38,0.188 0.38,0.412 0,0.208 -0.172,0.38 -0.38,0.38 -0.044,0 -0.084,-0.008 -0.124,-0.024 0.104,0.156 0.272,0.26 0.468,0.26 0.384,0 0.628,-0.368 0.652,-0.764 0.004,-0.072 0.008,-0.148 0.008,-0.22 0,-0.124 -0.004,-0.244 -0.016,-0.368 -0.116,0.02 -0.232,0.032 -0.356,0.032 -0.752,0 -1.33199998,-0.688 -1.33199998,-1.496 0,-0.708 0.52399998,-1.224 0.99199998,-1.764 -0.076,-0.248 -0.148,-0.5 -0.18,-0.76 -0.024,-0.208 -0.028,-0.416 -0.028,-0.624 0,-0.46 0.22,-0.896 0.596,-1.168 0.012,-0.008 0.028,-0.012 0.04,-0.012 0.016,0 0.028,0 0.04,0.012 0.284,0.336 0.532,0.98 0.532,1.432 0,0.572 -0.344,1.02 -0.72,1.456 0.084,0.272 0.156,0.552 0.224,0.828 z m 0.34,1.86 c 0.272,-0.096 0.452,-0.38 0.452,-0.656 0,-0.36 -0.264,-0.716 -0.692,-0.76 0.096,0.464 0.184,0.924 0.24,1.416 z m -1.548,-0.924 c 0,0.54 0.516,0.988 1.056,0.988 0.112,0 0.22,-0.008 0.328,-0.024 -0.056,-0.508 -0.148,-0.98 -0.252,-1.456 -0.316,0.032 -0.496,0.244 -0.496,0.476 0,0.176 0.1,0.364 0.324,0.492 0.02,0.02 0.028,0.04 0.028,0.06 0,0.044 -0.04,0.088 -0.088,0.088 -0.012,0 -0.024,-0.004 -0.036,-0.008 -0.32,-0.172 -0.468,-0.46 -0.468,-0.74 0,-0.352 0.232,-0.696 0.64,-0.788 -0.056,-0.232 -0.116,-0.468 -0.184,-0.7 -0.428,0.484 -0.852,0.972 -0.852,1.612 z m 1.336,-4.068 c -0.396,0.192 -0.648,0.596 -0.648,1.036 0,0.296 0.072,0.532 0.144,0.776 0.32,-0.388 0.584,-0.792 0.584,-1.296 0,-0.22 -0.016,-0.316 -0.08,-0.516 z"
     id="path56"
     inkscape:connector-curvature="0"
     style="fill:currentColor" />
  <a
     style="color:inherit"
     xlink:href="textedit:///var/folders/_g/5m8jwnh13xl4zfc1dyffj2bw0000gn/T/frescobaldi-9hrf01x0/tmpsx5jvrvw/lilypond_framework_examples_GenoMus.ly:8:2:3"
     id="a58"
     transform="translate(-14.225688,-3.8453)" />
  <rect
     x="7.0480123"
     y="2.276"
     width="0.13"
     height="3.2409999"
     ry="0.039999999"
     id="rect60"
     style="fill:currentColor" />
  <path
     d="m 4.7587121,5.612 -0.004,0.264 0,0.044 c 0,0.088 0.004,0.176 0.016,0.264 0.18,-0.152 0.372,-0.32 0.372,-0.556 0,-0.132 -0.056,-0.268 -0.172,-0.268 -0.124,0 -0.208,0.12 -0.212,0.252 z m -0.168,0.716 -0.048,-2.38 c 0.032,-0.02 0.072,-0.032 0.108,-0.032 0.036,0 0.076,0.012 0.108,0.032 l -0.028,1.38 c 0.1,-0.084 0.232,-0.136 0.364,-0.136 0.208,0 0.356,0.192 0.356,0.408 0,0.32 -0.344,0.468 -0.588,0.676 -0.06,0.052 -0.096,0.152 -0.18,0.152 -0.052,0 -0.092,-0.044 -0.092,-0.1 z"
     id="path62"
     inkscape:connector-curvature="0"
     style="fill:currentColor" />
</svg>
