<?xml version="1.0" encoding="UTF-8" standalone="no"?>
<svg
   xmlns:dc="http://purl.org/dc/elements/1.1/"
   xmlns:cc="http://creativecommons.org/ns#"
   xmlns:rdf="http://www.w3.org/1999/02/22-rdf-syntax-ns#"
   xmlns:svg="http://www.w3.org/2000/svg"
   xmlns="http://www.w3.org/2000/svg"
   xmlns:xlink="http://www.w3.org/1999/xlink"
   version="1.2"
   width="68.950119mm"
   height="32.067574mm"
   viewBox="0 0 39.236426 18.24822"
   id="svg2">
  <metadata
     id="metadata140">
    <rdf:RDF>
      <cc:Work
         rdf:about="">
        <dc:format>image/svg+xml</dc:format>
        <dc:type
           rdf:resource="http://purl.org/dc/dcmitype/StillImage" />
        <dc:title></dc:title>
      </cc:Work>
    </rdf:RDF>
  </metadata>
  <defs
     id="defs138" />
  <!-- Page: 1/1 -->
  <text
     font-size="2.2001"
     id="text4"
     style="font-size:2.20009995px;font-family:serif;text-anchor:start;fill:currentColor"
     x="-7.3238001"
     y="0.13810985">
    <tspan
       id="tspan6" />
  </text>
  <rect
     x="13.2885"
     y="5.1842098"
     width="0.13"
     height="0"
     ry="0.0000"
     id="rect38"
     style="fill:currentColor" />
  <rect
     x="16.290701"
     y="5.6842098"
     width="0.13"
     height="0"
     ry="0.0000"
     id="rect46"
     style="fill:currentColor" />
  <rect
     x="11.4384"
     y="6.3120098"
     width="0.13"
     height="0"
     ry="0.0000"
     id="rect50"
     style="fill:currentColor" />
  <rect
     x="25.297501"
     y="3.6842098"
     width="0.13"
     height="0"
     ry="0.0000"
     id="rect66"
     style="fill:currentColor" />
  <rect
     x="22.2952"
     y="3.1842098"
     width="0.13"
     height="0"
     ry="0.0000"
     id="rect74"
     style="fill:currentColor" />
  <rect
     x="19.292999"
     y="3.1842098"
     width="0.13"
     height="0"
     ry="0.0000"
     id="rect82"
     style="fill:currentColor" />
  <rect
     x="8.1862001"
     y="7.8120098"
     width="0.13"
     height="0"
     ry="0.0000"
     id="rect92"
     style="fill:currentColor" />
  <rect
     x="28.0497"
     y="6.1842098"
     width="0.13"
     height="0"
     ry="0.0000"
     id="rect134"
     style="fill:currentColor" />
  <text
     id="text4-8"
     font-size="2.2001"
     style="font-size:2.20009995px;font-family:serif;text-anchor:start;fill:currentColor"
     x="-7.3470612"
     y="19.367207">
    <tspan
       id="tspan6-3" />
  </text>
  <line
     id="line8"
     y2="7.9551992"
     x2="37.188843"
     y1="7.9551992"
     x1="1.2387406"
     style="stroke:currentColor;stroke-width:0.10000001;stroke-linecap:round;stroke-linejoin:round" />
  <line
     id="line10"
     y2="6.9551992"
     x2="37.188843"
     y1="6.9551992"
     x1="1.2387406"
     style="stroke:currentColor;stroke-width:0.10000001;stroke-linecap:round;stroke-linejoin:round" />
  <line
     id="line12"
     y2="5.9552002"
     x2="37.188843"
     y1="5.9552002"
     x1="1.2387406"
     style="stroke:currentColor;stroke-width:0.10000001;stroke-linecap:round;stroke-linejoin:round" />
  <line
     id="line14"
     y2="4.9552002"
     x2="37.188843"
     y1="4.9552002"
     x1="1.2387406"
     style="stroke:currentColor;stroke-width:0.10000001;stroke-linecap:round;stroke-linejoin:round" />
  <line
     id="line16"
     y2="3.9552021"
     x2="37.188843"
     y1="3.9552021"
     x1="1.2387406"
     style="stroke:currentColor;stroke-width:0.10000001;stroke-linecap:round;stroke-linejoin:round" />
  <rect
     id="rect18"
     ry="0.10000001"
     height="0.20000002"
     width="2.9430003"
     y="8.8552036"
     x="30.688242"
     style="fill:currentColor" />
  <rect
     id="rect20"
     ry="0.10000001"
     height="0.20000002"
     width="2.6275001"
     y="9.8551998"
     x="31.00374"
     style="fill:currentColor" />
  <rect
     id="rect22"
     ry="0.10000001"
     height="0.20000002"
     width="1.9563001"
     y="2.8552008"
     x="21.84594"
     style="fill:currentColor" />
  <rect
     id="rect24"
     ry="0.10000001"
     height="0.20000002"
     width="1.8053001"
     y="2.8552008"
     x="18.994741"
     style="fill:currentColor" />
  <line
     id="line26"
     y2="16.955193"
     x2="37.188843"
     y1="16.955193"
     x1="1.2387406"
     style="stroke:currentColor;stroke-width:0.10000001;stroke-linecap:round;stroke-linejoin:round" />
  <line
     id="line28"
     y2="15.955197"
     x2="37.188843"
     y1="15.955197"
     x1="1.2387406"
     style="stroke:currentColor;stroke-width:0.10000001;stroke-linecap:round;stroke-linejoin:round" />
  <line
     id="line30"
     y2="14.955201"
     x2="37.188843"
     y1="14.955201"
     x1="1.2387406"
     style="stroke:currentColor;stroke-width:0.10000001;stroke-linecap:round;stroke-linejoin:round" />
  <line
     id="line32"
     y2="13.955197"
     x2="37.188843"
     y1="13.955197"
     x1="1.2387406"
     style="stroke:currentColor;stroke-width:0.10000001;stroke-linecap:round;stroke-linejoin:round" />
  <line
     id="line34"
     y2="12.955201"
     x2="37.188843"
     y1="12.955201"
     x1="1.2387406"
     style="stroke:currentColor;stroke-width:0.10000001;stroke-linecap:round;stroke-linejoin:round" />
  <rect
     id="rect36"
     ry="0.0000"
     height="0"
     width="0.13000001"
     y="22.913307"
     x="13.165241"
     style="fill:currentColor" />
  <a
     id="a38"
     xlink:href="textedit:///var/folders/_g/5m8jwnh13xl4zfc1dyffj2bw0000gn/T/frescobaldi-wkpy2jbp/tmpcbso81a4/lilypond_framework_examples_GenoMus.ly:13:12:13"
     style="color:inherit"
     transform="translate(-13.037662,-2.7500996)">
    <path
       id="path40"
       d="m 218,136 c 55,0 108,-28 108,-89 0,-71 -55,-121 -102,-149 -35,-21 -75,-34 -116,-34 -55,0 -108,28 -108,89 0,71 55,121 102,149 35,21 75,34 116,34 z"
       transform="matrix(0.004,0,0,-0.004,26.2029,6.2053)"
       style="fill:currentColor" />
  </a>
  <path
     id="path42-3"
     d="m 9.1209408,6.2912002 -0.004,0.264 0,0.044 c 0,0.088 0.004,0.176 0.016001,0.2639999 C 9.3129419,6.7112002 9.504942,6.5432002 9.504942,6.3072002 c 0,-0.132 -0.056,-0.268 -0.1720001,-0.268 -0.1240001,0 -0.208,0.12 -0.2120001,0.252 z m -0.168,0.7159999 -0.048,-2.3799999 c 0.032,-0.02 0.072,-0.032 0.108,-0.032 0.036,0 0.076,0.012 0.108,0.032 l -0.028,1.38 c 0.1000001,-0.084 0.2320001,-0.136 0.364,-0.136 0.2080002,0 0.3560001,0.192 0.3560001,0.408 0,0.32 -0.344,0.468 -0.588,0.6759999 -0.06,0.052 -0.096,0.152 -0.18,0.152 -0.052,0 -0.092,-0.044 -0.092,-0.1 z"
     style="fill:currentColor" />
  <rect
     id="rect44"
     ry="0.0000"
     height="0"
     width="0.13000001"
     y="25.541107"
     x="11.337139"
     style="fill:currentColor" />
  <a
     id="a46"
     xlink:href="textedit:///var/folders/_g/5m8jwnh13xl4zfc1dyffj2bw0000gn/T/frescobaldi-wkpy2jbp/tmpcbso81a4/lilypond_framework_examples_GenoMus.ly:13:8:9"
     style="color:inherit"
     transform="translate(-13.037662,-2.7500996)">
    <path
       id="path48"
       d="m 218,136 c 55,0 108,-28 108,-89 0,-71 -55,-121 -102,-149 -35,-21 -75,-34 -116,-34 -55,0 -108,28 -108,89 0,71 55,121 102,149 35,21 75,34 116,34 z"
       transform="matrix(0.004,0,0,-0.004,23.2006,9.2053)"
       style="fill:currentColor" />
  </a>
  <path
     id="path50-5"
     d="m 30.136741,9.7912001 -0.004,0.2639999 0,0.044 c 0,0.088 0.004,0.176 0.016,0.264 0.180001,-0.152001 0.372,-0.32 0.372,-0.5559999 0,-0.132 -0.056,-0.268 -0.172,-0.268 -0.123999,0 -0.207999,0.12 -0.212,0.252 z m -0.168,0.7159999 -0.048,-2.3799999 c 0.032,-0.02 0.072,-0.032 0.108,-0.032 0.036,0 0.076,0.012 0.108,0.032 l -0.028,1.38 c 0.100001,-0.084 0.232001,-0.136 0.364001,-0.136 0.208,0 0.355999,0.192 0.355999,0.408001 0,0.3199989 -0.343999,0.4679989 -0.588,0.6759989 -0.06,0.052 -0.096,0.152 -0.179999,0.152 -0.052,0 -0.092,-0.044 -0.092,-0.1 z"
     style="fill:currentColor" />
  <rect
     id="rect52"
     ry="0.0000"
     height="0"
     width="0.13000001"
     y="22.913307"
     x="25.17424"
     style="fill:currentColor" />
  <path
     id="path54"
     d="m 18.12774,2.7912003 -0.004,0.264 0,0.044 c 0,0.088 0.004,0.176 0.016,0.264 0.18,-0.152 0.371999,-0.32 0.371999,-0.556 0,-0.132 -0.056,-0.268 -0.171999,-0.268 -0.124,0 -0.208,0.12 -0.212,0.252 z m -0.168001,0.716 -0.048,-2.380001 c 0.032,-0.02 0.072,-0.032 0.108,-0.032 0.036,0 0.076,0.012 0.108001,0.032 l -0.028,1.380001 c 0.1,-0.084 0.232,-0.136 0.364001,-0.136 0.207999,0 0.355999,0.192 0.355999,0.408 0,0.32 -0.343999,0.468 -0.588,0.676 -0.06,0.052 -0.096,0.1519999 -0.179999,0.1519999 -0.052,0 -0.092,-0.044 -0.092,-0.1 z"
     style="fill:currentColor" />
  <a
     id="a56"
     xlink:href="textedit:///var/folders/_g/5m8jwnh13xl4zfc1dyffj2bw0000gn/T/frescobaldi-wkpy2jbp/tmpcbso81a4/lilypond_framework_examples_GenoMus.ly:13:29:30"
     style="color:inherit"
     transform="translate(-13.037662,-2.7500996)">
    <path
       id="path58"
       d="m 218,136 c 55,0 108,-28 108,-89 0,-71 -55,-121 -102,-149 -35,-21 -75,-34 -116,-34 -55,0 -108,28 -108,89 0,71 55,121 102,149 35,21 75,34 116,34 z"
       transform="matrix(0.004,0,0,-0.004,38.2119,6.2053)"
       style="fill:currentColor" />
  </a>
  <rect
     id="rect60"
     ry="0.0000"
     height="0"
     width="0.13000001"
     y="22.413307"
     x="22.171942"
     style="fill:currentColor" />
  <a
     id="a62"
     xlink:href="textedit:///var/folders/_g/5m8jwnh13xl4zfc1dyffj2bw0000gn/T/frescobaldi-wkpy2jbp/tmpcbso81a4/lilypond_framework_examples_GenoMus.ly:13:25:26"
     style="color:inherit"
     transform="translate(-13.037662,-2.7500996)">
    <path
       id="path64"
       d="m 218,136 c 55,0 108,-28 108,-89 0,-71 -55,-121 -102,-149 -35,-21 -75,-34 -116,-34 -55,0 -108,28 -108,89 0,71 55,121 102,149 35,21 75,34 116,34 z"
       transform="matrix(0.004,0,0,-0.004,35.2096,5.7053)"
       style="fill:currentColor" />
  </a>
  <a
     id="a66"
     xlink:href="textedit:///var/folders/_g/5m8jwnh13xl4zfc1dyffj2bw0000gn/T/frescobaldi-wkpy2jbp/tmpcbso81a4/lilypond_framework_examples_GenoMus.ly:13:15:16"
     style="color:inherit"
     transform="translate(-13.037662,-2.7500996)">
    <path
       id="path68"
       d="m 218,136 c 55,0 108,-28 108,-89 0,-71 -55,-121 -102,-149 -35,-21 -75,-34 -116,-34 -55,0 -108,28 -108,89 0,71 55,121 102,149 35,21 75,34 116,34 z"
       transform="matrix(0.004,0,0,-0.004,29.2051,9.2053)"
       style="fill:currentColor" />
  </a>
  <rect
     id="rect70"
     ry="0.0000"
     height="0"
     width="0.13000001"
     y="22.413307"
     x="19.169741"
     style="fill:currentColor" />
  <a
     id="a72"
     xlink:href="textedit:///var/folders/_g/5m8jwnh13xl4zfc1dyffj2bw0000gn/T/frescobaldi-wkpy2jbp/tmpcbso81a4/lilypond_framework_examples_GenoMus.ly:27:7:8"
     style="color:inherit"
     transform="translate(-13.037662,-2.7500996)">
    <path
       id="path74-7"
       d="m 213,112 c -50,0 -69,-43 -69,-88 0,-77 57,-136 134,-136 50,0 69,43 69,88 0,77 -57,136 -134,136 z M 491,0 c 0,-43 -34,-75 -72,-96 -53,-29 -114,-40 -174,-40 -60,0 -120,11 -173,40 -38,21 -72,53 -72,96 0,43 34,75 72,96 53,29 113,40 173,40 60,0 121,-11 174,-40 38,-21 72,-53 72,-96 z"
       transform="matrix(0.004,0,0,-0.004,32.2074,16.2053)"
       style="fill:currentColor" />
  </a>
  <a
     id="a76"
     xlink:href="textedit:///var/folders/_g/5m8jwnh13xl4zfc1dyffj2bw0000gn/T/frescobaldi-wkpy2jbp/tmpcbso81a4/lilypond_framework_examples_GenoMus.ly:13:20:21"
     style="color:inherit"
     transform="translate(-13.037662,-2.7500996)">
    <path
       id="path78"
       d="m 218,136 c 55,0 108,-28 108,-89 0,-71 -55,-121 -102,-149 -35,-21 -75,-34 -116,-34 -55,0 -108,28 -108,89 0,71 55,121 102,149 35,21 75,34 116,34 z"
       transform="matrix(0.004,0,0,-0.004,32.2074,5.7053)"
       style="fill:currentColor" />
  </a>
  <rect
     id="rect80"
     ry="0.0000"
     height="0"
     width="0.13000001"
     y="25.541107"
     x="17.341637"
     style="fill:currentColor" />
  <a
     id="a82"
     xlink:href="textedit:///var/folders/_g/5m8jwnh13xl4zfc1dyffj2bw0000gn/T/frescobaldi-wkpy2jbp/tmpcbso81a4/lilypond_framework_examples_GenoMus.ly:27:2:3"
     style="color:inherit"
     transform="translate(-13.037662,-2.7500996)">
    <path
       id="path84"
       d="m 213,112 c -50,0 -69,-43 -69,-88 0,-77 57,-136 134,-136 50,0 69,43 69,88 0,77 -57,136 -134,136 z M 491,0 c 0,-43 -34,-75 -72,-96 -53,-29 -114,-40 -174,-40 -60,0 -120,11 -173,40 -38,21 -72,53 -72,96 0,43 34,75 72,96 53,29 113,40 173,40 60,0 121,-11 174,-40 38,-21 72,-53 72,-96 z"
       transform="matrix(0.004,0,0,-0.004,20.0264,19.2053)"
       style="fill:currentColor" />
  </a>
  <a
     id="a86"
     xlink:href="textedit:///var/folders/_g/5m8jwnh13xl4zfc1dyffj2bw0000gn/T/frescobaldi-wkpy2jbp/tmpcbso81a4/lilypond_framework_examples_GenoMus.ly:27:11:12"
     style="color:inherit"
     transform="translate(-13.037662,-2.7500996)">
    <path
       id="path88"
       d="m 213,112 c -50,0 -69,-43 -69,-88 0,-77 57,-136 134,-136 50,0 69,43 69,88 0,77 -57,136 -134,136 z M 491,0 c 0,-43 -34,-75 -72,-96 -53,-29 -114,-40 -174,-40 -60,0 -120,11 -173,40 -38,21 -72,53 -72,96 0,43 34,75 72,96 53,29 113,40 173,40 60,0 121,-11 174,-40 38,-21 72,-53 72,-96 z"
       transform="matrix(0.004,0,0,-0.004,44.2164,16.2053)"
       style="fill:currentColor" />
  </a>
  <rect
     id="rect90"
     ry="0.0000"
     height="0"
     width="0.13000001"
     y="26.041107"
     x="8.162941"
     style="fill:currentColor" />
  <path
     id="path92"
     d="m 4.2167413,14.455201 c 0,-0.112001 0.092,-0.204001 0.2040001,-0.204001 0.1119999,0 0.2039999,0.092 0.2039999,0.204001 0,0.112 -0.092,0.204 -0.2039999,0.204 -0.1120001,0 -0.2040001,-0.092 -0.2040001,-0.204 z m 0,-1.000001 c 0,-0.112 0.092,-0.204 0.2040001,-0.204 0.1119999,0 0.2039999,0.092 0.2039999,0.204 0,0.112 -0.092,0.204 -0.2039999,0.204 -0.1120001,0 -0.2040001,-0.092 -0.2040001,-0.204 z m -1.3000004,-0.552 c 0.6880002,0 1.1720003,0.352 1.1720003,1.004 0,1.052001 -1.0520003,1.656001 -2.0640006,2.084001 -0.012,0.012 -0.024,0.016 -0.036,0.016 -0.028,0 -0.052,-0.024 -0.052,-0.052 0,-0.012 0.004,-0.024 0.016001,-0.036 0.8080004,-0.472 1.6480006,-1.06 1.6480006,-1.972 0,-0.48 -0.2520001,-0.94 -0.6840003,-0.94 -0.296,0 -0.516,0.216 -0.6160001,0.504 0.044,-0.02 0.088,-0.032 0.136,-0.032 0.2200001,0 0.4000001,0.18 0.4000001,0.4 0,0.232 -0.176,0.424 -0.4000001,0.424 -0.24,0 -0.4480001,-0.188 -0.4480001,-0.424 0,-0.532 0.4080001,-0.976 0.9280002,-0.976 z"
     style="fill:currentColor" />
  <path
     id="path94"
     d="m 3.492741,5.9072002 c 0.016001,0 0.036,-0.004 0.052,-0.004 0.6200002,0 1.0240004,0.512 1.0240004,1.0440009 0,0.303999 -0.1320001,0.616 -0.4280001,0.84 -0.088,0.068 -0.1880002,0.112 -0.2920001,0.144 0.012,0.14 0.02,0.28 0.02,0.42 0,0.076 -0.004,0.156 -0.008,0.232 -0.028,0.48 -0.3600001,0.912 -0.8320003,0.912 -0.4320001,0 -0.7800002,-0.352 -0.7800002,-0.788 0,-0.232 0.2120001,-0.412 0.4480001,-0.412 0.216,0 0.3800001,0.188 0.3800001,0.412 0,0.208 -0.1720001,0.38 -0.3800001,0.38 -0.044,0 -0.084,-0.008 -0.1240001,-0.024 0.1040001,0.156 0.2720001,0.26 0.4680003,0.26 0.384,0 0.6280001,-0.368 0.652,-0.764 0.004,-0.072 0.008,-0.148 0.008,-0.22 0,-0.124 -0.004,-0.244 -0.016001,-0.368 -0.1159999,0.02 -0.2320001,0.032 -0.356,0.032 -0.7520002,0 -1.3320004,-0.688001 -1.3320004,-1.4960009 0,-0.708 0.5240002,-1.224 0.9920003,-1.764 -0.076,-0.248 -0.148,-0.5 -0.18,-0.76 -0.024,-0.208 -0.028,-0.4159999 -0.028,-0.6240009 0,-0.46 0.22,-0.896 0.5960001,-1.168 0.012,-0.008 0.028,-0.012 0.04,-0.012 0.016001,0 0.028,0 0.04,0.012 0.2840001,0.336 0.5320002,0.98 0.5320002,1.4319999 0,0.572001 -0.3440002,1.020001 -0.7200002,1.456001 0.084,0.272 0.156,0.552 0.224,0.828 z m 0.3400001,1.8600009 c 0.2720001,-0.096 0.4520001,-0.38 0.4520001,-0.656001 0,-0.3599999 -0.2639999,-0.7159999 -0.6920002,-0.7599999 0.096,0.4639999 0.1840001,0.9239999 0.2400001,1.4160009 z M 2.2847407,6.8432001 c 0,0.54 0.5160002,0.988001 1.0560004,0.988001 0.1119999,0 0.22,-0.008 0.328,-0.024 -0.056,-0.508001 -0.148,-0.980001 -0.2520001,-1.4560009 -0.316,0.032 -0.496,0.244 -0.496,0.4759999 0,0.176 0.1,0.364 0.324,0.492 0.02,0.02 0.028,0.04 0.028,0.06 0,0.044 -0.04,0.088 -0.088,0.088 -0.012,0 -0.024,-0.004 -0.036,-0.008 -0.3200001,-0.171999 -0.4680001,-0.459999 -0.4680001,-0.7399989 0,-0.352 0.2319999,-0.696 0.6400002,-0.788 -0.056,-0.232 -0.1160002,-0.468001 -0.1840001,-0.700001 -0.4280001,0.484001 -0.8520003,0.972001 -0.8520003,1.6120009 z M 3.6207412,2.7751993 c -0.3960002,0.192 -0.6480003,0.596 -0.6480003,1.0359999 0,0.296001 0.072,0.532001 0.1440001,0.776001 0.32,-0.388 0.5840002,-0.792 0.5840002,-1.2960009 0,-0.22 -0.016001,-0.316 -0.08,-0.516 z"
     style="fill:currentColor" />
  <a
     id="a96"
     xlink:href="textedit:///var/folders/_g/5m8jwnh13xl4zfc1dyffj2bw0000gn/T/frescobaldi-wkpy2jbp/tmpcbso81a4/lilypond_framework_examples_GenoMus.ly:13:3:4"
     style="color:inherit"
     transform="translate(-13.037662,-2.7500996)">
    <path
       id="path98"
       d="m 218,136 c 55,0 108,-28 108,-89 0,-71 -55,-121 -102,-149 -35,-21 -75,-34 -116,-34 -55,0 -108,28 -108,89 0,71 55,121 102,149 35,21 75,34 116,34 z"
       transform="matrix(0.004,0,0,-0.004,20.0264,9.7053)"
       style="fill:currentColor" />
  </a>
  <rect
     id="rect100"
     ry="0.050000004"
     height="13.100001"
     width="0.16000001"
     y="3.9052"
     x="1.1287404"
     style="fill:currentColor" />
  <path
     id="path102"
     d="m 0.76874037,12.4472 c 0,1.044 -0.40800009,2.064 -0.40800009,3.060001 0,0.54 0.11999999,1.044 0.51600005,1.44 0.012,0.012 0.012,0.036 0.012,0.048 0,0.036 -0.024,0.072 -0.06,0.072 -0.012,0 -0.036,-0.012 -0.048,-0.024 -0.52800005,-0.54 -0.70800015,-1.248 -0.70800015,-2.004 0,-1.068001 0.43200019,-2.112001 0.43200019,-3.120001 0,-0.54 -0.13200009,-1.044 -0.51600019,-1.44 -0.012,-0.012 -0.012,-0.012 -0.012,-0.024 0,-0.012 0,-0.012 0.012,-0.024 0.3840001,-0.396 0.51600009,-0.8999999 0.51600009,-1.4399999 0,-1.008 -0.43200009,-2.052 -0.43200009,-3.1200009 0,-0.756 0.1800001,-1.464 0.70800015,-2.004 0.012,-0.012 0.036,-0.024 0.048,-0.024 0.036,0 0.06,0.036 0.06,0.072 0,0.012 0,0.036 -0.012,0.048 -0.39600006,0.396 -0.51600005,0.9 -0.51600005,1.44 0,0.996 0.40800009,2.0160009 0.40800009,3.0600009 0,0.744 -0.1800001,1.452 -0.69600019,1.9919999 0.51600009,0.54 0.69600019,1.248 0.69600019,1.992 z"
     style="fill:currentColor" />
  <path
     id="path104"
     d="m 5.9467403,16.2912 -0.004,0.264 0,0.044 c 0,0.088 0.004,0.176 0.016001,0.264 0.18,-0.152 0.3720001,-0.32 0.3720001,-0.556 0,-0.132 -0.056,-0.268 -0.1720001,-0.268 -0.1240001,0 -0.208,0.12 -0.2120001,0.252 z m -0.168,0.716 -0.048,-2.38 c 0.032,-0.02 0.072,-0.032 0.108,-0.032 0.036,0 0.076,0.012 0.1079999,0.032 l -0.028,1.38 c 0.1,-0.084 0.2320001,-0.136 0.364,-0.136 0.2080002,0 0.3560002,0.192 0.3560002,0.408 0,0.32 -0.3440002,0.468 -0.5880002,0.676 -0.06,0.052 -0.096,0.152 -0.18,0.152 -0.052,0 -0.092,-0.044 -0.092,-0.1 z"
     style="fill:currentColor" />
  <a
     id="a106"
     xlink:href="textedit:///var/folders/_g/5m8jwnh13xl4zfc1dyffj2bw0000gn/T/frescobaldi-wkpy2jbp/tmpcbso81a4/lilypond_framework_examples_GenoMus.ly:13:45:46"
     style="color:inherit"
     transform="translate(-13.037662,-2.7500996)">
    <path
       id="path108"
       d="m 213,112 c -50,0 -69,-43 -69,-88 0,-77 57,-136 134,-136 50,0 69,43 69,88 0,77 -57,136 -134,136 z M 491,0 c 0,-43 -34,-75 -72,-96 -53,-29 -114,-40 -174,-40 -60,0 -120,11 -173,40 -38,21 -72,53 -72,96 0,43 34,75 72,96 53,29 113,40 173,40 60,0 121,-11 174,-40 38,-21 72,-53 72,-96 z"
       transform="matrix(0.004,0,0,-0.004,45.9184,9.2053)"
       style="fill:currentColor" />
  </a>
  <a
     id="a110"
     xlink:href="textedit:///var/folders/_g/5m8jwnh13xl4zfc1dyffj2bw0000gn/T/frescobaldi-wkpy2jbp/tmpcbso81a4/lilypond_framework_examples_GenoMus.ly:13:42:43"
     style="color:inherit"
     transform="translate(-13.037662,-2.7500996)">
    <path
       id="path112"
       d="m 213,112 c -50,0 -69,-43 -69,-88 0,-77 57,-136 134,-136 50,0 69,43 69,88 0,77 -57,136 -134,136 z M 491,0 c 0,-43 -34,-75 -72,-96 -53,-29 -114,-40 -174,-40 -60,0 -120,11 -173,40 -38,21 -72,53 -72,96 0,43 34,75 72,96 53,29 113,40 173,40 60,0 121,-11 174,-40 38,-21 72,-53 72,-96 z"
       transform="matrix(0.004,0,0,-0.004,44.2164,9.7053)"
       style="fill:currentColor" />
  </a>
  <a
     id="a114"
     xlink:href="textedit:///var/folders/_g/5m8jwnh13xl4zfc1dyffj2bw0000gn/T/frescobaldi-wkpy2jbp/tmpcbso81a4/lilypond_framework_examples_GenoMus.ly:13:37:38"
     style="color:inherit"
     transform="translate(-13.037662,-2.7500996)">
    <path
       id="path116"
       d="m 213,112 c -50,0 -69,-43 -69,-88 0,-77 57,-136 134,-136 50,0 69,43 69,88 0,77 -57,136 -134,136 z M 491,0 c 0,-43 -34,-75 -72,-96 -53,-29 -114,-40 -174,-40 -60,0 -120,11 -173,40 -38,21 -72,53 -72,96 0,43 34,75 72,96 53,29 113,40 173,40 60,0 121,-11 174,-40 38,-21 72,-53 72,-96 z"
       transform="matrix(0.004,0,0,-0.004,44.2164,12.7053)"
       style="fill:currentColor" />
  </a>
  <rect
     id="rect118"
     ry="0.0000"
     height="0"
     width="0.13000001"
     y="25.541107"
     x="29.35074"
     style="fill:currentColor" />
  <a
     id="a120"
     xlink:href="textedit:///var/folders/_g/5m8jwnh13xl4zfc1dyffj2bw0000gn/T/frescobaldi-wkpy2jbp/tmpcbso81a4/lilypond_framework_examples_GenoMus.ly:13:31:32"
     style="color:inherit"
     transform="translate(-13.037662,-2.7500996)">
    <path
       id="path122"
       d="m 218,136 c 55,0 108,-28 108,-89 0,-71 -55,-121 -102,-149 -35,-21 -75,-34 -116,-34 -55,0 -108,28 -108,89 0,71 55,121 102,149 35,21 75,34 116,34 z"
       transform="matrix(0.004,0,0,-0.004,41.2141,9.2053)"
       style="fill:currentColor" />
  </a>
</svg>
