<?xml version="1.0" encoding="UTF-8" standalone="no"?>
<svg
   xmlns:dc="http://purl.org/dc/elements/1.1/"
   xmlns:cc="http://creativecommons.org/ns#"
   xmlns:rdf="http://www.w3.org/1999/02/22-rdf-syntax-ns#"
   xmlns:svg="http://www.w3.org/2000/svg"
   xmlns="http://www.w3.org/2000/svg"
   xmlns:xlink="http://www.w3.org/1999/xlink"
   version="1.2"
   width="68.950119mm"
   height="32.067574mm"
   viewBox="0 0 39.236426 18.24822"
   id="svg2">
  <metadata
     id="metadata140">
    <rdf:RDF>
      <cc:Work
         rdf:about="">
        <dc:format>image/svg+xml</dc:format>
        <dc:type
           rdf:resource="http://purl.org/dc/dcmitype/StillImage" />
        <dc:title></dc:title>
      </cc:Work>
    </rdf:RDF>
  </metadata>
  <defs
     id="defs138" />
  <!-- Page: 1/1 -->
  <text
     font-size="2.2001"
     id="text4"
     style="font-size:2.20009995px;font-family:serif;text-anchor:start;fill:currentColor"
     x="-7.3238001"
     y="0.13810985">
    <tspan
       id="tspan6" />
  </text>
  <rect
     x="13.2885"
     y="5.1842098"
     width="0.13"
     height="0"
     ry="0.0000"
     id="rect38"
     style="fill:currentColor" />
  <rect
     x="16.290701"
     y="5.6842098"
     width="0.13"
     height="0"
     ry="0.0000"
     id="rect46"
     style="fill:currentColor" />
  <rect
     x="11.4384"
     y="6.3120098"
     width="0.13"
     height="0"
     ry="0.0000"
     id="rect50"
     style="fill:currentColor" />
  <rect
     x="25.297501"
     y="3.6842098"
     width="0.13"
     height="0"
     ry="0.0000"
     id="rect66"
     style="fill:currentColor" />
  <rect
     x="22.2952"
     y="3.1842098"
     width="0.13"
     height="0"
     ry="0.0000"
     id="rect74"
     style="fill:currentColor" />
  <rect
     x="19.292999"
     y="3.1842098"
     width="0.13"
     height="0"
     ry="0.0000"
     id="rect82"
     style="fill:currentColor" />
  <rect
     x="8.1862001"
     y="7.8120098"
     width="0.13"
     height="0"
     ry="0.0000"
     id="rect92"
     style="fill:currentColor" />
  <rect
     x="28.0497"
     y="6.1842098"
     width="0.13"
     height="0"
     ry="0.0000"
     id="rect134"
     style="fill:currentColor" />
  <line
     id="line8-1"
     y2="7.9886065"
     x2="37.037071"
     y1="7.9886065"
     x1="1.2589767"
     style="stroke:currentColor;stroke-width:0.10000001;stroke-linecap:round;stroke-linejoin:round" />
  <line
     id="line10-2"
     y2="6.9886055"
     x2="37.037071"
     y1="6.9886055"
     x1="1.2589767"
     style="stroke:currentColor;stroke-width:0.10000001;stroke-linecap:round;stroke-linejoin:round" />
  <line
     id="line12-9"
     y2="5.9886065"
     x2="37.037071"
     y1="5.9886065"
     x1="1.2589767"
     style="stroke:currentColor;stroke-width:0.10000001;stroke-linecap:round;stroke-linejoin:round" />
  <line
     id="line14-9"
     y2="4.9886065"
     x2="37.037071"
     y1="4.9886065"
     x1="1.2589767"
     style="stroke:currentColor;stroke-width:0.10000001;stroke-linecap:round;stroke-linejoin:round" />
  <line
     id="line16-9"
     y2="3.9886084"
     x2="37.037071"
     y1="3.9886084"
     x1="1.2589767"
     style="stroke:currentColor;stroke-width:0.10000001;stroke-linecap:round;stroke-linejoin:round" />
  <rect
     id="rect18-4"
     ry="0.10000001"
     height="0.20000002"
     width="2.9430003"
     y="8.888607"
     x="30.536573"
     style="fill:currentColor" />
  <rect
     id="rect20-3"
     ry="0.10000001"
     height="0.20000002"
     width="2.9430003"
     y="9.888608"
     x="30.536573"
     style="fill:currentColor" />
  <line
     id="line22"
     y2="16.988607"
     x2="37.037071"
     y1="16.988607"
     x1="1.2589767"
     style="stroke:currentColor;stroke-width:0.10000001;stroke-linecap:round;stroke-linejoin:round" />
  <line
     id="line24-0"
     y2="15.988609"
     x2="37.037071"
     y1="15.988609"
     x1="1.2589767"
     style="stroke:currentColor;stroke-width:0.10000001;stroke-linecap:round;stroke-linejoin:round" />
  <line
     id="line26-2"
     y2="14.98861"
     x2="37.037071"
     y1="14.98861"
     x1="1.2589767"
     style="stroke:currentColor;stroke-width:0.10000001;stroke-linecap:round;stroke-linejoin:round" />
  <line
     id="line28-5"
     y2="13.98861"
     x2="37.037071"
     y1="13.98861"
     x1="1.2589767"
     style="stroke:currentColor;stroke-width:0.10000001;stroke-linecap:round;stroke-linejoin:round" />
  <line
     id="line30-3"
     y2="12.98861"
     x2="37.037071"
     y1="12.98861"
     x1="1.2589767"
     style="stroke:currentColor;stroke-width:0.10000001;stroke-linecap:round;stroke-linejoin:round" />
  <a
     id="a36"
     xlink:href="textedit:///var/folders/_g/5m8jwnh13xl4zfc1dyffj2bw0000gn/T/frescobaldi-wkpy2jbp/tmpcbso81a4/lilypond_framework_examples_GenoMus.ly:13:8:9"
     style="color:inherit"
     transform="translate(-13.017426,-1.6326923)">
    <path
       id="path38"
       d="m 218,136 c 55,0 108,-28 108,-89 0,-71 -55,-121 -102,-149 -35,-21 -75,-34 -116,-34 -55,0 -108,28 -108,89 0,71 55,121 102,149 35,21 75,34 116,34 z"
       transform="matrix(0.004,0,0,-0.004,23.0286,8.6213)"
       style="fill:currentColor" />
  </a>
  <a
     id="a40"
     xlink:href="textedit:///var/folders/_g/5m8jwnh13xl4zfc1dyffj2bw0000gn/T/frescobaldi-wkpy2jbp/tmpcbso81a4/lilypond_framework_examples_GenoMus.ly:27:9:10"
     style="color:inherit"
     transform="translate(-13.017426,-1.6326923)">
    <path
       id="path42"
       d="m 213,112 c -50,0 -69,-43 -69,-88 0,-77 57,-136 134,-136 50,0 69,43 69,88 0,77 -57,136 -134,136 z M 491,0 c 0,-43 -34,-75 -72,-96 -53,-29 -114,-40 -174,-40 -60,0 -120,11 -173,40 -38,21 -72,53 -72,96 0,43 34,75 72,96 53,29 113,40 173,40 60,0 121,-11 174,-40 38,-21 72,-53 72,-96 z"
       transform="matrix(0.004,0,0,-0.004,44.0444,15.1213)"
       style="fill:currentColor" />
  </a>
  <a
     id="a44"
     xlink:href="textedit:///var/folders/_g/5m8jwnh13xl4zfc1dyffj2bw0000gn/T/frescobaldi-wkpy2jbp/tmpcbso81a4/lilypond_framework_examples_GenoMus.ly:13:30:31"
     style="color:inherit"
     transform="translate(-13.017426,-1.6326923)">
    <path
       id="path46"
       d="m 213,112 c -50,0 -69,-43 -69,-88 0,-77 57,-136 134,-136 50,0 69,43 69,88 0,77 -57,136 -134,136 z M 491,0 c 0,-43 -34,-75 -72,-96 -53,-29 -114,-40 -174,-40 -60,0 -120,11 -173,40 -38,21 -72,53 -72,96 0,43 34,75 72,96 53,29 113,40 173,40 60,0 121,-11 174,-40 38,-21 72,-53 72,-96 z"
       transform="matrix(0.004,0,0,-0.004,44.0444,8.6213)"
       style="fill:currentColor" />
  </a>
  <a
     id="a48"
     xlink:href="textedit:///var/folders/_g/5m8jwnh13xl4zfc1dyffj2bw0000gn/T/frescobaldi-wkpy2jbp/tmpcbso81a4/lilypond_framework_examples_GenoMus.ly:13:27:28"
     style="color:inherit"
     transform="translate(-13.017426,-1.6326923)">
    <path
       id="path50"
       d="m 213,112 c -50,0 -69,-43 -69,-88 0,-77 57,-136 134,-136 50,0 69,43 69,88 0,77 -57,136 -134,136 z M 491,0 c 0,-43 -34,-75 -72,-96 -53,-29 -114,-40 -174,-40 -60,0 -120,11 -173,40 -38,21 -72,53 -72,96 0,43 34,75 72,96 53,29 113,40 173,40 60,0 121,-11 174,-40 38,-21 72,-53 72,-96 z"
       transform="matrix(0.004,0,0,-0.004,44.0444,12.1213)"
       style="fill:currentColor" />
  </a>
  <a
     id="a54"
     xlink:href="textedit:///var/folders/_g/5m8jwnh13xl4zfc1dyffj2bw0000gn/T/frescobaldi-wkpy2jbp/tmpcbso81a4/lilypond_framework_examples_GenoMus.ly:13:19:20"
     style="color:inherit"
     transform="translate(-13.017426,-1.6326923)">
    <path
       id="path56-5"
       d="m 218,136 c 55,0 108,-28 108,-89 0,-71 -55,-121 -102,-149 -35,-21 -75,-34 -116,-34 -55,0 -108,28 -108,89 0,71 55,121 102,149 35,21 75,34 116,34 z"
       transform="matrix(0.004,0,0,-0.004,35.0377,5.1213)"
       style="fill:currentColor" />
  </a>
  <a
     id="a60"
     xlink:href="textedit:///var/folders/_g/5m8jwnh13xl4zfc1dyffj2bw0000gn/T/frescobaldi-wkpy2jbp/tmpcbso81a4/lilypond_framework_examples_GenoMus.ly:27:5:6"
     style="color:inherit"
     transform="translate(-13.017426,-1.6326923)">
    <path
       id="path62"
       d="m 213,112 c -50,0 -69,-43 -69,-88 0,-77 57,-136 134,-136 50,0 69,43 69,88 0,77 -57,136 -134,136 z M 491,0 c 0,-43 -34,-75 -72,-96 -53,-29 -114,-40 -174,-40 -60,0 -120,11 -173,40 -38,21 -72,53 -72,96 0,43 34,75 72,96 53,29 113,40 173,40 60,0 121,-11 174,-40 38,-21 72,-53 72,-96 z"
       transform="matrix(0.004,0,0,-0.004,32.0354,15.1213)"
       style="fill:currentColor" />
  </a>
  <a
     id="a64"
     xlink:href="textedit:///var/folders/_g/5m8jwnh13xl4zfc1dyffj2bw0000gn/T/frescobaldi-wkpy2jbp/tmpcbso81a4/lilypond_framework_examples_GenoMus.ly:13:16:17"
     style="color:inherit"
     transform="translate(-13.017426,-1.6326923)">
    <path
       id="path66"
       d="m 218,136 c 55,0 108,-28 108,-89 0,-71 -55,-121 -102,-149 -35,-21 -75,-34 -116,-34 -55,0 -108,28 -108,89 0,71 55,121 102,149 35,21 75,34 116,34 z"
       transform="matrix(0.004,0,0,-0.004,32.0354,5.1213)"
       style="fill:currentColor" />
  </a>
  <a
     id="a70"
     xlink:href="textedit:///var/folders/_g/5m8jwnh13xl4zfc1dyffj2bw0000gn/T/frescobaldi-wkpy2jbp/tmpcbso81a4/lilypond_framework_examples_GenoMus.ly:13:13:14"
     style="color:inherit"
     transform="translate(-13.017426,-1.6326923)">
    <path
       id="path72-8"
       d="m 218,136 c 55,0 108,-28 108,-89 0,-71 -55,-121 -102,-149 -35,-21 -75,-34 -116,-34 -55,0 -108,28 -108,89 0,71 55,121 102,149 35,21 75,34 116,34 z"
       transform="matrix(0.004,0,0,-0.004,29.0331,8.6213)"
       style="fill:currentColor" />
  </a>
  <path
     id="path74"
     d="m 3.5129764,5.9406075 c 0.016001,0 0.036,-0.004 0.052,-0.004 0.6200002,0 1.0240004,0.5119999 1.0240004,1.0440009 0,0.304 -0.1320001,0.616 -0.4280001,0.84 -0.088,0.068 -0.1880002,0.112 -0.2920001,0.144 0.012,0.14 0.02,0.28 0.02,0.42 0,0.076 -0.004,0.156 -0.008,0.232 -0.028,0.48 -0.3600001,0.9120002 -0.8320003,0.9120002 -0.4320001,0 -0.7800002,-0.3520002 -0.7800002,-0.7880002 0,-0.232 0.2120001,-0.412 0.4480001,-0.412 0.216,0 0.3800001,0.188 0.3800001,0.412 0,0.208 -0.1720001,0.38 -0.3800001,0.38 -0.044,0 -0.084,-0.008 -0.1240001,-0.024 0.1040001,0.156 0.2720001,0.2600002 0.4680003,0.2600002 0.384,0 0.6280001,-0.3680002 0.652,-0.7640002 0.004,-0.072 0.008,-0.148 0.008,-0.22 0,-0.124 -0.004,-0.244 -0.016001,-0.368 -0.1159999,0.02 -0.2320001,0.032 -0.356,0.032 -0.7520002,0 -1.3320004,-0.688 -1.3320004,-1.496001 0,-0.7079999 0.5240002,-1.2239999 0.9920003,-1.7639999 -0.076,-0.248 -0.148,-0.5 -0.18,-0.76 -0.024,-0.208 -0.028,-0.416001 -0.028,-0.624001 0,-0.46 0.22,-0.8959999 0.5960001,-1.1679999 0.012001,-0.008 0.028001,-0.012 0.040001,-0.012 0.016001,0 0.028,0 0.04,0.012 0.2840002,0.336 0.5320002,0.9799999 0.5320002,1.4320009 0,0.572 -0.3440001,1.02 -0.7200002,1.456 0.084,0.272 0.156,0.552 0.224,0.828 z m 0.3400001,1.8600009 c 0.2720001,-0.096 0.4520002,-0.38 0.4520002,-0.656 0,-0.36 -0.264,-0.716 -0.6920003,-0.76 0.096,0.464 0.1840001,0.924 0.2400001,1.416 z m -1.5480004,-0.924 c 0,0.54 0.5160002,0.988 1.0560004,0.988 0.1119999,0 0.22,-0.008 0.328,-0.024 -0.056,-0.508 -0.148,-0.98 -0.2520001,-1.456 -0.316,0.032 -0.496,0.244 -0.496,0.476 0,0.176 0.1,0.364 0.324,0.492 0.02,0.02 0.028,0.04 0.028,0.06 0,0.044 -0.04,0.088 -0.088,0.088 -0.012,0 -0.024,-0.004 -0.036,-0.008 -0.3200001,-0.172 -0.4680001,-0.46 -0.4680001,-0.74 0,-0.352 0.2319999,-0.6959999 0.6400002,-0.7879999 -0.056,-0.232 -0.1160002,-0.468 -0.1840001,-0.7 -0.4280001,0.484 -0.8520003,0.9719999 -0.8520003,1.6119999 z M 3.6409766,2.8086066 C 3.2449764,3.0006075 2.9929763,3.4046075 2.9929763,3.8446075 c 0,0.296 0.072,0.532 0.1440001,0.776 0.32,-0.388 0.5840002,-0.792 0.5840002,-1.296 0,-0.22 -0.016001,-0.316 -0.08,-0.5160009 z"
     style="fill:currentColor" />
  <path
     id="path78-5"
     d="m 4.2369767,14.488607 c 0,-0.112 0.092,-0.204 0.204,-0.204 0.112,0 0.2040001,0.092 0.2040001,0.204 0,0.112 -0.092,0.204 -0.2040001,0.204 -0.112,0 -0.204,-0.092 -0.204,-0.204 z m 0,-1 c 0,-0.112 0.092,-0.204 0.204,-0.204 0.112,0 0.2040001,0.092 0.2040001,0.204 0,0.112 -0.092,0.204 -0.2040001,0.204 -0.112,0 -0.204,-0.092 -0.204,-0.204 z m -1.3000004,-0.552 c 0.6880002,0 1.1720003,0.352 1.1720003,1.004 0,1.052001 -1.0520003,1.656001 -2.0640006,2.084001 -0.012,0.012 -0.024,0.016 -0.036,0.016 -0.028,0 -0.052,-0.024 -0.052,-0.052 0,-0.012 0.004,-0.024 0.016001,-0.036 0.8080004,-0.472 1.6480006,-1.06 1.6480006,-1.972 0,-0.48 -0.2520001,-0.94 -0.6840003,-0.94 -0.296,0 -0.516,0.216 -0.6160001,0.504 0.044,-0.02 0.088,-0.032 0.136,-0.032 0.2200001,0 0.4000001,0.18 0.4000001,0.4 0,0.232 -0.176,0.424 -0.4000001,0.424 -0.24,0 -0.4480001,-0.188 -0.4480001,-0.424 0,-0.532 0.4080001,-0.976 0.9280002,-0.976 z"
     style="fill:currentColor" />
  <a
     id="a80"
     xlink:href="textedit:///var/folders/_g/5m8jwnh13xl4zfc1dyffj2bw0000gn/T/frescobaldi-wkpy2jbp/tmpcbso81a4/lilypond_framework_examples_GenoMus.ly:27:2:3"
     style="color:inherit"
     transform="translate(-13.017426,-1.6326923)">
    <path
       id="path82"
       d="m 213,112 c -50,0 -69,-43 -69,-88 0,-77 57,-136 134,-136 50,0 69,43 69,88 0,77 -57,136 -134,136 z M 491,0 c 0,-43 -34,-75 -72,-96 -53,-29 -114,-40 -174,-40 -60,0 -120,11 -173,40 -38,21 -72,53 -72,96 0,43 34,75 72,96 53,29 113,40 173,40 60,0 121,-11 174,-40 38,-21 72,-53 72,-96 z"
       transform="matrix(0.004,0,0,-0.004,20.0264,18.6213)"
       style="fill:currentColor" />
  </a>
  <a
     id="a84-4"
     xlink:href="textedit:///var/folders/_g/5m8jwnh13xl4zfc1dyffj2bw0000gn/T/frescobaldi-wkpy2jbp/tmpcbso81a4/lilypond_framework_examples_GenoMus.ly:13:3:4"
     style="color:inherit"
     transform="translate(-13.017426,-1.6326923)">
    <path
       id="path86-0"
       d="m 218,136 c 55,0 108,-28 108,-89 0,-71 -55,-121 -102,-149 -35,-21 -75,-34 -116,-34 -55,0 -108,28 -108,89 0,71 55,121 102,149 35,21 75,34 116,34 z"
       transform="matrix(0.004,0,0,-0.004,20.0264,8.6213)"
       style="fill:currentColor" />
  </a>
  <a
     id="a88"
     xlink:href="textedit:///var/folders/_g/5m8jwnh13xl4zfc1dyffj2bw0000gn/T/frescobaldi-wkpy2jbp/tmpcbso81a4/lilypond_framework_examples_GenoMus.ly:13:10:11"
     style="color:inherit"
     transform="translate(-13.017426,-1.6326923)">
    <path
       id="path90-3"
       d="m 218,136 c 55,0 108,-28 108,-89 0,-71 -55,-121 -102,-149 -35,-21 -75,-34 -116,-34 -55,0 -108,28 -108,89 0,71 55,121 102,149 35,21 75,34 116,34 z"
       transform="matrix(0.004,0,0,-0.004,26.0309,5.1213)"
       style="fill:currentColor" />
  </a>
  <rect
     id="rect92-5"
     ry="0.050000004"
     height="13.100001"
     width="0.16000001"
     y="3.9386082"
     x="1.1489766"
     style="fill:currentColor" />
  <path
     id="path94-0"
     d="m 0.78897586,12.480607 c 0,1.044001 -0.4080001,2.064001 -0.4080001,3.060001 0,0.54 0.1200001,1.044001 0.5160002,1.440001 0.012,0.012 0.012,0.036 0.012,0.048 0,0.036 -0.024,0.072 -0.06,0.072 -0.012,0 -0.036,-0.012 -0.048,-0.024 -0.5280001,-0.54 -0.7080001,-1.248001 -0.7080001,-2.004001 0,-1.068 0.432,-2.112 0.432,-3.120001 0,-0.54 -0.132,-1.044 -0.516,-1.439999 -0.012,-0.012 -0.012,-0.012 -0.012,-0.024 0,-0.012 0,-0.012 0.012,-0.024 0.384,-0.396001 0.5160001,-0.8999999 0.5160001,-1.4399996 0,-1.008001 -0.4320001,-2.052001 -0.4320001,-3.1200009 0,-0.756001 0.1800001,-1.464001 0.7080001,-2.004001 0.012,-0.012 0.036,-0.024 0.048,-0.024 0.036,0 0.06,0.036 0.06,0.072 0,0.012 0,0.036 -0.012,0.048 -0.3960001,0.396 -0.5160001,0.9 -0.5160001,1.440001 0,0.9959999 0.4080001,2.0159999 0.4080001,3.0599999 0,0.744001 -0.18,1.4520007 -0.6960001,1.9919996 0.5160001,0.54 0.6960001,1.248 0.6960001,1.992 z"
     style="fill:currentColor" />
  <a
     id="a98"
     xlink:href="textedit:///var/folders/_g/5m8jwnh13xl4zfc1dyffj2bw0000gn/T/frescobaldi-wkpy2jbp/tmpcbso81a4/lilypond_framework_examples_GenoMus.ly:13:23:24"
     style="color:inherit"
     transform="translate(-13.017426,-1.6326923)">
    <path
       id="path100-5"
       d="m 218,136 c 55,0 108,-28 108,-89 0,-71 -55,-121 -102,-149 -35,-21 -75,-34 -116,-34 -55,0 -108,28 -108,89 0,71 55,121 102,149 35,21 75,34 116,34 z"
       transform="matrix(0.004,0,0,-0.004,41.0422,8.6213)"
       style="fill:currentColor" />
  </a>
  <a
     id="a104"
     xlink:href="textedit:///var/folders/_g/5m8jwnh13xl4zfc1dyffj2bw0000gn/T/frescobaldi-wkpy2jbp/tmpcbso81a4/lilypond_framework_examples_GenoMus.ly:13:21:22"
     style="color:inherit"
     transform="translate(-13.017426,-1.6326923)">
    <path
       id="path106"
       d="m 218,136 c 55,0 108,-28 108,-89 0,-71 -55,-121 -102,-149 -35,-21 -75,-34 -116,-34 -55,0 -108,28 -108,89 0,71 55,121 102,149 35,21 75,34 116,34 z"
       transform="matrix(0.004,0,0,-0.004,38.0399,5.1213)"
       style="fill:currentColor" />
  </a>
</svg>
