<?xml version="1.0" encoding="UTF-8" standalone="no"?>
<svg
   xmlns:dc="http://purl.org/dc/elements/1.1/"
   xmlns:cc="http://creativecommons.org/ns#"
   xmlns:rdf="http://www.w3.org/1999/02/22-rdf-syntax-ns#"
   xmlns:svg="http://www.w3.org/2000/svg"
   xmlns="http://www.w3.org/2000/svg"
   xmlns:xlink="http://www.w3.org/1999/xlink"
   version="1.2"
   width="68.950119mm"
   height="32.067574mm"
   viewBox="0 0 39.236426 18.24822"
   id="svg2">
  <metadata
     id="metadata140">
    <rdf:RDF>
      <cc:Work
         rdf:about="">
        <dc:format>image/svg+xml</dc:format>
        <dc:type
           rdf:resource="http://purl.org/dc/dcmitype/StillImage" />
        <dc:title></dc:title>
      </cc:Work>
    </rdf:RDF>
  </metadata>
  <defs
     id="defs138" />
  <!-- Page: 1/1 -->
  <text
     font-size="2.2001"
     id="text4"
     style="font-size:2.20009995px;font-family:serif;text-anchor:start;fill:currentColor"
     x="-7.3238001"
     y="0.13810985">
    <tspan
       id="tspan6" />
  </text>
  <rect
     x="13.2885"
     y="5.1842098"
     width="0.13"
     height="0"
     ry="0.0000"
     id="rect38"
     style="fill:currentColor" />
  <rect
     x="16.290701"
     y="5.6842098"
     width="0.13"
     height="0"
     ry="0.0000"
     id="rect46"
     style="fill:currentColor" />
  <rect
     x="11.4384"
     y="6.3120098"
     width="0.13"
     height="0"
     ry="0.0000"
     id="rect50"
     style="fill:currentColor" />
  <rect
     x="25.297501"
     y="3.6842098"
     width="0.13"
     height="0"
     ry="0.0000"
     id="rect66"
     style="fill:currentColor" />
  <rect
     x="22.2952"
     y="3.1842098"
     width="0.13"
     height="0"
     ry="0.0000"
     id="rect74"
     style="fill:currentColor" />
  <rect
     x="19.292999"
     y="3.1842098"
     width="0.13"
     height="0"
     ry="0.0000"
     id="rect82"
     style="fill:currentColor" />
  <rect
     x="8.1862001"
     y="7.8120098"
     width="0.13"
     height="0"
     ry="0.0000"
     id="rect92"
     style="fill:currentColor" />
  <rect
     x="28.0497"
     y="6.1842098"
     width="0.13"
     height="0"
     ry="0.0000"
     id="rect134"
     style="fill:currentColor" />
  <text
     id="text4-8"
     font-size="2.2001"
     style="font-size:2.20009995px;font-family:serif;text-anchor:start;fill:currentColor"
     x="-7.3470612"
     y="19.367207">
    <tspan
       id="tspan6-3" />
  </text>
  <rect
     id="rect36"
     ry="0.0000"
     height="0"
     width="0.13000001"
     y="22.913307"
     x="13.165241"
     style="fill:currentColor" />
  <rect
     id="rect44"
     ry="0.0000"
     height="0"
     width="0.13000001"
     y="25.541107"
     x="11.337139"
     style="fill:currentColor" />
  <rect
     id="rect52"
     ry="0.0000"
     height="0"
     width="0.13000001"
     y="22.913307"
     x="25.17424"
     style="fill:currentColor" />
  <rect
     id="rect60"
     ry="0.0000"
     height="0"
     width="0.13000001"
     y="22.413307"
     x="22.171942"
     style="fill:currentColor" />
  <rect
     id="rect70"
     ry="0.0000"
     height="0"
     width="0.13000001"
     y="22.413307"
     x="19.169741"
     style="fill:currentColor" />
  <rect
     id="rect80"
     ry="0.0000"
     height="0"
     width="0.13000001"
     y="25.541107"
     x="17.341637"
     style="fill:currentColor" />
  <rect
     id="rect90"
     ry="0.0000"
     height="0"
     width="0.13000001"
     y="26.041107"
     x="8.162941"
     style="fill:currentColor" />
  <rect
     id="rect118"
     ry="0.0000"
     height="0"
     width="0.13000001"
     y="25.541107"
     x="29.35074"
     style="fill:currentColor" />
  <line
     id="line8-9"
     y2="7.9939604"
     x2="36.840134"
     y1="7.9939604"
     x1="1.2681155"
     style="stroke:currentColor;stroke-width:0.10000001;stroke-linecap:round;stroke-linejoin:round" />
  <line
     id="line10-1"
     y2="6.9939604"
     x2="36.840134"
     y1="6.9939604"
     x1="1.2681155"
     style="stroke:currentColor;stroke-width:0.10000001;stroke-linecap:round;stroke-linejoin:round" />
  <line
     id="line12-2"
     y2="5.9939594"
     x2="36.840134"
     y1="5.9939594"
     x1="1.2681155"
     style="stroke:currentColor;stroke-width:0.10000001;stroke-linecap:round;stroke-linejoin:round" />
  <line
     id="line14-9"
     y2="4.9939556"
     x2="36.840134"
     y1="4.9939556"
     x1="1.2681155"
     style="stroke:currentColor;stroke-width:0.10000001;stroke-linecap:round;stroke-linejoin:round" />
  <line
     id="line16-5"
     y2="3.9939556"
     x2="36.840134"
     y1="3.9939556"
     x1="1.2681155"
     style="stroke:currentColor;stroke-width:0.10000001;stroke-linecap:round;stroke-linejoin:round" />
  <rect
     id="rect18-0"
     ry="0.10000001"
     height="0.20000002"
     width="1.9563001"
     y="2.8939571"
     x="21.74732"
     style="fill:currentColor" />
  <rect
     id="rect20-9"
     ry="0.10000001"
     height="0.20000002"
     width="1.8053001"
     y="2.8939571"
     x="18.896107"
     style="fill:currentColor" />
  <line
     id="line22-8"
     y2="16.993961"
     x2="36.840134"
     y1="16.993961"
     x1="1.2681155"
     style="stroke:currentColor;stroke-width:0.10000001;stroke-linecap:round;stroke-linejoin:round" />
  <line
     id="line24-4"
     y2="15.993958"
     x2="36.840134"
     y1="15.993958"
     x1="1.2681155"
     style="stroke:currentColor;stroke-width:0.10000001;stroke-linecap:round;stroke-linejoin:round" />
  <line
     id="line26-4"
     y2="14.993955"
     x2="36.840134"
     y1="14.993955"
     x1="1.2681155"
     style="stroke:currentColor;stroke-width:0.10000001;stroke-linecap:round;stroke-linejoin:round" />
  <line
     id="line28-3"
     y2="13.993958"
     x2="36.840134"
     y1="13.993958"
     x1="1.2681155"
     style="stroke:currentColor;stroke-width:0.10000001;stroke-linecap:round;stroke-linejoin:round" />
  <line
     id="line30-1"
     y2="12.993958"
     x2="36.840134"
     y1="12.993958"
     x1="1.2681155"
     style="stroke:currentColor;stroke-width:0.10000001;stroke-linecap:round;stroke-linejoin:round" />
  <a
     id="a32"
     xlink:href="textedit:///var/folders/_g/5m8jwnh13xl4zfc1dyffj2bw0000gn/T/frescobaldi-wkpy2jbp/tmpcbso81a4/lilypond_framework_examples_GenoMus.ly:13:17:18"
     style="color:inherit"
     transform="translate(-13.00829,-2.7113466)">
    <path
       id="path34"
       d="m 218,136 c 55,0 108,-28 108,-89 0,-71 -55,-121 -102,-149 -35,-21 -75,-34 -116,-34 -55,0 -108,28 -108,89 0,71 55,121 102,149 35,21 75,34 116,34 z"
       transform="matrix(0.004,0,0,-0.004,29.0771,7.7053)"
       style="fill:currentColor" />
  </a>
  <path
     id="path36-8"
     d="m 12.024514,4.8299532 -0.004,0.264 0,0.044 c 0,0.088 0.004,0.176 0.016,0.264 0.18,-0.152 0.372,-0.32 0.372,-0.556 0,-0.132 -0.056,-0.268 -0.172,-0.268 -0.124,0 -0.208,0.12 -0.212,0.252 z m -0.168,0.716 -0.048,-2.3799989 c 0.032,-0.02 0.072,-0.032 0.108,-0.032 0.036,0 0.076,0.012 0.108,0.032 l -0.028,1.3799989 c 0.1,-0.084 0.232,-0.136 0.364,-0.136 0.208,0 0.356,0.192 0.356,0.408 0,0.32 -0.344,0.468 -0.588,0.676 -0.06,0.052 -0.096,0.152 -0.18,0.152 -0.052,0 -0.092,-0.044 -0.092,-0.1 z"
     style="fill:currentColor" />
  <a
     id="a40-4"
     xlink:href="textedit:///var/folders/_g/5m8jwnh13xl4zfc1dyffj2bw0000gn/T/frescobaldi-wkpy2jbp/tmpcbso81a4/lilypond_framework_examples_GenoMus.ly:13:13:14"
     style="color:inherit"
     transform="translate(-13.00829,-2.7113466)">
    <path
       id="path42-5"
       d="m 218,136 c 55,0 108,-28 108,-89 0,-71 -55,-121 -102,-149 -35,-21 -75,-34 -116,-34 -55,0 -108,28 -108,89 0,71 55,121 102,149 35,21 75,34 116,34 z"
       transform="matrix(0.004,0,0,-0.004,26.0748,7.7053)"
       style="fill:currentColor" />
  </a>
  <path
     id="path44-8"
     d="m 9.0003102,6.3299522 -0.004,0.264001 0,0.044 c 0,0.088 0.004,0.1759999 0.016,0.2639999 0.18,-0.1519999 0.372001,-0.3200009 0.372001,-0.5560009 0,-0.132 -0.056,-0.268 -0.172001,-0.268 -0.123999,0 -0.208,0.12 -0.211999,0.252 z m -0.168,0.7160009 -0.048,-2.3799999 c 0.032,-0.02 0.072,-0.032 0.108,-0.032 0.036,0 0.076,0.012 0.108,0.032 l -0.028,1.379999 c 0.1,-0.084 0.232001,-0.136 0.364001,-0.136 0.208001,0 0.356001,0.192 0.356001,0.408 0,0.320001 -0.344002,0.468001 -0.588002,0.6760009 -0.06,0.052 -0.096,0.152 -0.18,0.152 -0.052,0 -0.092,-0.044 -0.092,-0.1 z"
     style="fill:currentColor" />
  <a
     id="a48-7"
     xlink:href="textedit:///var/folders/_g/5m8jwnh13xl4zfc1dyffj2bw0000gn/T/frescobaldi-wkpy2jbp/tmpcbso81a4/lilypond_framework_examples_GenoMus.ly:13:9:10"
     style="color:inherit"
     transform="translate(-13.00829,-2.7113466)">
    <path
       id="path50-3"
       d="m 218,136 c 55,0 108,-28 108,-89 0,-71 -55,-121 -102,-149 -35,-21 -75,-34 -116,-34 -55,0 -108,28 -108,89 0,71 55,121 102,149 35,21 75,34 116,34 z"
       transform="matrix(0.004,0,0,-0.004,23.0506,9.2053)"
       style="fill:currentColor" />
  </a>
  <path
     id="path52"
     d="m 29.788113,8.3299531 -0.004,0.264 0,0.044 c 0,0.088 0.004,0.176 0.016,0.264 0.180002,-0.152 0.372001,-0.32 0.372001,-0.556 0,-0.132 -0.056,-0.268 -0.172001,-0.268 -0.123998,0 -0.207998,0.12 -0.212,0.252 z m -0.167999,0.715999 -0.048,-2.3799989 c 0.032,-0.02 0.072,-0.032 0.108001,-0.032 0.036,0 0.076,0.012 0.107998,0.032 l -0.028,1.3799999 c 0.1,-0.084 0.232001,-0.136 0.364,-0.136 0.208001,0 0.356001,0.192 0.356001,0.408 0,0.319999 -0.344001,0.467999 -0.588,0.675999 -0.06,0.052 -0.096,0.152 -0.179999,0.152 -0.052,0 -0.092,-0.044 -0.092,-0.1 z"
     style="fill:currentColor" />
  <a
     id="a56-8"
     xlink:href="textedit:///var/folders/_g/5m8jwnh13xl4zfc1dyffj2bw0000gn/T/frescobaldi-wkpy2jbp/tmpcbso81a4/lilypond_framework_examples_GenoMus.ly:13:30:31"
     style="color:inherit"
     transform="translate(-13.00829,-2.7113466)">
    <path
       id="path58-3"
       d="m 218,136 c 55,0 108,-28 108,-89 0,-71 -55,-121 -102,-149 -35,-21 -75,-34 -116,-34 -55,0 -108,28 -108,89 0,71 55,121 102,149 35,21 75,34 116,34 z"
       transform="matrix(0.004,0,0,-0.004,38.0838,6.2053)"
       style="fill:currentColor" />
  </a>
  <a
     id="a62-1"
     xlink:href="textedit:///var/folders/_g/5m8jwnh13xl4zfc1dyffj2bw0000gn/T/frescobaldi-wkpy2jbp/tmpcbso81a4/lilypond_framework_examples_GenoMus.ly:13:26:27"
     style="color:inherit"
     transform="translate(-13.00829,-2.7113466)">
    <path
       id="path64-7"
       d="m 218,136 c 55,0 108,-28 108,-89 0,-71 -55,-121 -102,-149 -35,-21 -75,-34 -116,-34 -55,0 -108,28 -108,89 0,71 55,121 102,149 35,21 75,34 116,34 z"
       transform="matrix(0.004,0,0,-0.004,35.0816,5.7053)"
       style="fill:currentColor" />
  </a>
  <path
     id="path68-5"
     d="m 18.029012,2.8299543 -0.004,0.264 0,0.044 c 0,0.088 0.004,0.175999 0.016,0.263999 0.180002,-0.152 0.372,-0.319999 0.372,-0.555999 0,-0.132 -0.056,-0.268 -0.172,-0.268 -0.123997,0 -0.207998,0.12 -0.212,0.252 z m -0.167999,0.715999 -0.048,-2.38 c 0.032,-0.02 0.072,-0.032 0.108001,-0.032 0.036,0 0.076,0.012 0.107998,0.032 l -0.028,1.380001 c 0.1,-0.084 0.232002,-0.136 0.364002,-0.136 0.207999,0 0.355999,0.192 0.355999,0.408 0,0.32 -0.344001,0.467999 -0.588,0.675999 -0.06,0.052 -0.096,0.1519999 -0.179999,0.1519999 -0.052,0 -0.092,-0.044 -0.092,-0.1 z"
     style="fill:currentColor" />
  <a
     id="a72-0"
     xlink:href="textedit:///var/folders/_g/5m8jwnh13xl4zfc1dyffj2bw0000gn/T/frescobaldi-wkpy2jbp/tmpcbso81a4/lilypond_framework_examples_GenoMus.ly:27:7:8"
     style="color:inherit"
     transform="translate(-13.00829,-2.7113466)">
    <path
       id="path74-7"
       d="m 213,112 c -50,0 -69,-43 -69,-88 0,-77 57,-136 134,-136 50,0 69,43 69,88 0,77 -57,136 -134,136 z M 491,0 c 0,-43 -34,-75 -72,-96 -53,-29 -114,-40 -174,-40 -60,0 -120,11 -173,40 -38,21 -72,53 -72,96 0,43 34,75 72,96 53,29 113,40 173,40 60,0 121,-11 174,-40 38,-21 72,-53 72,-96 z"
       transform="matrix(0.004,0,0,-0.004,32.0793,17.2053)"
       style="fill:currentColor" />
  </a>
  <a
     id="a76-7"
     xlink:href="textedit:///var/folders/_g/5m8jwnh13xl4zfc1dyffj2bw0000gn/T/frescobaldi-wkpy2jbp/tmpcbso81a4/lilypond_framework_examples_GenoMus.ly:13:21:22"
     style="color:inherit"
     transform="translate(-13.00829,-2.7113466)">
    <path
       id="path78-8"
       d="m 218,136 c 55,0 108,-28 108,-89 0,-71 -55,-121 -102,-149 -35,-21 -75,-34 -116,-34 -55,0 -108,28 -108,89 0,71 55,121 102,149 35,21 75,34 116,34 z"
       transform="matrix(0.004,0,0,-0.004,32.0793,5.7053)"
       style="fill:currentColor" />
  </a>
  <path
     id="path80"
     d="m 4.2461113,14.493957 c 0,-0.112 0.092,-0.204 0.204,-0.204 0.112,0 0.204,0.092 0.204,0.204 0,0.112 -0.092,0.204 -0.204,0.204 -0.112,0 -0.204,-0.092 -0.204,-0.204 z m 0,-1 c 0,-0.112 0.092,-0.204 0.204,-0.204 0.112,0 0.204,0.092 0.204,0.204 0,0.112 -0.092,0.204 -0.204,0.204 -0.112,0 -0.204,-0.092 -0.204,-0.204 z m -1.3000009,-0.552 c 0.688001,0 1.1720009,0.352 1.1720009,1.004 0,1.052 -1.0519999,1.656 -2.0640009,2.084 -0.012,0.012 -0.024,0.016 -0.036,0.016 -0.028,0 -0.052,-0.024 -0.052,-0.052 0,-0.012 0.004,-0.024 0.016,-0.036 0.808,-0.472 1.648001,-1.06 1.648001,-1.972 0,-0.480001 -0.252,-0.940001 -0.684001,-0.940001 -0.296,0 -0.516,0.216 -0.616,0.504 0.044,-0.02 0.088,-0.032 0.136,-0.032 0.22,0 0.4,0.180001 0.4,0.400001 0,0.231999 -0.176,0.424 -0.4,0.424 -0.24,0 -0.448,-0.188 -0.448,-0.424 0,-0.532001 0.408,-0.976001 0.928,-0.976001 z"
     style="fill:currentColor" />
  <path
     id="path82-6"
     d="m 5.9761103,14.829957 -0.004,0.264 0,0.044 c 0,0.088 0.004,0.176 0.016,0.264 0.18,-0.152 0.372,-0.32 0.372,-0.556 0,-0.132 -0.056,-0.268 -0.172,-0.268 -0.124,0 -0.208,0.12 -0.212,0.252 z m -0.168,0.716 -0.048,-2.38 c 0.032,-0.02 0.072,-0.032 0.108,-0.032 0.036,0 0.076,0.012 0.108,0.032 l -0.028,1.38 c 0.1,-0.084 0.232,-0.136 0.364,-0.136 0.208,0 0.356,0.192 0.356,0.408 0,0.32 -0.344,0.468 -0.588,0.676 -0.06,0.052 -0.096,0.152 -0.18,0.152 -0.052,0 -0.092,-0.044 -0.092,-0.1 z"
     style="fill:currentColor" />
  <a
     id="a86-4"
     xlink:href="textedit:///var/folders/_g/5m8jwnh13xl4zfc1dyffj2bw0000gn/T/frescobaldi-wkpy2jbp/tmpcbso81a4/lilypond_framework_examples_GenoMus.ly:27:2:3"
     style="color:inherit"
     transform="translate(-13.00829,-2.7113466)">
    <path
       id="path88-1"
       d="m 213,112 c -50,0 -69,-43 -69,-88 0,-77 57,-136 134,-136 50,0 69,43 69,88 0,77 -57,136 -134,136 z M 491,0 c 0,-43 -34,-75 -72,-96 -53,-29 -114,-40 -174,-40 -60,0 -120,11 -173,40 -38,21 -72,53 -72,96 0,43 34,75 72,96 53,29 113,40 173,40 60,0 121,-11 174,-40 38,-21 72,-53 72,-96 z"
       transform="matrix(0.004,0,0,-0.004,20.0264,17.7053)"
       style="fill:currentColor" />
  </a>
  <path
     id="path90-5"
     d="m 3.5221114,5.9459522 c 0.016,0 0.036,-0.004 0.052,-0.004 0.6199999,0 1.0239999,0.512 1.0239999,1.0440009 0,0.304 -0.132,0.616 -0.428,0.84 -0.088,0.068 -0.188,0.112 -0.292,0.144 0.012,0.14 0.02,0.28 0.02,0.42 0,0.076 -0.004,0.156001 -0.008,0.232 -0.028,0.48 -0.3599999,0.912 -0.8319999,0.912 -0.432001,0 -0.780001,-0.352 -0.780001,-0.788 0,-0.231999 0.212,-0.411999 0.448,-0.411999 0.216,0 0.380001,0.188 0.380001,0.411999 0,0.208 -0.172001,0.38 -0.380001,0.38 -0.044,0 -0.084,-0.008 -0.124,-0.024 0.104,0.156 0.272,0.26 0.468001,0.26 0.384,0 0.6279999,-0.368 0.6519999,-0.763999 0.004,-0.072 0.008,-0.148001 0.008,-0.22 0,-0.124001 -0.004,-0.244001 -0.016,-0.368001 -0.1159999,0.02 -0.2319999,0.032 -0.3559999,0.032 -0.752001,0 -1.332001,-0.688 -1.332001,-1.4960009 0,-0.708 0.524,-1.223999 0.992,-1.763999 -0.076,-0.248 -0.148,-0.5 -0.18,-0.76 -0.024,-0.208 -0.028,-0.416 -0.028,-0.6239999 0,-0.46 0.22,-0.896 0.596001,-1.168 0.012,-0.008 0.028,-0.012 0.04,-0.012 0.016,0 0.028,0 0.04,0.012 0.2839999,0.336 0.5319999,0.98 0.5319999,1.4319989 0,0.572 -0.344,1.02 -0.7199999,1.456 0.084,0.272 0.156,0.552 0.224,0.828 z m 0.3399999,1.8600009 c 0.272,-0.096 0.452,-0.38 0.452,-0.656 0,-0.36 -0.264,-0.7160009 -0.6919999,-0.7600009 0.096,0.4640009 0.1839999,0.9240009 0.2399999,1.4160009 z m -1.5480009,-0.924 c 0,0.54 0.516,0.988 1.056001,0.988 0.112,0 0.22,-0.008 0.3279999,-0.024 -0.056,-0.508 -0.1479999,-0.98 -0.2519999,-1.4560009 -0.316,0.032 -0.496001,0.244001 -0.496001,0.4760009 0,0.176 0.100001,0.364 0.324001,0.492 0.02,0.02 0.028,0.04 0.028,0.06 0,0.044 -0.04,0.088 -0.088,0.088 -0.012,0 -0.024,-0.004 -0.036,-0.008 -0.320001,-0.172 -0.468001,-0.46 -0.468001,-0.7399999 0,-0.352 0.232,-0.696 0.640001,-0.788 -0.056,-0.232 -0.116,-0.467999 -0.184,-0.699999 -0.428001,0.483999 -0.852001,0.971999 -0.852001,1.6119989 z m 1.336001,-4.0679998 c -0.396,0.192 -0.648001,0.595999 -0.648001,1.0359999 0,0.296 0.072,0.532 0.144001,0.776 0.32,-0.388 0.5839999,-0.792 0.5839999,-1.2960009 0,-0.219999 -0.016,-0.315999 -0.08,-0.515999 z"
     style="fill:currentColor" />
  <a
     id="a92"
     xlink:href="textedit:///var/folders/_g/5m8jwnh13xl4zfc1dyffj2bw0000gn/T/frescobaldi-wkpy2jbp/tmpcbso81a4/lilypond_framework_examples_GenoMus.ly:13:3:4"
     style="color:inherit"
     transform="translate(-13.00829,-2.7113466)">
    <path
       id="path94-1"
       d="m 218,136 c 55,0 108,-28 108,-89 0,-71 -55,-121 -102,-149 -35,-21 -75,-34 -116,-34 -55,0 -108,28 -108,89 0,71 55,121 102,149 35,21 75,34 116,34 z"
       transform="matrix(0.004,0,0,-0.004,20.0264,10.7053)"
       style="fill:currentColor" />
  </a>
  <rect
     id="rect96"
     ry="0.050000004"
     height="13.100001"
     width="0.16000001"
     y="3.9439564"
     x="1.158113"
     style="fill:currentColor" />
  <path
     id="path98-6"
     d="m 0.79811048,12.485957 c 0,1.044 -0.4079999,2.064 -0.4079999,3.06 0,0.54 0.1199999,1.044 0.5159999,1.440001 0.012,0.012 0.012,0.036 0.012,0.048 0,0.036 -0.024,0.072 -0.06,0.072 -0.012,0 -0.036,-0.012 -0.048,-0.024 -0.5279999,-0.540001 -0.7079999,-1.248001 -0.7079999,-2.004001 0,-1.068 0.4319999,-2.112 0.4319999,-3.12 0,-0.54 -0.1319999,-1.044001 -0.5159999,-1.440001 -0.012,-0.012 -0.012,-0.012 -0.012,-0.024 0,-0.012 0,-0.012 0.012,-0.024 0.384,-0.396 0.5159999,-0.9000039 0.5159999,-1.4400039 0,-1.007999 -0.4319999,-2.052 -0.4319999,-3.1200009 0,-0.755999 0.18,-1.463999 0.7079999,-2.003999 0.012,-0.012 0.036,-0.024 0.048,-0.024 0.036,0 0.06,0.036 0.06,0.072 0,0.012 0,0.036 -0.012,0.048 -0.396,0.396 -0.5159999,0.9 -0.5159999,1.44 0,0.995999 0.4079999,2.0160009 0.4079999,3.0600009 0,0.743999 -0.18,1.452002 -0.6959999,1.9920029 0.5159999,0.539999 0.6959999,1.248001 0.6959999,1.992001 z"
     style="fill:currentColor" />
  <a
     id="a100-7"
     xlink:href="textedit:///var/folders/_g/5m8jwnh13xl4zfc1dyffj2bw0000gn/T/frescobaldi-wkpy2jbp/tmpcbso81a4/lilypond_framework_examples_GenoMus.ly:27:14:15"
     style="color:inherit"
     transform="translate(-13.00829,-2.7113466)">
    <path
       id="path102-0"
       d="m 213,112 c -50,0 -69,-43 -69,-88 0,-77 57,-136 134,-136 50,0 69,43 69,88 0,77 -57,136 -134,136 z M 491,0 c 0,-43 -34,-75 -72,-96 -53,-29 -114,-40 -174,-40 -60,0 -120,11 -173,40 -38,21 -72,53 -72,96 0,43 34,75 72,96 53,29 113,40 173,40 60,0 121,-11 174,-40 38,-21 72,-53 72,-96 z"
       transform="matrix(0.004,0,0,-0.004,43.8384,16.2053)"
       style="fill:currentColor" />
  </a>
  <a
     id="a104"
     xlink:href="textedit:///var/folders/_g/5m8jwnh13xl4zfc1dyffj2bw0000gn/T/frescobaldi-wkpy2jbp/tmpcbso81a4/lilypond_framework_examples_GenoMus.ly:27:10:11"
     style="color:inherit"
     transform="translate(-13.00829,-2.7113466)">
    <path
       id="path106-9"
       d="m 213,112 c -50,0 -69,-43 -69,-88 0,-77 57,-136 134,-136 50,0 69,43 69,88 0,77 -57,136 -134,136 z M 491,0 c 0,-43 -34,-75 -72,-96 -53,-29 -114,-40 -174,-40 -60,0 -120,11 -173,40 -38,21 -72,53 -72,96 0,43 34,75 72,96 53,29 113,40 173,40 60,0 121,-11 174,-40 38,-21 72,-53 72,-96 z"
       transform="matrix(0.004,0,0,-0.004,43.8384,17.7053)"
       style="fill:currentColor" />
  </a>
  <a
     id="a108"
     xlink:href="textedit:///var/folders/_g/5m8jwnh13xl4zfc1dyffj2bw0000gn/T/frescobaldi-wkpy2jbp/tmpcbso81a4/lilypond_framework_examples_GenoMus.ly:13:46:47"
     style="color:inherit"
     transform="translate(-13.00829,-2.7113466)">
    <path
       id="path110"
       d="m 213,112 c -50,0 -69,-43 -69,-88 0,-77 57,-136 134,-136 50,0 69,43 69,88 0,77 -57,136 -134,136 z M 491,0 c 0,-43 -34,-75 -72,-96 -53,-29 -114,-40 -174,-40 -60,0 -120,11 -173,40 -38,21 -72,53 -72,96 0,43 34,75 72,96 53,29 113,40 173,40 60,0 121,-11 174,-40 38,-21 72,-53 72,-96 z"
       transform="matrix(0.004,0,0,-0.004,45.5404,9.2053)"
       style="fill:currentColor" />
  </a>
  <a
     id="a112"
     xlink:href="textedit:///var/folders/_g/5m8jwnh13xl4zfc1dyffj2bw0000gn/T/frescobaldi-wkpy2jbp/tmpcbso81a4/lilypond_framework_examples_GenoMus.ly:13:44:45"
     style="color:inherit"
     transform="translate(-13.00829,-2.7113466)">
    <path
       id="path114"
       d="m 213,112 c -50,0 -69,-43 -69,-88 0,-77 57,-136 134,-136 50,0 69,43 69,88 0,77 -57,136 -134,136 z M 491,0 c 0,-43 -34,-75 -72,-96 -53,-29 -114,-40 -174,-40 -60,0 -120,11 -173,40 -38,21 -72,53 -72,96 0,43 34,75 72,96 53,29 113,40 173,40 60,0 121,-11 174,-40 38,-21 72,-53 72,-96 z"
       transform="matrix(0.004,0,0,-0.004,43.8384,9.7053)"
       style="fill:currentColor" />
  </a>
  <a
     id="a116"
     xlink:href="textedit:///var/folders/_g/5m8jwnh13xl4zfc1dyffj2bw0000gn/T/frescobaldi-wkpy2jbp/tmpcbso81a4/lilypond_framework_examples_GenoMus.ly:13:42:43"
     style="color:inherit"
     transform="translate(-13.00829,-2.7113466)">
    <path
       id="path118"
       d="m 213,112 c -50,0 -69,-43 -69,-88 0,-77 57,-136 134,-136 50,0 69,43 69,88 0,77 -57,136 -134,136 z M 491,0 c 0,-43 -34,-75 -72,-96 -53,-29 -114,-40 -174,-40 -60,0 -120,11 -173,40 -38,21 -72,53 -72,96 0,43 34,75 72,96 53,29 113,40 173,40 60,0 121,-11 174,-40 38,-21 72,-53 72,-96 z"
       transform="matrix(0.004,0,0,-0.004,45.5404,10.7053)"
       style="fill:currentColor" />
  </a>
  <a
     id="a120-3"
     xlink:href="textedit:///var/folders/_g/5m8jwnh13xl4zfc1dyffj2bw0000gn/T/frescobaldi-wkpy2jbp/tmpcbso81a4/lilypond_framework_examples_GenoMus.ly:13:37:38"
     style="color:inherit"
     transform="translate(-13.00829,-2.7113466)">
    <path
       id="path122-5"
       d="m 213,112 c -50,0 -69,-43 -69,-88 0,-77 57,-136 134,-136 50,0 69,43 69,88 0,77 -57,136 -134,136 z M 491,0 c 0,-43 -34,-75 -72,-96 -53,-29 -114,-40 -174,-40 -60,0 -120,11 -173,40 -38,21 -72,53 -72,96 0,43 34,75 72,96 53,29 113,40 173,40 60,0 121,-11 174,-40 38,-21 72,-53 72,-96 z"
       transform="matrix(0.004,0,0,-0.004,43.8384,11.2053)"
       style="fill:currentColor" />
  </a>
  <a
     id="a126"
     xlink:href="textedit:///var/folders/_g/5m8jwnh13xl4zfc1dyffj2bw0000gn/T/frescobaldi-wkpy2jbp/tmpcbso81a4/lilypond_framework_examples_GenoMus.ly:13:32:33"
     style="color:inherit"
     transform="translate(-13.00829,-2.7113466)">
    <path
       id="path128"
       d="m 218,136 c 55,0 108,-28 108,-89 0,-71 -55,-121 -102,-149 -35,-21 -75,-34 -116,-34 -55,0 -108,28 -108,89 0,71 55,121 102,149 35,21 75,34 116,34 z"
       transform="matrix(0.004,0,0,-0.004,40.8361,7.7053)"
       style="fill:currentColor" />
  </a>
</svg>
