<?xml version="1.0" encoding="UTF-8" standalone="no"?>
<svg
   xmlns:dc="http://purl.org/dc/elements/1.1/"
   xmlns:cc="http://creativecommons.org/ns#"
   xmlns:rdf="http://www.w3.org/1999/02/22-rdf-syntax-ns#"
   xmlns:svg="http://www.w3.org/2000/svg"
   xmlns="http://www.w3.org/2000/svg"
   xmlns:xlink="http://www.w3.org/1999/xlink"
   version="1.2"
   width="68.950119mm"
   height="32.067574mm"
   viewBox="0 0 39.236426 18.24822"
   id="svg2">
  <metadata
     id="metadata140">
    <rdf:RDF>
      <cc:Work
         rdf:about="">
        <dc:format>image/svg+xml</dc:format>
        <dc:type
           rdf:resource="http://purl.org/dc/dcmitype/StillImage" />
        <dc:title></dc:title>
      </cc:Work>
    </rdf:RDF>
  </metadata>
  <defs
     id="defs138" />
  <!-- Page: 1/1 -->
  <text
     font-size="2.2001"
     id="text4"
     style="font-size:2.20009995px;font-family:serif;text-anchor:start;fill:currentColor"
     x="-7.3238001"
     y="0.13810985">
    <tspan
       id="tspan6" />
  </text>
  <rect
     x="13.2885"
     y="5.1842098"
     width="0.13"
     height="0"
     ry="0.0000"
     id="rect38"
     style="fill:currentColor" />
  <rect
     x="16.290701"
     y="5.6842098"
     width="0.13"
     height="0"
     ry="0.0000"
     id="rect46"
     style="fill:currentColor" />
  <rect
     x="11.4384"
     y="6.3120098"
     width="0.13"
     height="0"
     ry="0.0000"
     id="rect50"
     style="fill:currentColor" />
  <rect
     x="25.297501"
     y="3.6842098"
     width="0.13"
     height="0"
     ry="0.0000"
     id="rect66"
     style="fill:currentColor" />
  <rect
     x="22.2952"
     y="3.1842098"
     width="0.13"
     height="0"
     ry="0.0000"
     id="rect74"
     style="fill:currentColor" />
  <rect
     x="19.292999"
     y="3.1842098"
     width="0.13"
     height="0"
     ry="0.0000"
     id="rect82"
     style="fill:currentColor" />
  <rect
     x="8.1862001"
     y="7.8120098"
     width="0.13"
     height="0"
     ry="0.0000"
     id="rect92"
     style="fill:currentColor" />
  <rect
     x="28.0497"
     y="6.1842098"
     width="0.13"
     height="0"
     ry="0.0000"
     id="rect134"
     style="fill:currentColor" />
  <text
     id="text4-8"
     font-size="2.2001"
     style="font-size:2.20009995px;font-family:serif;text-anchor:start;fill:currentColor"
     x="-7.3470612"
     y="19.367207">
    <tspan
       id="tspan6-3" />
  </text>
  <rect
     id="rect36"
     ry="0.0000"
     height="0"
     width="0.13000001"
     y="22.913307"
     x="13.165241"
     style="fill:currentColor" />
  <rect
     id="rect44"
     ry="0.0000"
     height="0"
     width="0.13000001"
     y="25.541107"
     x="11.337139"
     style="fill:currentColor" />
  <rect
     id="rect52"
     ry="0.0000"
     height="0"
     width="0.13000001"
     y="22.913307"
     x="25.17424"
     style="fill:currentColor" />
  <rect
     id="rect60"
     ry="0.0000"
     height="0"
     width="0.13000001"
     y="22.413307"
     x="22.171942"
     style="fill:currentColor" />
  <rect
     id="rect70"
     ry="0.0000"
     height="0"
     width="0.13000001"
     y="22.413307"
     x="19.169741"
     style="fill:currentColor" />
  <rect
     id="rect80"
     ry="0.0000"
     height="0"
     width="0.13000001"
     y="25.541107"
     x="17.341637"
     style="fill:currentColor" />
  <rect
     id="rect90"
     ry="0.0000"
     height="0"
     width="0.13000001"
     y="26.041107"
     x="8.162941"
     style="fill:currentColor" />
  <rect
     id="rect118"
     ry="0.0000"
     height="0"
     width="0.13000001"
     y="25.541107"
     x="29.35074"
     style="fill:currentColor" />
  <line
     id="line8-6"
     y2="7.9762106"
     x2="36.819038"
     y1="7.9762106"
     x1="1.2689271"
     style="stroke:currentColor;stroke-width:0.10000001;stroke-linecap:round;stroke-linejoin:round" />
  <line
     id="line10-4"
     y2="6.9762125"
     x2="36.819038"
     y1="6.9762125"
     x1="1.2689271"
     style="stroke:currentColor;stroke-width:0.10000001;stroke-linecap:round;stroke-linejoin:round" />
  <line
     id="line12-3"
     y2="5.9762135"
     x2="36.819038"
     y1="5.9762135"
     x1="1.2689271"
     style="stroke:currentColor;stroke-width:0.10000001;stroke-linecap:round;stroke-linejoin:round" />
  <line
     id="line14-6"
     y2="4.9762115"
     x2="36.819038"
     y1="4.9762115"
     x1="1.2689271"
     style="stroke:currentColor;stroke-width:0.10000001;stroke-linecap:round;stroke-linejoin:round" />
  <line
     id="line16-2"
     y2="3.9762135"
     x2="36.819038"
     y1="3.9762135"
     x1="1.2689271"
     style="stroke:currentColor;stroke-width:0.10000001;stroke-linecap:round;stroke-linejoin:round" />
  <rect
     id="rect18-2"
     ry="0.10000001"
     height="0.20000002"
     width="1.9563001"
     y="2.8762159"
     x="21.726128"
     style="fill:currentColor" />
  <rect
     id="rect20-4"
     ry="0.10000001"
     height="0.20000002"
     width="1.8053001"
     y="2.8762159"
     x="18.874928"
     style="fill:currentColor" />
  <line
     id="line22"
     y2="16.9762"
     x2="36.819038"
     y1="16.9762"
     x1="1.2689271"
     style="stroke:currentColor;stroke-width:0.10000001;stroke-linecap:round;stroke-linejoin:round" />
  <line
     id="line24"
     y2="15.976205"
     x2="36.819038"
     y1="15.976205"
     x1="1.2689271"
     style="stroke:currentColor;stroke-width:0.10000001;stroke-linecap:round;stroke-linejoin:round" />
  <line
     id="line26-0"
     y2="14.976209"
     x2="36.819038"
     y1="14.976209"
     x1="1.2689271"
     style="stroke:currentColor;stroke-width:0.10000001;stroke-linecap:round;stroke-linejoin:round" />
  <line
     id="line28-9"
     y2="13.976205"
     x2="36.819038"
     y1="13.976205"
     x1="1.2689271"
     style="stroke:currentColor;stroke-width:0.10000001;stroke-linecap:round;stroke-linejoin:round" />
  <line
     id="line30-2"
     y2="12.976209"
     x2="36.819038"
     y1="12.976209"
     x1="1.2689271"
     style="stroke:currentColor;stroke-width:0.10000001;stroke-linecap:round;stroke-linejoin:round" />
  <path
     id="path32"
     d="m 12.003427,4.8122132 -0.004,0.264 0,0.044 c 0,0.088 0.004,0.176 0.016,0.264 0.18,-0.152 0.372,-0.32 0.372,-0.556 0,-0.132 -0.056,-0.268 -0.172,-0.268 -0.124001,0 -0.208,0.12 -0.212001,0.252 z m -0.168,0.716001 -0.048,-2.3800009 c 0.032,-0.02 0.072,-0.032 0.108,-0.032 0.036,0 0.076,0.012 0.108,0.032 l -0.028,1.3799999 c 0.100001,-0.084 0.232001,-0.136 0.364,-0.136 0.208001,0 0.356001,0.192 0.356001,0.408 0,0.32 -0.344,0.468 -0.588,0.676 -0.06,0.052 -0.096,0.152001 -0.18,0.152001 -0.052,0 -0.092,-0.044 -0.092,-0.1 z"
     style="fill:currentColor" />
  <a
     id="a34"
     xlink:href="textedit:///var/folders/_g/5m8jwnh13xl4zfc1dyffj2bw0000gn/T/frescobaldi-wkpy2jbp/tmpcbso81a4/lilypond_framework_examples_GenoMus.ly:27:10:11"
     style="color:inherit"
     transform="translate(-13.007473,-2.7290856)">
    <path
       id="path36"
       d="m 213,112 c -50,0 -69,-43 -69,-88 0,-77 57,-136 134,-136 50,0 69,43 69,88 0,77 -57,136 -134,136 z M 491,0 c 0,-43 -34,-75 -72,-96 -53,-29 -114,-40 -174,-40 -60,0 -120,11 -173,40 -38,21 -72,53 -72,96 0,43 34,75 72,96 53,29 113,40 173,40 60,0 121,-11 174,-40 38,-21 72,-53 72,-96 z"
       transform="matrix(0.004,0,0,-0.004,43.8164,17.7053)"
       style="fill:currentColor" />
  </a>
  <a
     id="a40"
     xlink:href="textedit:///var/folders/_g/5m8jwnh13xl4zfc1dyffj2bw0000gn/T/frescobaldi-wkpy2jbp/tmpcbso81a4/lilypond_framework_examples_GenoMus.ly:13:16:17"
     style="color:inherit"
     transform="translate(-13.007473,-2.7290856)">
    <path
       id="path42"
       d="m 218,136 c 55,0 108,-28 108,-89 0,-71 -55,-121 -102,-149 -35,-21 -75,-34 -116,-34 -55,0 -108,28 -108,89 0,71 55,121 102,149 35,21 75,34 116,34 z"
       transform="matrix(0.004,0,0,-0.004,26.0529,7.7053)"
       style="fill:currentColor" />
  </a>
  <path
     id="path44"
     d="m 8.9791285,6.3122132 -0.004,0.264 0,0.044 c 0,0.088 0.004,0.1760009 0.016,0.2640009 0.179999,-0.1520009 0.371999,-0.3200009 0.371999,-0.5560009 0,-0.132 -0.056,-0.268 -0.172,-0.268 -0.124,0 -0.208,0.12 -0.212,0.252 z m -0.168,0.7160019 -0.048,-2.3800019 c 0.032,-0.02 0.072,-0.032 0.108,-0.032 0.036,0 0.076,0.012 0.108,0.032 l -0.028,1.38 c 0.1,-0.084 0.232,-0.136 0.364,-0.136 0.208,0 0.356,0.192 0.356,0.408 0,0.320001 -0.344,0.468001 -0.588,0.6760019 -0.06,0.052 -0.096,0.152 -0.18,0.152 -0.052,0 -0.092,-0.044 -0.092,-0.1 z"
     style="fill:currentColor" />
  <a
     id="a48"
     xlink:href="textedit:///var/folders/_g/5m8jwnh13xl4zfc1dyffj2bw0000gn/T/frescobaldi-wkpy2jbp/tmpcbso81a4/lilypond_framework_examples_GenoMus.ly:13:11:12"
     style="color:inherit"
     transform="translate(-13.007473,-2.7290856)">
    <path
       id="path50"
       d="m 218,136 c 55,0 108,-28 108,-89 0,-71 -55,-121 -102,-149 -35,-21 -75,-34 -116,-34 -55,0 -108,28 -108,89 0,71 55,121 102,149 35,21 75,34 116,34 z"
       transform="matrix(0.004,0,0,-0.004,23.0286,9.2053)"
       style="fill:currentColor" />
  </a>
  <a
     id="a52"
     xlink:href="textedit:///var/folders/_g/5m8jwnh13xl4zfc1dyffj2bw0000gn/T/frescobaldi-wkpy2jbp/tmpcbso81a4/lilypond_framework_examples_GenoMus.ly:27:14:15"
     style="color:inherit"
     transform="translate(-13.007473,-2.7290856)">
    <path
       id="path54-5"
       d="m 213,112 c -50,0 -69,-43 -69,-88 0,-77 57,-136 134,-136 50,0 69,43 69,88 0,77 -57,136 -134,136 z M 491,0 c 0,-43 -34,-75 -72,-96 -53,-29 -114,-40 -174,-40 -60,0 -120,11 -173,40 -38,21 -72,53 -72,96 0,43 34,75 72,96 53,29 113,40 173,40 60,0 121,-11 174,-40 38,-21 72,-53 72,-96 z"
       transform="matrix(0.004,0,0,-0.004,43.8164,16.2053)"
       style="fill:currentColor" />
  </a>
  <a
     id="a56-5"
     xlink:href="textedit:///var/folders/_g/5m8jwnh13xl4zfc1dyffj2bw0000gn/T/frescobaldi-wkpy2jbp/tmpcbso81a4/lilypond_framework_examples_GenoMus.ly:13:33:34"
     style="color:inherit"
     transform="translate(-13.007473,-2.7290856)">
    <path
       id="path58-7"
       d="m 218,136 c 55,0 108,-28 108,-89 0,-71 -55,-121 -102,-149 -35,-21 -75,-34 -116,-34 -55,0 -108,28 -108,89 0,71 55,121 102,149 35,21 75,34 116,34 z"
       transform="matrix(0.004,0,0,-0.004,38.0619,6.2053)"
       style="fill:currentColor" />
  </a>
  <a
     id="a62-7"
     xlink:href="textedit:///var/folders/_g/5m8jwnh13xl4zfc1dyffj2bw0000gn/T/frescobaldi-wkpy2jbp/tmpcbso81a4/lilypond_framework_examples_GenoMus.ly:13:29:30"
     style="color:inherit"
     transform="translate(-13.007473,-2.7290856)">
    <path
       id="path64-4"
       d="m 218,136 c 55,0 108,-28 108,-89 0,-71 -55,-121 -102,-149 -35,-21 -75,-34 -116,-34 -55,0 -108,28 -108,89 0,71 55,121 102,149 35,21 75,34 116,34 z"
       transform="matrix(0.004,0,0,-0.004,35.0596,5.7053)"
       style="fill:currentColor" />
  </a>
  <path
     id="path66"
     d="m 18.007929,2.8122133 -0.004,0.264 0,0.044 c 0,0.088 0.004,0.176 0.016,0.264 0.18,-0.152 0.371999,-0.32 0.371999,-0.556 0,-0.132 -0.056,-0.268 -0.171999,-0.268 -0.123999,0 -0.208,0.12 -0.212,0.252 z m -0.168001,0.716 -0.048,-2.379999 c 0.032,-0.02 0.072,-0.032 0.108001,-0.032 0.036,0 0.076,0.012 0.108,0.032 l -0.028,1.379999 c 0.100001,-0.084 0.232002,-0.136 0.364002,-0.136 0.207999,0 0.355999,0.192 0.355999,0.408 0,0.32 -0.343999,0.468 -0.588,0.676 -0.06,0.052 -0.096,0.1519999 -0.179999,0.1519999 -0.052,0 -0.092,-0.044 -0.092,-0.1 z"
     style="fill:currentColor" />
  <a
     id="a70"
     xlink:href="textedit:///var/folders/_g/5m8jwnh13xl4zfc1dyffj2bw0000gn/T/frescobaldi-wkpy2jbp/tmpcbso81a4/lilypond_framework_examples_GenoMus.ly:27:7:8"
     style="color:inherit"
     transform="translate(-13.007473,-2.7290856)">
    <path
       id="path72"
       d="m 213,112 c -50,0 -69,-43 -69,-88 0,-77 57,-136 134,-136 50,0 69,43 69,88 0,77 -57,136 -134,136 z M 491,0 c 0,-43 -34,-75 -72,-96 -53,-29 -114,-40 -174,-40 -60,0 -120,11 -173,40 -38,21 -72,53 -72,96 0,43 34,75 72,96 53,29 113,40 173,40 60,0 121,-11 174,-40 38,-21 72,-53 72,-96 z"
       transform="matrix(0.004,0,0,-0.004,32.0574,16.2053)"
       style="fill:currentColor" />
  </a>
  <a
     id="a74"
     xlink:href="textedit:///var/folders/_g/5m8jwnh13xl4zfc1dyffj2bw0000gn/T/frescobaldi-wkpy2jbp/tmpcbso81a4/lilypond_framework_examples_GenoMus.ly:13:24:25"
     style="color:inherit"
     transform="translate(-13.007473,-2.7290856)">
    <path
       id="path76"
       d="m 218,136 c 55,0 108,-28 108,-89 0,-71 -55,-121 -102,-149 -35,-21 -75,-34 -116,-34 -55,0 -108,28 -108,89 0,71 55,121 102,149 35,21 75,34 116,34 z"
       transform="matrix(0.004,0,0,-0.004,32.0574,5.7053)"
       style="fill:currentColor" />
  </a>
  <a
     id="a80"
     xlink:href="textedit:///var/folders/_g/5m8jwnh13xl4zfc1dyffj2bw0000gn/T/frescobaldi-wkpy2jbp/tmpcbso81a4/lilypond_framework_examples_GenoMus.ly:13:20:21"
     style="color:inherit"
     transform="translate(-13.007473,-2.7290856)">
    <path
       id="path82"
       d="m 218,136 c 55,0 108,-28 108,-89 0,-71 -55,-121 -102,-149 -35,-21 -75,-34 -116,-34 -55,0 -108,28 -108,89 0,71 55,121 102,149 35,21 75,34 116,34 z"
       transform="matrix(0.004,0,0,-0.004,29.0551,7.7053)"
       style="fill:currentColor" />
  </a>
  <path
     id="path84-4"
     d="m 4.2469287,14.476214 c 0,-0.112001 0.092,-0.204001 0.204,-0.204001 0.112,0 0.204,0.092 0.204,0.204001 0,0.112 -0.092,0.204 -0.204,0.204 -0.112,0 -0.204,-0.092 -0.204,-0.204 z m 0,-1.000001 c 0,-0.112 0.092,-0.204 0.204,-0.204 0.112,0 0.204,0.092 0.204,0.204 0,0.112 -0.092,0.204 -0.204,0.204 -0.112,0 -0.204,-0.092 -0.204,-0.204 z m -1.2999999,-0.552 c 0.6879999,0 1.1719999,0.352 1.1719999,1.004 0,1.052001 -1.0519999,1.656001 -2.0640009,2.084001 -0.012,0.012 -0.024,0.016 -0.036,0.016 -0.028,0 -0.052,-0.024 -0.052,-0.052 0,-0.012 0.004,-0.024 0.016,-0.036 0.808001,-0.472 1.6480009,-1.06 1.6480009,-1.972 0,-0.48 -0.2519999,-0.94 -0.6839999,-0.94 -0.296,0 -0.516,0.216 -0.616,0.504 0.044,-0.02 0.088,-0.032 0.136,-0.032 0.22,0 0.4,0.18 0.4,0.4 0,0.232 -0.176,0.424 -0.4,0.424 -0.24,0 -0.448,-0.188 -0.448,-0.424 0,-0.532 0.408,-0.976 0.928,-0.976 z"
     style="fill:currentColor" />
  <a
     id="a86-3"
     xlink:href="textedit:///var/folders/_g/5m8jwnh13xl4zfc1dyffj2bw0000gn/T/frescobaldi-wkpy2jbp/tmpcbso81a4/lilypond_framework_examples_GenoMus.ly:13:47:48"
     style="color:inherit"
     transform="translate(-13.007473,-2.7290856)">
    <path
       id="path88-0"
       d="m 213,112 c -50,0 -69,-43 -69,-88 0,-77 57,-136 134,-136 50,0 69,43 69,88 0,77 -57,136 -134,136 z M 491,0 c 0,-43 -34,-75 -72,-96 -53,-29 -114,-40 -174,-40 -60,0 -120,11 -173,40 -38,21 -72,53 -72,96 0,43 34,75 72,96 53,29 113,40 173,40 60,0 121,-11 174,-40 38,-21 72,-53 72,-96 z"
       transform="matrix(0.004,0,0,-0.004,45.5184,9.2053)"
       style="fill:currentColor" />
  </a>
  <path
     id="path90"
     d="m 5.9769277,8.3122141 -0.004,0.264 0,0.044 c 0,0.088 0.004,0.176 0.016,0.264 0.18,-0.152 0.372,-0.32 0.372,-0.556 0,-0.132001 -0.056,-0.268001 -0.172,-0.268001 -0.124,0 -0.208,0.120001 -0.212,0.252 z m -0.168,0.716 -0.048,-2.3800009 c 0.032,-0.02 0.072,-0.032 0.108,-0.032 0.036,0 0.076,0.012 0.108,0.032 l -0.028,1.3800009 c 0.1,-0.084 0.232,-0.136 0.364,-0.136 0.208,0 0.356,0.192 0.356,0.408 0,0.32 -0.344,0.468 -0.588,0.676 -0.06,0.052 -0.096,0.152 -0.18,0.152 -0.052,0 -0.092,-0.044 -0.092,-0.1 z"
     style="fill:currentColor" />
  <a
     id="a94"
     xlink:href="textedit:///var/folders/_g/5m8jwnh13xl4zfc1dyffj2bw0000gn/T/frescobaldi-wkpy2jbp/tmpcbso81a4/lilypond_framework_examples_GenoMus.ly:27:2:3"
     style="color:inherit"
     transform="translate(-13.007473,-2.7290856)">
    <path
       id="path96"
       d="m 213,112 c -50,0 -69,-43 -69,-88 0,-77 57,-136 134,-136 50,0 69,43 69,88 0,77 -57,136 -134,136 z M 491,0 c 0,-43 -34,-75 -72,-96 -53,-29 -114,-40 -174,-40 -60,0 -120,11 -173,40 -38,21 -72,53 -72,96 0,43 34,75 72,96 53,29 113,40 173,40 60,0 121,-11 174,-40 38,-21 72,-53 72,-96 z"
       transform="matrix(0.004,0,0,-0.004,20.0264,17.7053)"
       style="fill:currentColor" />
  </a>
  <path
     id="path98-4"
     d="m 3.5229287,5.9282132 c 0.016,0 0.036,-0.004 0.052,-0.004 0.62,0 1.024,0.512001 1.024,1.0440019 0,0.304 -0.132,0.616 -0.428,0.84 -0.088,0.068 -0.188,0.111999 -0.292,0.143999 0.012,0.14 0.02,0.28 0.02,0.42 0,0.076 -0.004,0.156 -0.008,0.232 -0.028,0.48 -0.36,0.912001 -0.8319999,0.912001 -0.432,0 -0.78,-0.352001 -0.78,-0.788001 0,-0.232 0.212,-0.412 0.448,-0.412 0.216,0 0.38,0.188 0.38,0.412 0,0.208 -0.172,0.38 -0.38,0.38 -0.044,0 -0.084,-0.008 -0.124,-0.024 0.104,0.156 0.272,0.26 0.468,0.26 0.384,0 0.6279999,-0.368 0.6519999,-0.764 0.004,-0.072 0.008,-0.148 0.008,-0.22 0,-0.124 -0.004,-0.244 -0.016,-0.368 -0.116,0.02 -0.2319999,0.032 -0.3559999,0.032 -0.752,0 -1.332001,-0.687999 -1.332001,-1.4960009 0,-0.708 0.524001,-1.224 0.992001,-1.764 -0.076,-0.248 -0.148,-0.5 -0.18,-0.76 -0.024,-0.208 -0.028,-0.416 -0.028,-0.6239999 0,-0.46 0.22,-0.896001 0.596,-1.168001 0.012,-0.008 0.028,-0.012 0.04,-0.012 0.016,0 0.028,0 0.04,0.012 0.2839999,0.336 0.5319999,0.980001 0.5319999,1.4320009 0,0.572 -0.344,1.02 -0.7199999,1.456 0.084,0.272 0.156,0.552 0.2239999,0.828 z m 0.34,1.8600019 c 0.272,-0.096 0.452,-0.38 0.452,-0.656 0,-0.3600019 -0.264,-0.7160019 -0.692,-0.7600019 0.096,0.4640019 0.184,0.9240019 0.24,1.4160019 z m -1.5479999,-0.924 c 0,0.54 0.516,0.988 1.056,0.988 0.112,0 0.2199999,-0.008 0.3279999,-0.024 -0.056,-0.508 -0.148,-0.980001 -0.2519999,-1.4560019 -0.316,0.032 -0.496,0.244 -0.496,0.4760009 0,0.176 0.1,0.364 0.324,0.492001 0.02,0.02 0.028,0.04 0.028,0.06 0,0.044 -0.04,0.088 -0.088,0.088 -0.012,0 -0.024,-0.004 -0.036,-0.008 -0.32,-0.172 -0.468,-0.46 -0.468,-0.7400009 0,-0.352 0.232,-0.696 0.64,-0.788 -0.056,-0.232 -0.116,-0.468 -0.184,-0.7 -0.428,0.484 -0.852,0.972 -0.852,1.6120009 z M 3.6509287,2.7962123 c -0.3959999,0.192001 -0.6479999,0.596001 -0.6479999,1.0360009 0,0.296 0.072,0.532 0.144,0.776 0.32,-0.388 0.5839999,-0.792 0.5839999,-1.2959999 0,-0.220001 -0.016,-0.316001 -0.08,-0.516001 z"
     style="fill:currentColor" />
  <a
     id="a100"
     xlink:href="textedit:///var/folders/_g/5m8jwnh13xl4zfc1dyffj2bw0000gn/T/frescobaldi-wkpy2jbp/tmpcbso81a4/lilypond_framework_examples_GenoMus.ly:13:3:4"
     style="color:inherit"
     transform="translate(-13.007473,-2.7290856)">
    <path
       id="path102-1"
       d="m 218,136 c 55,0 108,-28 108,-89 0,-71 -55,-121 -102,-149 -35,-21 -75,-34 -116,-34 -55,0 -108,28 -108,89 0,71 55,121 102,149 35,21 75,34 116,34 z"
       transform="matrix(0.004,0,0,-0.004,20.0264,11.2053)"
       style="fill:currentColor" />
  </a>
  <rect
     id="rect104"
     ry="0.050000004"
     height="13.100001"
     width="0.16000001"
     y="3.9262142"
     x="1.1589265"
     style="fill:currentColor" />
  <path
     id="path106"
     d="m 0.79892777,12.468213 c 0,1.044 -0.408,2.064 -0.408,3.060001 0,0.54 0.12,1.044 0.516,1.44 0.012,0.012 0.012,0.036 0.012,0.048 0,0.036 -0.024,0.072 -0.06,0.072 -0.012,0 -0.036,-0.012 -0.048,-0.024 -0.528,-0.54 -0.7079999,-1.248 -0.7079999,-2.004 0,-1.068001 0.4319999,-2.112001 0.4319999,-3.120001 0,-0.54 -0.132,-1.044 -0.5159999,-1.44 -0.012,-0.012 -0.012,-0.012 -0.012,-0.024 0,-0.012 0,-0.012 0.012,-0.024 0.3839999,-0.395999 0.5159999,-0.8999999 0.5159999,-1.4399999 0,-1.008 -0.4319999,-2.052 -0.4319999,-3.1200009 0,-0.756 0.1799999,-1.464 0.7079999,-2.004 0.012,-0.012 0.036,-0.024 0.048,-0.024 0.036,0 0.06,0.036 0.06,0.072 0,0.012 0,0.036 -0.012,0.048 -0.396,0.396 -0.516,0.9 -0.516,1.44 0,0.996001 0.408,2.0160009 0.408,3.0600009 0,0.744 -0.18,1.452001 -0.6959999,1.9919999 0.5159999,0.54 0.6959999,1.248 0.6959999,1.992 z"
     style="fill:currentColor" />
  <path
     id="path108-8"
     d="m 5.9769277,14.812214 -0.004,0.264 0,0.044 c 0,0.088 0.004,0.176 0.016,0.264 0.18,-0.152 0.372,-0.32 0.372,-0.556 0,-0.132 -0.056,-0.268 -0.172,-0.268 -0.124,0 -0.208,0.12 -0.212,0.252 z m -0.168,0.716 -0.048,-2.380001 c 0.032,-0.02 0.072,-0.032 0.108,-0.032 0.036,0 0.076,0.012 0.108,0.032 l -0.028,1.380001 c 0.1,-0.084 0.232,-0.136001 0.364,-0.136001 0.208,0 0.356,0.192001 0.356,0.408001 0,0.32 -0.344,0.468 -0.588,0.676 -0.06,0.052 -0.096,0.152 -0.18,0.152 -0.052,0 -0.092,-0.044 -0.092,-0.1 z"
     style="fill:currentColor" />
  <a
     id="a110-9"
     xlink:href="textedit:///var/folders/_g/5m8jwnh13xl4zfc1dyffj2bw0000gn/T/frescobaldi-wkpy2jbp/tmpcbso81a4/lilypond_framework_examples_GenoMus.ly:13:45:46"
     style="color:inherit"
     transform="translate(-13.007473,-2.7290856)">
    <path
       id="path112-1"
       d="m 213,112 c -50,0 -69,-43 -69,-88 0,-77 57,-136 134,-136 50,0 69,43 69,88 0,77 -57,136 -134,136 z M 491,0 c 0,-43 -34,-75 -72,-96 -53,-29 -114,-40 -174,-40 -60,0 -120,11 -173,40 -38,21 -72,53 -72,96 0,43 34,75 72,96 53,29 113,40 173,40 60,0 121,-11 174,-40 38,-21 72,-53 72,-96 z"
       transform="matrix(0.004,0,0,-0.004,43.8164,9.7053)"
       style="fill:currentColor" />
  </a>
  <a
     id="a114-6"
     xlink:href="textedit:///var/folders/_g/5m8jwnh13xl4zfc1dyffj2bw0000gn/T/frescobaldi-wkpy2jbp/tmpcbso81a4/lilypond_framework_examples_GenoMus.ly:13:40:41"
     style="color:inherit"
     transform="translate(-13.007473,-2.7290856)">
    <path
       id="path116-2"
       d="m 213,112 c -50,0 -69,-43 -69,-88 0,-77 57,-136 134,-136 50,0 69,43 69,88 0,77 -57,136 -134,136 z M 491,0 c 0,-43 -34,-75 -72,-96 -53,-29 -114,-40 -174,-40 -60,0 -120,11 -173,40 -38,21 -72,53 -72,96 0,43 34,75 72,96 53,29 113,40 173,40 60,0 121,-11 174,-40 38,-21 72,-53 72,-96 z"
       transform="matrix(0.004,0,0,-0.004,43.8164,11.2053)"
       style="fill:currentColor" />
  </a>
  <a
     id="a120-7"
     xlink:href="textedit:///var/folders/_g/5m8jwnh13xl4zfc1dyffj2bw0000gn/T/frescobaldi-wkpy2jbp/tmpcbso81a4/lilypond_framework_examples_GenoMus.ly:13:35:36"
     style="color:inherit"
     transform="translate(-13.007473,-2.7290856)">
    <path
       id="path122-7"
       d="m 218,136 c 55,0 108,-28 108,-89 0,-71 -55,-121 -102,-149 -35,-21 -75,-34 -116,-34 -55,0 -108,28 -108,89 0,71 55,121 102,149 35,21 75,34 116,34 z"
       transform="matrix(0.004,0,0,-0.004,40.8141,7.7053)"
       style="fill:currentColor" />
  </a>
</svg>
