<?xml version="1.0" encoding="UTF-8" standalone="no"?>
<svg
   xmlns:dc="http://purl.org/dc/elements/1.1/"
   xmlns:cc="http://creativecommons.org/ns#"
   xmlns:rdf="http://www.w3.org/1999/02/22-rdf-syntax-ns#"
   xmlns:svg="http://www.w3.org/2000/svg"
   xmlns="http://www.w3.org/2000/svg"
   xmlns:xlink="http://www.w3.org/1999/xlink"
   version="1.2"
   width="68.950119mm"
   height="32.067574mm"
   viewBox="0 0 39.236426 18.24822"
   id="svg2">
  <metadata
     id="metadata140">
    <rdf:RDF>
      <cc:Work
         rdf:about="">
        <dc:format>image/svg+xml</dc:format>
        <dc:type
           rdf:resource="http://purl.org/dc/dcmitype/StillImage" />
        <dc:title></dc:title>
      </cc:Work>
    </rdf:RDF>
  </metadata>
  <defs
     id="defs138" />
  <!-- Page: 1/1 -->
  <text
     font-size="2.2001"
     id="text4"
     style="font-size:2.20009995px;font-family:serif;text-anchor:start;fill:currentColor"
     x="-7.3238001"
     y="0.13810985">
    <tspan
       id="tspan6" />
  </text>
  <rect
     x="13.2885"
     y="5.1842098"
     width="0.13"
     height="0"
     ry="0.0000"
     id="rect38"
     style="fill:currentColor" />
  <rect
     x="16.290701"
     y="5.6842098"
     width="0.13"
     height="0"
     ry="0.0000"
     id="rect46"
     style="fill:currentColor" />
  <rect
     x="11.4384"
     y="6.3120098"
     width="0.13"
     height="0"
     ry="0.0000"
     id="rect50"
     style="fill:currentColor" />
  <rect
     x="25.297501"
     y="3.6842098"
     width="0.13"
     height="0"
     ry="0.0000"
     id="rect66"
     style="fill:currentColor" />
  <rect
     x="22.2952"
     y="3.1842098"
     width="0.13"
     height="0"
     ry="0.0000"
     id="rect74"
     style="fill:currentColor" />
  <rect
     x="19.292999"
     y="3.1842098"
     width="0.13"
     height="0"
     ry="0.0000"
     id="rect82"
     style="fill:currentColor" />
  <rect
     x="8.1862001"
     y="7.8120098"
     width="0.13"
     height="0"
     ry="0.0000"
     id="rect92"
     style="fill:currentColor" />
  <rect
     x="28.0497"
     y="6.1842098"
     width="0.13"
     height="0"
     ry="0.0000"
     id="rect134"
     style="fill:currentColor" />
  <text
     id="text4-8"
     font-size="2.2001"
     style="font-size:2.20009995px;font-family:serif;text-anchor:start;fill:currentColor"
     x="-7.3470612"
     y="19.367207">
    <tspan
       id="tspan6-3" />
  </text>
  <rect
     id="rect36"
     ry="0.0000"
     height="0"
     width="0.13000001"
     y="22.913307"
     x="13.165241"
     style="fill:currentColor" />
  <rect
     id="rect44"
     ry="0.0000"
     height="0"
     width="0.13000001"
     y="25.541107"
     x="11.337139"
     style="fill:currentColor" />
  <rect
     id="rect52"
     ry="0.0000"
     height="0"
     width="0.13000001"
     y="22.913307"
     x="25.17424"
     style="fill:currentColor" />
  <rect
     id="rect60"
     ry="0.0000"
     height="0"
     width="0.13000001"
     y="22.413307"
     x="22.171942"
     style="fill:currentColor" />
  <rect
     id="rect70"
     ry="0.0000"
     height="0"
     width="0.13000001"
     y="22.413307"
     x="19.169741"
     style="fill:currentColor" />
  <rect
     id="rect80"
     ry="0.0000"
     height="0"
     width="0.13000001"
     y="25.541107"
     x="17.341637"
     style="fill:currentColor" />
  <rect
     id="rect90"
     ry="0.0000"
     height="0"
     width="0.13000001"
     y="26.041107"
     x="8.162941"
     style="fill:currentColor" />
  <rect
     id="rect118"
     ry="0.0000"
     height="0"
     width="0.13000001"
     y="25.541107"
     x="29.35074"
     style="fill:currentColor" />
  <text
     id="text4-0"
     font-size="2.2001"
     style="font-size:2.20009995px;font-family:serif;text-anchor:start;fill:currentColor"
     x="-7.3167686"
     y="19.420763">
    <tspan
       id="tspan6-5" />
  </text>
  <line
     id="line8"
     y2="8.0087557"
     x2="37.091038"
     y1="8.0087557"
     x1="1.2690327"
     style="stroke:currentColor;stroke-width:0.10000001;stroke-linecap:round;stroke-linejoin:round" />
  <line
     id="line10"
     y2="7.0087557"
     x2="37.091038"
     y1="7.0087557"
     x1="1.2690327"
     style="stroke:currentColor;stroke-width:0.10000001;stroke-linecap:round;stroke-linejoin:round" />
  <line
     id="line12"
     y2="6.0087566"
     x2="37.091038"
     y1="6.0087566"
     x1="1.2690327"
     style="stroke:currentColor;stroke-width:0.10000001;stroke-linecap:round;stroke-linejoin:round" />
  <line
     id="line14"
     y2="5.0087566"
     x2="37.091038"
     y1="5.0087566"
     x1="1.2690327"
     style="stroke:currentColor;stroke-width:0.10000001;stroke-linecap:round;stroke-linejoin:round" />
  <line
     id="line16"
     y2="4.0087566"
     x2="37.091038"
     y1="4.0087566"
     x1="1.2690327"
     style="stroke:currentColor;stroke-width:0.10000001;stroke-linecap:round;stroke-linejoin:round" />
  <rect
     id="rect18"
     ry="0.10000001"
     height="0.20000002"
     width="2.6275001"
     y="8.9087572"
     x="30.906036"
     style="fill:currentColor" />
  <rect
     id="rect20"
     ry="0.10000001"
     height="0.20000002"
     width="1.9563001"
     y="2.9087553"
     x="21.748232"
     style="fill:currentColor" />
  <rect
     id="rect22"
     ry="0.10000001"
     height="0.20000002"
     width="1.8053001"
     y="2.9087553"
     x="18.897034"
     style="fill:currentColor" />
  <line
     id="line24"
     y2="17.008755"
     x2="37.091038"
     y1="17.008755"
     x1="1.2690327"
     style="stroke:currentColor;stroke-width:0.10000001;stroke-linecap:round;stroke-linejoin:round" />
  <line
     id="line26"
     y2="16.008755"
     x2="37.091038"
     y1="16.008755"
     x1="1.2690327"
     style="stroke:currentColor;stroke-width:0.10000001;stroke-linecap:round;stroke-linejoin:round" />
  <line
     id="line28"
     y2="15.008756"
     x2="37.091038"
     y1="15.008756"
     x1="1.2690327"
     style="stroke:currentColor;stroke-width:0.10000001;stroke-linecap:round;stroke-linejoin:round" />
  <line
     id="line30"
     y2="14.008752"
     x2="37.091038"
     y1="14.008752"
     x1="1.2690327"
     style="stroke:currentColor;stroke-width:0.10000001;stroke-linecap:round;stroke-linejoin:round" />
  <line
     id="line32"
     y2="13.008756"
     x2="37.091038"
     y1="13.008756"
     x1="1.2690327"
     style="stroke:currentColor;stroke-width:0.10000001;stroke-linecap:round;stroke-linejoin:round" />
  <rect
     id="rect34"
     ry="0.0000"
     height="0"
     width="0.13000001"
     y="24.466864"
     x="16.069735"
     style="fill:currentColor" />
  <a
     id="a36"
     xlink:href="textedit:///var/folders/_g/5m8jwnh13xl4zfc1dyffj2bw0000gn/T/frescobaldi-wkpy2jbp/tmpcbso81a4/lilypond_framework_examples_GenoMus.ly:13:17:18"
     style="color:inherit"
     transform="translate(-13.007369,-2.6965456)">
    <path
       id="path38"
       d="m 218,136 c 55,0 108,-28 108,-89 0,-71 -55,-121 -102,-149 -35,-21 -75,-34 -116,-34 -55,0 -108,28 -108,89 0,71 55,121 102,149 35,21 75,34 116,34 z"
       transform="matrix(0.004,0,0,-0.004,29.0771,7.7053)"
       style="fill:currentColor" />
  </a>
  <path
     id="path40"
     d="m 12.025433,4.8447552 -0.004,0.264 0,0.044 c 0,0.088 0.004,0.176 0.016,0.264 0.18,-0.152 0.372,-0.32 0.372,-0.556 0,-0.132 -0.056,-0.268 -0.172,-0.268 -0.124001,0 -0.208,0.12 -0.212001,0.252 z m -0.168,0.716 -0.048,-2.3800009 c 0.032,-0.02 0.072,-0.032 0.108,-0.032 0.036,0 0.076,0.012 0.108,0.032 l -0.028,1.3800009 c 0.1,-0.084 0.232,-0.136 0.364,-0.136 0.208,0 0.356,0.192 0.356,0.408 0,0.32 -0.344,0.468 -0.588,0.676 -0.06,0.052 -0.096,0.152 -0.18,0.152 -0.052,0 -0.092,-0.044 -0.092,-0.1 z"
     style="fill:currentColor" />
  <rect
     id="rect42"
     ry="0.0000"
     height="0"
     width="0.13000001"
     y="24.466864"
     x="13.067433"
     style="fill:currentColor" />
  <a
     id="a44"
     xlink:href="textedit:///var/folders/_g/5m8jwnh13xl4zfc1dyffj2bw0000gn/T/frescobaldi-wkpy2jbp/tmpcbso81a4/lilypond_framework_examples_GenoMus.ly:13:13:14"
     style="color:inherit"
     transform="translate(-13.007369,-2.6965456)">
    <path
       id="path46"
       d="m 218,136 c 55,0 108,-28 108,-89 0,-71 -55,-121 -102,-149 -35,-21 -75,-34 -116,-34 -55,0 -108,28 -108,89 0,71 55,121 102,149 35,21 75,34 116,34 z"
       transform="matrix(0.004,0,0,-0.004,26.0748,7.7053)"
       style="fill:currentColor" />
  </a>
  <path
     id="path48"
     d="m 9.0012322,6.3447552 -0.004,0.264 0,0.044 c 0,0.088 0.004,0.1759999 0.016001,0.2639999 0.1799991,-0.1519999 0.3719991,-0.3199999 0.3719991,-0.5559999 0,-0.132 -0.056,-0.268 -0.172,-0.268 -0.1240001,0 -0.2080001,0.12 -0.2120001,0.252 z m -0.168,0.7159999 -0.048,-2.3799999 c 0.032,-0.02 0.072,-0.032 0.108,-0.032 0.036,0 0.076,0.012 0.108,0.032 l -0.028,1.38 c 0.1,-0.084 0.2320001,-0.136 0.364,-0.136 0.2079999,0 0.3559999,0.192 0.3559999,0.408 0,0.32 -0.3439999,0.4679999 -0.5879998,0.6759999 -0.06,0.052 -0.096,0.152 -0.1800001,0.152 -0.052,0 -0.092,-0.044 -0.092,-0.1 z"
     style="fill:currentColor" />
  <rect
     id="rect50-6"
     ry="0.0000"
     height="0"
     width="0.13000001"
     y="25.594664"
     x="11.217436"
     style="fill:currentColor" />
  <a
     id="a52"
     xlink:href="textedit:///var/folders/_g/5m8jwnh13xl4zfc1dyffj2bw0000gn/T/frescobaldi-wkpy2jbp/tmpcbso81a4/lilypond_framework_examples_GenoMus.ly:13:9:10"
     style="color:inherit"
     transform="translate(-13.007369,-2.6965456)">
    <path
       id="path54"
       d="m 218,136 c 55,0 108,-28 108,-89 0,-71 -55,-121 -102,-149 -35,-21 -75,-34 -116,-34 -55,0 -108,28 -108,89 0,71 55,121 102,149 35,21 75,34 116,34 z"
       transform="matrix(0.004,0,0,-0.004,23.0506,9.2053)"
       style="fill:currentColor" />
  </a>
  <path
     id="path56"
     d="m 30.495034,16.756758 c 0,0.04 -0.032,0.076 -0.072,0.076 -0.04,0 -0.076,-0.036 -0.076,-0.076 l 0,-0.58 -0.331999,0.124 0,0.632 c 0,0.04 -0.036,0.076 -0.076,0.076 -0.04,0 -0.072,-0.036 -0.072,-0.076 l 0,-0.58 -0.128,0.048 c -0.008,0.004 -0.02,0.004 -0.028,0.004 -0.044,0 -0.08,-0.036 -0.08,-0.08 l 0,-0.24 c 0,-0.032 0.02,-0.064 0.052,-0.076 l 0.184,-0.064 0,-0.64 -0.128,0.044 c -0.008,0.004 -0.02,0.004 -0.028,0.004 -0.044,0 -0.08,-0.036 -0.08,-0.08 l 0,-0.24 c 0,-0.032 0.02,-0.06 0.052,-0.072 l 0.184,-0.068 0,-0.632 c 0,-0.04 0.032,-0.076 0.072,-0.076 0.04,0 0.076,0.036 0.076,0.076 l 0,0.58 0.331999,-0.124 0,-0.632 c 0,-0.04 0.036,-0.076 0.076,-0.076 0.04,0 0.072,0.036 0.072,0.076 l 0,0.58 0.128,-0.048 c 0.008,-0.004 0.02,-0.004 0.028,-0.004 0.044,0 0.08,0.036 0.08,0.08 l 0,0.24 c 0,0.032 -0.02,0.064 -0.052,0.076 l -0.184,0.064 0,0.640001 0.128,-0.044 c 0.008,-0.004 0.02,-0.004 0.028,-0.004 0.044,0 0.08,0.036 0.08,0.08 l 0,0.24 c 0,0.032 -0.02,0.06 -0.052,0.072 l -0.184,0.068 0,0.632 z m -0.48,-1.508 0,0.64 0.331999,-0.12 0,-0.64 z"
     style="fill:currentColor" />
  <rect
     id="rect58"
     ry="0.0000"
     height="0"
     width="0.13000001"
     y="25.466864"
     x="28.078735"
     style="fill:currentColor" />
  <a
     id="a60"
     xlink:href="textedit:///var/folders/_g/5m8jwnh13xl4zfc1dyffj2bw0000gn/T/frescobaldi-wkpy2jbp/tmpcbso81a4/lilypond_framework_examples_GenoMus.ly:13:32:33"
     style="color:inherit"
     transform="translate(-13.007369,-2.6965456)">
    <path
       id="path62"
       d="m 218,136 c 55,0 108,-28 108,-89 0,-71 -55,-121 -102,-149 -35,-21 -75,-34 -116,-34 -55,0 -108,28 -108,89 0,71 55,121 102,149 35,21 75,34 116,34 z"
       transform="matrix(0.004,0,0,-0.004,41.0861,8.7053)"
       style="fill:currentColor" />
  </a>
  <rect
     id="rect64"
     ry="0.0000"
     height="0"
     width="0.13000001"
     y="22.966864"
     x="25.076437"
     style="fill:currentColor" />
  <a
     id="a66"
     xlink:href="textedit:///var/folders/_g/5m8jwnh13xl4zfc1dyffj2bw0000gn/T/frescobaldi-wkpy2jbp/tmpcbso81a4/lilypond_framework_examples_GenoMus.ly:13:30:31"
     style="color:inherit"
     transform="translate(-13.007369,-2.6965456)">
    <path
       id="path68"
       d="m 218,136 c 55,0 108,-28 108,-89 0,-71 -55,-121 -102,-149 -35,-21 -75,-34 -116,-34 -55,0 -108,28 -108,89 0,71 55,121 102,149 35,21 75,34 116,34 z"
       transform="matrix(0.004,0,0,-0.004,38.0838,6.2053)"
       style="fill:currentColor" />
  </a>
  <rect
     id="rect70-5"
     ry="0.0000"
     height="0"
     width="0.13000001"
     y="22.466864"
     x="22.07423"
     style="fill:currentColor" />
  <a
     id="a72"
     xlink:href="textedit:///var/folders/_g/5m8jwnh13xl4zfc1dyffj2bw0000gn/T/frescobaldi-wkpy2jbp/tmpcbso81a4/lilypond_framework_examples_GenoMus.ly:13:26:27"
     style="color:inherit"
     transform="translate(-13.007369,-2.6965456)">
    <path
       id="path74"
       d="m 218,136 c 55,0 108,-28 108,-89 0,-71 -55,-121 -102,-149 -35,-21 -75,-34 -116,-34 -55,0 -108,28 -108,89 0,71 55,121 102,149 35,21 75,34 116,34 z"
       transform="matrix(0.004,0,0,-0.004,35.0816,5.7053)"
       style="fill:currentColor" />
  </a>
  <path
     id="path76"
     d="m 18.029933,2.8447553 -0.004,0.264 0,0.044 c 0,0.088 0.004,0.176 0.016,0.264 0.180001,-0.152 0.372,-0.32 0.372,-0.556 0,-0.132 -0.056,-0.268 -0.172,-0.268 -0.123999,0 -0.207999,0.12 -0.212,0.252 z m -0.168,0.716 -0.048,-2.380001 c 0.032,-0.02 0.072,-0.032 0.108,-0.032 0.036,0 0.076,0.012 0.108,0.032 l -0.028,1.380001 c 0.100001,-0.084 0.232001,-0.136 0.364001,-0.136 0.208,0 0.355999,0.192 0.355999,0.408 0,0.32 -0.343999,0.468 -0.588,0.676 -0.06,0.052 -0.096,0.1519999 -0.179999,0.1519999 -0.052,0 -0.092,-0.044 -0.092,-0.1 z"
     style="fill:currentColor" />
  <rect
     id="rect78"
     ry="0.0000"
     height="0"
     width="0.13000001"
     y="22.466864"
     x="19.071934"
     style="fill:currentColor" />
  <a
     id="a80"
     xlink:href="textedit:///var/folders/_g/5m8jwnh13xl4zfc1dyffj2bw0000gn/T/frescobaldi-wkpy2jbp/tmpcbso81a4/lilypond_framework_examples_GenoMus.ly:27:5:6"
     style="color:inherit"
     transform="translate(-13.007369,-2.6965456)">
    <path
       id="path82"
       d="m 213,112 c -50,0 -69,-43 -69,-88 0,-77 57,-136 134,-136 50,0 69,43 69,88 0,77 -57,136 -134,136 z M 491,0 c 0,-43 -34,-75 -72,-96 -53,-29 -114,-40 -174,-40 -60,0 -120,11 -173,40 -38,21 -72,53 -72,96 0,43 34,75 72,96 53,29 113,40 173,40 60,0 121,-11 174,-40 38,-21 72,-53 72,-96 z"
       transform="matrix(0.004,0,0,-0.004,32.0793,17.2053)"
       style="fill:currentColor" />
  </a>
  <a
     id="a84"
     xlink:href="textedit:///var/folders/_g/5m8jwnh13xl4zfc1dyffj2bw0000gn/T/frescobaldi-wkpy2jbp/tmpcbso81a4/lilypond_framework_examples_GenoMus.ly:13:21:22"
     style="color:inherit"
     transform="translate(-13.007369,-2.6965456)">
    <path
       id="path86"
       d="m 218,136 c 55,0 108,-28 108,-89 0,-71 -55,-121 -102,-149 -35,-21 -75,-34 -116,-34 -55,0 -108,28 -108,89 0,71 55,121 102,149 35,21 75,34 116,34 z"
       transform="matrix(0.004,0,0,-0.004,32.0793,5.7053)"
       style="fill:currentColor" />
  </a>
  <path
     id="path88"
     d="m 4.2470331,14.508759 c 0,-0.112001 0.092,-0.204001 0.2040001,-0.204001 0.1119999,0 0.2039999,0.092 0.2039999,0.204001 0,0.112 -0.092,0.204 -0.2039999,0.204 -0.1120001,0 -0.2040001,-0.092 -0.2040001,-0.204 z m 0,-1.000001 c 0,-0.112 0.092,-0.204 0.2040001,-0.204 0.1119999,0 0.2039999,0.092 0.2039999,0.204 0,0.112 -0.092,0.204 -0.2039999,0.204 -0.1120001,0 -0.2040001,-0.092 -0.2040001,-0.204 z m -1.3000004,-0.552 c 0.6880002,0 1.1720003,0.352 1.1720003,1.004 0,1.052001 -1.0520003,1.656001 -2.0640006,2.084001 -0.012,0.012 -0.024,0.016 -0.036,0.016 -0.028,0 -0.052,-0.024 -0.052,-0.052 0,-0.012 0.004,-0.024 0.016001,-0.036 0.8080004,-0.472 1.6480006,-1.06 1.6480006,-1.972 0,-0.48 -0.2520001,-0.94 -0.6840003,-0.94 -0.296,0 -0.516,0.216 -0.6160001,0.504 0.044,-0.02 0.088,-0.032 0.136,-0.032 0.2200001,0 0.4000001,0.18 0.4000001,0.4 0,0.232 -0.176,0.424 -0.4000001,0.424 -0.24,0 -0.4480001,-0.188 -0.4480001,-0.424 0,-0.532 0.4080001,-0.976 0.9280002,-0.976 z"
     style="fill:currentColor" />
  <rect
     id="rect90-6"
     ry="0.0000"
     height="0"
     width="0.13000001"
     y="27.094664"
     x="8.1932344"
     style="fill:currentColor" />
  <a
     id="a92-8"
     xlink:href="textedit:///var/folders/_g/5m8jwnh13xl4zfc1dyffj2bw0000gn/T/frescobaldi-wkpy2jbp/tmpcbso81a4/lilypond_framework_examples_GenoMus.ly:27:2:3"
     style="color:inherit"
     transform="translate(-13.007369,-2.6965456)">
    <path
       id="path94"
       d="m 213,112 c -50,0 -69,-43 -69,-88 0,-77 57,-136 134,-136 50,0 69,43 69,88 0,77 -57,136 -134,136 z M 491,0 c 0,-43 -34,-75 -72,-96 -53,-29 -114,-40 -174,-40 -60,0 -120,11 -173,40 -38,21 -72,53 -72,96 0,43 34,75 72,96 53,29 113,40 173,40 60,0 121,-11 174,-40 38,-21 72,-53 72,-96 z"
       transform="matrix(0.004,0,0,-0.004,20.0264,18.7053)"
       style="fill:currentColor" />
  </a>
  <path
     id="path96"
     d="m 3.5230328,5.9607552 c 0.016001,0 0.036,-0.004 0.052,-0.004 0.6200002,0 1.0240004,0.512 1.0240004,1.0439999 0,0.304 -0.1320001,0.616 -0.4280001,0.840001 -0.088,0.068 -0.1880002,0.112 -0.2920001,0.143999 0.012,0.140001 0.02,0.280001 0.02,0.420001 0,0.076 -0.004,0.156 -0.008,0.232 -0.028,0.48 -0.3600001,0.912 -0.8320003,0.912 -0.4320001,0 -0.7800002,-0.352 -0.7800002,-0.788 0,-0.232 0.2120001,-0.412 0.4480001,-0.412 0.216,0 0.3800001,0.188 0.3800001,0.412 0,0.208 -0.1720001,0.38 -0.3800001,0.38 -0.044,0 -0.084,-0.008 -0.1240001,-0.024 0.1040001,0.156 0.2720001,0.26 0.4680003,0.26 0.384,0 0.6280001,-0.368 0.652,-0.764 0.004,-0.072 0.008,-0.148 0.008,-0.22 0,-0.124 -0.004,-0.244 -0.016001,-0.368001 -0.1159999,0.02 -0.2320001,0.032 -0.356,0.032 -0.7520002,0 -1.3320004,-0.688 -1.3320004,-1.4959999 0,-0.708 0.5240002,-1.224 0.9920003,-1.764 -0.076,-0.248 -0.148,-0.500001 -0.18,-0.760001 -0.024,-0.208 -0.028,-0.416 -0.028,-0.6239999 0,-0.46 0.22,-0.896 0.5960001,-1.168 0.012,-0.008 0.028,-0.012 0.04,-0.012 0.016001,0 0.028,0 0.04,0.012 0.2840001,0.336 0.5320002,0.98 0.5320002,1.4319999 0,0.572 -0.3440002,1.020001 -0.7200002,1.456001 0.084,0.272 0.156,0.552 0.224,0.828 z m 0.3400001,1.8599999 c 0.2720001,-0.096 0.4520001,-0.38 0.4520001,-0.656 0,-0.36 -0.2639999,-0.7159999 -0.6920002,-0.7599999 0.096,0.4639999 0.1840001,0.9239999 0.2400001,1.4159999 z m -1.5480004,-0.924 c 0,0.54 0.5160002,0.988 1.0560004,0.988 0.1119999,0 0.22,-0.008 0.328,-0.024 -0.056,-0.508 -0.148,-0.98 -0.2520001,-1.4559999 -0.316,0.032 -0.496,0.244 -0.496,0.4759999 0,0.176 0.1,0.364 0.324,0.492 0.02,0.02 0.028,0.04 0.028,0.06 0,0.044 -0.04,0.088 -0.088,0.088 -0.012,0 -0.024,-0.004 -0.036,-0.008 -0.3200001,-0.171999 -0.4680001,-0.459999 -0.4680001,-0.7399989 0,-0.352 0.2319999,-0.696001 0.6400002,-0.788001 -0.056,-0.232 -0.1160002,-0.468 -0.1840001,-0.7 -0.4280001,0.484 -0.8520003,0.972 -0.8520003,1.6120009 z M 3.651033,2.8287543 c -0.3960002,0.192 -0.6480003,0.596 -0.6480003,1.0359999 0,0.296 0.072,0.532 0.1440001,0.776001 0.32,-0.388001 0.5840002,-0.792001 0.5840002,-1.2960009 0,-0.22 -0.016001,-0.316 -0.08,-0.516 z"
     style="fill:currentColor" />
  <a
     id="a98"
     xlink:href="textedit:///var/folders/_g/5m8jwnh13xl4zfc1dyffj2bw0000gn/T/frescobaldi-wkpy2jbp/tmpcbso81a4/lilypond_framework_examples_GenoMus.ly:13:3:4"
     style="color:inherit"
     transform="translate(-13.007369,-2.6965456)">
    <path
       id="path100"
       d="m 218,136 c 55,0 108,-28 108,-89 0,-71 -55,-121 -102,-149 -35,-21 -75,-34 -116,-34 -55,0 -108,28 -108,89 0,71 55,121 102,149 35,21 75,34 116,34 z"
       transform="matrix(0.004,0,0,-0.004,20.0264,10.7053)"
       style="fill:currentColor" />
  </a>
  <rect
     id="rect102"
     ry="0.050000004"
     height="13.100001"
     width="0.16000001"
     y="3.9587574"
     x="1.1590321"
     style="fill:currentColor" />
  <path
     id="path104"
     d="m 0.79903227,12.500758 c 0,1.044 -0.40800014,2.064 -0.40800014,3.060001 0,0.54 0.12000004,1.044 0.51600022,1.44 0.012,0.012 0.012,0.036 0.012,0.048 0,0.036 -0.024,0.072 -0.06,0.072 -0.012,0 -0.036,-0.012 -0.048,-0.024 -0.52800013,-0.54 -0.70800023,-1.248 -0.70800023,-2.004 0,-1.068001 0.43200024,-2.112001 0.43200024,-3.120001 0,-0.54 -0.13200014,-1.044001 -0.51600024,-1.440001 -0.012,-0.012 -0.012,-0.012 -0.012,-0.024 0,-0.012 0,-0.012 0.012,-0.024 0.3840001,-0.396 0.51600014,-0.9000019 0.51600014,-1.4400019 0,-1.008 -0.43200014,-2.052001 -0.43200014,-3.1200009 0,-0.756 0.1800001,-1.464 0.70800023,-2.004 0.012,-0.012 0.036,-0.024 0.048,-0.024 0.036,0 0.06,0.036 0.06,0.072 0,0.012 0,0.036 -0.012,0.048 -0.39600018,0.396 -0.51600022,0.9 -0.51600022,1.44 0,0.996 0.40800014,2.0160009 0.40800014,3.0600009 0,0.744 -0.1800001,1.452001 -0.69600024,1.9920019 0.51600014,0.54 0.69600024,1.248001 0.69600024,1.992001 z"
     style="fill:currentColor" />
  <a
     id="a106"
     xlink:href="textedit:///var/folders/_g/5m8jwnh13xl4zfc1dyffj2bw0000gn/T/frescobaldi-wkpy2jbp/tmpcbso81a4/lilypond_framework_examples_GenoMus.ly:13:46:47"
     style="color:inherit"
     transform="translate(-13.007369,-2.6965456)">
    <path
       id="path108"
       d="m 213,112 c -50,0 -69,-43 -69,-88 0,-77 57,-136 134,-136 50,0 69,43 69,88 0,77 -57,136 -134,136 z M 491,0 c 0,-43 -34,-75 -72,-96 -53,-29 -114,-40 -174,-40 -60,0 -120,11 -173,40 -38,21 -72,53 -72,96 0,43 34,75 72,96 53,29 113,40 173,40 60,0 121,-11 174,-40 38,-21 72,-53 72,-96 z"
       transform="matrix(0.004,0,0,-0.004,44.0884,8.7053)"
       style="fill:currentColor" />
  </a>
  <path
     id="path110-6"
     d="m 30.495034,10.256758 c 0,0.04 -0.032,0.076 -0.072,0.076 -0.04,0 -0.076,-0.036 -0.076,-0.076 l 0,-0.5800029 -0.331999,0.124 0,0.6320029 c 0,0.04 -0.036,0.076 -0.076,0.076 -0.04,0 -0.072,-0.036 -0.072,-0.076 l 0,-0.5800009 -0.128,0.048 c -0.008,0.004 -0.02,0.004 -0.028,0.004 -0.044,0 -0.08,-0.036 -0.08,-0.08 l 0,-0.240001 c 0,-0.032 0.02,-0.064 0.052,-0.076 l 0.184,-0.064 0,-0.640001 -0.128,0.044 c -0.008,0.004 -0.02,0.004 -0.028,0.004 -0.044,0 -0.08,-0.036 -0.08,-0.08 l 0,-0.24 c 0,-0.032 0.02,-0.06 0.052,-0.072 l 0.184,-0.068 0,-0.632 c 0,-0.04 0.032,-0.076 0.072,-0.076 0.04,0 0.076,0.036 0.076,0.076 l 0,0.58 0.331999,-0.124 0,-0.632 c 0,-0.04 0.036,-0.076 0.076,-0.076 0.04,0 0.072,0.036 0.072,0.076 l 0,0.58 0.128,-0.048 c 0.008,-0.004 0.02,-0.004 0.028,-0.004 0.044,0 0.08,0.036 0.08,0.08 l 0,0.24 c 0,0.032 -0.02,0.064 -0.052,0.076 l -0.184,0.064 0,0.640001 0.128,-0.044 c 0.008,-0.004 0.02,-0.004 0.028,-0.004 0.044,0 0.08,0.036 0.08,0.08 l 0,0.24 c 0,0.032 -0.02,0.06 -0.052,0.072 l -0.184,0.068 0,0.6320009 z m -0.48,-1.5080029 0,0.64 0.331999,-0.12 0,-0.64 z"
     style="fill:currentColor" />
  <a
     id="a112-9"
     xlink:href="textedit:///var/folders/_g/5m8jwnh13xl4zfc1dyffj2bw0000gn/T/frescobaldi-wkpy2jbp/tmpcbso81a4/lilypond_framework_examples_GenoMus.ly:27:13:14"
     style="color:inherit"
     transform="translate(-13.007369,-2.6965456)">
    <path
       id="path114-1"
       d="m 213,112 c -50,0 -69,-43 -69,-88 0,-77 57,-136 134,-136 50,0 69,43 69,88 0,77 -57,136 -134,136 z M 491,0 c 0,-43 -34,-75 -72,-96 -53,-29 -114,-40 -174,-40 -60,0 -120,11 -173,40 -38,21 -72,53 -72,96 0,43 34,75 72,96 53,29 113,40 173,40 60,0 121,-11 174,-40 38,-21 72,-53 72,-96 z"
       transform="matrix(0.004,0,0,-0.004,44.0884,17.2053)"
       style="fill:currentColor" />
  </a>
  <a
     id="a116-1"
     xlink:href="textedit:///var/folders/_g/5m8jwnh13xl4zfc1dyffj2bw0000gn/T/frescobaldi-wkpy2jbp/tmpcbso81a4/lilypond_framework_examples_GenoMus.ly:27:9:10"
     style="color:inherit"
     transform="translate(-13.007369,-2.6965456)">
    <path
       id="path118-9"
       d="m 213,112 c -50,0 -69,-43 -69,-88 0,-77 57,-136 134,-136 50,0 69,43 69,88 0,77 -57,136 -134,136 z M 491,0 c 0,-43 -34,-75 -72,-96 -53,-29 -114,-40 -174,-40 -60,0 -120,11 -173,40 -38,21 -72,53 -72,96 0,43 34,75 72,96 53,29 113,40 173,40 60,0 121,-11 174,-40 38,-21 72,-53 72,-96 z"
       transform="matrix(0.004,0,0,-0.004,44.0884,18.2053)"
       style="fill:currentColor" />
  </a>
  <a
     id="a120"
     xlink:href="textedit:///var/folders/_g/5m8jwnh13xl4zfc1dyffj2bw0000gn/T/frescobaldi-wkpy2jbp/tmpcbso81a4/lilypond_framework_examples_GenoMus.ly:13:44:45"
     style="color:inherit"
     transform="translate(-13.007369,-2.6965456)">
    <path
       id="path122"
       d="m 213,112 c -50,0 -69,-43 -69,-88 0,-77 57,-136 134,-136 50,0 69,43 69,88 0,77 -57,136 -134,136 z M 491,0 c 0,-43 -34,-75 -72,-96 -53,-29 -114,-40 -174,-40 -60,0 -120,11 -173,40 -38,21 -72,53 -72,96 0,43 34,75 72,96 53,29 113,40 173,40 60,0 121,-11 174,-40 38,-21 72,-53 72,-96 z"
       transform="matrix(0.004,0,0,-0.004,44.0884,9.7053)"
       style="fill:currentColor" />
  </a>
  <a
     id="a124"
     xlink:href="textedit:///var/folders/_g/5m8jwnh13xl4zfc1dyffj2bw0000gn/T/frescobaldi-wkpy2jbp/tmpcbso81a4/lilypond_framework_examples_GenoMus.ly:13:42:43"
     style="color:inherit"
     transform="translate(-13.007369,-2.6965456)">
    <path
       id="path126"
       d="m 213,112 c -50,0 -69,-43 -69,-88 0,-77 57,-136 134,-136 50,0 69,43 69,88 0,77 -57,136 -134,136 z M 491,0 c 0,-43 -34,-75 -72,-96 -53,-29 -114,-40 -174,-40 -60,0 -120,11 -173,40 -38,21 -72,53 -72,96 0,43 34,75 72,96 53,29 113,40 173,40 60,0 121,-11 174,-40 38,-21 72,-53 72,-96 z"
       transform="matrix(0.004,0,0,-0.004,44.0884,10.7053)"
       style="fill:currentColor" />
  </a>
  <path
     id="path128-5"
     d="m 27.006334,4.5087552 c 0.032,-0.016 0.068,-0.028 0.104,-0.028 0.036,0 0.064,0.012 0.096,0.028 l -0.008,0.732 0.424,-0.08 0.012,0 c 0.04,0 0.072,0.028 0.072,0.068 l 0.028,2.2799999 c -0.032,0.016 -0.064,0.028 -0.1,0.028 -0.036,0 -0.068,-0.012 -0.100001,-0.028 l 0.012,-0.7319999 -0.424,0.08 -0.012,0 c -0.04,0 -0.072,-0.028 -0.072,-0.068 z m 0.556001,1.052 -0.368001,0.068 -0.012,0.828 0.368001,-0.068 z"
     style="fill:currentColor" />
  <a
     id="a130"
     xlink:href="textedit:///var/folders/_g/5m8jwnh13xl4zfc1dyffj2bw0000gn/T/frescobaldi-wkpy2jbp/tmpcbso81a4/lilypond_framework_examples_GenoMus.ly:13:37:38"
     style="color:inherit"
     transform="translate(-13.007369,-2.6965456)">
    <path
       id="path132"
       d="m 213,112 c -50,0 -69,-43 -69,-88 0,-77 57,-136 134,-136 50,0 69,43 69,88 0,77 -57,136 -134,136 z M 491,0 c 0,-43 -34,-75 -72,-96 -53,-29 -114,-40 -174,-40 -60,0 -120,11 -173,40 -38,21 -72,53 -72,96 0,43 34,75 72,96 53,29 113,40 173,40 60,0 121,-11 174,-40 38,-21 72,-53 72,-96 z"
       transform="matrix(0.004,0,0,-0.004,44.0884,11.7053)"
       style="fill:currentColor" />
  </a>
</svg>
