<?xml version="1.0" encoding="UTF-8" standalone="no"?>
<svg
   xmlns:dc="http://purl.org/dc/elements/1.1/"
   xmlns:cc="http://creativecommons.org/ns#"
   xmlns:rdf="http://www.w3.org/1999/02/22-rdf-syntax-ns#"
   xmlns:svg="http://www.w3.org/2000/svg"
   xmlns="http://www.w3.org/2000/svg"
   xmlns:xlink="http://www.w3.org/1999/xlink"
   id="svg2"
   viewBox="0 0 39.236426 18.24822"
   height="32.067574mm"
   width="68.950119mm"
   version="1.2">
  <metadata
     id="metadata140">
    <rdf:RDF>
      <cc:Work
         rdf:about="">
        <dc:format>image/svg+xml</dc:format>
        <dc:type
           rdf:resource="http://purl.org/dc/dcmitype/StillImage" />
        <dc:title></dc:title>
      </cc:Work>
    </rdf:RDF>
  </metadata>
  <defs
     id="defs138" />
  <!-- Page: 1/1 -->
  <text
     y="0.13810985"
     x="-7.3238001"
     style="font-size:2.20009995px;font-family:serif;text-anchor:start;fill:currentColor"
     id="text4"
     font-size="2.2001">
    <tspan
       id="tspan6" />
  </text>
  <line
     style="stroke:currentColor;stroke-width:0.1;stroke-linecap:round;stroke-linejoin:round"
     id="line8"
     y2="7.9981098"
     x2="38.047604"
     y1="7.9981098"
     x1="1.262" />
  <line
     style="stroke:currentColor;stroke-width:0.1;stroke-linecap:round;stroke-linejoin:round"
     id="line10"
     y2="6.9981098"
     x2="38.047604"
     y1="6.9981098"
     x1="1.262" />
  <line
     style="stroke:currentColor;stroke-width:0.1;stroke-linecap:round;stroke-linejoin:round"
     id="line12"
     y2="5.9981098"
     x2="38.047604"
     y1="5.9981098"
     x1="1.262" />
  <line
     style="stroke:currentColor;stroke-width:0.1;stroke-linecap:round;stroke-linejoin:round"
     id="line14"
     y2="4.9981098"
     x2="38.047604"
     y1="4.9981098"
     x1="1.262" />
  <line
     style="stroke:currentColor;stroke-width:0.1;stroke-linecap:round;stroke-linejoin:round"
     id="line16"
     y2="3.9981098"
     x2="38.047604"
     y1="3.9981098"
     x1="1.262" />
  <rect
     style="fill:currentColor"
     id="rect18"
     ry="0.1"
     height="0.2"
     width="2.9430001"
     y="8.8981104"
     x="31.5471" />
  <rect
     style="fill:currentColor"
     id="rect20"
     ry="0.1"
     height="0.2"
     width="1.8171"
     y="2.8981099"
     x="22.1084" />
  <rect
     style="fill:currentColor"
     id="rect22"
     ry="0.1"
     height="0.2"
     width="1.8053"
     y="2.8981099"
     x="19.118" />
  <line
     style="stroke:currentColor;stroke-width:0.1;stroke-linecap:round;stroke-linejoin:round"
     id="line24"
     y2="16.99811"
     x2="38.047604"
     y1="16.99811"
     x1="1.262" />
  <line
     style="stroke:currentColor;stroke-width:0.1;stroke-linecap:round;stroke-linejoin:round"
     id="line26"
     y2="15.99811"
     x2="38.047604"
     y1="15.99811"
     x1="1.262" />
  <line
     style="stroke:currentColor;stroke-width:0.1;stroke-linecap:round;stroke-linejoin:round"
     id="line28"
     y2="14.99811"
     x2="38.047604"
     y1="14.99811"
     x1="1.262" />
  <line
     style="stroke:currentColor;stroke-width:0.1;stroke-linecap:round;stroke-linejoin:round"
     id="line30"
     y2="13.99811"
     x2="38.047604"
     y1="13.99811"
     x1="1.262" />
  <line
     style="stroke:currentColor;stroke-width:0.1;stroke-linecap:round;stroke-linejoin:round"
     id="line32"
     y2="12.99811"
     x2="38.047604"
     y1="12.99811"
     x1="1.262" />
  <a
     transform="translate(-13.0144,-2.7071901)"
     id="a34"
     xlink:href="textedit:///var/folders/_g/5m8jwnh13xl4zfc1dyffj2bw0000gn/T/frescobaldi-wkpy2jbp/tmpcbso81a4/lilypond_framework_examples_GenoMus.ly:13:12:13"
     style="color:inherit">
    <path
       style="fill:currentColor"
       id="path36"
       d="m 218,136 c 55,0 108,-28 108,-89 0,-71 -55,-121 -102,-149 -35,-21 -75,-34 -116,-34 -55,0 -108,28 -108,89 0,71 55,121 102,149 35,21 75,34 116,34 z"
       transform="matrix(0.004,0,0,-0.004,26.3029,7.7053)" />
  </a>
  <rect
     style="fill:currentColor"
     id="rect38"
     ry="0.0000"
     height="0"
     width="0.13"
     y="5.1842098"
     x="13.2885" />
  <path
     style="fill:currentColor"
     id="path40"
     d="m 12.2465,4.8341099 -0.004,0.264 0,0.044 c 0,0.088 0.004,0.176 0.016,0.264 0.18,-0.152 0.372,-0.32 0.372,-0.556 0,-0.132 -0.056,-0.268 -0.172,-0.268 -0.124,0 -0.208,0.12 -0.212,0.252 z m -0.168,0.716 -0.048,-2.38 c 0.032,-0.02 0.072,-0.032 0.108,-0.032 0.036,0 0.076,0.012 0.108,0.032 l -0.028,1.38 c 0.1,-0.084 0.232,-0.136 0.364,-0.136 0.208,0 0.356,0.192 0.356,0.408 0,0.32 -0.344,0.468 -0.588,0.676 -0.06,0.052 -0.096,0.152 -0.18,0.152 -0.052,0 -0.092,-0.044 -0.092,-0.1 z" />
  <a
     transform="translate(-13.0144,-2.7071901)"
     id="a42"
     xlink:href="textedit:///var/folders/_g/5m8jwnh13xl4zfc1dyffj2bw0000gn/T/frescobaldi-wkpy2jbp/tmpcbso81a4/lilypond_framework_examples_GenoMus.ly:13:16:17"
     style="color:inherit">
    <path
       style="fill:currentColor"
       id="path44"
       d="m 218,136 c 55,0 108,-28 108,-89 0,-71 -55,-121 -102,-149 -35,-21 -75,-34 -116,-34 -55,0 -108,28 -108,89 0,71 55,121 102,149 35,21 75,34 116,34 z"
       transform="matrix(0.004,0,0,-0.004,29.3051,8.2053)" />
  </a>
  <rect
     style="fill:currentColor"
     id="rect46"
     ry="0.0000"
     height="0"
     width="0.13"
     y="5.6842098"
     x="16.290701" />
  <path
     style="fill:currentColor"
     id="path48"
     d="m 30.9956,5.8341099 -0.004,0.264 0,0.044 c 0,0.088 0.004,0.176 0.016,0.264 0.18,-0.152 0.372,-0.32 0.372,-0.556 0,-0.132 -0.056,-0.268 -0.172,-0.268 -0.124,0 -0.208,0.12 -0.212,0.252 z m -0.168,0.716 -0.048,-2.38 c 0.032,-0.02 0.072,-0.032 0.108,-0.032 0.036,0 0.076,0.012 0.108,0.032 l -0.028,1.38 c 0.1,-0.084 0.232,-0.136 0.364,-0.136 0.208,0 0.356,0.192 0.356,0.408 0,0.32 -0.344,0.468 -0.588,0.676 -0.06,0.052 -0.096,0.152 -0.18,0.152 -0.052,0 -0.092,-0.044 -0.092,-0.1 z" />
  <rect
     style="fill:currentColor"
     id="rect50"
     ry="0.0000"
     height="0"
     width="0.13"
     y="6.3120098"
     x="11.4384" />
  <a
     transform="translate(-13.0144,-2.7071901)"
     id="a52"
     xlink:href="textedit:///var/folders/_g/5m8jwnh13xl4zfc1dyffj2bw0000gn/T/frescobaldi-wkpy2jbp/tmpcbso81a4/lilypond_framework_examples_GenoMus.ly:13:10:11"
     style="color:inherit">
    <path
       style="fill:currentColor"
       id="path54"
       d="m 218,136 c 55,0 108,-28 108,-89 0,-71 -55,-121 -102,-149 -35,-21 -75,-34 -116,-34 -55,0 -108,28 -108,89 0,71 55,121 102,149 35,21 75,34 116,34 z"
       transform="matrix(0.004,0,0,-0.004,23.2786,9.2053)" />
  </a>
  <path
     style="fill:currentColor"
     id="path56"
     d="m 31.4516,15.24611 c 0,0.04 -0.032,0.076 -0.072,0.076 -0.04,0 -0.076,-0.036 -0.076,-0.076 l 0,-0.58 -0.332,0.124 0,0.632 c 0,0.04 -0.036,0.076 -0.076,0.076 -0.04,0 -0.072,-0.036 -0.072,-0.076 l 0,-0.58 -0.128,0.048 c -0.008,0.004 -0.02,0.004 -0.028,0.004 -0.044,0 -0.08,-0.036 -0.08,-0.08 l 0,-0.24 c 0,-0.032 0.02,-0.064 0.052,-0.076 l 0.184,-0.064 0,-0.64 -0.128,0.044 c -0.008,0.004 -0.02,0.004 -0.028,0.004 -0.044,0 -0.08,-0.036 -0.08,-0.08 l 0,-0.24 c 0,-0.032 0.02,-0.06 0.052,-0.072 l 0.184,-0.068 0,-0.632 c 0,-0.04 0.032,-0.076 0.072,-0.076 0.04,0 0.076,0.036 0.076,0.076 l 0,0.58 0.332,-0.124 0,-0.632 c 0,-0.04 0.036,-0.076 0.076,-0.076 0.04,0 0.072,0.036 0.072,0.076 l 0,0.58 0.128,-0.048 c 0.008,-0.004 0.02,-0.004 0.028,-0.004 0.044,0 0.08,0.036 0.08,0.08 l 0,0.24 c 0,0.032 -0.02,0.064 -0.052,0.076 l -0.184,0.064 0,0.64 0.128,-0.044 c 0.008,-0.004 0.02,-0.004 0.028,-0.004 0.044,0 0.08,0.036 0.08,0.08 l 0,0.24 c 0,0.032 -0.02,0.06 -0.052,0.072 l -0.184,0.068 0,0.632 z m -0.48,-1.508 0,0.64 0.332,-0.12 0,-0.64 z" />
  <a
     transform="translate(-13.0144,-2.7071901)"
     id="a58"
     xlink:href="textedit:///var/folders/_g/5m8jwnh13xl4zfc1dyffj2bw0000gn/T/frescobaldi-wkpy2jbp/tmpcbso81a4/lilypond_framework_examples_GenoMus.ly:13:27:28"
     style="color:inherit">
    <path
       style="fill:currentColor"
       id="path60"
       d="m 218,136 c 55,0 108,-28 108,-89 0,-71 -55,-121 -102,-149 -35,-21 -75,-34 -116,-34 -55,0 -108,28 -108,89 0,71 55,121 102,149 35,21 75,34 116,34 z"
       transform="matrix(0.004,0,0,-0.004,41.0641,8.7053)" />
  </a>
  <a
     transform="translate(-13.0144,-2.7071901)"
     id="a62"
     xlink:href="textedit:///var/folders/_g/5m8jwnh13xl4zfc1dyffj2bw0000gn/T/frescobaldi-wkpy2jbp/tmpcbso81a4/lilypond_framework_examples_GenoMus.ly:13:23:24"
     style="color:inherit">
    <path
       style="fill:currentColor"
       id="path64"
       d="m 218,136 c 55,0 108,-28 108,-89 0,-71 -55,-121 -102,-149 -35,-21 -75,-34 -116,-34 -55,0 -108,28 -108,89 0,71 55,121 102,149 35,21 75,34 116,34 z"
       transform="matrix(0.004,0,0,-0.004,35.3096,5.7053)" />
  </a>
  <rect
     style="fill:currentColor"
     id="rect66"
     ry="0.0000"
     height="0"
     width="0.13"
     y="3.6842098"
     x="25.297501" />
  <a
     transform="translate(-13.0144,-2.7071901)"
     id="a68"
     xlink:href="textedit:///var/folders/_g/5m8jwnh13xl4zfc1dyffj2bw0000gn/T/frescobaldi-wkpy2jbp/tmpcbso81a4/lilypond_framework_examples_GenoMus.ly:13:25:26"
     style="color:inherit">
    <path
       style="fill:currentColor"
       id="path70"
       d="m 218,136 c 55,0 108,-28 108,-89 0,-71 -55,-121 -102,-149 -35,-21 -75,-34 -116,-34 -55,0 -108,28 -108,89 0,71 55,121 102,149 35,21 75,34 116,34 z"
       transform="matrix(0.004,0,0,-0.004,38.3119,6.2053)" />
  </a>
  <path
     style="fill:currentColor"
     id="path72"
     d="m 21.2228,1.4981099 c 0.032,-0.016 0.068,-0.028 0.104,-0.028 0.036,0 0.064,0.012 0.096,0.028 l -0.008,0.732 0.424,-0.08 0.012,0 c 0.04,0 0.072,0.028 0.072,0.068 l 0.028,2.28 c -0.032,0.016 -0.064,0.028 -0.1,0.028 -0.036,0 -0.068,-0.012 -0.1,-0.028 l 0.012,-0.732 -0.424,0.08 -0.012,0 c -0.04,0 -0.072,-0.028 -0.072,-0.068 z m 0.556,1.052 -0.368,0.068 -0.012,0.828 0.368,-0.068 z" />
  <rect
     style="fill:currentColor"
     id="rect74"
     ry="0.0000"
     height="0"
     width="0.13"
     y="3.1842098"
     x="22.2952" />
  <a
     transform="translate(-13.0144,-2.7071901)"
     id="a76"
     xlink:href="textedit:///var/folders/_g/5m8jwnh13xl4zfc1dyffj2bw0000gn/T/frescobaldi-wkpy2jbp/tmpcbso81a4/lilypond_framework_examples_GenoMus.ly:13:18:19"
     style="color:inherit">
    <path
       style="fill:currentColor"
       id="path78"
       d="m 218,136 c 55,0 108,-28 108,-89 0,-71 -55,-121 -102,-149 -35,-21 -75,-34 -116,-34 -55,0 -108,28 -108,89 0,71 55,121 102,149 35,21 75,34 116,34 z"
       transform="matrix(0.004,0,0,-0.004,32.3074,5.7053)" />
  </a>
  <path
     style="fill:currentColor"
     id="path80"
     d="m 18.251,2.8341099 -0.004,0.264 0,0.044 c 0,0.088 0.004,0.176 0.016,0.264 0.18,-0.152 0.372,-0.32 0.372,-0.556 0,-0.132 -0.056,-0.268 -0.172,-0.268 -0.124,0 -0.208,0.12 -0.212,0.252 z m -0.168,0.716 -0.048,-2.38 c 0.032,-0.02 0.072,-0.032 0.108,-0.032 0.036,0 0.076,0.012 0.108,0.032 l -0.028,1.38 c 0.1,-0.084 0.232,-0.136 0.364,-0.136 0.208,0 0.356,0.192 0.356,0.408 0,0.32 -0.344,0.468 -0.588,0.676 -0.06,0.052 -0.096,0.152 -0.18,0.152 -0.052,0 -0.092,-0.044 -0.092,-0.1 z" />
  <rect
     style="fill:currentColor"
     id="rect82"
     ry="0.0000"
     height="0"
     width="0.13"
     y="3.1842098"
     x="19.292999" />
  <a
     transform="translate(-13.0144,-2.7071901)"
     id="a84"
     xlink:href="textedit:///var/folders/_g/5m8jwnh13xl4zfc1dyffj2bw0000gn/T/frescobaldi-wkpy2jbp/tmpcbso81a4/lilypond_framework_examples_GenoMus.ly:23:5:6"
     style="color:inherit">
    <path
       style="fill:currentColor"
       id="path86"
       d="m 213,112 c -50,0 -69,-43 -69,-88 0,-77 57,-136 134,-136 50,0 69,43 69,88 0,77 -57,136 -134,136 z M 491,0 c 0,-43 -34,-75 -72,-96 -53,-29 -114,-40 -174,-40 -60,0 -120,11 -173,40 -38,21 -72,53 -72,96 0,43 34,75 72,96 53,29 113,40 173,40 60,0 121,-11 174,-40 38,-21 72,-53 72,-96 z"
       transform="matrix(0.004,0,0,-0.004,32.3074,16.7053)" />
  </a>
  <path
     style="fill:currentColor"
     id="path88"
     d="m 4.24,14.49811 c 0,-0.112 0.092,-0.204 0.204,-0.204 0.112,0 0.204,0.092 0.204,0.204 0,0.112 -0.092,0.204 -0.204,0.204 -0.112,0 -0.204,-0.092 -0.204,-0.204 z m 0,-1 c 0,-0.112 0.092,-0.204 0.204,-0.204 0.112,0 0.204,0.092 0.204,0.204 0,0.112 -0.092,0.204 -0.204,0.204 -0.112,0 -0.204,-0.092 -0.204,-0.204 z m -1.3,-0.552 c 0.688,0 1.172,0.352 1.172,1.004 0,1.052 -1.052,1.656 -2.064,2.084 -0.012,0.012 -0.024,0.016 -0.036,0.016 -0.028,0 -0.052,-0.024 -0.052,-0.052 0,-0.012 0.004,-0.024 0.016,-0.036 0.808,-0.472 1.648,-1.06 1.648,-1.972 0,-0.48 -0.252,-0.94 -0.684,-0.94 -0.296,0 -0.516,0.216 -0.616,0.504 0.044,-0.02 0.088,-0.032 0.136,-0.032 0.22,0 0.4,0.18 0.4,0.4 0,0.232 -0.176,0.424 -0.4,0.424 -0.24,0 -0.448,-0.188 -0.448,-0.424 0,-0.532 0.408,-0.976 0.928,-0.976 z" />
  <path
     style="fill:currentColor"
     id="path90"
     d="m 5.97,7.8341099 -0.004,0.264 0,0.044 c 0,0.088 0.004,0.176 0.016,0.264 0.18,-0.152 0.372,-0.32 0.372,-0.556 0,-0.132 -0.056,-0.268 -0.172,-0.268 -0.124,0 -0.208,0.12 -0.212,0.252 z m -0.168,0.716 -0.048,-2.38 c 0.032,-0.02 0.072,-0.032 0.108,-0.032 0.036,0 0.076,0.012 0.108,0.032 l -0.028,1.38 c 0.1,-0.084 0.232,-0.136 0.364,-0.136 0.208,0 0.356,0.192 0.356,0.408 0,0.32 -0.344,0.468 -0.588,0.676 -0.06,0.052 -0.096,0.152 -0.18,0.152 -0.052,0 -0.092,-0.044 -0.092,-0.1 z" />
  <rect
     style="fill:currentColor"
     id="rect92"
     ry="0.0000"
     height="0"
     width="0.13"
     y="7.8120098"
     x="8.1862001" />
  <path
     style="fill:currentColor"
     id="path94"
     d="m 29.922,5.9981099 c 0.032,-0.016 0.068,-0.028 0.104,-0.028 0.036,0 0.064,0.012 0.096,0.028 l -0.008,0.732 0.424,-0.08 0.012,0 c 0.04,0 0.072,0.028 0.072,0.068 l 0.028,2.28 c -0.032,0.016 -0.064,0.028 -0.1,0.028 -0.036,0 -0.068,-0.012 -0.1,-0.028 l 0.012,-0.732 -0.424,0.08 -0.012,0 c -0.04,0 -0.072,-0.028 -0.072,-0.068 z m 0.556,1.052 -0.368,0.068 -0.012,0.828 0.368,-0.068 z" />
  <a
     transform="translate(-13.0144,-2.7071901)"
     id="a96"
     xlink:href="textedit:///var/folders/_g/5m8jwnh13xl4zfc1dyffj2bw0000gn/T/frescobaldi-wkpy2jbp/tmpcbso81a4/lilypond_framework_examples_GenoMus.ly:23:2:3"
     style="color:inherit">
    <path
       style="fill:currentColor"
       id="path98"
       d="m 213,112 c -50,0 -69,-43 -69,-88 0,-77 57,-136 134,-136 50,0 69,43 69,88 0,77 -57,136 -134,136 z M 491,0 c 0,-43 -34,-75 -72,-96 -53,-29 -114,-40 -174,-40 -60,0 -120,11 -173,40 -38,21 -72,53 -72,96 0,43 34,75 72,96 53,29 113,40 173,40 60,0 121,-11 174,-40 38,-21 72,-53 72,-96 z"
       transform="matrix(0.004,0,0,-0.004,20.0264,18.7053)" />
  </a>
  <path
     style="fill:currentColor"
     id="path100"
     d="m 3.516,5.9501099 c 0.016,0 0.036,-0.004 0.052,-0.004 0.62,0 1.024,0.512 1.024,1.044 0,0.304 -0.132,0.616 -0.428,0.84 -0.088,0.068 -0.188,0.112 -0.292,0.144 0.012,0.14 0.02,0.28 0.02,0.42 0,0.076 -0.004,0.156 -0.008,0.232 -0.028,0.48 -0.36,0.912 -0.832,0.912 -0.432,0 -0.78,-0.352 -0.78,-0.788 0,-0.232 0.212,-0.412 0.448,-0.412 0.216,0 0.38,0.188 0.38,0.412 0,0.208 -0.172,0.38 -0.38,0.38 -0.044,0 -0.084,-0.008 -0.124,-0.024 0.104,0.156 0.272,0.26 0.468,0.26 0.384,0 0.628,-0.368 0.652,-0.764 0.004,-0.072 0.008,-0.148 0.008,-0.22 0,-0.124 -0.004,-0.244 -0.016,-0.368 -0.116,0.02 -0.232,0.032 -0.356,0.032 -0.752,0 -1.332,-0.688 -1.332,-1.496 0,-0.708 0.524,-1.224 0.992,-1.764 -0.076,-0.248 -0.148,-0.5 -0.18,-0.76 -0.024,-0.208 -0.028,-0.416 -0.028,-0.624 0,-0.46 0.22,-0.896 0.596,-1.168 0.012,-0.008 0.028,-0.012 0.04,-0.012 0.016,0 0.028,0 0.04,0.012 0.284,0.336 0.532,0.98 0.532,1.432 0,0.572 -0.344,1.02 -0.72,1.456 0.084,0.272 0.156,0.552 0.224,0.828 z m 0.34,1.86 c 0.272,-0.096 0.452,-0.38 0.452,-0.656 0,-0.36 -0.264,-0.716 -0.692,-0.76 0.096,0.464 0.184,0.924 0.24,1.416 z m -1.548,-0.924 c 0,0.54 0.516,0.988 1.056,0.988 0.112,0 0.22,-0.008 0.328,-0.024 -0.056,-0.508 -0.148,-0.98 -0.252,-1.456 -0.316,0.032 -0.496,0.244 -0.496,0.476 0,0.176 0.1,0.364 0.324,0.492 0.02,0.02 0.028,0.04 0.028,0.06 0,0.044 -0.04,0.088 -0.088,0.088 -0.012,0 -0.024,-0.004 -0.036,-0.008 -0.32,-0.172 -0.468,-0.46 -0.468,-0.74 0,-0.352 0.232,-0.696 0.64,-0.788 -0.056,-0.232 -0.116,-0.468 -0.184,-0.7 -0.428,0.484 -0.852,0.972 -0.852,1.612 z m 1.336,-4.068 c -0.396,0.192 -0.648,0.596 -0.648,1.036 0,0.296 0.072,0.532 0.144,0.776 0.32,-0.388 0.584,-0.792 0.584,-1.296 0,-0.22 -0.016,-0.316 -0.08,-0.516 z" />
  <a
     transform="translate(-13.0144,-2.7071901)"
     id="a102"
     xlink:href="textedit:///var/folders/_g/5m8jwnh13xl4zfc1dyffj2bw0000gn/T/frescobaldi-wkpy2jbp/tmpcbso81a4/lilypond_framework_examples_GenoMus.ly:13:3:4"
     style="color:inherit">
    <path
       style="fill:currentColor"
       id="path104"
       d="m 218,136 c 55,0 108,-28 108,-89 0,-71 -55,-121 -102,-149 -35,-21 -75,-34 -116,-34 -55,0 -108,28 -108,89 0,71 55,121 102,149 35,21 75,34 116,34 z"
       transform="matrix(0.004,0,0,-0.004,20.0264,10.7053)" />
  </a>
  <rect
     style="fill:currentColor"
     id="rect106"
     ry="0.050000001"
     height="13.1"
     width="0.16"
     y="3.9481096"
     x="1.152" />
  <path
     style="fill:currentColor"
     id="path108"
     d="m 0.792,12.49011 c 0,1.044 -0.408,2.064 -0.408,3.06 0,0.54 0.12,1.044 0.516,1.44 0.012,0.012 0.012,0.036 0.012,0.048 0,0.036 -0.024,0.072 -0.06,0.072 -0.012,0 -0.036,-0.012 -0.048,-0.024 -0.528,-0.54 -0.708,-1.248 -0.708,-2.004 0,-1.068 0.432,-2.112 0.432,-3.12 0,-0.54 -0.132,-1.044 -0.516,-1.44 C 0,10.51011 0,10.51011 0,10.49811 c 0,-0.012 0,-0.012 0.012,-0.024 0.384,-0.396 0.516,-0.9000001 0.516,-1.4400001 0,-1.008 -0.432,-2.052 -0.432,-3.12 0,-0.756 0.18,-1.464 0.708,-2.004 0.012,-0.012 0.036,-0.024 0.048,-0.024 0.036,0 0.06,0.036 0.06,0.072 0,0.012 0,0.036 -0.012,0.048 -0.396,0.396 -0.516,0.9 -0.516,1.44 0,0.996 0.408,2.016 0.408,3.06 0,0.744 -0.18,1.452 -0.696,1.9920001 0.516,0.54 0.696,1.248 0.696,1.992 z" />
  <a
     transform="translate(-13.0144,-2.7071901)"
     id="a110"
     xlink:href="textedit:///var/folders/_g/5m8jwnh13xl4zfc1dyffj2bw0000gn/T/frescobaldi-wkpy2jbp/tmpcbso81a4/lilypond_framework_examples_GenoMus.ly:23:11:12"
     style="color:inherit">
    <path
       style="fill:currentColor"
       id="path112"
       d="m 213,112 c -50,0 -69,-43 -69,-88 0,-77 57,-136 134,-136 50,0 69,43 69,88 0,77 -57,136 -134,136 z M 491,0 c 0,-43 -34,-75 -72,-96 -53,-29 -114,-40 -174,-40 -60,0 -120,11 -173,40 -38,21 -72,53 -72,96 0,43 34,75 72,96 53,29 113,40 173,40 60,0 121,-11 174,-40 38,-21 72,-53 72,-96 z"
       transform="matrix(0.004,0,0,-0.004,45.052,16.7053)" />
  </a>
  <a
     transform="translate(-13.0144,-2.7071901)"
     id="a114"
     xlink:href="textedit:///var/folders/_g/5m8jwnh13xl4zfc1dyffj2bw0000gn/T/frescobaldi-wkpy2jbp/tmpcbso81a4/lilypond_framework_examples_GenoMus.ly:23:9:10"
     style="color:inherit">
    <path
       style="fill:currentColor"
       id="path116"
       d="m 213,112 c -50,0 -69,-43 -69,-88 0,-77 57,-136 134,-136 50,0 69,43 69,88 0,77 -57,136 -134,136 z M 491,0 c 0,-43 -34,-75 -72,-96 -53,-29 -114,-40 -174,-40 -60,0 -120,11 -173,40 -38,21 -72,53 -72,96 0,43 34,75 72,96 53,29 113,40 173,40 60,0 121,-11 174,-40 38,-21 72,-53 72,-96 z"
       transform="matrix(0.004,0,0,-0.004,45.052,17.7053)" />
  </a>
  <a
     transform="translate(-13.0144,-2.7071901)"
     id="a118"
     xlink:href="textedit:///var/folders/_g/5m8jwnh13xl4zfc1dyffj2bw0000gn/T/frescobaldi-wkpy2jbp/tmpcbso81a4/lilypond_framework_examples_GenoMus.ly:13:39:40"
     style="color:inherit">
    <path
       style="fill:currentColor"
       id="path120"
       d="m 213,112 c -50,0 -69,-43 -69,-88 0,-77 57,-136 134,-136 50,0 69,43 69,88 0,77 -57,136 -134,136 z M 491,0 c 0,-43 -34,-75 -72,-96 -53,-29 -114,-40 -174,-40 -60,0 -120,11 -173,40 -38,21 -72,53 -72,96 0,43 34,75 72,96 53,29 113,40 173,40 60,0 121,-11 174,-40 38,-21 72,-53 72,-96 z"
       transform="matrix(0.004,0,0,-0.004,45.052,8.7053)" />
  </a>
  <a
     transform="translate(-13.0144,-2.7071901)"
     id="a122"
     xlink:href="textedit:///var/folders/_g/5m8jwnh13xl4zfc1dyffj2bw0000gn/T/frescobaldi-wkpy2jbp/tmpcbso81a4/lilypond_framework_examples_GenoMus.ly:13:37:38"
     style="color:inherit">
    <path
       style="fill:currentColor"
       id="path124"
       d="m 213,112 c -50,0 -69,-43 -69,-88 0,-77 57,-136 134,-136 50,0 69,43 69,88 0,77 -57,136 -134,136 z M 491,0 c 0,-43 -34,-75 -72,-96 -53,-29 -114,-40 -174,-40 -60,0 -120,11 -173,40 -38,21 -72,53 -72,96 0,43 34,75 72,96 53,29 113,40 173,40 60,0 121,-11 174,-40 38,-21 72,-53 72,-96 z"
       transform="matrix(0.004,0,0,-0.004,46.754,9.7053)" />
  </a>
  <a
     transform="translate(-13.0144,-2.7071901)"
     id="a126"
     xlink:href="textedit:///var/folders/_g/5m8jwnh13xl4zfc1dyffj2bw0000gn/T/frescobaldi-wkpy2jbp/tmpcbso81a4/lilypond_framework_examples_GenoMus.ly:13:34:35"
     style="color:inherit">
    <path
       style="fill:currentColor"
       id="path128"
       d="m 213,112 c -50,0 -69,-43 -69,-88 0,-77 57,-136 134,-136 50,0 69,43 69,88 0,77 -57,136 -134,136 z M 491,0 c 0,-43 -34,-75 -72,-96 -53,-29 -114,-40 -174,-40 -60,0 -120,11 -173,40 -38,21 -72,53 -72,96 0,43 34,75 72,96 53,29 113,40 173,40 60,0 121,-11 174,-40 38,-21 72,-53 72,-96 z"
       transform="matrix(0.004,0,0,-0.004,45.052,10.2053)" />
  </a>
  <a
     transform="translate(-13.0144,-2.7071901)"
     id="a130"
     xlink:href="textedit:///var/folders/_g/5m8jwnh13xl4zfc1dyffj2bw0000gn/T/frescobaldi-wkpy2jbp/tmpcbso81a4/lilypond_framework_examples_GenoMus.ly:13:31:32"
     style="color:inherit">
    <path
       style="fill:currentColor"
       id="path132"
       d="m 213,112 c -50,0 -69,-43 -69,-88 0,-77 57,-136 134,-136 50,0 69,43 69,88 0,77 -57,136 -134,136 z M 491,0 c 0,-43 -34,-75 -72,-96 -53,-29 -114,-40 -174,-40 -60,0 -120,11 -173,40 -38,21 -72,53 -72,96 0,43 34,75 72,96 53,29 113,40 173,40 60,0 121,-11 174,-40 38,-21 72,-53 72,-96 z"
       transform="matrix(0.004,0,0,-0.004,45.052,11.7053)" />
  </a>
  <rect
     style="fill:currentColor"
     id="rect134"
     ry="0.0000"
     height="0"
     width="0.13"
     y="6.1842098"
     x="28.0497" />
</svg>
