<?xml version="1.0" encoding="UTF-8" standalone="no"?>
<svg
   xmlns:dc="http://purl.org/dc/elements/1.1/"
   xmlns:cc="http://creativecommons.org/ns#"
   xmlns:rdf="http://www.w3.org/1999/02/22-rdf-syntax-ns#"
   xmlns:svg="http://www.w3.org/2000/svg"
   xmlns="http://www.w3.org/2000/svg"
   xmlns:xlink="http://www.w3.org/1999/xlink"
   id="svg2"
   viewBox="0 0 26.093624 6.100862"
   height="10.721037mm"
   width="45.85429mm"
   version="1.2">
  <metadata
     id="metadata78">
    <rdf:RDF>
      <cc:Work
         rdf:about="">
        <dc:format>image/svg+xml</dc:format>
        <dc:type
           rdf:resource="http://purl.org/dc/dcmitype/StillImage" />
        <dc:title></dc:title>
      </cc:Work>
    </rdf:RDF>
  </metadata>
  <defs
     id="defs76" />
  <!-- Page: 1/1 -->
  <text
     y="-1"
     x="0.00071212446"
     style="font-size:2.20009995px;font-family:serif;text-anchor:start;fill:currentColor"
     id="text4"
     font-size="2.2001">
    <tspan
       id="tspan6" />
  </text>
  <line
     style="stroke:currentColor;stroke-width:0.1;stroke-linecap:round;stroke-linejoin:round"
     id="line8"
     y2="1"
     x2="26.042912"
     y1="1"
     x1="0.050712124" />
  <a
     transform="translate(-5.6898879,-3.8453)"
     id="a10"
     xlink:href="textedit:///var/folders/_g/5m8jwnh13xl4zfc1dyffj2bw0000gn/T/frescobaldi-lqr3xi8w/tmp0enc4osn/prolatio_examples.ly:28:2:3"
     style="color:inherit">
    <line
       style="stroke:currentColor;stroke-width:0.16;stroke-linecap:round;stroke-linejoin:round"
       id="line12"
       y2="-0.69999999"
       x2="3.3322999"
       y1="0"
       x1="3.3322999"
       transform="translate(11.4906,9.3453)" />
    <line
       style="stroke:currentColor;stroke-width:0.16;stroke-linecap:round;stroke-linejoin:round"
       id="line14"
       y2="-0.69999999"
       x2="-0.2"
       y1="0"
       x1="-0.2"
       transform="translate(11.4906,9.3453)" />
    <line
       style="stroke:currentColor;stroke-width:0.16;stroke-linecap:round;stroke-linejoin:round"
       id="line16"
       y2="0"
       x2="2.6099999"
       y1="0"
       x1="3.3322999"
       transform="translate(11.4906,9.3453)" />
    <line
       style="stroke:currentColor;stroke-width:0.16;stroke-linecap:round;stroke-linejoin:round"
       id="line18"
       y2="0"
       x2="0.72229999"
       y1="0"
       x1="-0.2"
       transform="translate(11.4906,9.3453)" />
  </a>
  <a
     transform="translate(-5.6898879,-3.8453)"
     id="a20"
     xlink:href="textedit:///var/folders/_g/5m8jwnh13xl4zfc1dyffj2bw0000gn/T/frescobaldi-lqr3xi8w/tmp0enc4osn/prolatio_examples.ly:28:27:28"
     style="color:inherit">
    <path
       style="fill:currentColor"
       id="path22"
       d="m 218,136 c 55,0 108,-28 108,-89 0,-71 -55,-121 -102,-149 -35,-21 -75,-34 -116,-34 -55,0 -108,28 -108,89 0,71 55,121 102,149 35,21 75,34 116,34 z"
       transform="matrix(0.004,0,0,-0.004,27.3766,4.8453)" />
  </a>
  <path
     style="fill:currentColor"
     id="path24"
     d="m 23.440912,0.5 c 0,-0.124 0.1,-0.224 0.224,-0.224 0.124,0 0.224,0.1 0.224,0.224 0,0.124 -0.1,0.224 -0.224,0.224 -0.124,0 -0.224,-0.1 -0.224,-0.224 z" />
  <rect
     style="fill:currentColor"
     id="rect26"
     ry="0.039999999"
     height="3.0039001"
     width="0.13"
     y="1.1861"
     x="21.686712" />
  <rect
     style="fill:currentColor"
     id="rect28"
     ry="0.039999999"
     height="3.1472001"
     width="0.13"
     y="1.1861"
     x="8.8029118" />
  <a
     transform="translate(-5.6898879,-3.8453)"
     id="a30"
     xlink:href="textedit:///var/folders/_g/5m8jwnh13xl4zfc1dyffj2bw0000gn/T/frescobaldi-lqr3xi8w/tmp0enc4osn/prolatio_examples.ly:28:21:22"
     style="color:inherit">
    <path
       style="fill:currentColor"
       id="path32"
       d="m 314,65 c 0,24 -21,41 -42,41 -4,0 -8,0 -12,-1 C 229,96 182,65 145,41 108,17 61,-12 41,-37 34,-45 31,-55 31,-65 c 0,-24 21,-41 42,-41 4,0 8,0 12,1 31,9 77,40 114,64 37,24 84,53 104,78 7,8 11,18 11,28 z m -52,71 c 46,0 82,-21 82,-71 0,-19 -4,-39 -10,-57 -12,-37 -32,-72 -64,-94 -53,-36 -113,-50 -187,-50 -46,0 -83,21 -83,71 0,19 5,39 11,57 12,37 31,72 63,94 53,36 114,50 188,50 z"
       transform="matrix(0.004,0,0,-0.004,18.6951,4.8453)" />
  </a>
  <rect
     style="fill:currentColor"
     id="rect34"
     ry="0.039999999"
     height="3.0743001"
     width="0.13"
     y="1.2590001"
     x="13.005212" />
  <a
     transform="translate(-5.6898879,-3.8453)"
     id="a36"
     xlink:href="textedit:///var/folders/_g/5m8jwnh13xl4zfc1dyffj2bw0000gn/T/frescobaldi-lqr3xi8w/tmp0enc4osn/prolatio_examples.ly:28:23:24"
     style="color:inherit">
    <path
       style="fill:currentColor"
       id="path38"
       d="m 218,136 c 55,0 108,-28 108,-89 0,-71 -55,-121 -102,-149 -35,-21 -75,-34 -116,-34 -55,0 -108,28 -108,89 0,71 55,121 102,149 35,21 75,34 116,34 z"
       transform="matrix(0.004,0,0,-0.004,24.8724,4.8453)" />
  </a>
  <rect
     style="fill:currentColor"
     id="rect40"
     ry="0.039999999"
     height="3.0039001"
     width="0.13"
     y="1.1861"
     x="19.182512" />
  <a
     transform="translate(-5.6898879,-3.8453)"
     id="a42"
     xlink:href="textedit:///var/folders/_g/5m8jwnh13xl4zfc1dyffj2bw0000gn/T/frescobaldi-lqr3xi8w/tmp0enc4osn/prolatio_examples.ly:28:25:26"
     style="color:inherit">
    <polygon
       style="fill:currentColor;stroke:currentColor;stroke-width:0.08;stroke-linecap:round;stroke-linejoin:round"
       id="polygon44"
       points="0.04,-0.2 1.125,-0.2 1.125,0.2 0.04,0.2 "
       transform="translate(24.8724,7.2253)" />
    <polygon
       style="fill:currentColor;stroke:currentColor;stroke-width:0.08;stroke-linecap:round;stroke-linejoin:round"
       id="polygon46"
       points="0.04,-0.2 2.5942,-0.2 2.5942,0.2 0.04,0.2 "
       transform="translate(24.8724,8.0353)" />
  </a>
  <a
     transform="translate(-5.6898879,-3.8453)"
     id="a48"
     xlink:href="textedit:///var/folders/_g/5m8jwnh13xl4zfc1dyffj2bw0000gn/T/frescobaldi-lqr3xi8w/tmp0enc4osn/prolatio_examples.ly:28:2:3"
     style="color:inherit">
    <text
       style="font-style:italic;font-size:1.74609995px;font-family:serif;text-anchor:start;fill:currentColor"
       id="text50"
       font-size="1.7461"
       font-style="italic"
       transform="translate(12.6128,9.9257)">
      <tspan
         style="font-style:italic;font-variant:normal;font-weight:normal;font-stretch:normal;font-family:'Times New Roman';-inkscape-font-specification:'Times New Roman,  Italic'"
         id="tspan52">3</tspan>
    </text>
  </a>
  <path
     style="fill:currentColor"
     id="path54"
     d="m 5.9307121,4.335 -0.064,0 0,-1 0.064,0 c 0.388,-0.236 0.896,-0.592 0.896,-1.036 0,-0.228 -0.06,-0.448 -0.16,-0.652 -0.012,-0.064 0.04,-0.108 0.092,-0.108 0.028,0 0.06,0.012 0.08,0.044 0.1,0.224 0.16,0.468 0.16,0.716 0,0.812 -1.068,1.224 -1.068,2.036 z" />
  <text
     y="1"
     x="-0.29928789"
     style="font-size:2.20009995px;font-family:serif;text-anchor:start;fill:currentColor"
     id="text56"
     font-size="2.2001">
    <tspan
       id="tspan58" />
  </text>
  <a
     transform="translate(-5.6898879,-3.8453)"
     id="a60"
     xlink:href="textedit:///var/folders/_g/5m8jwnh13xl4zfc1dyffj2bw0000gn/T/frescobaldi-lqr3xi8w/tmp0enc4osn/prolatio_examples.ly:28:18:19"
     style="color:inherit">
    <path
       style="fill:currentColor"
       id="path62"
       d="m 218,136 c 55,0 108,-28 108,-89 0,-71 -55,-121 -102,-149 -35,-21 -75,-34 -116,-34 -55,0 -108,28 -108,89 0,71 55,121 102,149 35,21 75,34 116,34 z"
       transform="matrix(0.004,0,0,-0.004,14.4928,4.8453)" />
  </a>
  <a
     transform="translate(-5.6898879,-3.8453)"
     id="a64"
     xlink:href="textedit:///var/folders/_g/5m8jwnh13xl4zfc1dyffj2bw0000gn/T/frescobaldi-lqr3xi8w/tmp0enc4osn/prolatio_examples.ly:28:15:16"
     style="color:inherit">
    <path
       style="fill:currentColor"
       id="path66"
       d="m 218,136 c 55,0 108,-28 108,-89 0,-71 -55,-121 -102,-149 -35,-21 -75,-34 -116,-34 -55,0 -108,28 -108,89 0,71 55,121 102,149 35,21 75,34 116,34 z"
       transform="matrix(0.004,0,0,-0.004,11.4906,4.8453)" />
  </a>
  <path
     style="fill:currentColor"
     id="path68"
     d="m 2.0907121,2 -0.368,0 c -0.024,0 -0.04,-0.016 -0.04,-0.04 l 0,-1.92 c 0,-0.024 0.016,-0.04 0.04,-0.04 l 0.368,0 c 0.024,0 0.04,0.016 0.04,0.04 l 0,1.92 c 0,0.024 -0.016,0.04 -0.04,0.04 z m -0.88,0 -0.37199998,0 c -0.024,0 -0.04,-0.016 -0.04,-0.04 l 0,-1.92 c 0,-0.024 0.016,-0.04 0.04,-0.04 L 1.2107121,0 c 0.024,0 0.04,0.016 0.04,0.04 l 0,1.92 c 0,0.024 -0.016,0.04 -0.04,0.04 z" />
  <a
     transform="translate(-5.6898879,-3.8453)"
     id="a70"
     xlink:href="textedit:///var/folders/_g/5m8jwnh13xl4zfc1dyffj2bw0000gn/T/frescobaldi-lqr3xi8w/tmp0enc4osn/prolatio_examples.ly:8:2:3"
     style="color:inherit" />
  <rect
     style="fill:currentColor"
     id="rect72"
     ry="0.039999999"
     height="3.1889"
     width="0.13"
     y="1.1861"
     x="5.8007121" />
</svg>
