<?xml version="1.0" encoding="UTF-8" standalone="no"?>
<svg
   xmlns:dc="http://purl.org/dc/elements/1.1/"
   xmlns:cc="http://creativecommons.org/ns#"
   xmlns:rdf="http://www.w3.org/1999/02/22-rdf-syntax-ns#"
   xmlns:svg="http://www.w3.org/2000/svg"
   xmlns="http://www.w3.org/2000/svg"
   xmlns:xlink="http://www.w3.org/1999/xlink"
   id="svg2"
   viewBox="0 0 43.102127 6.380837"
   height="11.213037mm"
   width="75.743309mm"
   version="1.2">
  <metadata
     id="metadata104">
    <rdf:RDF>
      <cc:Work
         rdf:about="">
        <dc:format>image/svg+xml</dc:format>
        <dc:type
           rdf:resource="http://purl.org/dc/dcmitype/StillImage" />
        <dc:title></dc:title>
      </cc:Work>
    </rdf:RDF>
  </metadata>
  <defs
     id="defs102" />
  <!-- Page: 1/1 -->
  <text
     y="-0.997325"
     x="0.00071212446"
     style="font-size:2.20009995px;font-family:serif;text-anchor:start;fill:currentColor"
     id="text4"
     font-size="2.2001">
    <tspan
       id="tspan6" />
  </text>
  <line
     style="stroke:currentColor;stroke-width:0.1;stroke-linecap:round;stroke-linejoin:round"
     id="line8"
     y2="1.232875"
     x2="43.051414"
     y1="1.232875"
     x1="0.050712124" />
  <rect
     style="fill:currentColor"
     id="rect10"
     ry="0.039999999"
     height="4.0039001"
     width="0.13"
     y="1.418975"
     x="36.295113" />
  <rect
     style="fill:currentColor"
     id="rect12"
     ry="0.039999999"
     height="3.1472001"
     width="0.13"
     y="1.418975"
     x="14.205213" />
  <a
     transform="translate(-5.6898879,-3.842625)"
     id="a14"
     xlink:href="textedit:///var/folders/_g/5m8jwnh13xl4zfc1dyffj2bw0000gn/T/frescobaldi-lqr3xi8w/tmp0enc4osn/prolatio_examples.ly:29:24:25"
     style="color:inherit">
    <path
       style="fill:currentColor"
       id="path16"
       d="m 218,136 c 55,0 108,-28 108,-89 0,-71 -55,-121 -102,-149 -35,-21 -75,-34 -116,-34 -55,0 -108,28 -108,89 0,71 55,121 102,149 35,21 75,34 116,34 z"
       transform="matrix(0.004,0,0,-0.004,19.8951,5.0755)" />
  </a>
  <rect
     style="fill:currentColor"
     id="rect18"
     ry="0.039999999"
     height="3.0039001"
     width="0.13"
     y="1.418975"
     x="10.002913" />
  <a
     transform="translate(-5.6898879,-3.842625)"
     id="a20"
     xlink:href="textedit:///var/folders/_g/5m8jwnh13xl4zfc1dyffj2bw0000gn/T/frescobaldi-lqr3xi8w/tmp0enc4osn/prolatio_examples.ly:29:20:21"
     style="color:inherit">
    <path
       style="fill:currentColor"
       id="path22"
       d="m 218,136 c 55,0 108,-28 108,-89 0,-71 -55,-121 -102,-149 -35,-21 -75,-34 -116,-34 -55,0 -108,28 -108,89 0,71 55,121 102,149 35,21 75,34 116,34 z"
       transform="matrix(0.004,0,0,-0.004,15.6928,5.0755)" />
  </a>
  <a
     transform="translate(-5.6898879,-3.842625)"
     id="a24"
     xlink:href="textedit:///var/folders/_g/5m8jwnh13xl4zfc1dyffj2bw0000gn/T/frescobaldi-lqr3xi8w/tmp0enc4osn/prolatio_examples.ly:29:18:19"
     style="color:inherit">
    <polygon
       style="fill:currentColor;stroke:currentColor;stroke-width:0.08;stroke-linecap:round;stroke-linejoin:round"
       id="polygon26"
       points="0.04,-0.2 4.2923,-0.2 4.2923,0.2 0.04,0.2 "
       transform="translate(11.4906,7.4555)" />
    <polygon
       style="fill:currentColor;stroke:currentColor;stroke-width:0.08;stroke-linecap:round;stroke-linejoin:round"
       id="polygon28"
       points="0.04,-0.2 4.2923,-0.2 4.2923,0.2 0.04,0.2 "
       transform="translate(11.4906,8.2655)" />
  </a>
  <rect
     style="fill:currentColor"
     id="rect30"
     ry="0.039999999"
     height="4.0039001"
     width="0.13"
     y="1.418975"
     x="29.384811" />
  <a
     transform="translate(-5.6898879,-3.842625)"
     id="a32"
     xlink:href="textedit:///var/folders/_g/5m8jwnh13xl4zfc1dyffj2bw0000gn/T/frescobaldi-lqr3xi8w/tmp0enc4osn/prolatio_examples.ly:29:2:3"
     style="color:inherit">
    <line
       style="stroke:currentColor;stroke-width:0.16;stroke-linecap:round;stroke-linejoin:round"
       id="line34"
       y2="-0.69999999"
       x2="8.7344999"
       y1="0"
       x1="8.7344999"
       transform="translate(11.4906,9.6055)" />
    <line
       style="stroke:currentColor;stroke-width:0.16;stroke-linecap:round;stroke-linejoin:round"
       id="line36"
       y2="-0.69999999"
       x2="-0.2"
       y1="0"
       x1="-0.2"
       transform="translate(11.4906,9.6055)" />
    <line
       style="stroke:currentColor;stroke-width:0.16;stroke-linecap:round;stroke-linejoin:round"
       id="line38"
       y2="0"
       x2="5.3111"
       y1="0"
       x1="8.7344999"
       transform="translate(11.4906,9.6055)" />
    <line
       style="stroke:currentColor;stroke-width:0.16;stroke-linecap:round;stroke-linejoin:round"
       id="line40"
       y2="0"
       x2="3.4233999"
       y1="0"
       x1="-0.2"
       transform="translate(11.4906,9.6055)" />
  </a>
  <a
     transform="translate(-5.6898879,-3.842625)"
     id="a42"
     xlink:href="textedit:///var/folders/_g/5m8jwnh13xl4zfc1dyffj2bw0000gn/T/frescobaldi-lqr3xi8w/tmp0enc4osn/prolatio_examples.ly:29:2:3"
     style="color:inherit">
    <text
       style="font-style:italic;font-size:1.74609995px;font-family:serif;text-anchor:start;fill:currentColor"
       id="text44"
       font-size="1.7461"
       font-style="italic"
       transform="translate(15.3139,10.203)">
      <tspan
         style="font-style:italic;font-variant:normal;font-weight:normal;font-stretch:normal;font-family:'Times New Roman';-inkscape-font-specification:'Times New Roman,  Italic'"
         id="tspan46">6</tspan>
    </text>
  </a>
  <a
     transform="translate(-5.6898879,-3.842625)"
     id="a48"
     xlink:href="textedit:///var/folders/_g/5m8jwnh13xl4zfc1dyffj2bw0000gn/T/frescobaldi-lqr3xi8w/tmp0enc4osn/prolatio_examples.ly:29:32:33"
     style="color:inherit">
    <polygon
       style="fill:currentColor;stroke:currentColor;stroke-width:0.08;stroke-linecap:round;stroke-linejoin:round"
       id="polygon50"
       points="0.04,-0.2 1.125,-0.2 1.125,0.2 0.04,0.2 "
       transform="translate(38.4458,6.6455)" />
    <polygon
       style="fill:currentColor;stroke:currentColor;stroke-width:0.08;stroke-linecap:round;stroke-linejoin:round"
       id="polygon52"
       points="0.04,-0.2 4.4962,-0.2 4.4962,0.2 0.04,0.2 "
       transform="translate(35.0747,7.5188)" />
    <polygon
       style="fill:currentColor;stroke:currentColor;stroke-width:0.08;stroke-linecap:round;stroke-linejoin:round"
       id="polygon54"
       points="0.04,-0.2 4.4962,-0.2 4.4962,0.2 0.04,0.2 "
       transform="translate(35.0747,8.3921)" />
    <polygon
       style="fill:currentColor;stroke:currentColor;stroke-width:0.08;stroke-linecap:round;stroke-linejoin:round"
       id="polygon56"
       points="0.04,-0.2 7.0004,-0.2 7.0004,0.2 0.04,0.2 "
       transform="translate(35.0747,9.2655)" />
  </a>
  <a
     transform="translate(-5.6898879,-3.842625)"
     id="a58"
     xlink:href="textedit:///var/folders/_g/5m8jwnh13xl4zfc1dyffj2bw0000gn/T/frescobaldi-lqr3xi8w/tmp0enc4osn/prolatio_examples.ly:29:36:37"
     style="color:inherit">
    <path
       style="fill:currentColor;stroke:currentColor;stroke-width:0.08;stroke-linecap:round;stroke-linejoin:round"
       id="path60"
       d="m 0.8521,-0.75 c 0.5068,-0.5905 1.5974,-0.5905 2.1042,0 l 0,0 c -0.5068,-0.4705 -1.5974,-0.4705 -2.1042,0 z"
       transform="translate(39.4808,5.0755)" />
  </a>
  <path
     style="fill:currentColor"
     id="path62"
     d="m 31.139012,0.732875 c 0,-0.124 0.1,-0.224 0.224,-0.224 0.124,0 0.224,0.1 0.224,0.224 0,0.124 -0.1,0.224 -0.224,0.224 -0.124,0 -0.224,-0.1 -0.224,-0.224 z" />
  <a
     transform="translate(-5.6898879,-3.842625)"
     id="a64"
     xlink:href="textedit:///var/folders/_g/5m8jwnh13xl4zfc1dyffj2bw0000gn/T/frescobaldi-lqr3xi8w/tmp0enc4osn/prolatio_examples.ly:29:29:30"
     style="color:inherit">
    <path
       style="fill:currentColor"
       id="path66"
       d="m 218,136 c 55,0 108,-28 108,-89 0,-71 -55,-121 -102,-149 -35,-21 -75,-34 -116,-34 -55,0 -108,28 -108,89 0,71 55,121 102,149 35,21 75,34 116,34 z"
       transform="matrix(0.004,0,0,-0.004,35.0747,5.0755)" />
  </a>
  <rect
     style="fill:currentColor"
     id="rect68"
     ry="0.039999999"
     height="3.0743001"
     width="0.13"
     y="1.4918751"
     x="20.807411" />
  <a
     transform="translate(-5.6898879,-3.842625)"
     id="a70"
     xlink:href="textedit:///var/folders/_g/5m8jwnh13xl4zfc1dyffj2bw0000gn/T/frescobaldi-lqr3xi8w/tmp0enc4osn/prolatio_examples.ly:29:27:28"
     style="color:inherit">
    <path
       style="fill:currentColor"
       id="path72"
       d="m 314,65 c 0,24 -21,41 -42,41 -4,0 -8,0 -12,-1 C 229,96 182,65 145,41 108,17 61,-12 41,-37 34,-45 31,-55 31,-65 c 0,-24 21,-41 42,-41 4,0 8,0 12,1 31,9 77,40 114,64 37,24 84,53 104,78 7,8 11,18 11,28 z m -52,71 c 46,0 82,-21 82,-71 0,-19 -4,-39 -10,-57 -12,-37 -32,-72 -64,-94 -53,-36 -113,-50 -187,-50 -46,0 -83,21 -83,71 0,19 5,39 11,57 12,37 31,72 63,94 53,36 114,50 188,50 z"
       transform="matrix(0.004,0,0,-0.004,26.4973,5.0755)" />
  </a>
  <path
     style="fill:currentColor"
     id="path74"
     d="m 38.049412,0.732875 c 0,-0.124 0.1,-0.224 0.224,-0.224 0.124,0 0.224,0.1 0.224,0.224 0,0.124 -0.1,0.224 -0.224,0.224 -0.124,0 -0.224,-0.1 -0.224,-0.224 z" />
  <rect
     style="fill:currentColor"
     id="rect76"
     ry="0.039999999"
     height="3.0039001"
     width="0.13"
     y="1.418975"
     x="5.8007121" />
  <a
     transform="translate(-5.6898879,-3.842625)"
     id="a78"
     xlink:href="textedit:///var/folders/_g/5m8jwnh13xl4zfc1dyffj2bw0000gn/T/frescobaldi-lqr3xi8w/tmp0enc4osn/prolatio_examples.ly:8:2:3"
     style="color:inherit" />
  <path
     style="fill:currentColor"
     id="path80"
     d="m 2.0907121,2.232875 -0.368,0 c -0.024,0 -0.04,-0.016 -0.04,-0.04 l 0,-1.92 c 0,-0.024 0.016,-0.04 0.04,-0.04 l 0.368,0 c 0.024,0 0.04,0.016 0.04,0.04 l 0,1.92 c 0,0.024 -0.016,0.04 -0.04,0.04 z m -0.88,0 -0.37199998,0 c -0.024,0 -0.04,-0.016 -0.04,-0.04 l 0,-1.92 c 0,-0.024 0.016,-0.04 0.04,-0.04 l 0.37199998,0 c 0.024,0 0.04,0.016 0.04,0.04 l 0,1.92 c 0,0.024 -0.016,0.04 -0.04,0.04 z" />
  <a
     transform="translate(-5.6898879,-3.842625)"
     id="a82"
     xlink:href="textedit:///var/folders/_g/5m8jwnh13xl4zfc1dyffj2bw0000gn/T/frescobaldi-lqr3xi8w/tmp0enc4osn/prolatio_examples.ly:29:15:16"
     style="color:inherit">
    <path
       style="fill:currentColor"
       id="path84"
       d="m 218,136 c 55,0 108,-28 108,-89 0,-71 -55,-121 -102,-149 -35,-21 -75,-34 -116,-34 -55,0 -108,28 -108,89 0,71 55,121 102,149 35,21 75,34 116,34 z"
       transform="matrix(0.004,0,0,-0.004,11.4906,5.0755)" />
  </a>
  <text
     y="1.232875"
     x="-0.29928789"
     style="font-size:2.20009995px;font-family:serif;text-anchor:start;fill:currentColor"
     id="text86"
     font-size="2.2001">
    <tspan
       id="tspan88" />
  </text>
  <rect
     style="fill:currentColor"
     id="rect90"
     ry="0.039999999"
     height="4.0039001"
     width="0.13"
     y="1.418975"
     x="33.790913" />
  <a
     transform="translate(-5.6898879,-3.842625)"
     id="a92"
     xlink:href="textedit:///var/folders/_g/5m8jwnh13xl4zfc1dyffj2bw0000gn/T/frescobaldi-lqr3xi8w/tmp0enc4osn/prolatio_examples.ly:29:38:39"
     style="color:inherit">
    <path
       style="fill:currentColor"
       id="path94"
       d="m 218,136 c 55,0 108,-28 108,-89 0,-71 -55,-121 -102,-149 -35,-21 -75,-34 -116,-34 -55,0 -108,28 -108,89 0,71 55,121 102,149 35,21 75,34 116,34 z"
       transform="matrix(0.004,0,0,-0.004,41.985,5.0755)" />
  </a>
  <a
     transform="translate(-5.6898879,-3.842625)"
     id="a96"
     xlink:href="textedit:///var/folders/_g/5m8jwnh13xl4zfc1dyffj2bw0000gn/T/frescobaldi-lqr3xi8w/tmp0enc4osn/prolatio_examples.ly:29:34:35"
     style="color:inherit">
    <path
       style="fill:currentColor"
       id="path98"
       d="m 218,136 c 55,0 108,-28 108,-89 0,-71 -55,-121 -102,-149 -35,-21 -75,-34 -116,-34 -55,0 -108,28 -108,89 0,71 55,121 102,149 35,21 75,34 116,34 z"
       transform="matrix(0.004,0,0,-0.004,39.4808,5.0755)" />
  </a>
</svg>
