<?xml version="1.0" encoding="UTF-8" standalone="no"?>
<svg
   xmlns:dc="http://purl.org/dc/elements/1.1/"
   xmlns:cc="http://creativecommons.org/ns#"
   xmlns:rdf="http://www.w3.org/1999/02/22-rdf-syntax-ns#"
   xmlns:svg="http://www.w3.org/2000/svg"
   xmlns="http://www.w3.org/2000/svg"
   xmlns:xlink="http://www.w3.org/1999/xlink"
   id="svg2"
   viewBox="0 0 16.081324 4.3333"
   height="7.6149025mm"
   width="28.259689mm"
   version="1.2">
  <metadata
     id="metadata40">
    <rdf:RDF>
      <cc:Work
         rdf:about="">
        <dc:format>image/svg+xml</dc:format>
        <dc:type
           rdf:resource="http://purl.org/dc/dcmitype/StillImage" />
        <dc:title></dc:title>
      </cc:Work>
    </rdf:RDF>
  </metadata>
  <defs
     id="defs38" />
  <!-- Page: 1/1 -->
  <text
     y="-1"
     x="0.00071212446"
     style="font-size:2.20009995px;font-family:serif;text-anchor:start;fill:currentColor"
     id="text4"
     font-size="2.2001">
    <tspan
       id="tspan6" />
  </text>
  <line
     style="stroke:currentColor;stroke-width:0.1;stroke-linecap:round;stroke-linejoin:round"
     id="line8"
     y2="1"
     x2="16.030611"
     y1="1"
     x1="0.050712124" />
  <a
     transform="translate(-5.6898879,-3.8453)"
     id="a10"
     xlink:href="textedit:///var/folders/_g/5m8jwnh13xl4zfc1dyffj2bw0000gn/T/frescobaldi-lqr3xi8w/tmp0enc4osn/prolatio_examples.ly:27:7:8"
     style="color:inherit">
    <path
       style="fill:currentColor"
       id="path12"
       d="m 218,136 c 55,0 108,-28 108,-89 0,-71 -55,-121 -102,-149 -35,-21 -75,-34 -116,-34 -55,0 -108,28 -108,89 0,71 55,121 102,149 35,21 75,34 116,34 z"
       transform="matrix(0.004,0,0,-0.004,18.7682,4.8453)" />
  </a>
  <rect
     style="fill:currentColor"
     id="rect14"
     ry="0.039999999"
     height="3.1472001"
     width="0.13"
     y="1.1861"
     x="13.078312" />
  <a
     transform="translate(-5.6898879,-3.8453)"
     id="a16"
     xlink:href="textedit:///var/folders/_g/5m8jwnh13xl4zfc1dyffj2bw0000gn/T/frescobaldi-lqr3xi8w/tmp0enc4osn/prolatio_examples.ly:27:5:6"
     style="color:inherit">
    <path
       style="fill:currentColor"
       id="path18"
       d="m 314,65 c 0,24 -21,41 -42,41 -4,0 -8,0 -12,-1 C 229,96 182,65 145,41 108,17 61,-12 41,-37 34,-45 31,-55 31,-65 c 0,-24 21,-41 42,-41 4,0 8,0 12,1 31,9 77,40 114,64 37,24 84,53 104,78 7,8 11,18 11,28 z m -52,71 c 46,0 82,-21 82,-71 0,-19 -4,-39 -10,-57 -12,-37 -32,-72 -64,-94 -53,-36 -113,-50 -187,-50 -46,0 -83,21 -83,71 0,19 5,39 11,57 12,37 31,72 63,94 53,36 114,50 188,50 z"
       transform="matrix(0.004,0,0,-0.004,14.4928,4.8453)" />
  </a>
  <rect
     style="fill:currentColor"
     id="rect20"
     ry="0.039999999"
     height="3.0743001"
     width="0.13"
     y="1.2590001"
     x="8.8029118" />
  <a
     transform="translate(-5.6898879,-3.8453)"
     id="a22"
     xlink:href="textedit:///var/folders/_g/5m8jwnh13xl4zfc1dyffj2bw0000gn/T/frescobaldi-lqr3xi8w/tmp0enc4osn/prolatio_examples.ly:27:2:3"
     style="color:inherit">
    <path
       style="fill:currentColor"
       id="path24"
       d="m 218,136 c 55,0 108,-28 108,-89 0,-71 -55,-121 -102,-149 -35,-21 -75,-34 -116,-34 -55,0 -108,28 -108,89 0,71 55,121 102,149 35,21 75,34 116,34 z"
       transform="matrix(0.004,0,0,-0.004,11.4906,4.8453)" />
  </a>
  <text
     y="1"
     x="-0.29928789"
     style="font-size:2.20009995px;font-family:serif;text-anchor:start;fill:currentColor"
     id="text26"
     font-size="2.2001">
    <tspan
       id="tspan28" />
  </text>
  <path
     style="fill:currentColor"
     id="path30"
     d="m 2.0907121,2 -0.368,0 c -0.024,0 -0.04,-0.016 -0.04,-0.04 l 0,-1.92 c 0,-0.024 0.016,-0.04 0.04,-0.04 l 0.368,0 c 0.024,0 0.04,0.016 0.04,0.04 l 0,1.92 c 0,0.024 -0.016,0.04 -0.04,0.04 z m -0.88,0 -0.37199998,0 c -0.024,0 -0.04,-0.016 -0.04,-0.04 l 0,-1.92 c 0,-0.024 0.016,-0.04 0.04,-0.04 L 1.2107121,0 c 0.024,0 0.04,0.016 0.04,0.04 l 0,1.92 c 0,0.024 -0.016,0.04 -0.04,0.04 z" />
  <a
     transform="translate(-5.6898879,-3.8453)"
     id="a32"
     xlink:href="textedit:///var/folders/_g/5m8jwnh13xl4zfc1dyffj2bw0000gn/T/frescobaldi-lqr3xi8w/tmp0enc4osn/prolatio_examples.ly:8:2:3"
     style="color:inherit" />
  <rect
     style="fill:currentColor"
     id="rect34"
     ry="0.039999999"
     height="3.1472001"
     width="0.13"
     y="1.1861"
     x="5.8007121" />
</svg>
