<?xml version="1.0" encoding="UTF-8" standalone="no"?>
<svg
   xmlns:dc="http://purl.org/dc/elements/1.1/"
   xmlns:cc="http://creativecommons.org/ns#"
   xmlns:rdf="http://www.w3.org/1999/02/22-rdf-syntax-ns#"
   xmlns:svg="http://www.w3.org/2000/svg"
   xmlns="http://www.w3.org/2000/svg"
   xmlns:xlink="http://www.w3.org/1999/xlink"
   xmlns:sodipodi="http://sodipodi.sourceforge.net/DTD/sodipodi-0.dtd"
   xmlns:inkscape="http://www.inkscape.org/namespaces/inkscape"
   id="svg2"
   viewBox="0 0 61.473682 7.572"
   height="13.306266mm"
   width="108.02762mm"
   version="1.2"
   inkscape:version="0.91 r13725"
   sodipodi:docname="mode.svg">
  <sodipodi:namedview
     pagecolor="#ffffff"
     bordercolor="#666666"
     borderopacity="1"
     objecttolerance="10"
     gridtolerance="10"
     guidetolerance="10"
     inkscape:pageopacity="0"
     inkscape:pageshadow="2"
     inkscape:window-width="1072"
     inkscape:window-height="751"
     id="namedview80"
     showgrid="false"
     inkscape:zoom="2.0847755"
     inkscape:cx="213.86615"
     inkscape:cy="-0.064172537"
     inkscape:window-x="7"
     inkscape:window-y="446"
     inkscape:window-maximized="0"
     inkscape:current-layer="svg2" />
  <metadata
     id="metadata148">
    <rdf:RDF>
      <cc:Work
         rdf:about="">
        <dc:format>image/svg+xml</dc:format>
        <dc:type
           rdf:resource="http://purl.org/dc/dcmitype/StillImage" />
        <dc:title />
      </cc:Work>
    </rdf:RDF>
  </metadata>
  <defs
     id="defs146" />
  <!-- Page: 1/1 -->
  <text
     y="-1"
     x="-8.5350103"
     style="font-size:2.20009995px;font-family:serif;text-anchor:start;fill:currentColor"
     id="text4"
     font-size="2.2001">
    <tspan
       id="tspan6" />
  </text>
  <line
     style="stroke:currentColor;stroke-width:0.06899875;stroke-linecap:round;stroke-linejoin:round"
     id="line8"
     y2="6.0436139"
     x2="29.021082"
     y1="6.0436139"
     x1="0.034990732" />
  <line
     style="stroke:currentColor;stroke-width:0.06899875;stroke-linecap:round;stroke-linejoin:round"
     id="line10"
     y2="5.0358071"
     x2="29.021082"
     y1="5.0358071"
     x1="0.034990732" />
  <line
     style="stroke:currentColor;stroke-width:0.06899875;stroke-linecap:round;stroke-linejoin:round"
     id="line12"
     y2="4.0279999"
     x2="29.021082"
     y1="4.0279999"
     x1="0.034990732" />
  <line
     style="stroke:currentColor;stroke-width:0.06899875;stroke-linecap:round;stroke-linejoin:round"
     id="line14"
     y2="3.0201929"
     x2="29.021082"
     y1="3.0201929"
     x1="0.034990732" />
  <line
     style="stroke:currentColor;stroke-width:0.06899875;stroke-linecap:round;stroke-linejoin:round"
     id="line16"
     y2="2.0123861"
     x2="29.021082"
     y1="2.0123861"
     x1="0.034990732" />
  <rect
     style="fill:currentColor"
     id="rect18"
     ry="0.1"
     height="0.2"
     width="1.9563"
     y="6.928"
     x="4.1899915" />
  <a
     transform="translate(-13.26201,-3.8453)"
     id="a20"
     xlink:href="textedit:///var/folders/_g/5m8jwnh13xl4zfc1dyffj2bw0000gn/T/frescobaldi-wkpy2jbp/tmpcbso81a4/lilypond_framework_examples_GenoMus.ly:17:2:3"
     style="color:inherit">
    <path
       style="fill:currentColor"
       id="path22"
       d="m 218,136 c 55,0 108,-28 108,-89 0,-71 -55,-121 -102,-149 -35,-21 -75,-34 -116,-34 -55,0 -108,28 -108,89 0,71 55,121 102,149 35,21 75,34 116,34 z"
       transform="matrix(0.004,0,0,-0.004,50.9643,8.8733)" />
  </a>
  <rect
     style="fill:currentColor"
     id="rect24"
     ry="0.0000"
     height="0"
     width="0.13"
     y="4.8418999"
     x="37.912891" />
  <path
     style="fill:currentColor"
     id="path26"
     d="m 37.11629,6.276 c 0,0.04 -0.032,0.076 -0.072,0.076 -0.04,0 -0.076,-0.036 -0.076,-0.076 l 0,-0.58 -0.332,0.124 0,0.632 c 0,0.04 -0.036,0.076 -0.076,0.076 -0.04,0 -0.072,-0.036 -0.072,-0.076 l 0,-0.58 -0.128,0.048 c -0.008,0.004 -0.02,0.004 -0.028,0.004 -0.044,0 -0.08,-0.036 -0.08,-0.08 l 0,-0.24 c 0,-0.032 0.02,-0.064 0.052,-0.076 l 0.184,-0.064 0,-0.64 -0.128,0.044 c -0.008,0.004 -0.02,0.004 -0.028,0.004 -0.044,0 -0.08,-0.036 -0.08,-0.08 l 0,-0.24 c 0,-0.032 0.02,-0.06 0.052,-0.072 l 0.184,-0.068 0,-0.632 c 0,-0.04 0.032,-0.076 0.072,-0.076 0.04,0 0.076,0.036 0.076,0.076 l 0,0.58 0.332,-0.124 0,-0.632 c 0,-0.04 0.036,-0.076 0.076,-0.076 0.04,0 0.072,0.036 0.072,0.076 l 0,0.58 0.128,-0.048 c 0.008,-0.004 0.02,-0.004 0.028,-0.004 0.044,0 0.08,0.036 0.08,0.08 l 0,0.24 c 0,0.032 -0.02,0.064 -0.052,0.076 l -0.184,0.064 0,0.64 0.128,-0.044 c 0.008,-0.004 0.02,-0.004 0.028,-0.004 0.044,0 0.08,0.036 0.08,0.08 l 0,0.24 c 0,0.032 -0.02,0.06 -0.052,0.072 l -0.184,0.068 0,0.632 z m -0.48,-1.508 0,0.64 0.332,-0.12 0,-0.64 z" />
  <a
     transform="translate(-10.050009,-3.8453)"
     id="a28"
     xlink:href="textedit:///var/folders/_g/5m8jwnh13xl4zfc1dyffj2bw0000gn/T/frescobaldi-wkpy2jbp/tmpcbso81a4/lilypond_framework_examples_GenoMus.ly:17:7:8"
     style="color:inherit">
    <path
       style="fill:currentColor"
       id="path30"
       d="m 218,136 c 55,0 108,-28 108,-89 0,-71 -55,-121 -102,-149 -35,-21 -75,-34 -116,-34 -55,0 -108,28 -108,89 0,71 55,121 102,149 35,21 75,34 116,34 z"
       transform="matrix(0.004,0,0,-0.004,53.9666,8.3733)"
       inkscape:connector-curvature="0" />
  </a>
  <rect
     style="fill:currentColor"
     id="rect32"
     ry="0.0000"
     height="0"
     width="0.13"
     y="4.3418999"
     x="40.915188" />
  <path
     style="fill:currentColor"
     id="path38"
     d="m 22.107189,2.528 c 0.032,-0.016 0.068,-0.028 0.104,-0.028 0.036,0 0.064,0.012 0.096,0.028 l -0.008,0.732 0.424,-0.08 0.012,0 c 0.04,0 0.072,0.028 0.072,0.068 l 0.028,2.28 c -0.032,0.016 -0.064,0.028 -0.1,0.028 -0.036,0 -0.068,-0.012 -0.1,-0.028 l 0.012,-0.732 -0.424,0.08 -0.012,0 c -0.04,0 -0.072,-0.028 -0.072,-0.068 z m 0.556,1.052 -0.368,0.068 -0.012,0.828 0.368,-0.068 z"
     inkscape:connector-curvature="0" />
  <rect
     style="fill:currentColor"
     id="rect40"
     ry="0.0000"
     height="0"
     width="0.13"
     y="4.2140999"
     x="27.67639" />
  <a
     transform="translate(-18.722412,-3.8453)"
     id="a42"
     xlink:href="textedit:///var/folders/_g/5m8jwnh13xl4zfc1dyffj2bw0000gn/T/frescobaldi-wkpy2jbp/tmpcbso81a4/lilypond_framework_examples_GenoMus.ly:16:28:29"
     style="color:inherit">
    <path
       style="fill:currentColor"
       id="path44"
       d="m 218,136 c 55,0 108,-28 108,-89 0,-71 -55,-121 -102,-149 -35,-21 -75,-34 -116,-34 -55,0 -108,28 -108,89 0,71 55,121 102,149 35,21 75,34 116,34 z"
       transform="matrix(0.004,0,0,-0.004,41.902,7.8733)"
       inkscape:connector-curvature="0" />
  </a>
  <path
     style="fill:currentColor"
     id="path46"
     d="m 25.559291,3.864 -0.004,0.264 0,0.044 c 0,0.088 0.004,0.176 0.016,0.264 0.18,-0.152 0.372,-0.32 0.372,-0.556 0,-0.132 -0.056,-0.268 -0.172,-0.268 -0.124,0 -0.208,0.12 -0.212,0.252 z m -0.168,0.716 -0.048,-2.38 c 0.032,-0.02 0.072,-0.032 0.108,-0.032 0.036,0 0.076,0.012 0.108,0.032 l -0.028,1.38 c 0.1,-0.084 0.232,-0.136 0.364,-0.136 0.208,0 0.356,0.192 0.356,0.408 0,0.32 -0.344,0.468 -0.588,0.676 -0.06,0.052 -0.096,0.152 -0.18,0.152 -0.052,0 -0.092,-0.044 -0.092,-0.1 z"
     inkscape:connector-curvature="0" />
  <a
     transform="translate(-16.474011,-3.8453)"
     id="a48"
     xlink:href="textedit:///var/folders/_g/5m8jwnh13xl4zfc1dyffj2bw0000gn/T/frescobaldi-wkpy2jbp/tmpcbso81a4/lilypond_framework_examples_GenoMus.ly:17:23:24"
     style="color:inherit">
    <path
       style="fill:currentColor"
       id="path50"
       d="m 218,136 c 55,0 108,-28 108,-89 0,-71 -55,-121 -102,-149 -35,-21 -75,-34 -116,-34 -55,0 -108,28 -108,89 0,71 55,121 102,149 35,21 75,34 116,34 z"
       transform="matrix(0.004,0,0,-0.004,72.684,5.3733)"
       inkscape:connector-curvature="0" />
  </a>
  <path
     style="fill:currentColor"
     id="path52"
     d="m 59.045791,3.276 c 0,0.04 -0.032,0.076 -0.072,0.076 -0.04,0 -0.076,-0.036 -0.076,-0.076 l 0,-0.58 -0.332,0.124 0,0.632 c 0,0.04 -0.036,0.076 -0.076,0.076 -0.04,0 -0.072,-0.036 -0.072,-0.076 l 0,-0.58 -0.128,0.048 c -0.008,0.004 -0.02,0.004 -0.028,0.004 -0.044,0 -0.08,-0.036 -0.08,-0.08 l 0,-0.24 c 0,-0.032 0.02,-0.064 0.052,-0.076 l 0.184,-0.064 0,-0.64 -0.128,0.044 c -0.008,0.004 -0.02,0.004 -0.028,0.004 -0.044,0 -0.08,-0.036 -0.08,-0.08 l 0,-0.24 c 0,-0.032 0.02,-0.06 0.052,-0.072 l 0.184,-0.068 0,-0.63199995 c 0,-0.04 0.032,-0.076 0.072,-0.076 0.04,0 0.076,0.036 0.076,0.076 l 0,0.57999995 0.332,-0.124 0,-0.63199995 c 0,-0.04 0.036,-0.076 0.076,-0.076 0.04,0 0.072,0.036 0.072,0.076 l 0,0.57999995 0.128,-0.048 c 0.008,-0.004 0.02,-0.004 0.028,-0.004 0.044,0 0.08,0.036 0.08,0.08 l 0,0.24 c 0,0.032 -0.02,0.064 -0.052,0.076 l -0.184,0.064 0,0.64 0.128,-0.044 c 0.008,-0.004 0.02,-0.004 0.028,-0.004 0.044,0 0.08,0.036 0.08,0.08 l 0,0.24 c 0,0.032 -0.02,0.06 -0.052,0.072 l -0.184,0.068 0,0.632 z m -0.48,-1.508 0,0.64 0.332,-0.12 0,-0.64 z"
     inkscape:connector-curvature="0" />
  <rect
     style="fill:currentColor"
     id="rect54"
     ry="0.0000"
     height="0"
     width="0.13"
     y="2.2141001"
     x="55.456188" />
  <a
     transform="translate(-10.050009,-3.8453)"
     id="a56"
     xlink:href="textedit:///var/folders/_g/5m8jwnh13xl4zfc1dyffj2bw0000gn/T/frescobaldi-wkpy2jbp/tmpcbso81a4/lilypond_framework_examples_GenoMus.ly:17:19:20"
     style="color:inherit">
    <path
       style="fill:currentColor"
       id="path58"
       d="m 218,136 c 55,0 108,-28 108,-89 0,-71 -55,-121 -102,-149 -35,-21 -75,-34 -116,-34 -55,0 -108,28 -108,89 0,71 55,121 102,149 35,21 75,34 116,34 z"
       transform="matrix(0.004,0,0,-0.004,69.6818,5.8733)"
       inkscape:connector-curvature="0" />
  </a>
  <rect
     style="fill:currentColor"
     id="rect60"
     ry="0.0000"
     height="0"
     width="0.13"
     y="2.7141001"
     x="52.101891" />
  <a
     transform="translate(-16.474011,-3.8453)"
     id="a62"
     xlink:href="textedit:///var/folders/_g/5m8jwnh13xl4zfc1dyffj2bw0000gn/T/frescobaldi-wkpy2jbp/tmpcbso81a4/lilypond_framework_examples_GenoMus.ly:17:17:18"
     style="color:inherit">
    <path
       style="fill:currentColor"
       id="path64"
       d="m 218,136 c 55,0 108,-28 108,-89 0,-71 -55,-121 -102,-149 -35,-21 -75,-34 -116,-34 -55,0 -108,28 -108,89 0,71 55,121 102,149 35,21 75,34 116,34 z"
       transform="matrix(0.004,0,0,-0.004,66.3275,6.3733)"
       inkscape:connector-curvature="0" />
  </a>
  <path
     style="fill:currentColor"
     id="path66"
     d="m 42.844191,3.028 c 0.032,-0.016 0.068,-0.028 0.104,-0.028 0.036,0 0.064,0.012 0.096,0.028 l -0.008,0.732 0.424,-0.08 0.012,0 c 0.04,0 0.072,0.028 0.072,0.068 l 0.028,2.28 c -0.032,0.016 -0.064,0.028 -0.1,0.028 -0.036,0 -0.068,-0.012 -0.1,-0.028 l 0.012,-0.732 -0.424,0.08 -0.012,0 c -0.04,0 -0.072,-0.028 -0.072,-0.068 z m 0.556,1.052 -0.368,0.068 -0.012,0.828 0.368,-0.068 z"
     inkscape:connector-curvature="0" />
  <rect
     style="fill:currentColor"
     id="rect68"
     ry="0.0000"
     height="0"
     width="0.13"
     y="3.2141001"
     x="49.099689" />
  <a
     transform="translate(-10.050009,-3.8453)"
     id="a70"
     xlink:href="textedit:///var/folders/_g/5m8jwnh13xl4zfc1dyffj2bw0000gn/T/frescobaldi-wkpy2jbp/tmpcbso81a4/lilypond_framework_examples_GenoMus.ly:17:15:16"
     style="color:inherit">
    <path
       style="fill:currentColor"
       id="path72"
       d="m 218,136 c 55,0 108,-28 108,-89 0,-71 -55,-121 -102,-149 -35,-21 -75,-34 -116,-34 -55,0 -108,28 -108,89 0,71 55,121 102,149 35,21 75,34 116,34 z"
       transform="matrix(0.004,0,0,-0.004,63.3253,6.8733)"
       inkscape:connector-curvature="0" />
  </a>
  <path
     style="fill:currentColor"
     id="path74"
     d="m 46.47499,4.776 c 0,0.04 -0.032,0.076 -0.072,0.076 -0.04,0 -0.076,-0.036 -0.076,-0.076 l 0,-0.58 -0.332,0.124 0,0.632 c 0,0.04 -0.036,0.076 -0.076,0.076 -0.04,0 -0.072,-0.036 -0.072,-0.076 l 0,-0.58 -0.128,0.048 c -0.008,0.004 -0.02,0.004 -0.028,0.004 -0.044,0 -0.08,-0.036 -0.08,-0.08 l 0,-0.24 c 0,-0.032 0.02,-0.064 0.052,-0.076 l 0.184,-0.064 0,-0.64 -0.128,0.044 c -0.008,0.004 -0.02,0.004 -0.028,0.004 -0.044,0 -0.08,-0.036 -0.08,-0.08 l 0,-0.24 c 0,-0.032 0.02,-0.06 0.052,-0.072 l 0.184,-0.068 0,-0.632 c 0,-0.04 0.032,-0.076 0.072,-0.076 0.04,0 0.076,0.036 0.076,0.076 l 0,0.58 0.332,-0.124 0,-0.632 c 0,-0.04 0.036,-0.076 0.076,-0.076 0.04,0 0.072,0.036 0.072,0.076 l 0,0.58 0.128,-0.048 c 0.008,-0.004 0.02,-0.004 0.028,-0.004 0.044,0 0.08,0.036 0.08,0.08 l 0,0.24 c 0,0.032 -0.02,0.064 -0.052,0.076 l -0.184,0.064 0,0.64 0.128,-0.044 c 0.008,-0.004 0.02,-0.004 0.028,-0.004 0.044,0 0.08,0.036 0.08,0.08 l 0,0.24 c 0,0.032 -0.02,0.06 -0.052,0.072 l -0.184,0.068 0,0.632 z m -0.48,-1.508 0,0.64 0.332,-0.12 0,-0.64 z" />
  <rect
     style="fill:currentColor"
     id="rect76"
     ry="0.0000"
     height="0"
     width="0.13"
     y="3.7141001"
     x="46.097389" />
  <a
     transform="translate(-13.26201,-3.8453)"
     id="a78"
     xlink:href="textedit:///var/folders/_g/5m8jwnh13xl4zfc1dyffj2bw0000gn/T/frescobaldi-wkpy2jbp/tmpcbso81a4/lilypond_framework_examples_GenoMus.ly:17:11:12"
     style="color:inherit">
    <path
       style="fill:currentColor"
       id="path80"
       d="m 218,136 c 55,0 108,-28 108,-89 0,-71 -55,-121 -102,-149 -35,-21 -75,-34 -116,-34 -55,0 -108,28 -108,89 0,71 55,121 102,149 35,21 75,34 116,34 z"
       transform="matrix(0.004,0,0,-0.004,60.323,7.3733)" />
  </a>
  <rect
     style="fill:currentColor"
     id="rect82"
     ry="0.0000"
     height="0"
     width="0.13"
     y="4.2140999"
     x="42.743191" />
  <a
     transform="translate(-16.474011,-3.8453)"
     id="a84"
     xlink:href="textedit:///var/folders/_g/5m8jwnh13xl4zfc1dyffj2bw0000gn/T/frescobaldi-wkpy2jbp/tmpcbso81a4/lilypond_framework_examples_GenoMus.ly:17:9:10"
     style="color:inherit">
    <path
       style="fill:currentColor"
       id="path86"
       d="m 218,136 c 55,0 108,-28 108,-89 0,-71 -55,-121 -102,-149 -35,-21 -75,-34 -116,-34 -55,0 -108,28 -108,89 0,71 55,121 102,149 35,21 75,34 116,34 z"
       transform="matrix(0.004,0,0,-0.004,56.9688,7.8733)"
       inkscape:connector-curvature="0" />
  </a>
  <a
     transform="translate(-15.510411,-3.8453)"
     id="a88"
     xlink:href="textedit:///var/folders/_g/5m8jwnh13xl4zfc1dyffj2bw0000gn/T/frescobaldi-wkpy2jbp/tmpcbso81a4/lilypond_framework_examples_GenoMus.ly:16:2:3"
     style="color:inherit">
    <path
       style="fill:currentColor"
       id="path90"
       d="m 218,136 c 55,0 108,-28 108,-89 0,-71 -55,-121 -102,-149 -35,-21 -75,-34 -116,-34 -55,0 -108,28 -108,89 0,71 55,121 102,149 35,21 75,34 116,34 z"
       transform="matrix(0.004,0,0,-0.004,20.0264,10.8733)" />
  </a>
  <path
     style="fill:currentColor"
     id="path92"
     d="m 9.8601903,6.364 -0.004,0.264 0,0.044 c 0,0.088 0.004,0.176 0.016,0.264 C 10.05219,6.784 10.24419,6.616 10.24419,6.38 c 0,-0.132 -0.056,-0.268 -0.172,-0.268 -0.1239997,0 -0.2079997,0.12 -0.2119997,0.252 z m -0.168,0.716 -0.048,-2.38 c 0.032,-0.02 0.072,-0.032 0.108,-0.032 0.036,0 0.076,0.012 0.108,0.032 l -0.028,1.38 c 0.1,-0.084 0.2319997,-0.136 0.3639997,-0.136 0.208,0 0.356,0.192 0.356,0.408 0,0.32 -0.344,0.468 -0.5879997,0.676 -0.06,0.052 -0.096,0.152 -0.18,0.152 -0.052,0 -0.092,-0.044 -0.092,-0.1 z"
     inkscape:connector-curvature="0" />
  <path
     style="fill:currentColor"
     id="path94"
     d="m 2.3047897,3.98 c 0.016,0 0.036,-0.004 0.052,-0.004 0.62,0 1.024,0.512 1.024,1.044 0,0.304 -0.132,0.616 -0.428,0.84 -0.088,0.068 -0.188,0.112 -0.292,0.144 0.012,0.14 0.02,0.28 0.02,0.42 0,0.076 -0.004,0.156 -0.008,0.232 -0.028,0.48 -0.36,0.912 -0.832,0.912 -0.432,0 -0.78,-0.352 -0.78,-0.788 0,-0.232 0.212,-0.412 0.448,-0.412 0.216,0 0.38,0.188 0.38,0.412 0,0.208 -0.172,0.38 -0.38,0.38 -0.044,0 -0.084,-0.008 -0.124,-0.024 0.104,0.156 0.272,0.26 0.468,0.26 0.384,0 0.628,-0.368 0.652,-0.764 0.004,-0.072 0.008,-0.148 0.008,-0.22 0,-0.124 -0.004,-0.244 -0.016,-0.368 -0.116,0.02 -0.232,0.032 -0.356,0.032 -0.752,0 -1.33200001,-0.688 -1.33200001,-1.496 0,-0.708 0.52400001,-1.224 0.99200001,-1.764 -0.076,-0.248 -0.148,-0.5 -0.18,-0.76 -0.024,-0.208 -0.028,-0.416 -0.028,-0.624 0,-0.46 0.22,-0.896 0.596,-1.168 0.012,-0.008 0.028,-0.012 0.04,-0.012 0.016,0 0.028,0 0.04,0.012 0.284,0.336 0.532,0.98 0.532,1.432 0,0.572 -0.344,1.02 -0.72,1.456 0.084,0.272 0.156,0.552 0.224,0.828 z m 0.34,1.86 c 0.272,-0.096 0.452,-0.38 0.452,-0.656 0,-0.36 -0.264,-0.716 -0.692,-0.76 0.096,0.464 0.184,0.924 0.24,1.416 z m -1.548,-0.924 c 0,0.54 0.516,0.988 1.056,0.988 0.112,0 0.22,-0.008 0.328,-0.024 -0.056,-0.508 -0.148,-0.98 -0.252,-1.456 -0.316,0.032 -0.496,0.244 -0.496,0.476 0,0.176 0.1,0.364 0.324,0.492 0.02,0.02 0.028,0.04 0.028,0.06 0,0.044 -0.04,0.088 -0.088,0.088 -0.012,0 -0.024,-0.004 -0.036,-0.008 -0.32,-0.172 -0.468,-0.46 -0.468,-0.74 0,-0.352 0.232,-0.696 0.64,-0.788 -0.056,-0.232 -0.116,-0.468 -0.184,-0.7 -0.428,0.484 -0.852,0.972 -0.852,1.612 z m 1.336,-4.068 c -0.396,0.192 -0.648,0.596 -0.648,1.036 0,0.296 0.072,0.532 0.144,0.776 0.32,-0.388 0.584,-0.792 0.584,-1.296 0,-0.22 -0.016,-0.316 -0.08,-0.516 z" />
  <a
     transform="translate(-18.722412,-3.8453)"
     id="a96"
     xlink:href="textedit:///var/folders/_g/5m8jwnh13xl4zfc1dyffj2bw0000gn/T/frescobaldi-wkpy2jbp/tmpcbso81a4/lilypond_framework_examples_GenoMus.ly:16:11:12"
     style="color:inherit">
    <path
       style="fill:currentColor"
       id="path98"
       d="m 218,136 c 55,0 108,-28 108,-89 0,-71 -55,-121 -102,-149 -35,-21 -75,-34 -116,-34 -55,0 -108,28 -108,89 0,71 55,121 102,149 35,21 75,34 116,34 z"
       transform="matrix(0.004,0,0,-0.004,26.3748,9.8733)"
       inkscape:connector-curvature="0" />
  </a>
  <rect
     style="fill:currentColor"
     id="rect100"
     ry="0.0000"
     height="0"
     width="0.13"
     y="5.8418999"
     x="13.32339" />
  <a
     transform="translate(-12.29841,-3.8453)"
     id="a102"
     xlink:href="textedit:///var/folders/_g/5m8jwnh13xl4zfc1dyffj2bw0000gn/T/frescobaldi-wkpy2jbp/tmpcbso81a4/lilypond_framework_examples_GenoMus.ly:16:24:25"
     style="color:inherit">
    <path
       style="fill:currentColor"
       id="path104"
       d="m 218,136 c 55,0 108,-28 108,-89 0,-71 -55,-121 -102,-149 -35,-21 -75,-34 -116,-34 -55,0 -108,28 -108,89 0,71 55,121 102,149 35,21 75,34 116,34 z"
       transform="matrix(0.004,0,0,-0.004,38.8997,7.8733)"
       inkscape:connector-curvature="0" />
  </a>
  <rect
     style="fill:currentColor"
     id="rect106"
     ry="0.0000"
     height="0"
     width="0.13"
     y="6.3418999"
     x="10.14919" />
  <a
     transform="translate(-12.29841,-3.8453)"
     id="a108"
     xlink:href="textedit:///var/folders/_g/5m8jwnh13xl4zfc1dyffj2bw0000gn/T/frescobaldi-wkpy2jbp/tmpcbso81a4/lilypond_framework_examples_GenoMus.ly:16:7:8"
     style="color:inherit">
    <path
       style="fill:currentColor"
       id="path110"
       d="m 218,136 c 55,0 108,-28 108,-89 0,-71 -55,-121 -102,-149 -35,-21 -75,-34 -116,-34 -55,0 -108,28 -108,89 0,71 55,121 102,149 35,21 75,34 116,34 z"
       transform="matrix(0.004,0,0,-0.004,23.2006,10.3733)"
       inkscape:connector-curvature="0" />
  </a>
  <path
     style="fill:currentColor"
     id="path112"
     d="m 55.137589,0.028 c 0.032,-0.016 0.068,-0.028 0.104,-0.028 0.036,0 0.064,0.012 0.096,0.028 l -0.008,0.732 0.424,-0.08 0.012,0 c 0.04,0 0.072,0.028 0.072,0.068 l 0.028,2.28 c -0.032,0.016 -0.064,0.028 -0.1,0.028 -0.036,0 -0.068,-0.012 -0.1,-0.028 l 0.012,-0.732 -0.424,0.08 -0.012,0 c -0.04,0 -0.072,-0.028 -0.072,-0.068 z m 0.556,1.052 -0.368,0.068 -0.012,0.828 0.368,-0.068 z"
     inkscape:connector-curvature="0" />
  <rect
     style="fill:currentColor"
     id="rect114"
     ry="0.0000"
     height="0"
     width="0.13"
     y="1.7141"
     x="58.458389" />
  <path
     style="fill:currentColor"
     id="path116"
     d="m 19.210891,4.864 -0.004,0.264 0,0.044 c 0,0.088 0.004,0.176 0.016,0.264 0.18,-0.152 0.372,-0.32 0.372,-0.556 0,-0.132 -0.056,-0.268 -0.172,-0.268 -0.124,0 -0.208,0.12 -0.212,0.252 z m -0.168,0.716 -0.048,-2.38 c 0.032,-0.02 0.072,-0.032 0.108,-0.032 0.036,0 0.076,0.012 0.108,0.032 l -0.028,1.38 c 0.1,-0.084 0.232,-0.136 0.364,-0.136 0.208,0 0.356,0.192 0.356,0.408 0,0.32 -0.344,0.468 -0.588,0.676 -0.06,0.052 -0.096,0.152 -0.18,0.152 -0.052,0 -0.092,-0.044 -0.092,-0.1 z"
     inkscape:connector-curvature="0" />
  <rect
     style="fill:currentColor"
     id="rect118"
     ry="0.0000"
     height="0"
     width="0.13"
     y="4.2140999"
     x="24.674089" />
  <path
     style="fill:currentColor"
     id="path120"
     d="m 15.961089,4.364 -0.004,0.264 0,0.044 c 0,0.088 0.004,0.176 0.016,0.264 0.18,-0.152 0.372,-0.32 0.372,-0.556 0,-0.132 -0.056,-0.268 -0.172,-0.268 -0.124,0 -0.208,0.12 -0.212,0.252 z m -0.168,0.716 -0.048,-2.38 c 0.032,-0.02 0.072,-0.032 0.108,-0.032 0.036,0 0.076,0.012 0.108,0.032 l -0.028,1.38 c 0.1,-0.084 0.232,-0.136 0.364,-0.136 0.208,0 0.356,0.192 0.356,0.408 0,0.32 -0.344,0.468 -0.588,0.676 -0.06,0.052 -0.096,0.152 -0.18,0.152 -0.052,0 -0.092,-0.044 -0.092,-0.1 z"
     inkscape:connector-curvature="0" />
  <rect
     style="fill:currentColor"
     id="rect122"
     ry="0.0000"
     height="0"
     width="0.13"
     y="4.3418999"
     x="22.674089" />
  <a
     transform="translate(-18.722412,-3.8453)"
     id="a124"
     xlink:href="textedit:///var/folders/_g/5m8jwnh13xl4zfc1dyffj2bw0000gn/T/frescobaldi-wkpy2jbp/tmpcbso81a4/lilypond_framework_examples_GenoMus.ly:16:20:21"
     style="color:inherit">
    <path
       style="fill:currentColor"
       id="path126"
       d="m 218,136 c 55,0 108,-28 108,-89 0,-71 -55,-121 -102,-149 -35,-21 -75,-34 -116,-34 -55,0 -108,28 -108,89 0,71 55,121 102,149 35,21 75,34 116,34 z"
       transform="matrix(0.004,0,0,-0.004,35.7255,8.3733)"
       inkscape:connector-curvature="0" />
  </a>
  <rect
     style="fill:currentColor"
     id="rect128"
     ry="0.0000"
     height="0"
     width="0.13"
     y="6.8418999"
     x="6.9749899" />
  <a
     transform="translate(-12.29841,-3.8453)"
     id="a130"
     xlink:href="textedit:///var/folders/_g/5m8jwnh13xl4zfc1dyffj2bw0000gn/T/frescobaldi-wkpy2jbp/tmpcbso81a4/lilypond_framework_examples_GenoMus.ly:16:16:17"
     style="color:inherit">
    <path
       style="fill:currentColor"
       id="path132"
       d="m 218,136 c 55,0 108,-28 108,-89 0,-71 -55,-121 -102,-149 -35,-21 -75,-34 -116,-34 -55,0 -108,28 -108,89 0,71 55,121 102,149 35,21 75,34 116,34 z"
       transform="matrix(0.004,0,0,-0.004,32.5513,8.8733)"
       inkscape:connector-curvature="0" />
  </a>
  <path
     style="fill:currentColor"
     id="path134"
     d="m 6.6103891,5.864 -0.004,0.264 0,0.044 c 0,0.088 0.004,0.176 0.016,0.264 0.1800003,-0.152 0.3720003,-0.32 0.3720003,-0.556 0,-0.132 -0.056,-0.268 -0.172,-0.268 -0.1240003,0 -0.2080003,0.12 -0.2120003,0.252 z m -0.168,0.716 -0.048,-2.38 c 0.032,-0.02 0.072,-0.032 0.108,-0.032 0.036,0 0.076,0.012 0.108,0.032 l -0.028,1.38 c 0.1,-0.084 0.2320003,-0.136 0.3640003,-0.136 0.208,0 0.356,0.192 0.356,0.408 0,0.32 -0.344,0.468 -0.5880003,0.676 -0.06,0.052 -0.096,0.152 -0.18,0.152 -0.052,0 -0.092,-0.044 -0.092,-0.1 z"
     inkscape:connector-curvature="0" />
  <a
     transform="translate(-15.510411,-3.8453)"
     id="a136"
     xlink:href="textedit:///var/folders/_g/5m8jwnh13xl4zfc1dyffj2bw0000gn/T/frescobaldi-wkpy2jbp/tmpcbso81a4/lilypond_framework_examples_GenoMus.ly:16:14:15"
     style="color:inherit">
    <path
       style="fill:currentColor"
       id="path138"
       d="m 218,136 c 55,0 108,-28 108,-89 0,-71 -55,-121 -102,-149 -35,-21 -75,-34 -116,-34 -55,0 -108,28 -108,89 0,71 55,121 102,149 35,21 75,34 116,34 z"
       transform="matrix(0.004,0,0,-0.004,29.3771,9.3733)" />
  </a>
  <rect
     style="fill:currentColor"
     id="rect140"
     ry="0.0000"
     height="0"
     width="0.13"
     y="5.3418999"
     x="16.325689" />
  <rect
     style="fill:currentColor"
     id="rect142"
     ry="0.0000"
     height="0"
     width="0.13"
     y="4.8418999"
     x="19.499889" />
  <line
     style="stroke:currentColor;stroke-width:0.06486259;stroke-linecap:round;stroke-linejoin:round"
     id="line8-3"
     y2="6.0431399"
     x2="61.440788"
     y1="6.0431399"
     x1="35.852154" />
  <line
     style="stroke:currentColor;stroke-width:0.06486259;stroke-linecap:round;stroke-linejoin:round"
     id="line10-0"
     y2="5.0342851"
     x2="61.440788"
     y1="5.0342851"
     x1="35.852154" />
  <line
     style="stroke:currentColor;stroke-width:0.06486259;stroke-linecap:round;stroke-linejoin:round"
     id="line12-5"
     y2="4.025435"
     x2="61.440788"
     y1="4.025435"
     x1="35.852154" />
  <line
     style="stroke:currentColor;stroke-width:0.06486259;stroke-linecap:round;stroke-linejoin:round"
     id="line14-9"
     y2="3.0165861"
     x2="61.440788"
     y1="3.0165861"
     x1="35.852154" />
  <line
     style="stroke:currentColor;stroke-width:0.06486259;stroke-linecap:round;stroke-linejoin:round"
     id="line16-4"
     y2="2.0077384"
     x2="61.440788"
     y1="2.0077384"
     x1="35.852154" />
  <g
     id="text3567"
     style="font-style:normal;font-weight:normal;font-size:6.42400122px;line-height:125%;font-family:sans-serif;letter-spacing:0px;word-spacing:0px;fill:#000000;fill-opacity:1;stroke:none;stroke-width:1px;stroke-linecap:butt;stroke-linejoin:miter;stroke-opacity:1"
     transform="translate(6.76126,0.21120538)">
    <path
       id="path3572"
       d="m 28.030227,3.6432735 0,0.2823047 -1.232731,1.2327307 -0.376406,-0.3764063 0.730855,-0.7308556 -3.82366,0 0,-0.5332423 3.82366,0 -0.730855,-0.7308556 0.376406,-0.3764063 1.232731,1.2327307 z" />
  </g>
</svg>
