<?xml version="1.0" encoding="UTF-8" standalone="no"?>
<svg
   xmlns:dc="http://purl.org/dc/elements/1.1/"
   xmlns:cc="http://creativecommons.org/ns#"
   xmlns:rdf="http://www.w3.org/1999/02/22-rdf-syntax-ns#"
   xmlns:svg="http://www.w3.org/2000/svg"
   xmlns="http://www.w3.org/2000/svg"
   xmlns:xlink="http://www.w3.org/1999/xlink"
   id="svg2"
   viewBox="0 0 60.513323 7.130862"
   height="12.531054mm"
   width="106.33998mm"
   version="1.2">
  <metadata
     id="metadata138">
    <rdf:RDF>
      <cc:Work
         rdf:about="">
        <dc:format>image/svg+xml</dc:format>
        <dc:type
           rdf:resource="http://purl.org/dc/dcmitype/StillImage" />
        <dc:title></dc:title>
      </cc:Work>
    </rdf:RDF>
  </metadata>
  <defs
     id="defs136" />
  <!-- Page: 1/1 -->
  <text
     y="-1"
     x="0.00071212446"
     style="font-size:2.20009995px;font-family:serif;text-anchor:start;fill:currentColor"
     id="text4"
     font-size="2.2001">
    <tspan
       id="tspan6" />
  </text>
  <line
     style="stroke:currentColor;stroke-width:0.1;stroke-linecap:round;stroke-linejoin:round"
     id="line8"
     y2="1"
     x2="60.462612"
     y1="1"
     x1="0.050712124" />
  <a
     transform="translate(-5.6898879,-3.8453)"
     id="a10"
     xlink:href="textedit:///var/folders/_g/5m8jwnh13xl4zfc1dyffj2bw0000gn/T/frescobaldi-b52ul3fj/tmpjsjwci68/prolatio_examples.ly:23:29:30"
     style="color:inherit">
    <path
       style="fill:currentColor"
       id="path12"
       d="m 218,136 c 55,0 108,-28 108,-89 0,-71 -55,-121 -102,-149 -35,-21 -75,-34 -116,-34 -55,0 -108,28 -108,89 0,71 55,121 102,149 35,21 75,34 116,34 z"
       transform="matrix(0.004,0,0,-0.004,28.2996,4.8453)" />
  </a>
  <a
     transform="translate(-5.6898879,-3.8453)"
     id="a14"
     xlink:href="textedit:///var/folders/_g/5m8jwnh13xl4zfc1dyffj2bw0000gn/T/frescobaldi-b52ul3fj/tmpjsjwci68/prolatio_examples.ly:23:64:65"
     style="color:inherit">
    <path
       style="fill:currentColor"
       id="path16"
       d="m 218,136 c 55,0 108,-28 108,-89 0,-71 -55,-121 -102,-149 -35,-21 -75,-34 -116,-34 -55,0 -108,28 -108,89 0,71 55,121 102,149 35,21 75,34 116,34 z"
       transform="matrix(0.004,0,0,-0.004,62.0002,4.8453)" />
  </a>
  <rect
     style="fill:currentColor"
     id="rect18"
     ry="0.039999999"
     height="3.0039001"
     width="0.13"
     y="1.1861"
     x="18.407412" />
  <a
     transform="translate(-5.6898879,-3.8453)"
     id="a20"
     xlink:href="textedit:///var/folders/_g/5m8jwnh13xl4zfc1dyffj2bw0000gn/T/frescobaldi-b52ul3fj/tmpjsjwci68/prolatio_examples.ly:23:26:27"
     style="color:inherit">
    <path
       style="fill:currentColor"
       id="path22"
       d="m 218,136 c 55,0 108,-28 108,-89 0,-71 -55,-121 -102,-149 -35,-21 -75,-34 -116,-34 -55,0 -108,28 -108,89 0,71 55,121 102,149 35,21 75,34 116,34 z"
       transform="matrix(0.004,0,0,-0.004,24.0973,4.8453)" />
  </a>
  <rect
     style="fill:currentColor"
     id="rect24"
     ry="0.039999999"
     height="3.0039001"
     width="0.13"
     y="1.1861"
     x="14.205213" />
  <a
     transform="translate(-5.6898879,-3.8453)"
     id="a26"
     xlink:href="textedit:///var/folders/_g/5m8jwnh13xl4zfc1dyffj2bw0000gn/T/frescobaldi-b52ul3fj/tmpjsjwci68/prolatio_examples.ly:23:23:24"
     style="color:inherit">
    <path
       style="fill:currentColor"
       id="path28"
       d="m 218,136 c 55,0 108,-28 108,-89 0,-71 -55,-121 -102,-149 -35,-21 -75,-34 -116,-34 -55,0 -108,28 -108,89 0,71 55,121 102,149 35,21 75,34 116,34 z"
       transform="matrix(0.004,0,0,-0.004,19.8951,4.8453)" />
  </a>
  <rect
     style="fill:currentColor"
     id="rect30"
     ry="0.039999999"
     height="3.0039001"
     width="0.13"
     y="1.1861"
     x="10.002913" />
  <a
     transform="translate(-5.6898879,-3.8453)"
     id="a32"
     xlink:href="textedit:///var/folders/_g/5m8jwnh13xl4zfc1dyffj2bw0000gn/T/frescobaldi-b52ul3fj/tmpjsjwci68/prolatio_examples.ly:23:20:21"
     style="color:inherit">
    <path
       style="fill:currentColor"
       id="path34"
       d="m 218,136 c 55,0 108,-28 108,-89 0,-71 -55,-121 -102,-149 -35,-21 -75,-34 -116,-34 -55,0 -108,28 -108,89 0,71 55,121 102,149 35,21 75,34 116,34 z"
       transform="matrix(0.004,0,0,-0.004,15.6928,4.8453)" />
  </a>
  <rect
     style="fill:currentColor"
     id="rect36"
     ry="0.039999999"
     height="4.0039001"
     width="0.13"
     y="1.1861"
     x="56.31031" />
  <a
     transform="translate(-5.6898879,-3.8453)"
     id="a38"
     xlink:href="textedit:///var/folders/_g/5m8jwnh13xl4zfc1dyffj2bw0000gn/T/frescobaldi-b52ul3fj/tmpjsjwci68/prolatio_examples.ly:23:18:19"
     style="color:inherit">
    <polygon
       style="fill:currentColor;stroke:currentColor;stroke-width:0.08;stroke-linecap:round;stroke-linejoin:round"
       id="polygon40"
       points="0.04,-0.2 12.6968,-0.2 12.6968,0.2 0.04,0.2 "
       transform="translate(11.4906,7.2253)" />
    <polygon
       style="fill:currentColor;stroke:currentColor;stroke-width:0.08;stroke-linecap:round;stroke-linejoin:round"
       id="polygon42"
       points="0.04,-0.2 16.899,-0.2 16.899,0.2 0.04,0.2 "
       transform="translate(11.4906,8.0353)" />
  </a>
  <rect
     style="fill:currentColor"
     id="rect44"
     ry="0.039999999"
     height="4.0039001"
     width="0.13"
     y="1.1861"
     x="36.589314" />
  <a
     transform="translate(-5.6898879,-3.8453)"
     id="a46"
     xlink:href="textedit:///var/folders/_g/5m8jwnh13xl4zfc1dyffj2bw0000gn/T/frescobaldi-b52ul3fj/tmpjsjwci68/prolatio_examples.ly:23:2:3"
     style="color:inherit" />
  <a
     transform="translate(-5.6898879,-3.8453)"
     id="a48"
     xlink:href="textedit:///var/folders/_g/5m8jwnh13xl4zfc1dyffj2bw0000gn/T/frescobaldi-b52ul3fj/tmpjsjwci68/prolatio_examples.ly:23:2:3"
     style="color:inherit">
    <text
       style="font-style:italic;font-size:1.74609995px;font-family:serif;text-anchor:start;fill:currentColor"
       id="text50"
       font-size="1.7461"
       font-style="italic"
       transform="translate(19.5162,9.9728)">
      <tspan
         style="font-style:italic;font-variant:normal;font-weight:normal;font-stretch:normal;font-family:'Times New Roman';-inkscape-font-specification:'Times New Roman,  Italic'"
         id="tspan52">6</tspan>
    </text>
  </a>
  <a
     transform="translate(-5.6898879,-3.8453)"
     id="a54"
     xlink:href="textedit:///var/folders/_g/5m8jwnh13xl4zfc1dyffj2bw0000gn/T/frescobaldi-b52ul3fj/tmpjsjwci68/prolatio_examples.ly:23:38:39"
     style="color:inherit">
    <polygon
       style="fill:currentColor;stroke:currentColor;stroke-width:0.08;stroke-linecap:round;stroke-linejoin:round"
       id="polygon56"
       points="0.04,-0.2 1.125,-0.2 1.125,0.2 0.04,0.2 "
       transform="translate(45.6503,6.4153)" />
    <polygon
       style="fill:currentColor;stroke:currentColor;stroke-width:0.08;stroke-linecap:round;stroke-linejoin:round"
       id="polygon58"
       points="0.04,-0.2 10.7046,-0.2 10.7046,0.2 0.04,0.2 "
       transform="translate(42.2792,7.2886)" />
    <polygon
       style="fill:currentColor;stroke:currentColor;stroke-width:0.08;stroke-linecap:round;stroke-linejoin:round"
       id="polygon60"
       points="0.04,-0.2 1.125,-0.2 1.125,0.2 0.04,0.2 "
       transform="translate(60.9652,8.1619)" />
    <polygon
       style="fill:currentColor;stroke:currentColor;stroke-width:0.08;stroke-linecap:round;stroke-linejoin:round"
       id="polygon62"
       points="0.04,-0.2 10.7046,-0.2 10.7046,0.2 0.04,0.2 "
       transform="translate(42.2792,8.1619)" />
    <polygon
       style="fill:currentColor;stroke:currentColor;stroke-width:0.08;stroke-linecap:round;stroke-linejoin:round"
       id="polygon64"
       points="0.04,-0.2 19.8111,-0.2 19.8111,0.2 0.04,0.2 "
       transform="translate(42.2792,9.0353)" />
  </a>
  <a
     transform="translate(-5.6898879,-3.8453)"
     id="a66"
     xlink:href="textedit:///var/folders/_g/5m8jwnh13xl4zfc1dyffj2bw0000gn/T/frescobaldi-b52ul3fj/tmpjsjwci68/prolatio_examples.ly:23:49:50"
     style="color:inherit">
    <line
       style="stroke:currentColor;stroke-width:0.16;stroke-linecap:round;stroke-linejoin:round"
       id="line68"
       y2="-0.69999999"
       x2="5.7322998"
       y1="0"
       x1="5.7322998"
       transform="translate(56.598,10.3753)" />
    <line
       style="stroke:currentColor;stroke-width:0.16;stroke-linecap:round;stroke-linejoin:round"
       id="line70"
       y2="-0.69999999"
       x2="-0.2"
       y1="0"
       x1="-0.2"
       transform="translate(56.598,10.3753)" />
    <line
       style="stroke:currentColor;stroke-width:0.16;stroke-linecap:round;stroke-linejoin:round"
       id="line72"
       y2="0"
       x2="3.8099999"
       y1="0"
       x1="5.7322998"
       transform="translate(56.598,10.3753)" />
    <line
       style="stroke:currentColor;stroke-width:0.16;stroke-linecap:round;stroke-linejoin:round"
       id="line74"
       y2="0"
       x2="1.9223"
       y1="0"
       x1="-0.2"
       transform="translate(56.598,10.3753)" />
  </a>
  <a
     transform="translate(-5.6898879,-3.8453)"
     id="a76"
     xlink:href="textedit:///var/folders/_g/5m8jwnh13xl4zfc1dyffj2bw0000gn/T/frescobaldi-b52ul3fj/tmpjsjwci68/prolatio_examples.ly:23:49:50"
     style="color:inherit">
    <text
       style="font-style:italic;font-size:1.74609995px;font-family:serif;text-anchor:start;fill:currentColor"
       id="text78"
       font-size="1.7461"
       font-style="italic"
       transform="translate(58.9203,10.9557)">
      <tspan
         style="font-style:italic;font-variant:normal;font-weight:normal;font-stretch:normal;font-family:'Times New Roman';-inkscape-font-specification:'Times New Roman,  Italic'"
         id="tspan80">3</tspan>
    </text>
  </a>
  <a
     transform="translate(-5.6898879,-3.8453)"
     id="a82"
     xlink:href="textedit:///var/folders/_g/5m8jwnh13xl4zfc1dyffj2bw0000gn/T/frescobaldi-b52ul3fj/tmpjsjwci68/prolatio_examples.ly:23:40:41"
     style="color:inherit">
    <path
       style="fill:currentColor"
       id="path84"
       d="m 218,136 c 55,0 108,-28 108,-89 0,-71 -55,-121 -102,-149 -35,-21 -75,-34 -116,-34 -55,0 -108,28 -108,89 0,71 55,121 102,149 35,21 75,34 116,34 z"
       transform="matrix(0.004,0,0,-0.004,46.6853,4.8453)" />
  </a>
  <rect
     style="fill:currentColor"
     id="rect86"
     ry="0.039999999"
     height="3.0039001"
     width="0.13"
     y="1.1861"
     x="22.609713" />
  <path
     style="fill:currentColor"
     id="path88"
     d="m 38.343512,0.5 c 0,-0.124 0.1,-0.224 0.224,-0.224 0.124,0 0.224,0.1 0.224,0.224 0,0.124 -0.1,0.224 -0.224,0.224 -0.124,0 -0.224,-0.1 -0.224,-0.224 z" />
  <a
     transform="translate(-5.6898879,-3.8453)"
     id="a90"
     xlink:href="textedit:///var/folders/_g/5m8jwnh13xl4zfc1dyffj2bw0000gn/T/frescobaldi-b52ul3fj/tmpjsjwci68/prolatio_examples.ly:23:35:36"
     style="color:inherit">
    <path
       style="fill:currentColor"
       id="path92"
       d="m 218,136 c 55,0 108,-28 108,-89 0,-71 -55,-121 -102,-149 -35,-21 -75,-34 -116,-34 -55,0 -108,28 -108,89 0,71 55,121 102,149 35,21 75,34 116,34 z"
       transform="matrix(0.004,0,0,-0.004,42.2792,4.8453)" />
  </a>
  <rect
     style="fill:currentColor"
     id="rect94"
     ry="0.039999999"
     height="3.0743001"
     width="0.13"
     y="1.2590001"
     x="28.011911" />
  <a
     transform="translate(-5.6898879,-3.8453)"
     id="a96"
     xlink:href="textedit:///var/folders/_g/5m8jwnh13xl4zfc1dyffj2bw0000gn/T/frescobaldi-b52ul3fj/tmpjsjwci68/prolatio_examples.ly:23:33:34"
     style="color:inherit">
    <path
       style="fill:currentColor"
       id="path98"
       d="m 314,65 c 0,24 -21,41 -42,41 -4,0 -8,0 -12,-1 C 229,96 182,65 145,41 108,17 61,-12 41,-37 34,-45 31,-55 31,-65 c 0,-24 21,-41 42,-41 4,0 8,0 12,1 31,9 77,40 114,64 37,24 84,53 104,78 7,8 11,18 11,28 z m -52,71 c 46,0 82,-21 82,-71 0,-19 -4,-39 -10,-57 -12,-37 -32,-72 -64,-94 -53,-36 -113,-50 -187,-50 -46,0 -83,21 -83,71 0,19 5,39 11,57 12,37 31,72 63,94 53,36 114,50 188,50 z"
       transform="matrix(0.004,0,0,-0.004,33.7018,4.8453)" />
  </a>
  <rect
     style="fill:currentColor"
     id="rect100"
     ry="0.039999999"
     height="4.0039001"
     width="0.13"
     y="1.1861"
     x="40.995411" />
  <rect
     style="fill:currentColor"
     id="rect102"
     ry="0.039999999"
     height="3.0039001"
     width="0.13"
     y="1.1861"
     x="5.8007121" />
  <a
     transform="translate(-5.6898879,-3.8453)"
     id="a104"
     xlink:href="textedit:///var/folders/_g/5m8jwnh13xl4zfc1dyffj2bw0000gn/T/frescobaldi-b52ul3fj/tmpjsjwci68/prolatio_examples.ly:8:2:3"
     style="color:inherit" />
  <path
     style="fill:currentColor"
     id="path106"
     d="m 2.0907121,2 -0.368,0 c -0.024,0 -0.04,-0.016 -0.04,-0.04 l 0,-1.92 c 0,-0.024 0.016,-0.04 0.04,-0.04 l 0.368,0 c 0.024,0 0.04,0.016 0.04,0.04 l 0,1.92 c 0,0.024 -0.016,0.04 -0.04,0.04 z m -0.88,0 -0.37199998,0 c -0.024,0 -0.04,-0.016 -0.04,-0.04 l 0,-1.92 c 0,-0.024 0.016,-0.04 0.04,-0.04 L 1.2107121,0 c 0.024,0 0.04,0.016 0.04,0.04 l 0,1.92 c 0,0.024 -0.016,0.04 -0.04,0.04 z" />
  <a
     transform="translate(-5.6898879,-3.8453)"
     id="a108"
     xlink:href="textedit:///var/folders/_g/5m8jwnh13xl4zfc1dyffj2bw0000gn/T/frescobaldi-b52ul3fj/tmpjsjwci68/prolatio_examples.ly:23:15:16"
     style="color:inherit">
    <path
       style="fill:currentColor"
       id="path110"
       d="m 218,136 c 55,0 108,-28 108,-89 0,-71 -55,-121 -102,-149 -35,-21 -75,-34 -116,-34 -55,0 -108,28 -108,89 0,71 55,121 102,149 35,21 75,34 116,34 z"
       transform="matrix(0.004,0,0,-0.004,11.4906,4.8453)" />
  </a>
  <text
     y="1"
     x="-0.29928789"
     style="font-size:2.20009995px;font-family:serif;text-anchor:start;fill:currentColor"
     id="text112"
     font-size="2.2001">
    <tspan
       id="tspan114" />
  </text>
  <rect
     style="fill:currentColor"
     id="rect116"
     ry="0.039999999"
     height="4.0039001"
     width="0.13"
     y="1.1861"
     x="47.203911" />
  <a
     transform="translate(-5.6898879,-3.8453)"
     id="a118"
     xlink:href="textedit:///var/folders/_g/5m8jwnh13xl4zfc1dyffj2bw0000gn/T/frescobaldi-b52ul3fj/tmpjsjwci68/prolatio_examples.ly:23:62:63"
     style="color:inherit">
    <path
       style="fill:currentColor"
       id="path120"
       d="m 218,136 c 55,0 108,-28 108,-89 0,-71 -55,-121 -102,-149 -35,-21 -75,-34 -116,-34 -55,0 -108,28 -108,89 0,71 55,121 102,149 35,21 75,34 116,34 z"
       transform="matrix(0.004,0,0,-0.004,56.598,4.8453)" />
  </a>
  <a
     transform="translate(-5.6898879,-3.8453)"
     id="a122"
     xlink:href="textedit:///var/folders/_g/5m8jwnh13xl4zfc1dyffj2bw0000gn/T/frescobaldi-b52ul3fj/tmpjsjwci68/prolatio_examples.ly:23:46:47"
     style="color:inherit">
    <path
       style="fill:currentColor"
       id="path124"
       d="m 218,136 c 55,0 108,-28 108,-89 0,-71 -55,-121 -102,-149 -35,-21 -75,-34 -116,-34 -55,0 -108,28 -108,89 0,71 55,121 102,149 35,21 75,34 116,34 z"
       transform="matrix(0.004,0,0,-0.004,52.8938,4.8453)" />
  </a>
  <rect
     style="fill:currentColor"
     id="rect126"
     ry="0.039999999"
     height="4.0039001"
     width="0.13"
     y="1.1861"
     x="50.908112" />
  <rect
     style="fill:currentColor"
     id="rect128"
     ry="0.039999999"
     height="4.0039001"
     width="0.13"
     y="1.1861"
     x="43.499714" />
  <a
     transform="translate(-5.6898879,-3.8453)"
     id="a130"
     xlink:href="textedit:///var/folders/_g/5m8jwnh13xl4zfc1dyffj2bw0000gn/T/frescobaldi-b52ul3fj/tmpjsjwci68/prolatio_examples.ly:23:43:44"
     style="color:inherit">
    <path
       style="fill:currentColor"
       id="path132"
       d="m 218,136 c 55,0 108,-28 108,-89 0,-71 -55,-121 -102,-149 -35,-21 -75,-34 -116,-34 -55,0 -108,28 -108,89 0,71 55,121 102,149 35,21 75,34 116,34 z"
       transform="matrix(0.004,0,0,-0.004,49.1896,4.8453)" />
  </a>
</svg>
