<?xml version="1.0" encoding="UTF-8" standalone="no"?>
<svg
   xmlns:dc="http://purl.org/dc/elements/1.1/"
   xmlns:cc="http://creativecommons.org/ns#"
   xmlns:rdf="http://www.w3.org/1999/02/22-rdf-syntax-ns#"
   xmlns:svg="http://www.w3.org/2000/svg"
   xmlns="http://www.w3.org/2000/svg"
   xmlns:xlink="http://www.w3.org/1999/xlink"
   id="svg2"
   viewBox="0 0 41.702725 6.445125"
   height="11.32601mm"
   width="73.284142mm"
   version="1.2">
  <metadata
     id="metadata114">
    <rdf:RDF>
      <cc:Work
         rdf:about="">
        <dc:format>image/svg+xml</dc:format>
        <dc:type
           rdf:resource="http://purl.org/dc/dcmitype/StillImage" />
        <dc:title></dc:title>
      </cc:Work>
    </rdf:RDF>
  </metadata>
  <defs
     id="defs112" />
  <!-- Page: 1/1 -->
  <text
     y="-1"
     x="0.00071212446"
     style="font-size:2.20009995px;font-family:serif;text-anchor:start;fill:currentColor"
     id="text4"
     font-size="2.2001">
    <tspan
       id="tspan6" />
  </text>
  <line
     style="stroke:currentColor;stroke-width:0.1;stroke-linecap:round;stroke-linejoin:round"
     id="line8"
     y2="1"
     x2="41.652012"
     y1="1"
     x1="0.050712124" />
  <rect
     style="fill:currentColor"
     id="rect10"
     ry="0.039999999"
     height="2.8139"
     width="0.13"
     y="1.1861"
     x="14.205213" />
  <a
     transform="translate(-5.6898879,-3.8453)"
     id="a12"
     xlink:href="textedit:///var/folders/_g/5m8jwnh13xl4zfc1dyffj2bw0000gn/T/frescobaldi-b52ul3fj/tmpjsjwci68/prolatio_examples.ly:23:22:23"
     style="color:inherit">
    <path
       style="fill:currentColor"
       id="path14"
       d="m 218,136 c 55,0 108,-28 108,-89 0,-71 -55,-121 -102,-149 -35,-21 -75,-34 -116,-34 -55,0 -108,28 -108,89 0,71 55,121 102,149 35,21 75,34 116,34 z"
       transform="matrix(0.004,0,0,-0.004,19.8951,4.8453)" />
  </a>
  <rect
     style="fill:currentColor"
     id="rect16"
     ry="0.039999999"
     height="2.8139"
     width="0.13"
     y="1.1861"
     x="10.002913" />
  <a
     transform="translate(-5.6898879,-3.8453)"
     id="a18"
     xlink:href="textedit:///var/folders/_g/5m8jwnh13xl4zfc1dyffj2bw0000gn/T/frescobaldi-b52ul3fj/tmpjsjwci68/prolatio_examples.ly:23:20:21"
     style="color:inherit">
    <path
       style="fill:currentColor"
       id="path20"
       d="m 218,136 c 55,0 108,-28 108,-89 0,-71 -55,-121 -102,-149 -35,-21 -75,-34 -116,-34 -55,0 -108,28 -108,89 0,71 55,121 102,149 35,21 75,34 116,34 z"
       transform="matrix(0.004,0,0,-0.004,15.6928,4.8453)" />
  </a>
  <rect
     style="fill:currentColor"
     id="rect22"
     ry="0.039999999"
     height="3.3139"
     width="0.13"
     y="1.1861"
     x="38.699711" />
  <a
     transform="translate(-5.6898879,-3.8453)"
     id="a24"
     xlink:href="textedit:///var/folders/_g/5m8jwnh13xl4zfc1dyffj2bw0000gn/T/frescobaldi-b52ul3fj/tmpjsjwci68/prolatio_examples.ly:23:53:54"
     style="color:inherit">
    <path
       style="fill:currentColor"
       id="path26"
       d="m 218,136 c 55,0 108,-28 108,-89 0,-71 -55,-121 -102,-149 -35,-21 -75,-34 -116,-34 -55,0 -108,28 -108,89 0,71 55,121 102,149 35,21 75,34 116,34 z"
       transform="matrix(0.004,0,0,-0.004,44.3896,4.8453)" />
  </a>
  <a
     transform="translate(-5.6898879,-3.8453)"
     id="a28"
     xlink:href="textedit:///var/folders/_g/5m8jwnh13xl4zfc1dyffj2bw0000gn/T/frescobaldi-b52ul3fj/tmpjsjwci68/prolatio_examples.ly:23:18:19"
     style="color:inherit">
    <polygon
       style="fill:currentColor;stroke:currentColor;stroke-width:0.08;stroke-linecap:round;stroke-linejoin:round"
       id="polygon30"
       points="0.04,-0.2 8.4945,-0.2 8.4945,0.2 0.04,0.2 "
       transform="translate(11.4906,7.8453)" />
  </a>
  <a
     transform="translate(-5.6898879,-3.8453)"
     id="a32"
     xlink:href="textedit:///var/folders/_g/5m8jwnh13xl4zfc1dyffj2bw0000gn/T/frescobaldi-b52ul3fj/tmpjsjwci68/prolatio_examples.ly:23:2:3"
     style="color:inherit" />
  <a
     transform="translate(-5.6898879,-3.8453)"
     id="a34"
     xlink:href="textedit:///var/folders/_g/5m8jwnh13xl4zfc1dyffj2bw0000gn/T/frescobaldi-b52ul3fj/tmpjsjwci68/prolatio_examples.ly:23:2:3"
     style="color:inherit">
    <text
       style="font-style:italic;font-size:1.74609995px;font-family:serif;text-anchor:start;fill:currentColor"
       id="text36"
       font-size="1.7461"
       font-style="italic"
       transform="translate(15.3139,9.7657)">
      <tspan
         id="tspan38">3</tspan>
    </text>
  </a>
  <a
     transform="translate(-5.6898879,-3.8453)"
     id="a40"
     xlink:href="textedit:///var/folders/_g/5m8jwnh13xl4zfc1dyffj2bw0000gn/T/frescobaldi-b52ul3fj/tmpjsjwci68/prolatio_examples.ly:23:30:31"
     style="color:inherit">
    <polygon
       style="fill:currentColor;stroke:currentColor;stroke-width:0.08;stroke-linecap:round;stroke-linejoin:round"
       id="polygon42"
       points="0.04,-0.2 2.5942,-0.2 2.5942,0.2 0.04,0.2 "
       transform="translate(35.1789,6.7253)" />
    <polygon
       style="fill:currentColor;stroke:currentColor;stroke-width:0.08;stroke-linecap:round;stroke-linejoin:round"
       id="polygon44"
       points="0.04,-0.2 1.125,-0.2 1.125,0.2 0.04,0.2 "
       transform="translate(43.3546,7.5353)" />
    <polygon
       style="fill:currentColor;stroke:currentColor;stroke-width:0.08;stroke-linecap:round;stroke-linejoin:round"
       id="polygon46"
       points="0.04,-0.2 6.2984,-0.2 6.2984,0.2 0.04,0.2 "
       transform="translate(31.4747,7.5353)" />
    <polygon
       style="fill:currentColor;stroke:currentColor;stroke-width:0.08;stroke-linecap:round;stroke-linejoin:round"
       id="polygon48"
       points="0.04,-0.2 13.0049,-0.2 13.0049,0.2 0.04,0.2 "
       transform="translate(31.4747,8.3453)" />
  </a>
  <a
     transform="translate(-5.6898879,-3.8453)"
     id="a50"
     xlink:href="textedit:///var/folders/_g/5m8jwnh13xl4zfc1dyffj2bw0000gn/T/frescobaldi-b52ul3fj/tmpjsjwci68/prolatio_examples.ly:23:38:39"
     style="color:inherit">
    <line
       style="stroke:currentColor;stroke-width:0.16;stroke-linecap:round;stroke-linejoin:round"
       id="line52"
       y2="-0.69999999"
       x2="4.5323"
       y1="0"
       x1="4.5323"
       transform="translate(40.1873,9.6853)" />
    <line
       style="stroke:currentColor;stroke-width:0.16;stroke-linecap:round;stroke-linejoin:round"
       id="line54"
       y2="-0.69999999"
       x2="-0.2"
       y1="0"
       x1="-0.2"
       transform="translate(40.1873,9.6853)" />
    <line
       style="stroke:currentColor;stroke-width:0.16;stroke-linecap:round;stroke-linejoin:round"
       id="line56"
       y2="0"
       x2="3.21"
       y1="0"
       x1="4.5323"
       transform="translate(40.1873,9.6853)" />
    <line
       style="stroke:currentColor;stroke-width:0.16;stroke-linecap:round;stroke-linejoin:round"
       id="line58"
       y2="0"
       x2="1.3223"
       y1="0"
       x1="-0.2"
       transform="translate(40.1873,9.6853)" />
  </a>
  <a
     transform="translate(-5.6898879,-3.8453)"
     id="a60"
     xlink:href="textedit:///var/folders/_g/5m8jwnh13xl4zfc1dyffj2bw0000gn/T/frescobaldi-b52ul3fj/tmpjsjwci68/prolatio_examples.ly:23:38:39"
     style="color:inherit">
    <text
       style="font-style:italic;font-size:1.74609995px;font-family:serif;text-anchor:start;fill:currentColor"
       id="text62"
       font-size="1.7461"
       font-style="italic"
       transform="translate(41.9096,10.2657)">
      <tspan
         id="tspan64">3</tspan>
    </text>
  </a>
  <rect
     style="fill:currentColor"
     id="rect66"
     ry="0.039999999"
     height="3.3139"
     width="0.13"
     y="1.1861"
     x="29.489012" />
  <a
     transform="translate(-5.6898879,-3.8453)"
     id="a68"
     xlink:href="textedit:///var/folders/_g/5m8jwnh13xl4zfc1dyffj2bw0000gn/T/frescobaldi-b52ul3fj/tmpjsjwci68/prolatio_examples.ly:23:32:33"
     style="color:inherit">
    <path
       style="fill:currentColor"
       id="path70"
       d="m 218,136 c 55,0 108,-28 108,-89 0,-71 -55,-121 -102,-149 -35,-21 -75,-34 -116,-34 -55,0 -108,28 -108,89 0,71 55,121 102,149 35,21 75,34 116,34 z"
       transform="matrix(0.004,0,0,-0.004,35.1789,4.8453)" />
  </a>
  <a
     transform="translate(-5.6898879,-3.8453)"
     id="a72"
     xlink:href="textedit:///var/folders/_g/5m8jwnh13xl4zfc1dyffj2bw0000gn/T/frescobaldi-b52ul3fj/tmpjsjwci68/prolatio_examples.ly:23:26:27"
     style="color:inherit">
    <path
       style="fill:currentColor"
       id="path74"
       d="m 314,65 c 0,24 -21,41 -42,41 -4,0 -8,0 -12,-1 C 229,96 182,65 145,41 108,17 61,-12 41,-37 34,-45 31,-55 31,-65 c 0,-24 21,-41 42,-41 4,0 8,0 12,1 31,9 77,40 114,64 37,24 84,53 104,78 7,8 11,18 11,28 z m -52,71 c 46,0 82,-21 82,-71 0,-19 -4,-39 -10,-57 -12,-37 -32,-72 -64,-94 -53,-36 -113,-50 -187,-50 -46,0 -83,21 -83,71 0,19 5,39 11,57 12,37 31,72 63,94 53,36 114,50 188,50 z"
       transform="matrix(0.004,0,0,-0.004,24.0973,4.8453)" />
  </a>
  <rect
     style="fill:currentColor"
     id="rect76"
     ry="0.039999999"
     height="3.3139"
     width="0.13"
     y="1.1861"
     x="25.784813" />
  <a
     transform="translate(-5.6898879,-3.8453)"
     id="a78"
     xlink:href="textedit:///var/folders/_g/5m8jwnh13xl4zfc1dyffj2bw0000gn/T/frescobaldi-b52ul3fj/tmpjsjwci68/prolatio_examples.ly:23:28:29"
     style="color:inherit">
    <path
       style="fill:currentColor"
       id="path80"
       d="m 218,136 c 55,0 108,-28 108,-89 0,-71 -55,-121 -102,-149 -35,-21 -75,-34 -116,-34 -55,0 -108,28 -108,89 0,71 55,121 102,149 35,21 75,34 116,34 z"
       transform="matrix(0.004,0,0,-0.004,31.4747,4.8453)" />
  </a>
  <rect
     style="fill:currentColor"
     id="rect82"
     ry="0.039999999"
     height="3.0743001"
     width="0.13"
     y="1.2590001"
     x="18.407412" />
  <rect
     style="fill:currentColor"
     id="rect84"
     ry="0.039999999"
     height="2.8139"
     width="0.13"
     y="1.1861"
     x="5.8007121" />
  <a
     transform="translate(-5.6898879,-3.8453)"
     id="a86"
     xlink:href="textedit:///var/folders/_g/5m8jwnh13xl4zfc1dyffj2bw0000gn/T/frescobaldi-b52ul3fj/tmpjsjwci68/prolatio_examples.ly:8:2:3"
     style="color:inherit" />
  <path
     style="fill:currentColor"
     id="path88"
     d="m 2.0907121,2 -0.368,0 c -0.024,0 -0.04,-0.016 -0.04,-0.04 l 0,-1.92 c 0,-0.024 0.016,-0.04 0.04,-0.04 l 0.368,0 c 0.024,0 0.04,0.016 0.04,0.04 l 0,1.92 c 0,0.024 -0.016,0.04 -0.04,0.04 z m -0.88,0 -0.37199998,0 c -0.024,0 -0.04,-0.016 -0.04,-0.04 l 0,-1.92 c 0,-0.024 0.016,-0.04 0.04,-0.04 L 1.2107121,0 c 0.024,0 0.04,0.016 0.04,0.04 l 0,1.92 c 0,0.024 -0.016,0.04 -0.04,0.04 z" />
  <a
     transform="translate(-5.6898879,-3.8453)"
     id="a90"
     xlink:href="textedit:///var/folders/_g/5m8jwnh13xl4zfc1dyffj2bw0000gn/T/frescobaldi-b52ul3fj/tmpjsjwci68/prolatio_examples.ly:23:15:16"
     style="color:inherit">
    <path
       style="fill:currentColor"
       id="path92"
       d="m 218,136 c 55,0 108,-28 108,-89 0,-71 -55,-121 -102,-149 -35,-21 -75,-34 -116,-34 -55,0 -108,28 -108,89 0,71 55,121 102,149 35,21 75,34 116,34 z"
       transform="matrix(0.004,0,0,-0.004,11.4906,4.8453)" />
  </a>
  <text
     y="1"
     x="-0.29928789"
     style="font-size:2.20009995px;font-family:serif;text-anchor:start;fill:currentColor"
     id="text94"
     font-size="2.2001">
    <tspan
       id="tspan96" />
  </text>
  <rect
     style="fill:currentColor"
     id="rect98"
     ry="0.039999999"
     height="3.3139"
     width="0.13"
     y="1.1861"
     x="34.497414" />
  <a
     transform="translate(-5.6898879,-3.8453)"
     id="a100"
     xlink:href="textedit:///var/folders/_g/5m8jwnh13xl4zfc1dyffj2bw0000gn/T/frescobaldi-b52ul3fj/tmpjsjwci68/prolatio_examples.ly:23:51:52"
     style="color:inherit">
    <path
       style="fill:currentColor"
       id="path102"
       d="m 218,136 c 55,0 108,-28 108,-89 0,-71 -55,-121 -102,-149 -35,-21 -75,-34 -116,-34 -55,0 -108,28 -108,89 0,71 55,121 102,149 35,21 75,34 116,34 z"
       transform="matrix(0.004,0,0,-0.004,40.1873,4.8453)" />
  </a>
  <rect
     style="fill:currentColor"
     id="rect104"
     ry="0.039999999"
     height="3.3139"
     width="0.13"
     y="1.1861"
     x="31.993212" />
  <a
     transform="translate(-5.6898879,-3.8453)"
     id="a106"
     xlink:href="textedit:///var/folders/_g/5m8jwnh13xl4zfc1dyffj2bw0000gn/T/frescobaldi-b52ul3fj/tmpjsjwci68/prolatio_examples.ly:23:35:36"
     style="color:inherit">
    <path
       style="fill:currentColor"
       id="path108"
       d="m 218,136 c 55,0 108,-28 108,-89 0,-71 -55,-121 -102,-149 -35,-21 -75,-34 -116,-34 -55,0 -108,28 -108,89 0,71 55,121 102,149 35,21 75,34 116,34 z"
       transform="matrix(0.004,0,0,-0.004,37.6831,4.8453)" />
  </a>
</svg>
