<?xml version="1.0" encoding="UTF-8" standalone="no"?>
<svg
   xmlns:dc="http://purl.org/dc/elements/1.1/"
   xmlns:cc="http://creativecommons.org/ns#"
   xmlns:rdf="http://www.w3.org/1999/02/22-rdf-syntax-ns#"
   xmlns:svg="http://www.w3.org/2000/svg"
   xmlns="http://www.w3.org/2000/svg"
   id="svg4847"
   version="1.1"
   xml:space="preserve"
   width="84.852501"
   height="39.935001"
   viewBox="0 0 84.852501 39.935001"><metadata
     id="metadata4853"><rdf:RDF><cc:Work
         rdf:about=""><dc:format>image/svg+xml</dc:format><dc:type
           rdf:resource="http://purl.org/dc/dcmitype/StillImage" /><dc:title></dc:title></cc:Work></rdf:RDF></metadata><defs
     id="defs4851" /><g
     style="fill:#ff8080;stroke:#c8c8c8;stroke-opacity:1"
     transform="matrix(1.25,0,0,-1.25,10.02125,24.66625)"
     id="g4931"><path
       d="M 4.19817,0 23.3865,7.51874"
       style="fill:#ff8080;stroke:#c8c8c8;stroke-width:1.49442005;stroke-linecap:round;stroke-linejoin:miter;stroke-miterlimit:10;stroke-dasharray:none;stroke-opacity:1"
       id="path4933" /></g><g
     style="fill:#c8c8c8;fill-opacity:1"
     transform="matrix(1.25,0,0,-1.25,10.02125,24.66625)"
     id="g4863"><g
       style="fill:#c8c8c8;fill-opacity:1"
       id="g4865"><g
         style="fill:#c8c8c8;fill-opacity:1"
         id="g4867"><path
           d="M 4.6963,0 C 4.6963,2.59372 2.59372,4.6963 0,4.6963 -2.59372,4.6963 -4.6963,2.59372 -4.6963,0 c 0,-2.59372 2.10258,-4.6963 4.6963,-4.6963 2.59372,0 4.6963,2.10258 4.6963,4.6963 z"
           style="fill:#c8c8c8;fill-opacity:1;fill-rule:nonzero;stroke:none"
           id="path4869" /></g><g
         style="fill:#c8c8c8;fill-opacity:1"
         id="g4871"><g
           style="fill:#c8c8c8;fill-opacity:1"
           id="g4873" /></g></g></g><g
     style="fill:#c8c8c8;fill-opacity:1"
     id="g4875"
     transform="matrix(1.25,0,0,-1.25,44.50125,15.2675)"><g
       style="fill:#c8c8c8;fill-opacity:1"
       id="g4877"><g
         style="fill:#c8c8c8;fill-opacity:1"
         id="g4879"><path
           d="M 4.6963,0 C 4.6963,2.59372 2.59372,4.6963 0,4.6963 -2.59372,4.6963 -4.6963,2.59372 -4.6963,0 c 0,-2.59372 2.10258,-4.6963 4.6963,-4.6963 2.59372,0 4.6963,2.10258 4.6963,4.6963 z"
           style="fill:#c8c8c8;fill-opacity:1;fill-rule:nonzero;stroke:none"
           id="path4881" /></g><g
         style="fill:#c8c8c8;fill-opacity:1"
         id="g4883"><g
           style="fill:#c8c8c8;fill-opacity:1"
           id="g4885" /></g></g><g
       style="fill:#c8c8c8;fill-opacity:1"
       id="g4887"
       transform="translate(-27.584,-7.519)" /></g><g
     style="fill:#ff8080;stroke:#c8c8c8;stroke-opacity:1"
     transform="matrix(1.25,0,0,-1.25,10.02125,24.66625)"
     id="g4935"><path
       d="m 31.78285,7.51874 19.18834,7.51875"
       style="fill:#ff8080;stroke:#c8c8c8;stroke-width:1.49442005;stroke-linecap:round;stroke-linejoin:miter;stroke-miterlimit:10;stroke-dasharray:none;stroke-opacity:1"
       id="path4937" /></g><g
     style="fill:#ff8080;stroke:#c8c8c8;stroke-opacity:1"
     transform="matrix(1.25,0,0,-1.25,10.02125,24.66625)"
     id="g4939"><path
       d="M 31.78285,7.51874 50.97119,0"
       style="fill:#ff8080;stroke:#c8c8c8;stroke-width:1.49442005;stroke-linecap:round;stroke-linejoin:miter;stroke-miterlimit:10;stroke-dasharray:none;stroke-opacity:1"
       id="path4941" /></g><g
     style="fill:#ff8080;stroke:#c8c8c8;stroke-opacity:1"
     transform="matrix(1.25,0,0,-1.25,10.02125,24.66625)"
     id="g4943"><path
       d="M 4.19817,0 23.3865,-7.51874"
       style="fill:#ff8080;stroke:#c8c8c8;stroke-width:1.49442005;stroke-linecap:round;stroke-linejoin:miter;stroke-miterlimit:10;stroke-dasharray:none;stroke-opacity:1"
       id="path4945" /></g><g
     style="fill:#c8c8c8;fill-opacity:1"
     id="g4889"
     transform="matrix(1.25,0,0,-1.25,78.9825,5.87)"><g
       style="fill:#c8c8c8;fill-opacity:1"
       id="g4891"><g
         style="fill:#c8c8c8;fill-opacity:1"
         id="g4893"><path
           d="M 4.6963,0 C 4.6963,2.59372 2.59372,4.6963 0,4.6963 -2.59372,4.6963 -4.6963,2.59372 -4.6963,0 c 0,-2.59372 2.10258,-4.6963 4.6963,-4.6963 2.59372,0 4.6963,2.10258 4.6963,4.6963 z"
           style="fill:#c8c8c8;fill-opacity:1;fill-rule:nonzero;stroke:none"
           id="path4895" /></g><g
         style="fill:#c8c8c8;fill-opacity:1"
         id="g4897"><g
           style="fill:#c8c8c8;fill-opacity:1"
           id="g4899" /></g></g><g
       style="fill:#c8c8c8;fill-opacity:1"
       id="g4901"
       transform="translate(-55.169,-15.037)" /></g><g
     style="fill:#c8c8c8;fill-opacity:1"
     id="g4903"
     transform="matrix(1.25,0,0,-1.25,78.9825,24.66625)"><g
       style="fill:#c8c8c8;fill-opacity:1"
       id="g4905"><g
         style="fill:#c8c8c8;fill-opacity:1"
         id="g4907"><path
           d="M 4.6963,0 C 4.6963,2.59372 2.59372,4.6963 0,4.6963 -2.59372,4.6963 -4.6963,2.59372 -4.6963,0 c 0,-2.59372 2.10258,-4.6963 4.6963,-4.6963 2.59372,0 4.6963,2.10258 4.6963,4.6963 z"
           style="fill:#c8c8c8;fill-opacity:1;fill-rule:nonzero;stroke:none"
           id="path4909" /></g><g
         style="fill:#c8c8c8;fill-opacity:1"
         id="g4911"><g
           style="fill:#c8c8c8;fill-opacity:1"
           id="g4913" /></g></g><g
       style="fill:#c8c8c8;fill-opacity:1"
       id="g4915"
       transform="translate(-55.169,0)" /></g><g
     style="fill:#c8c8c8;fill-opacity:1"
     id="g4917"
     transform="matrix(1.25,0,0,-1.25,44.50125,34.065)"><g
       style="fill:#c8c8c8;fill-opacity:1"
       id="g4919"><g
         style="fill:#c8c8c8;fill-opacity:1"
         id="g4921"><path
           d="M 4.6963,0 C 4.6963,2.59372 2.59372,4.6963 0,4.6963 -2.59372,4.6963 -4.6963,2.59372 -4.6963,0 c 0,-2.59372 2.10258,-4.6963 4.6963,-4.6963 2.59372,0 4.6963,2.10258 4.6963,4.6963 z"
           style="fill:#c8c8c8;fill-opacity:1;fill-rule:nonzero;stroke:none"
           id="path4923" /></g><g
         style="fill:#c8c8c8;fill-opacity:1"
         id="g4925"><g
           style="fill:#c8c8c8;fill-opacity:1"
           id="g4927" /></g></g><g
       style="fill:#c8c8c8;fill-opacity:1"
       id="g4929"
       transform="translate(-27.584,7.519)" /></g></svg>