<?xml version="1.0" encoding="UTF-8" standalone="no"?>
<svg
   xmlns:dc="http://purl.org/dc/elements/1.1/"
   xmlns:cc="http://creativecommons.org/ns#"
   xmlns:rdf="http://www.w3.org/1999/02/22-rdf-syntax-ns#"
   xmlns:svg="http://www.w3.org/2000/svg"
   xmlns="http://www.w3.org/2000/svg"
   viewBox="0 0 119.3325 96.324997"
   height="96.324997"
   width="119.3325"
   xml:space="preserve"
   version="1.1"
   id="svg5905"><metadata
     id="metadata5911"><rdf:RDF><cc:Work
         rdf:about=""><dc:format>image/svg+xml</dc:format><dc:type
           rdf:resource="http://purl.org/dc/dcmitype/StillImage" /><dc:title></dc:title></cc:Work></rdf:RDF></metadata><defs
     id="defs5909" /><g
     transform="matrix(1.25,0,0,-1.25,0,96.325)"
     id="g5913"><g
       style="stroke:#ff8080;stroke-opacity:1"
       transform="translate(8.017,38.53)"
       id="g6087"><path
         d="M 4.19817,0 23.3865,18.79686"
         style="fill:none;stroke:#ff8080;stroke-width:1.49442005;stroke-linecap:round;stroke-linejoin:miter;stroke-miterlimit:10;stroke-dasharray:none;stroke-opacity:1"
         id="path6089" /></g><g
       style="fill:#ff8080"
       transform="translate(8.017,38.53)"
       id="g5921"><g
         style="fill:#ff8080"
         id="g5923"><g
           style="fill:#ff8080"
           id="g5925"><path
             d="M 4.6963,0 C 4.6963,2.59372 2.59372,4.6963 0,4.6963 -2.59372,4.6963 -4.6963,2.59372 -4.6963,0 c 0,-2.59372 2.10258,-4.6963 4.6963,-4.6963 2.59372,0 4.6963,2.10258 4.6963,4.6963 z"
             style="fill:#ff8080;fill-opacity:1;fill-rule:nonzero;stroke:none"
             id="path5927" /></g><g
           style="fill:#ff8080"
           id="g5929"><g
             style="fill:#ff8080"
             id="g5931" /></g></g></g><g
       id="g5933"
       transform="translate(35.601,57.327)"><g
         id="g5935"><g
           id="g5937"><path
             d="M 4.6963,0 C 4.6963,2.59372 2.59372,4.6963 0,4.6963 -2.59372,4.6963 -4.6963,2.59372 -4.6963,0 c 0,-2.59372 2.10258,-4.6963 4.6963,-4.6963 2.59372,0 4.6963,2.10258 4.6963,4.6963 z"
             style="fill:#d2d2d2;fill-opacity:1;fill-rule:nonzero;stroke:none"
             id="path5939" /></g><g
           id="g5941"><g
             id="g5943" /></g></g><g
         id="g5945"
         transform="translate(-27.584,-18.797)" /></g><g
       id="g5947"
       transform="translate(63.186,64.845)"><g
         id="g5949"><g
           id="g5951"><path
             d="M 4.6963,0 C 4.6963,2.59372 2.59372,4.6963 0,4.6963 -2.59372,4.6963 -4.6963,2.59372 -4.6963,0 c 0,-2.59372 2.10258,-4.6963 4.6963,-4.6963 2.59372,0 4.6963,2.10258 4.6963,4.6963 z"
             style="fill:#d2d2d2;fill-opacity:1;fill-rule:nonzero;stroke:none"
             id="path5953" /></g><g
           id="g5955"><g
             id="g5957" /></g></g><g
         id="g5959"
         transform="translate(-55.169,-26.315)" /></g><g
       id="g5961"
       transform="translate(90.77,72.364)"><g
         id="g5963"><g
           id="g5965"><path
             d="M 4.6963,0 C 4.6963,2.59372 2.59372,4.6963 0,4.6963 -2.59372,4.6963 -4.6963,2.59372 -4.6963,0 c 0,-2.59372 2.10258,-4.6963 4.6963,-4.6963 2.59372,0 4.6963,2.10258 4.6963,4.6963 z"
             style="fill:#d2d2d2;fill-opacity:1;fill-rule:nonzero;stroke:none"
             id="path5967" /></g><g
           id="g5969"><g
             id="g5971" /></g></g><g
         id="g5973"
         transform="translate(-82.753,-33.834)" /></g><g
       id="g5975"
       transform="translate(90.77,57.327)"><g
         id="g5977"><g
           id="g5979"><path
             d="M 4.6963,0 C 4.6963,2.59372 2.59372,4.6963 0,4.6963 -2.59372,4.6963 -4.6963,2.59372 -4.6963,0 c 0,-2.59372 2.10258,-4.6963 4.6963,-4.6963 2.59372,0 4.6963,2.10258 4.6963,4.6963 z"
             style="fill:#d2d2d2;fill-opacity:1;fill-rule:nonzero;stroke:none"
             id="path5981" /></g><g
           id="g5983"><g
             id="g5985" /></g></g><g
         id="g5987"
         transform="translate(-82.753,-18.797)" /></g><g
       id="g5989"
       transform="translate(63.186,49.808)"><g
         id="g5991"><g
           id="g5993"><path
             d="M 4.6963,0 C 4.6963,2.59372 2.59372,4.6963 0,4.6963 -2.59372,4.6963 -4.6963,2.59372 -4.6963,0 c 0,-2.59372 2.10258,-4.6963 4.6963,-4.6963 2.59372,0 4.6963,2.10258 4.6963,4.6963 z"
             style="fill:#d2d2d2;fill-opacity:1;fill-rule:nonzero;stroke:none"
             id="path5995" /></g><g
           id="g5997"><g
             id="g5999" /></g></g><g
         id="g6001"
         transform="translate(-55.169,-11.278)" /></g><g
       style="fill:#ff8080"
       id="g6003"
       transform="translate(35.601,34.771)"><g
         style="fill:#ff8080"
         id="g6005"><g
           style="fill:#ff8080"
           id="g6007"><path
             d="M 4.6963,0 C 4.6963,2.59372 2.59372,4.6963 0,4.6963 -2.59372,4.6963 -4.6963,2.59372 -4.6963,0 c 0,-2.59372 2.10258,-4.6963 4.6963,-4.6963 2.59372,0 4.6963,2.10258 4.6963,4.6963 z"
             style="fill:#ff8080;fill-opacity:1;fill-rule:nonzero;stroke:none"
             id="path6009" /></g><g
           style="fill:#ff8080"
           id="g6011"><g
             style="fill:#ff8080"
             id="g6013" /></g></g><g
         style="fill:#ff8080"
         id="g6015"
         transform="translate(-27.584,3.759)" /></g><g
       style="fill:#ff8080"
       id="g6017"
       transform="translate(35.601,19.734)"><g
         style="fill:#ff8080"
         id="g6019"><g
           style="fill:#ff8080"
           id="g6021"><path
             d="M 4.6963,0 C 4.6963,2.59372 2.59372,4.6963 0,4.6963 -2.59372,4.6963 -4.6963,2.59372 -4.6963,0 c 0,-2.59372 2.10258,-4.6963 4.6963,-4.6963 2.59372,0 4.6963,2.10258 4.6963,4.6963 z"
             style="fill:#ff8080;fill-opacity:1;fill-rule:nonzero;stroke:none"
             id="path6023" /></g><g
           style="fill:#ff8080"
           id="g6025"><g
             style="fill:#ff8080"
             id="g6027" /></g></g><g
         style="fill:#ff8080"
         id="g6029"
         transform="translate(-27.584,18.796)" /></g><g
       style="fill:#ff8080"
       id="g6031"
       transform="translate(63.186,34.771)"><g
         style="fill:#ff8080"
         id="g6033"><g
           style="fill:#ff8080"
           id="g6035"><path
             d="M 4.6963,0 C 4.6963,2.59372 2.59372,4.6963 0,4.6963 -2.59372,4.6963 -4.6963,2.59372 -4.6963,0 c 0,-2.59372 2.10258,-4.6963 4.6963,-4.6963 2.59372,0 4.6963,2.10258 4.6963,4.6963 z"
             style="fill:#ff8080;fill-opacity:1;fill-rule:nonzero;stroke:none"
             id="path6037" /></g><g
           style="fill:#ff8080"
           id="g6039"><g
             style="fill:#ff8080"
             id="g6041" /></g></g><g
         style="fill:#ff8080"
         id="g6043"
         transform="translate(-55.169,3.759)" /></g><g
       style="fill:#ff8080"
       id="g6045"
       transform="translate(90.77,34.771)"><g
         style="fill:#ff8080"
         id="g6047"><g
           style="fill:#ff8080"
           id="g6049"><path
             d="M 4.6963,0 C 4.6963,2.59372 2.59372,4.6963 0,4.6963 -2.59372,4.6963 -4.6963,2.59372 -4.6963,0 c 0,-2.59372 2.10258,-4.6963 4.6963,-4.6963 2.59372,0 4.6963,2.10258 4.6963,4.6963 z"
             style="fill:#ff8080;fill-opacity:1;fill-rule:nonzero;stroke:none"
             id="path6051" /></g><g
           style="fill:#ff8080"
           id="g6053"><g
             style="fill:#ff8080"
             id="g6055" /></g></g><g
         style="fill:#ff8080"
         id="g6057"
         transform="translate(-82.753,3.759)" /></g><g
       style="fill:#ff8080"
       id="g6059"
       transform="translate(63.186,19.734)"><g
         style="fill:#ff8080"
         id="g6061"><g
           style="fill:#ff8080"
           id="g6063"><path
             d="M 4.6963,0 C 4.6963,2.59372 2.59372,4.6963 0,4.6963 -2.59372,4.6963 -4.6963,2.59372 -4.6963,0 c 0,-2.59372 2.10258,-4.6963 4.6963,-4.6963 2.59372,0 4.6963,2.10258 4.6963,4.6963 z"
             style="fill:#ff8080;fill-opacity:1;fill-rule:nonzero;stroke:none"
             id="path6065" /></g><g
           style="fill:#ff8080"
           id="g6067"><g
             style="fill:#ff8080"
             id="g6069" /></g></g><g
         style="fill:#ff8080"
         id="g6071"
         transform="translate(-55.169,18.796)" /></g><g
       style="fill:#ff8080"
       id="g6073"
       transform="translate(63.186,4.696)"><g
         style="fill:#ff8080"
         id="g6075"><g
           style="fill:#ff8080"
           id="g6077"><path
             d="M 4.6963,0 C 4.6963,2.59372 2.59372,4.6963 0,4.6963 -2.59372,4.6963 -4.6963,2.59372 -4.6963,0 c 0,-2.59372 2.10258,-4.6963 4.6963,-4.6963 2.59372,0 4.6963,2.10258 4.6963,4.6963 z"
             style="fill:#ff8080;fill-opacity:1;fill-rule:nonzero;stroke:none"
             id="path6079" /></g><g
           style="fill:#ff8080"
           id="g6081"><g
             style="fill:#ff8080"
             id="g6083" /></g></g><g
         style="fill:#ff8080"
         id="g6085"
         transform="translate(-55.169,33.834)" /></g><g
       transform="translate(8.017,38.53)"
       id="g6091"><path
         d="M 31.78285,18.79686 50.97119,26.3156"
         style="fill:none;stroke:#d2d2d2;stroke-width:1.49442005;stroke-linecap:round;stroke-linejoin:miter;stroke-miterlimit:10;stroke-dasharray:none;stroke-opacity:1"
         id="path6093" /></g><g
       transform="translate(8.017,38.53)"
       id="g6095"><path
         d="m 59.36755,26.3156 19.18833,7.51875"
         style="fill:none;stroke:#d2d2d2;stroke-width:1.49442005;stroke-linecap:round;stroke-linejoin:miter;stroke-miterlimit:10;stroke-dasharray:none;stroke-opacity:1"
         id="path6097" /></g><g
       transform="translate(8.017,38.53)"
       id="g6099"><path
         d="M 59.36755,26.3156 78.55588,18.79686"
         style="fill:none;stroke:#d2d2d2;stroke-width:1.49442005;stroke-linecap:round;stroke-linejoin:miter;stroke-miterlimit:10;stroke-dasharray:none;stroke-opacity:1"
         id="path6101" /></g><g
       transform="translate(8.017,38.53)"
       id="g6103"><path
         d="M 31.78285,18.79686 50.97119,11.2781"
         style="fill:none;stroke:#d2d2d2;stroke-width:1.49442005;stroke-linecap:round;stroke-linejoin:miter;stroke-miterlimit:10;stroke-dasharray:none;stroke-opacity:1"
         id="path6105" /></g><g
       style="stroke:#ff8080;stroke-opacity:1"
       transform="translate(8.017,38.53)"
       id="g6107"><path
         d="M 4.19817,0 23.3865,-3.75937"
         style="fill:none;stroke:#ff8080;stroke-width:1.49442005;stroke-linecap:round;stroke-linejoin:miter;stroke-miterlimit:10;stroke-dasharray:none;stroke-opacity:1"
         id="path6109" /></g><g
       style="stroke:#ff8080;stroke-opacity:1"
       transform="translate(8.017,38.53)"
       id="g6111"><path
         d="M 4.19817,0 23.3865,-18.79686"
         style="fill:none;stroke:#ff8080;stroke-width:1.49442005;stroke-linecap:round;stroke-linejoin:miter;stroke-miterlimit:10;stroke-dasharray:none;stroke-opacity:1"
         id="path6113" /></g><g
       style="stroke:#ff8080;stroke-opacity:1"
       transform="translate(8.017,38.53)"
       id="g6115"><path
         d="M 31.78285,-18.79686 50.97119,-3.75937"
         style="fill:none;stroke:#ff8080;stroke-width:1.49442005;stroke-linecap:round;stroke-linejoin:miter;stroke-miterlimit:10;stroke-dasharray:none;stroke-opacity:1"
         id="path6117" /></g><g
       style="stroke:#ff8080;stroke-opacity:1"
       transform="translate(8.017,38.53)"
       id="g6119"><path
         d="m 59.36755,-3.75937 19.18833,0"
         style="fill:none;stroke:#ff8080;stroke-width:1.49442005;stroke-linecap:round;stroke-linejoin:miter;stroke-miterlimit:10;stroke-dasharray:none;stroke-opacity:1"
         id="path6121" /></g><g
       style="stroke:#ff8080;stroke-opacity:1"
       transform="translate(8.017,38.53)"
       id="g6123"><path
         d="m 31.78285,-18.79686 19.18834,0"
         style="fill:none;stroke:#ff8080;stroke-width:1.49442005;stroke-linecap:round;stroke-linejoin:miter;stroke-miterlimit:10;stroke-dasharray:none;stroke-opacity:1"
         id="path6125" /></g><g
       style="stroke:#ff8080;stroke-opacity:1"
       transform="translate(8.017,38.53)"
       id="g6127"><path
         d="M 31.78285,-18.79686 50.97119,-33.83435"
         style="fill:none;stroke:#ff8080;stroke-width:1.49442005;stroke-linecap:round;stroke-linejoin:miter;stroke-miterlimit:10;stroke-dasharray:none;stroke-opacity:1"
         id="path6129" /></g></g></svg>