<?xml version="1.0" encoding="UTF-8" standalone="no"?>
<svg
   xmlns:dc="http://purl.org/dc/elements/1.1/"
   xmlns:cc="http://creativecommons.org/ns#"
   xmlns:rdf="http://www.w3.org/1999/02/22-rdf-syntax-ns#"
   xmlns:svg="http://www.w3.org/2000/svg"
   xmlns="http://www.w3.org/2000/svg"
   xmlns:xlink="http://www.w3.org/1999/xlink"
   id="svg4847"
   version="1.1"
   xml:space="preserve"
   width="84.852501"
   height="39.935001"
   viewBox="0 0 84.852501 39.935001"><metadata
     id="metadata4853"><rdf:RDF><cc:Work
         rdf:about=""><dc:format>image/svg+xml</dc:format><dc:type
           rdf:resource="http://purl.org/dc/dcmitype/StillImage" /><dc:title></dc:title></cc:Work></rdf:RDF></metadata><defs
     id="defs4851"><marker
       style="overflow:visible"
       id="Arrow2Lstart"
       refX="0"
       refY="0"
       orient="auto"><path
         transform="matrix(1.1,0,0,1.1,1.1,0)"
         d="M 8.7185878,4.0337352 -2.2072895,0.01601326 8.7185884,-4.0017078 c -1.7454984,2.3720609 -1.7354408,5.6174519 -6e-7,8.035443 z"
         style="fill-rule:evenodd;stroke-width:0.625;stroke-linejoin:round"
         id="path10039" /></marker><marker
       style="overflow:visible"
       id="Arrow1Lstart"
       refX="0"
       refY="0"
       orient="auto"><path
         transform="matrix(0.8,0,0,0.8,10,0)"
         style="fill-rule:evenodd;stroke:#000000;stroke-width:1pt"
         d="M 0,0 5,-5 -12.5,0 5,5 0,0 Z"
         id="path10021" /></marker></defs><g
     style="fill:#ff8080;stroke:#c8c8c8;stroke-opacity:1"
     transform="matrix(1.25,0,0,-1.25,10.02125,24.666249)"
     id="g4931"><path
       d="M 4.19817,0 23.3865,7.51874"
       style="fill:#ff8080;stroke:#c8c8c8;stroke-width:1.49442005;stroke-linecap:round;stroke-linejoin:miter;stroke-miterlimit:10;stroke-dasharray:none;stroke-opacity:1"
       id="path4933" /></g><g
     style="fill:#c8c8c8;fill-opacity:1"
     transform="matrix(1.25,0,0,-1.25,10.02125,24.666249)"
     id="g4863"><g
       style="fill:#c8c8c8;fill-opacity:1"
       id="g4865"><g
         style="fill:#c8c8c8;fill-opacity:1"
         id="g4867"><path
           d="M 4.6963,0 C 4.6963,2.59372 2.59372,4.6963 0,4.6963 -2.59372,4.6963 -4.6963,2.59372 -4.6963,0 c 0,-2.59372 2.10258,-4.6963 4.6963,-4.6963 2.59372,0 4.6963,2.10258 4.6963,4.6963 z"
           style="fill:#c8c8c8;fill-opacity:1;fill-rule:nonzero;stroke:none"
           id="path4869" /></g><g
         style="fill:#c8c8c8;fill-opacity:1"
         id="g4871"><g
           style="fill:#c8c8c8;fill-opacity:1"
           id="g4873" /></g></g></g><g
     style="fill:#ff8080"
     id="g4875"
     transform="matrix(1.25,0,0,-1.25,44.50125,15.267499)"><g
       style="fill:#ff8080"
       id="g4877"><g
         style="fill:#ff8080"
         id="g4879"><path
           d="M 4.6963,0 C 4.6963,2.59372 2.59372,4.6963 0,4.6963 -2.59372,4.6963 -4.6963,2.59372 -4.6963,0 c 0,-2.59372 2.10258,-4.6963 4.6963,-4.6963 2.59372,0 4.6963,2.10258 4.6963,4.6963 z"
           style="fill:#ff8080;fill-opacity:1;fill-rule:nonzero;stroke:none"
           id="path4881" /></g><g
         style="fill:#ff8080"
         id="g4883"><g
           style="fill:#ff8080"
           id="g4885" /></g></g><g
       style="fill:#ff8080"
       id="g4887"
       transform="translate(-27.584,-7.519)" /></g><g
     style="fill:#ff8080;stroke:#c8c8c8;stroke-opacity:1"
     transform="matrix(1.25,0,0,-1.25,10.02125,24.666249)"
     id="g4943"><path
       d="M 4.19817,0 23.3865,-7.51874"
       style="fill:#ff8080;stroke:#c8c8c8;stroke-width:1.49442005;stroke-linecap:round;stroke-linejoin:miter;stroke-miterlimit:10;stroke-dasharray:none;stroke-opacity:1"
       id="path4945" /></g><g
     style="fill:none;stroke:#ff8080;stroke-opacity:1;stroke-width:0.99964302;stroke-miterlimit:4;stroke-dasharray:none;stroke-dashoffset:0"
     id="g4889"
     transform="matrix(1.1704179,0,0,-1.1704179,78.568968,6.2083432)"><g
       style="fill:none;stroke:#ff8080;stroke-opacity:1;stroke-width:0.99964302;stroke-miterlimit:4;stroke-dasharray:none;stroke-dashoffset:0"
       id="g4891"><g
         style="fill:none;stroke:#ff8080;stroke-opacity:1;stroke-width:0.99964302;stroke-miterlimit:4;stroke-dasharray:none;stroke-dashoffset:0"
         id="g4893"><path
           d="M 4.6963,0 C 4.6963,2.59372 2.59372,4.6963 0,4.6963 -2.59372,4.6963 -4.6963,2.59372 -4.6963,0 c 0,-2.59372 2.10258,-4.6963 4.6963,-4.6963 2.59372,0 4.6963,2.10258 4.6963,4.6963 z"
           style="fill:none;fill-opacity:1;fill-rule:nonzero;stroke:#ff8080;stroke-opacity:1;stroke-width:0.99964302;stroke-miterlimit:4;stroke-dasharray:none;stroke-dashoffset:0"
           id="path4895" /></g><g
         style="fill:none;stroke:#ff8080;stroke-opacity:1;stroke-width:0.99964302;stroke-miterlimit:4;stroke-dasharray:none;stroke-dashoffset:0"
         id="g4897"><g
           style="fill:none;stroke:#ff8080;stroke-opacity:1;stroke-width:0.99964302;stroke-miterlimit:4;stroke-dasharray:none;stroke-dashoffset:0"
           id="g4899" /></g></g><g
       style="fill:none;stroke:#ff8080;stroke-opacity:1;stroke-width:0.99964302;stroke-miterlimit:4;stroke-dasharray:none;stroke-dashoffset:0"
       id="g4901"
       transform="translate(-55.169,-15.037)" /></g><g
     style="fill:#c8c8c8;fill-opacity:1"
     id="g4917"
     transform="matrix(1.25,0,0,-1.25,44.50125,34.064999)"><g
       style="fill:#c8c8c8;fill-opacity:1"
       id="g4919"><g
         style="fill:#c8c8c8;fill-opacity:1"
         id="g4921"><path
           d="M 4.6963,0 C 4.6963,2.59372 2.59372,4.6963 0,4.6963 -2.59372,4.6963 -4.6963,2.59372 -4.6963,0 c 0,-2.59372 2.10258,-4.6963 4.6963,-4.6963 2.59372,0 4.6963,2.10258 4.6963,4.6963 z"
           style="fill:#c8c8c8;fill-opacity:1;fill-rule:nonzero;stroke:none"
           id="path4923" /></g><g
         style="fill:#c8c8c8;fill-opacity:1"
         id="g4925"><g
           style="fill:#c8c8c8;fill-opacity:1"
           id="g4927" /></g></g><g
       style="fill:#c8c8c8;fill-opacity:1"
       id="g4929"
       transform="translate(-27.584,7.519)" /></g><use
     style="stroke-width:1.17000008;stroke-miterlimit:4;stroke-dasharray:none;stroke-dashoffset:0"
     height="100%"
     width="100%"
     transform="translate(0,18)"
     id="use10589"
     xlink:href="#g4889"
     y="0"
     x="0" /></svg>