<?xml version="1.0" encoding="UTF-8" standalone="no"?>
<svg
   xmlns:dc="http://purl.org/dc/elements/1.1/"
   xmlns:cc="http://creativecommons.org/ns#"
   xmlns:rdf="http://www.w3.org/1999/02/22-rdf-syntax-ns#"
   xmlns:svg="http://www.w3.org/2000/svg"
   xmlns="http://www.w3.org/2000/svg"
   viewBox="0 0 84.852501 39.935001"
   height="39.935001"
   width="84.852501"
   xml:space="preserve"
   version="1.1"
   id="svg4847"><metadata
     id="metadata4853"><rdf:RDF><cc:Work
         rdf:about=""><dc:format>image/svg+xml</dc:format><dc:type
           rdf:resource="http://purl.org/dc/dcmitype/StillImage" /><dc:title></dc:title></cc:Work></rdf:RDF></metadata><defs
     id="defs4851" /><g
     transform="matrix(1.25,0,0,-1.25,0,39.935)"
     id="g4855"><g
       transform="translate(8.017,12.215)"
       id="g4863"><g
         id="g4865"><g
           id="g4867"><path
             d="M 4.6963,0 C 4.6963,2.59372 2.59372,4.6963 0,4.6963 -2.59372,4.6963 -4.6963,2.59372 -4.6963,0 c 0,-2.59372 2.10258,-4.6963 4.6963,-4.6963 2.59372,0 4.6963,2.10258 4.6963,4.6963 z"
             style="fill:#d2d2d2;fill-opacity:1;fill-rule:nonzero;stroke:none"
             id="path4869" /></g><g
           id="g4871"><g
             id="g4873" /></g></g></g><g
       id="g4875"
       transform="translate(35.601,19.734)"><g
         id="g4877"><g
           id="g4879"><path
             d="M 4.6963,0 C 4.6963,2.59372 2.59372,4.6963 0,4.6963 -2.59372,4.6963 -4.6963,2.59372 -4.6963,0 c 0,-2.59372 2.10258,-4.6963 4.6963,-4.6963 2.59372,0 4.6963,2.10258 4.6963,4.6963 z"
             style="fill:#d2d2d2;fill-opacity:1;fill-rule:nonzero;stroke:none"
             id="path4881" /></g><g
           id="g4883"><g
             id="g4885" /></g></g><g
         id="g4887"
         transform="translate(-27.584,-7.519)" /></g><g
       transform="translate(8.017,12.215)"
       id="g4931"><path
         d="M 4.19817,0 23.3865,7.51874"
         style="fill:none;stroke:#d2d2d2;stroke-width:1.49442005;stroke-linecap:round;stroke-linejoin:miter;stroke-miterlimit:10;stroke-dasharray:none;stroke-opacity:1"
         id="path4933" /></g><g
       transform="translate(8.017,12.215)"
       id="g4935"><path
         d="m 31.78285,7.51874 19.18834,7.51875"
         style="fill:none;stroke:#d2d2d2;stroke-width:1.49442005;stroke-linecap:round;stroke-linejoin:miter;stroke-miterlimit:10;stroke-dasharray:none;stroke-opacity:1"
         id="path4937" /></g><g
       transform="translate(8.017,12.215)"
       id="g4939"><path
         d="M 31.78285,7.51874 50.97119,0"
         style="fill:none;stroke:#d2d2d2;stroke-width:1.49442005;stroke-linecap:round;stroke-linejoin:miter;stroke-miterlimit:10;stroke-dasharray:none;stroke-opacity:1"
         id="path4941" /></g><g
       transform="translate(8.017,12.215)"
       id="g4943"><path
         d="M 4.19817,0 23.3865,-7.51874"
         style="fill:none;stroke:#d2d2d2;stroke-width:1.49442005;stroke-linecap:round;stroke-linejoin:miter;stroke-miterlimit:10;stroke-dasharray:none;stroke-opacity:1"
         id="path4945" /></g><g
       id="g4889"
       transform="translate(63.186,27.252)"><g
         id="g4891"><g
           id="g4893"><path
             d="M 4.6963,0 C 4.6963,2.59372 2.59372,4.6963 0,4.6963 -2.59372,4.6963 -4.6963,2.59372 -4.6963,0 c 0,-2.59372 2.10258,-4.6963 4.6963,-4.6963 2.59372,0 4.6963,2.10258 4.6963,4.6963 z"
             style="fill:#acacac;fill-opacity:1;fill-rule:nonzero;stroke:none"
             id="path4895" /></g><g
           id="g4897"><g
             id="g4899" /></g></g><g
         id="g4901"
         transform="translate(-55.169,-15.037)" /></g><g
       id="g4903"
       transform="translate(63.186,12.215)"><g
         id="g4905"><g
           id="g4907"><path
             d="M 4.6963,0 C 4.6963,2.59372 2.59372,4.6963 0,4.6963 -2.59372,4.6963 -4.6963,2.59372 -4.6963,0 c 0,-2.59372 2.10258,-4.6963 4.6963,-4.6963 2.59372,0 4.6963,2.10258 4.6963,4.6963 z"
             style="fill:#acacac;fill-opacity:1;fill-rule:nonzero;stroke:none"
             id="path4909" /></g><g
           id="g4911"><g
             id="g4913" /></g></g><g
         id="g4915"
         transform="translate(-55.169,0)" /></g><g
       id="g4917"
       transform="translate(35.601,4.696)"><g
         id="g4919"><g
           id="g4921"><path
             d="M 4.6963,0 C 4.6963,2.59372 2.59372,4.6963 0,4.6963 -2.59372,4.6963 -4.6963,2.59372 -4.6963,0 c 0,-2.59372 2.10258,-4.6963 4.6963,-4.6963 2.59372,0 4.6963,2.10258 4.6963,4.6963 z"
             style="fill:#acacac;fill-opacity:1;fill-rule:nonzero;stroke:none"
             id="path4923" /></g><g
           id="g4925"><g
             id="g4927" /></g></g><g
         id="g4929"
         transform="translate(-27.584,7.519)" /></g></g></svg>