<?xml version="1.0" encoding="UTF-8" standalone="no"?>
<svg
   xmlns:dc="http://purl.org/dc/elements/1.1/"
   xmlns:cc="http://creativecommons.org/ns#"
   xmlns:rdf="http://www.w3.org/1999/02/22-rdf-syntax-ns#"
   xmlns:svg="http://www.w3.org/2000/svg"
   xmlns="http://www.w3.org/2000/svg"
   viewBox="0 0 119.3325 68.129997"
   height="68.129997"
   width="119.3325"
   xml:space="preserve"
   version="1.1"
   id="svg7094"><metadata
     id="metadata7100"><rdf:RDF><cc:Work
         rdf:about=""><dc:format>image/svg+xml</dc:format><dc:type
           rdf:resource="http://purl.org/dc/dcmitype/StillImage" /><dc:title></dc:title></cc:Work></rdf:RDF></metadata><defs
     id="defs7098" /><g
     transform="matrix(1.25,0,0,-1.25,0,68.13)"
     id="g7102"><g
       transform="translate(8.017,31.012)"
       id="g7110"><g
         id="g7112"><g
           id="g7114"><path
             d="M 4.6963,0 C 4.6963,2.59372 2.59372,4.6963 0,4.6963 -2.59372,4.6963 -4.6963,2.59372 -4.6963,0 c 0,-2.59372 2.10258,-4.6963 4.6963,-4.6963 2.59372,0 4.6963,2.10258 4.6963,4.6963 z"
             style="fill:#d2d2d2;fill-opacity:1;fill-rule:nonzero;stroke:none"
             id="path7116" /></g><g
           id="g7118"><g
             id="g7120" /></g></g></g><g
       id="g7122"
       transform="translate(35.601,42.29)"><g
         id="g7124"><g
           id="g7126"><path
             d="M 4.6963,0 C 4.6963,2.59372 2.59372,4.6963 0,4.6963 -2.59372,4.6963 -4.6963,2.59372 -4.6963,0 c 0,-2.59372 2.10258,-4.6963 4.6963,-4.6963 2.59372,0 4.6963,2.10258 4.6963,4.6963 z"
             style="fill:#d2d2d2;fill-opacity:1;fill-rule:nonzero;stroke:none"
             id="path7128" /></g><g
           id="g7130"><g
             id="g7132" /></g></g><g
         id="g7134"
         transform="translate(-27.584,-11.278)" /></g><g
       id="g7136"
       transform="translate(63.186,49.808)"><g
         id="g7138"><g
           id="g7140"><path
             d="M 4.6963,0 C 4.6963,2.59372 2.59372,4.6963 0,4.6963 -2.59372,4.6963 -4.6963,2.59372 -4.6963,0 c 0,-2.59372 2.10258,-4.6963 4.6963,-4.6963 2.59372,0 4.6963,2.10258 4.6963,4.6963 z"
             style="fill:#d2d2d2;fill-opacity:1;fill-rule:nonzero;stroke:none"
             id="path7142" /></g><g
           id="g7144"><g
             id="g7146" /></g></g><g
         id="g7148"
         transform="translate(-55.169,-18.796)" /></g><g
       id="g7150"
       transform="translate(63.186,34.771)"><g
         id="g7152"><g
           id="g7154"><path
             d="M 4.6963,0 C 4.6963,2.59372 2.59372,4.6963 0,4.6963 -2.59372,4.6963 -4.6963,2.59372 -4.6963,0 c 0,-2.59372 2.10258,-4.6963 4.6963,-4.6963 2.59372,0 4.6963,2.10258 4.6963,4.6963 z"
             style="fill:#d2d2d2;fill-opacity:1;fill-rule:nonzero;stroke:none"
             id="path7156" /></g><g
           id="g7158"><g
             id="g7160" /></g></g><g
         id="g7162"
         transform="translate(-55.169,-3.759)" /></g><g
       style="fill:#ff8080"
       id="g7178"
       transform="translate(63.186,19.734)"><g
         style="fill:#ff8080"
         id="g7180"><g
           style="fill:#ff8080"
           id="g7182"><path
             d="M 4.6963,0 C 4.6963,2.59372 2.59372,4.6963 0,4.6963 -2.59372,4.6963 -4.6963,2.59372 -4.6963,0 c 0,-2.59372 2.10258,-4.6963 4.6963,-4.6963 2.59372,0 4.6963,2.10258 4.6963,4.6963 z"
             style="fill:#ff8080;fill-opacity:1;fill-rule:nonzero;stroke:none"
             id="path7184" /></g><g
           style="fill:#ff8080"
           id="g7186"><g
             style="fill:#ff8080"
             id="g7188" /></g></g><g
         style="fill:#ff8080"
         id="g7190"
         transform="translate(-55.169,11.278)" /></g><g
       style="fill:#ff8080"
       id="g7192"
       transform="translate(90.77,34.771)"><g
         style="fill:#ff8080"
         id="g7194"><g
           style="fill:#ff8080"
           id="g7196"><path
             d="M 4.6963,0 C 4.6963,2.59372 2.59372,4.6963 0,4.6963 -2.59372,4.6963 -4.6963,2.59372 -4.6963,0 c 0,-2.59372 2.10258,-4.6963 4.6963,-4.6963 2.59372,0 4.6963,2.10258 4.6963,4.6963 z"
             style="fill:#ff8080;fill-opacity:1;fill-rule:nonzero;stroke:none"
             id="path7198" /></g><g
           style="fill:#ff8080"
           id="g7200"><g
             style="fill:#ff8080"
             id="g7202" /></g></g><g
         style="fill:#ff8080"
         id="g7204"
         transform="translate(-82.753,-3.759)" /></g><g
       style="fill:#ff8080"
       id="g7206"
       transform="translate(90.77,19.734)"><g
         style="fill:#ff8080"
         id="g7208"><g
           style="fill:#ff8080"
           id="g7210"><path
             d="M 4.6963,0 C 4.6963,2.59372 2.59372,4.6963 0,4.6963 -2.59372,4.6963 -4.6963,2.59372 -4.6963,0 c 0,-2.59372 2.10258,-4.6963 4.6963,-4.6963 2.59372,0 4.6963,2.10258 4.6963,4.6963 z"
             style="fill:#ff8080;fill-opacity:1;fill-rule:nonzero;stroke:none"
             id="path7212" /></g><g
           style="fill:#ff8080"
           id="g7214"><g
             style="fill:#ff8080"
             id="g7216" /></g></g><g
         style="fill:#ff8080"
         id="g7218"
         transform="translate(-82.753,11.278)" /></g><g
       style="fill:#ff8080"
       id="g7220"
       transform="translate(90.77,4.696)"><g
         style="fill:#ff8080"
         id="g7222"><g
           style="fill:#ff8080"
           id="g7224"><path
             d="M 4.6963,0 C 4.6963,2.59372 2.59372,4.6963 0,4.6963 -2.59372,4.6963 -4.6963,2.59372 -4.6963,0 c 0,-2.59372 2.10258,-4.6963 4.6963,-4.6963 2.59372,0 4.6963,2.10258 4.6963,4.6963 z"
             style="fill:#ff8080;fill-opacity:1;fill-rule:nonzero;stroke:none"
             id="path7226" /></g><g
           style="fill:#ff8080"
           id="g7228"><g
             style="fill:#ff8080"
             id="g7230" /></g></g><g
         style="fill:#ff8080"
         id="g7232"
         transform="translate(-82.753,26.316)" /></g><g
       transform="translate(8.017,31.012)"
       id="g7234"><path
         d="M 4.19817,0 23.3865,11.2781"
         style="fill:none;stroke:#d2d2d2;stroke-width:1.49442005;stroke-linecap:round;stroke-linejoin:miter;stroke-miterlimit:10;stroke-dasharray:none;stroke-opacity:1"
         id="path7236" /></g><g
       transform="translate(8.017,31.012)"
       id="g7238"><path
         d="m 31.78285,11.2781 19.18834,7.51876"
         style="fill:none;stroke:#d2d2d2;stroke-width:1.49442005;stroke-linecap:round;stroke-linejoin:miter;stroke-miterlimit:10;stroke-dasharray:none;stroke-opacity:1"
         id="path7240" /></g><g
       transform="translate(8.017,31.012)"
       id="g7242"><path
         d="M 31.78285,11.2781 50.97119,3.75937"
         style="fill:none;stroke:#d2d2d2;stroke-width:1.49442005;stroke-linecap:round;stroke-linejoin:miter;stroke-miterlimit:10;stroke-dasharray:none;stroke-opacity:1"
         id="path7244" /></g><g
       transform="translate(8.017,31.012)"
       id="g7246"><path
         d="M 4.19817,0 23.3865,-11.2781"
         style="fill:none;stroke:#d2d2d2;stroke-width:1.49442005;stroke-linecap:round;stroke-linejoin:miter;stroke-miterlimit:10;stroke-dasharray:none;stroke-opacity:1"
         id="path7248" /></g><g
       style="stroke:#ff8080;stroke-opacity:1"
       transform="translate(8.017,31.012)"
       id="g7250"><path
         d="m 31.78285,-11.2781 19.18834,0"
         style="fill:none;stroke:#ff8080;stroke-width:1.49442005;stroke-linecap:round;stroke-linejoin:miter;stroke-miterlimit:10;stroke-dasharray:none;stroke-opacity:1"
         id="path7252" /></g><g
       style="stroke:#ff8080;stroke-opacity:1"
       transform="translate(8.017,31.012)"
       id="g7254"><path
         d="M 59.36755,-11.2781 78.55588,3.75937"
         style="fill:none;stroke:#ff8080;stroke-width:1.49442005;stroke-linecap:round;stroke-linejoin:miter;stroke-miterlimit:10;stroke-dasharray:none;stroke-opacity:1"
         id="path7256" /></g><g
       style="stroke:#ff8080;stroke-opacity:1"
       transform="translate(8.017,31.012)"
       id="g7258"><path
         d="m 59.36755,-11.2781 19.18833,0"
         style="fill:none;stroke:#ff8080;stroke-width:1.49442005;stroke-linecap:round;stroke-linejoin:miter;stroke-miterlimit:10;stroke-dasharray:none;stroke-opacity:1"
         id="path7260" /></g><g
       style="stroke:#ff8080;stroke-opacity:1"
       transform="translate(8.017,31.012)"
       id="g7262"><path
         d="M 59.36755,-11.2781 78.55588,-26.3156"
         style="fill:none;stroke:#ff8080;stroke-width:1.49442005;stroke-linecap:round;stroke-linejoin:miter;stroke-miterlimit:10;stroke-dasharray:none;stroke-opacity:1"
         id="path7264" /></g><g
       id="g7164"
       transform="translate(35.601,19.734)"><g
         id="g7166"><g
           id="g7168"><path
             d="M 4.6963,0 C 4.6963,2.59372 2.59372,4.6963 0,4.6963 -2.59372,4.6963 -4.6963,2.59372 -4.6963,0 c 0,-2.59372 2.10258,-4.6963 4.6963,-4.6963 2.59372,0 4.6963,2.10258 4.6963,4.6963 z"
             style="fill:#d2d2d2;fill-opacity:1;fill-rule:nonzero;stroke:none"
             id="path7170" /></g><g
           id="g7172"><g
             id="g7174" /></g></g><g
         id="g7176"
         transform="translate(-27.584,11.278)" /></g></g></svg>