<?xml version="1.0" encoding="UTF-8" standalone="no"?>
<svg
   xmlns:dc="http://purl.org/dc/elements/1.1/"
   xmlns:cc="http://creativecommons.org/ns#"
   xmlns:rdf="http://www.w3.org/1999/02/22-rdf-syntax-ns#"
   xmlns:svg="http://www.w3.org/2000/svg"
   xmlns="http://www.w3.org/2000/svg"
   viewBox="0 0 84.852501 58.732498"
   height="58.732498"
   width="84.852501"
   xml:space="preserve"
   version="1.1"
   id="svg4691"><metadata
     id="metadata4697"><rdf:RDF><cc:Work
         rdf:about=""><dc:format>image/svg+xml</dc:format><dc:type
           rdf:resource="http://purl.org/dc/dcmitype/StillImage" /><dc:title></dc:title></cc:Work></rdf:RDF></metadata><defs
     id="defs4695" /><g
     transform="matrix(1.25,0,0,-1.25,0,58.7325)"
     id="g4699"><g
       transform="translate(8.017,19.734)"
       id="g4701"><g
         id="g4703"><g
           id="g4705"><g
             id="g4707"><g
               id="g4709"><g
                 id="g4711"><path
                   id="path4713"
                   style="fill:#d2d2d2;fill-opacity:1;fill-rule:nonzero;stroke:none"
                   d="M 4.6963,0 C 4.6963,2.59372 2.59372,4.6963 0,4.6963 -2.59372,4.6963 -4.6963,2.59372 -4.6963,0 c 0,-2.59372 2.10258,-4.6963 4.6963,-4.6963 2.59372,0 4.6963,2.10258 4.6963,4.6963 z" /></g><g
                 id="g4715"><g
                   id="g4717" /></g></g></g><g
             transform="translate(27.584,15.037)"
             id="g4719"><g
               id="g4721"><g
                 id="g4723"><path
                   id="path4725"
                   style="fill:#d2d2d2;fill-opacity:1;fill-rule:nonzero;stroke:none"
                   d="M 4.6963,0 C 4.6963,2.59372 2.59372,4.6963 0,4.6963 -2.59372,4.6963 -4.6963,2.59372 -4.6963,0 c 0,-2.59372 2.10258,-4.6963 4.6963,-4.6963 2.59372,0 4.6963,2.10258 4.6963,4.6963 z" /></g><g
                 id="g4727"><g
                   id="g4729" /></g></g><g
               transform="translate(-27.584,-15.037)"
               id="g4731" /></g><g
             transform="translate(55.169,22.556)"
             id="g4733"><g
               id="g4735"><g
                 id="g4737"><path
                   id="path4739"
                   style="fill:#d2d2d2;fill-opacity:1;fill-rule:nonzero;stroke:none"
                   d="M 4.6963,0 C 4.6963,2.59372 2.59372,4.6963 0,4.6963 -2.59372,4.6963 -4.6963,2.59372 -4.6963,0 c 0,-2.59372 2.10258,-4.6963 4.6963,-4.6963 2.59372,0 4.6963,2.10258 4.6963,4.6963 z" /></g><g
                 id="g4741"><g
                   id="g4743" /></g></g><g
               transform="translate(-55.169,-22.556)"
               id="g4745" /></g><g
             transform="translate(55.169,7.518)"
             id="g4747"><g
               id="g4749"><g
                 id="g4751"><path
                   id="path4753"
                   style="fill:#d2d2d2;fill-opacity:1;fill-rule:nonzero;stroke:none"
                   d="M 4.6963,0 C 4.6963,2.59372 2.59372,4.6963 0,4.6963 -2.59372,4.6963 -4.6963,2.59372 -4.6963,0 c 0,-2.59372 2.10258,-4.6963 4.6963,-4.6963 2.59372,0 4.6963,2.10258 4.6963,4.6963 z" /></g><g
                 id="g4755"><g
                   id="g4757" /></g></g><g
               transform="translate(-55.169,-7.518)"
               id="g4759" /></g><g
             transform="translate(27.584,0)"
             id="g4761"><g
               id="g4763"><g
                 id="g4765"><path
                   id="path4767"
                   style="fill:#d2d2d2;fill-opacity:1;fill-rule:nonzero;stroke:none"
                   d="M 4.6963,0 C 4.6963,2.59372 2.59372,4.6963 0,4.6963 -2.59372,4.6963 -4.6963,2.59372 -4.6963,0 c 0,-2.59372 2.10258,-4.6963 4.6963,-4.6963 2.59372,0 4.6963,2.10258 4.6963,4.6963 z" /></g><g
                 id="g4769"><g
                   id="g4771" /></g></g><g
               transform="translate(-27.584,0)"
               id="g4773" /></g><g
             transform="translate(27.584,-15.038)"
             id="g4775"><g
               id="g4777"><g
                 id="g4779"><path
                   id="path4781"
                   style="fill:#d2d2d2;fill-opacity:1;fill-rule:nonzero;stroke:none"
                   d="M 4.6963,0 C 4.6963,2.59372 2.59372,4.6963 0,4.6963 -2.59372,4.6963 -4.6963,2.59372 -4.6963,0 c 0,-2.59372 2.10258,-4.6963 4.6963,-4.6963 2.59372,0 4.6963,2.10258 4.6963,4.6963 z" /></g><g
                 id="g4783"><g
                   id="g4785" /></g></g><g
               transform="translate(-27.584,15.038)"
               id="g4787" /></g><g
             id="g4789"><path
               id="path4791"
               style="fill:none;stroke:#d2d2d2;stroke-width:1.49442005;stroke-linecap:round;stroke-linejoin:miter;stroke-miterlimit:10;stroke-dasharray:none;stroke-opacity:1"
               d="M 4.19817,0 23.3865,15.03749" /></g><g
             id="g4793"><path
               id="path4795"
               style="fill:none;stroke:#d2d2d2;stroke-width:1.49442005;stroke-linecap:round;stroke-linejoin:miter;stroke-miterlimit:10;stroke-dasharray:none;stroke-opacity:1"
               d="m 31.78285,15.03749 19.18834,7.51874" /></g><g
             id="g4797"><path
               id="path4799"
               style="fill:none;stroke:#d2d2d2;stroke-width:1.49442005;stroke-linecap:round;stroke-linejoin:miter;stroke-miterlimit:10;stroke-dasharray:none;stroke-opacity:1"
               d="M 31.78285,15.03749 50.97119,7.51874" /></g><g
             id="g4801"><path
               id="path4803"
               style="fill:none;stroke:#d2d2d2;stroke-width:1.49442005;stroke-linecap:round;stroke-linejoin:miter;stroke-miterlimit:10;stroke-dasharray:none;stroke-opacity:1"
               d="M 4.19817,0 23.3865,0" /></g><g
             id="g4805"><path
               id="path4807"
               style="fill:none;stroke:#d2d2d2;stroke-width:1.49442005;stroke-linecap:round;stroke-linejoin:miter;stroke-miterlimit:10;stroke-dasharray:none;stroke-opacity:1"
               d="M 4.19817,0 23.3865,-15.03749" /></g></g></g></g></g></svg>