<?xml version="1.0" encoding="UTF-8" standalone="no"?>
<svg
   xmlns:dc="http://purl.org/dc/elements/1.1/"
   xmlns:cc="http://creativecommons.org/ns#"
   xmlns:rdf="http://www.w3.org/1999/02/22-rdf-syntax-ns#"
   xmlns:svg="http://www.w3.org/2000/svg"
   xmlns="http://www.w3.org/2000/svg"
   xmlns:xlink="http://www.w3.org/1999/xlink"
   id="svg4847"
   version="1.1"
   xml:space="preserve"
   width="84.852501"
   height="39.935001"
   viewBox="0 0 84.852501 39.935001"><metadata
     id="metadata4853"><rdf:RDF><cc:Work
         rdf:about=""><dc:format>image/svg+xml</dc:format><dc:type
           rdf:resource="http://purl.org/dc/dcmitype/StillImage" /><dc:title></dc:title></cc:Work></rdf:RDF></metadata><defs
     id="defs4851"><marker
       style="overflow:visible"
       id="Arrow2Lstart"
       refX="0.0"
       refY="0.0"
       orient="auto"><path
         transform="scale(1.1) translate(1,0)"
         d="M 8.7185878,4.0337352 L -2.2072895,0.016013256 L 8.7185884,-4.0017078 C 6.9730900,-1.6296469 6.9831476,1.6157441 8.7185878,4.0337352 z "
         style="fill-rule:evenodd;stroke-width:0.62500000;stroke-linejoin:round"
         id="path10039" /></marker><marker
       style="overflow:visible"
       id="Arrow1Lstart"
       refX="0.0"
       refY="0.0"
       orient="auto"><path
         transform="scale(0.8) translate(12.5,0)"
         style="fill-rule:evenodd;stroke:#000000;stroke-width:1.0pt"
         d="M 0.0,0.0 L 5.0,-5.0 L -12.5,0.0 L 5.0,5.0 L 0.0,0.0 z "
         id="path10021" /></marker></defs><g
     style="fill:#ff8080;stroke:#c8c8c8;stroke-opacity:1"
     transform="matrix(1.25,0,0,-1.25,10.02125,24.66625)"
     id="g4931"><path
       d="M 4.19817,0 23.3865,7.51874"
       style="fill:#ff8080;stroke:#c8c8c8;stroke-width:1.49442005;stroke-linecap:round;stroke-linejoin:miter;stroke-miterlimit:10;stroke-dasharray:none;stroke-opacity:1"
       id="path4933" /></g><g
     style="fill:#c8c8c8;fill-opacity:1"
     transform="matrix(1.25,0,0,-1.25,10.02125,24.66625)"
     id="g4863"><g
       style="fill:#c8c8c8;fill-opacity:1"
       id="g4865"><g
         style="fill:#c8c8c8;fill-opacity:1"
         id="g4867"><path
           d="M 4.6963,0 C 4.6963,2.59372 2.59372,4.6963 0,4.6963 -2.59372,4.6963 -4.6963,2.59372 -4.6963,0 c 0,-2.59372 2.10258,-4.6963 4.6963,-4.6963 2.59372,0 4.6963,2.10258 4.6963,4.6963 z"
           style="fill:#c8c8c8;fill-opacity:1;fill-rule:nonzero;stroke:none"
           id="path4869" /></g><g
         style="fill:#c8c8c8;fill-opacity:1"
         id="g4871"><g
           style="fill:#c8c8c8;fill-opacity:1"
           id="g4873" /></g></g></g><g
     style="fill:#ff8080"
     id="g4875"
     transform="matrix(1.25,0,0,-1.25,44.50125,15.2675)"><g
       style="fill:#ff8080"
       id="g4877"><g
         style="fill:#ff8080"
         id="g4879"><path
           d="M 4.6963,0 C 4.6963,2.59372 2.59372,4.6963 0,4.6963 -2.59372,4.6963 -4.6963,2.59372 -4.6963,0 c 0,-2.59372 2.10258,-4.6963 4.6963,-4.6963 2.59372,0 4.6963,2.10258 4.6963,4.6963 z"
           style="fill:#ff8080;fill-opacity:1;fill-rule:nonzero;stroke:none"
           id="path4881" /></g><g
         style="fill:#ff8080"
         id="g4883"><g
           style="fill:#ff8080"
           id="g4885" /></g></g><g
       style="fill:#ff8080"
       id="g4887"
       transform="translate(-27.584,-7.519)" /></g><g
     style="fill:#ff8080;stroke:#ff8080;stroke-width:1;stroke-linecap:square;stroke-miterlimit:4;stroke-dasharray:1, 2;stroke-dashoffset:0;stroke-opacity:1"
     transform="matrix(1.25,0,0,-1.25,10.319954,24.66625)"
     id="g4935"><path
       d="m 31.78285,7.51874 19.18834,7.51875"
       style="fill:#ff8080;stroke:#ff8080;stroke-width:1;stroke-linecap:square;stroke-linejoin:miter;stroke-miterlimit:4;stroke-dasharray:1, 2;stroke-dashoffset:0;stroke-opacity:1"
       id="path4937" /></g><g
     style="fill:#ff8080;stroke:#ff8080;stroke-width:1;stroke-linecap:square;stroke-miterlimit:4;stroke-dasharray:1, 2;stroke-dashoffset:0;stroke-opacity:1"
     transform="matrix(1.25,0,0,-1.25,10.319954,24.66625)"
     id="g4939"><path
       d="M 31.78285,7.51874 50.97119,0"
       style="fill:#ff8080;stroke:#ff8080;stroke-width:1;stroke-linecap:square;stroke-linejoin:miter;stroke-miterlimit:4;stroke-dasharray:1, 2;stroke-dashoffset:0;stroke-opacity:1"
       id="path4941" /></g><g
     style="fill:#ff8080;stroke:#c8c8c8;stroke-opacity:1"
     transform="matrix(1.25,0,0,-1.25,10.02125,24.66625)"
     id="g4943"><path
       d="M 4.19817,0 23.3865,-7.51874"
       style="fill:#ff8080;stroke:#c8c8c8;stroke-width:1.49442005;stroke-linecap:round;stroke-linejoin:miter;stroke-miterlimit:10;stroke-dasharray:none;stroke-opacity:1"
       id="path4945" /></g><g
     style="fill:none;stroke:#ff8080;stroke-opacity:1"
     id="g4889"
     transform="matrix(1.1704179,0,0,-1.1704179,78.568968,6.2083446)"><g
       style="fill:none;stroke:#ff8080;stroke-opacity:1"
       id="g4891"><g
         style="fill:none;stroke:#ff8080;stroke-opacity:1"
         id="g4893"><path
           d="M 4.6963,0 C 4.6963,2.59372 2.59372,4.6963 0,4.6963 -2.59372,4.6963 -4.6963,2.59372 -4.6963,0 c 0,-2.59372 2.10258,-4.6963 4.6963,-4.6963 2.59372,0 4.6963,2.10258 4.6963,4.6963 z"
           style="fill:none;fill-opacity:1;fill-rule:nonzero;stroke:#ff8080;stroke-opacity:1"
           id="path4895" /></g><g
         style="fill:none;stroke:#ff8080;stroke-opacity:1"
         id="g4897"><g
           style="fill:none;stroke:#ff8080;stroke-opacity:1"
           id="g4899" /></g></g><g
       style="fill:none;stroke:#ff8080;stroke-opacity:1"
       id="g4901"
       transform="translate(-55.169,-15.037)" /></g><g
     style="fill:#c8c8c8;fill-opacity:1"
     id="g4917"
     transform="matrix(1.25,0,0,-1.25,44.50125,34.065)"><g
       style="fill:#c8c8c8;fill-opacity:1"
       id="g4919"><g
         style="fill:#c8c8c8;fill-opacity:1"
         id="g4921"><path
           d="M 4.6963,0 C 4.6963,2.59372 2.59372,4.6963 0,4.6963 -2.59372,4.6963 -4.6963,2.59372 -4.6963,0 c 0,-2.59372 2.10258,-4.6963 4.6963,-4.6963 2.59372,0 4.6963,2.10258 4.6963,4.6963 z"
           style="fill:#c8c8c8;fill-opacity:1;fill-rule:nonzero;stroke:none"
           id="path4923" /></g><g
         style="fill:#c8c8c8;fill-opacity:1"
         id="g4925"><g
           style="fill:#c8c8c8;fill-opacity:1"
           id="g4927" /></g></g><g
       style="fill:#c8c8c8;fill-opacity:1"
       id="g4929"
       transform="translate(-27.584,7.519)" /></g><use
     height="100%"
     width="100%"
     transform="translate(0,18)"
     id="use10589"
     xlink:href="#g4889"
     y="0"
     x="0" /></svg>