<?xml version="1.0" encoding="UTF-8" standalone="no"?>
<svg
   xmlns:dc="http://purl.org/dc/elements/1.1/"
   xmlns:cc="http://creativecommons.org/ns#"
   xmlns:rdf="http://www.w3.org/1999/02/22-rdf-syntax-ns#"
   xmlns:svg="http://www.w3.org/2000/svg"
   xmlns="http://www.w3.org/2000/svg"
   viewBox="0 0 153.81375 58.732498"
   height="58.732498"
   width="153.81375"
   xml:space="preserve"
   version="1.1"
   id="svg8230"><metadata
     id="metadata8236"><rdf:RDF><cc:Work
         rdf:about=""><dc:format>image/svg+xml</dc:format><dc:type
           rdf:resource="http://purl.org/dc/dcmitype/StillImage" /><dc:title></dc:title></cc:Work></rdf:RDF></metadata><defs
     id="defs8234" /><g
     transform="matrix(1.25,0,0,-1.25,0,58.7325)"
     id="g8238"><g
       style="stroke:#ff8080;stroke-opacity:1"
       transform="translate(8.017,12.215)"
       id="g8374"><path
         d="m 31.78285,7.51874 19.18834,0"
         style="fill:none;stroke:#ff8080;stroke-width:1.49442005;stroke-linecap:round;stroke-linejoin:miter;stroke-miterlimit:10;stroke-dasharray:none;stroke-opacity:1"
         id="path8376" /></g><g
       style="stroke:#ff8080;stroke-opacity:1"
       transform="translate(8.017,12.215)"
       id="g8378"><path
         d="M 59.36755,7.51874 78.55588,22.55623"
         style="fill:none;stroke:#ff8080;stroke-width:1.49442005;stroke-linecap:round;stroke-linejoin:miter;stroke-miterlimit:10;stroke-dasharray:none;stroke-opacity:1"
         id="path8380" /></g><g
       style="stroke:#ff8080;stroke-opacity:1"
       transform="translate(8.017,12.215)"
       id="g8390"><path
         d="m 59.36755,7.51874 19.18833,0"
         style="fill:none;stroke:#ff8080;stroke-width:1.49442005;stroke-linecap:round;stroke-linejoin:miter;stroke-miterlimit:10;stroke-dasharray:none;stroke-opacity:1"
         id="path8392" /></g><g
       style="stroke:#ff8080;stroke-opacity:1"
       transform="translate(8.017,12.215)"
       id="g8394"><path
         d="M 59.36755,7.51874 78.55588,-7.51874"
         style="fill:none;stroke:#ff8080;stroke-width:1.49442005;stroke-linecap:round;stroke-linejoin:miter;stroke-miterlimit:10;stroke-dasharray:none;stroke-opacity:1"
         id="path8396" /></g><g
       transform="translate(8.017,12.215)"
       id="g8246"><g
         id="g8248"><g
           id="g8250"><path
             d="M 4.6963,0 C 4.6963,2.59372 2.59372,4.6963 0,4.6963 -2.59372,4.6963 -4.6963,2.59372 -4.6963,0 c 0,-2.59372 2.10258,-4.6963 4.6963,-4.6963 2.59372,0 4.6963,2.10258 4.6963,4.6963 z"
             style="fill:#d2d2d2;fill-opacity:1;fill-rule:nonzero;stroke:none"
             id="path8252" /></g><g
           id="g8254"><g
             id="g8256" /></g></g></g><g
       style="fill:#ff8080"
       id="g8272"
       transform="translate(63.186,19.734)"><g
         style="fill:#ff8080"
         id="g8274"><g
           style="fill:#ff8080"
           id="g8276"><path
             d="M 4.6963,0 C 4.6963,2.59372 2.59372,4.6963 0,4.6963 -2.59372,4.6963 -4.6963,2.59372 -4.6963,0 c 0,-2.59372 2.10258,-4.6963 4.6963,-4.6963 2.59372,0 4.6963,2.10258 4.6963,4.6963 z"
             style="fill:#ff8080;fill-opacity:1;fill-rule:nonzero;stroke:none"
             id="path8278" /></g><g
           style="fill:#ff8080"
           id="g8280"><g
             style="fill:#ff8080"
             id="g8282" /></g></g><g
         style="fill:#ff8080"
         id="g8284"
         transform="translate(-55.169,-7.519)" /></g><g
       id="g8286"
       transform="translate(90.77,34.771)"><g
         id="g8288"><g
           id="g8290"><path
             d="M 4.6963,0 C 4.6963,2.59372 2.59372,4.6963 0,4.6963 -2.59372,4.6963 -4.6963,2.59372 -4.6963,0 c 0,-2.59372 2.10258,-4.6963 4.6963,-4.6963 2.59372,0 4.6963,2.10258 4.6963,4.6963 z"
             style="fill:#d2d2d2;fill-opacity:1;fill-rule:nonzero;stroke:none"
             id="path8292" /></g><g
           id="g8294"><g
             id="g8296" /></g></g><g
         id="g8298"
         transform="translate(-82.753,-22.556)" /></g><g
       id="g8300"
       transform="translate(118.354,42.29)"><g
         id="g8302"><g
           id="g8304"><path
             d="M 4.6963,0 C 4.6963,2.59372 2.59372,4.6963 0,4.6963 -2.59372,4.6963 -4.6963,2.59372 -4.6963,0 c 0,-2.59372 2.10258,-4.6963 4.6963,-4.6963 2.59372,0 4.6963,2.10258 4.6963,4.6963 z"
             style="fill:#d2d2d2;fill-opacity:1;fill-rule:nonzero;stroke:none"
             id="path8306" /></g><g
           id="g8308"><g
             id="g8310" /></g></g><g
         id="g8312"
         transform="translate(-110.337,-30.075)" /></g><g
       id="g8314"
       transform="translate(118.354,27.252)"><g
         id="g8316"><g
           id="g8318"><path
             d="M 4.6963,0 C 4.6963,2.59372 2.59372,4.6963 0,4.6963 -2.59372,4.6963 -4.6963,2.59372 -4.6963,0 c 0,-2.59372 2.10258,-4.6963 4.6963,-4.6963 2.59372,0 4.6963,2.10258 4.6963,4.6963 z"
             style="fill:#d2d2d2;fill-opacity:1;fill-rule:nonzero;stroke:none"
             id="path8320" /></g><g
           id="g8322"><g
             id="g8324" /></g></g><g
         id="g8326"
         transform="translate(-110.337,-15.037)" /></g><g
       style="fill:#ff8080"
       id="g8328"
       transform="translate(90.77,19.734)"><g
         style="fill:#ff8080"
         id="g8330"><g
           style="fill:#ff8080"
           id="g8332"><path
             d="M 4.6963,0 C 4.6963,2.59372 2.59372,4.6963 0,4.6963 -2.59372,4.6963 -4.6963,2.59372 -4.6963,0 c 0,-2.59372 2.10258,-4.6963 4.6963,-4.6963 2.59372,0 4.6963,2.10258 4.6963,4.6963 z"
             style="fill:#ff8080;fill-opacity:1;fill-rule:nonzero;stroke:none"
             id="path8334" /></g><g
           style="fill:#ff8080"
           id="g8336"><g
             style="fill:#ff8080"
             id="g8338" /></g></g><g
         style="fill:#ff8080"
         id="g8340"
         transform="translate(-82.753,-7.519)" /></g><g
       style="fill:#ff8080"
       id="g8342"
       transform="translate(90.77,4.696)"><g
         style="fill:#ff8080"
         id="g8344"><g
           style="fill:#ff8080"
           id="g8346"><path
             d="M 4.6963,0 C 4.6963,2.59372 2.59372,4.6963 0,4.6963 -2.59372,4.6963 -4.6963,2.59372 -4.6963,0 c 0,-2.59372 2.10258,-4.6963 4.6963,-4.6963 2.59372,0 4.6963,2.10258 4.6963,4.6963 z"
             style="fill:#ff8080;fill-opacity:1;fill-rule:nonzero;stroke:none"
             id="path8348" /></g><g
           style="fill:#ff8080"
           id="g8350"><g
             style="fill:#ff8080"
             id="g8352" /></g></g><g
         style="fill:#ff8080"
         id="g8354"
         transform="translate(-82.753,7.519)" /></g><g
       id="g8356"
       transform="translate(35.601,4.696)"><g
         id="g8358"><g
           id="g8360"><path
             d="M 4.6963,0 C 4.6963,2.59372 2.59372,4.6963 0,4.6963 -2.59372,4.6963 -4.6963,2.59372 -4.6963,0 c 0,-2.59372 2.10258,-4.6963 4.6963,-4.6963 2.59372,0 4.6963,2.10258 4.6963,4.6963 z"
             style="fill:#d2d2d2;fill-opacity:1;fill-rule:nonzero;stroke:none"
             id="path8362" /></g><g
           id="g8364"><g
             id="g8366" /></g></g><g
         id="g8368"
         transform="translate(-27.584,7.519)" /></g><g
       transform="translate(8.017,12.215)"
       id="g8370"><path
         d="M 4.19817,0 23.3865,7.51874"
         style="fill:none;stroke:#d2d2d2;stroke-width:1.49442005;stroke-linecap:round;stroke-linejoin:miter;stroke-miterlimit:10;stroke-dasharray:none;stroke-opacity:1"
         id="path8372" /></g><g
       transform="translate(8.017,12.215)"
       id="g8382"><path
         d="m 86.95224,22.55623 19.18832,7.51875"
         style="fill:none;stroke:#d2d2d2;stroke-width:1.49442005;stroke-linecap:round;stroke-linejoin:miter;stroke-miterlimit:10;stroke-dasharray:none;stroke-opacity:1"
         id="path8384" /></g><g
       transform="translate(8.017,12.215)"
       id="g8386"><path
         d="m 86.95224,22.55623 19.18832,-7.51874"
         style="fill:none;stroke:#d2d2d2;stroke-width:1.49442005;stroke-linecap:round;stroke-linejoin:miter;stroke-miterlimit:10;stroke-dasharray:none;stroke-opacity:1"
         id="path8388" /></g><g
       transform="translate(8.017,12.215)"
       id="g8398"><path
         d="M 4.19817,0 23.3865,-7.51874"
         style="fill:none;stroke:#d2d2d2;stroke-width:1.49442005;stroke-linecap:round;stroke-linejoin:miter;stroke-miterlimit:10;stroke-dasharray:none;stroke-opacity:1"
         id="path8400" /></g><g
       style="fill:#ff8080"
       id="g8258"
       transform="translate(35.601,19.734)"><g
         style="fill:#ff8080"
         id="g8260"><g
           style="fill:#ff8080"
           id="g8262"><path
             d="M 4.6963,0 C 4.6963,2.59372 2.59372,4.6963 0,4.6963 -2.59372,4.6963 -4.6963,2.59372 -4.6963,0 c 0,-2.59372 2.10258,-4.6963 4.6963,-4.6963 2.59372,0 4.6963,2.10258 4.6963,4.6963 z"
             style="fill:#ff8080;fill-opacity:1;fill-rule:nonzero;stroke:none"
             id="path8264" /></g><g
           style="fill:#ff8080"
           id="g8266"><g
             style="fill:#ff8080"
             id="g8268" /></g></g><g
         style="fill:#ff8080"
         id="g8270"
         transform="translate(-27.584,-7.519)" /></g></g></svg>