<?xml version="1.0" encoding="UTF-8" standalone="no"?>
<svg
   xmlns:dc="http://purl.org/dc/elements/1.1/"
   xmlns:cc="http://creativecommons.org/ns#"
   xmlns:rdf="http://www.w3.org/1999/02/22-rdf-syntax-ns#"
   xmlns:svg="http://www.w3.org/2000/svg"
   xmlns="http://www.w3.org/2000/svg"
   version="1.1"
   id="svg2"
   height="141"
   width="1600"
   style="font-style:normal;font-weight:normal;font-size:12px;font-family:Dialog;color-interpolation:auto;fill:#000000;fill-opacity:1;stroke:#000000;stroke-width:1;stroke-linecap:square;stroke-linejoin:miter;stroke-miterlimit:10;stroke-dasharray:none;stroke-dashoffset:0;stroke-opacity:1;color-rendering:auto;image-rendering:auto;shape-rendering:auto;text-rendering:auto">
  <metadata
     id="metadata269">
    <rdf:RDF>
      <cc:Work
         rdf:about="">
        <dc:format>image/svg+xml</dc:format>
        <dc:type
           rdf:resource="http://purl.org/dc/dcmitype/StillImage" />
        <dc:title></dc:title>
      </cc:Work>
    </rdf:RDF>
  </metadata>
  <!--Generated by the Batik Graphics2D SVG Generator-->
  <defs
     id="genericDefs" />
  <g
     transform="translate(0.5,0.5)"
     id="g5">
    <g
       id="g7">
      <rect
         id="rect9"
         style="stroke:none"
         y="0"
         height="40"
         width="40"
         x="0" />
    </g>
    <g
       id="g11">
      <rect
         id="rect13"
         style="fill:none"
         y="0"
         height="40"
         width="40"
         x="0" />
      <rect
         id="rect15"
         height="40"
         style="fill:#868686;stroke:none"
         width="40"
         y="0"
         x="40" />
      <rect
         id="rect17"
         style="fill:none"
         y="0"
         height="40"
         width="40"
         x="40" />
      <rect
         id="rect19"
         style="stroke:none"
         y="0"
         height="40"
         width="40"
         x="80" />
      <rect
         id="rect21"
         style="fill:none"
         y="0"
         height="40"
         width="40"
         x="80" />
      <rect
         id="rect23"
         height="40"
         style="fill:#b1b1b1;stroke:none"
         width="40"
         y="0"
         x="120" />
      <rect
         id="rect25"
         style="fill:none"
         y="0"
         height="40"
         width="40"
         x="120" />
      <rect
         id="rect27"
         style="stroke:none"
         y="0"
         height="40"
         width="40"
         x="160" />
      <rect
         id="rect29"
         style="fill:none"
         y="0"
         height="40"
         width="40"
         x="160" />
      <rect
         id="rect31"
         height="40"
         style="fill:#bababa;stroke:none"
         width="40"
         y="0"
         x="200" />
      <rect
         id="rect33"
         style="fill:none"
         y="0"
         height="40"
         width="40"
         x="200" />
      <rect
         id="rect35"
         height="40"
         style="fill:#333333;stroke:none"
         width="40"
         y="0"
         x="240" />
      <rect
         id="rect37"
         style="fill:none"
         y="0"
         height="40"
         width="40"
         x="240" />
      <rect
         id="rect39"
         height="40"
         style="fill:#7c7c7c;stroke:none"
         width="40"
         y="0"
         x="280" />
      <rect
         id="rect41"
         style="fill:none"
         y="0"
         height="40"
         width="40"
         x="280" />
      <rect
         id="rect43"
         height="40"
         style="fill:#4c4c4c;stroke:none"
         width="40"
         y="0"
         x="320" />
      <rect
         id="rect45"
         style="fill:none"
         y="0"
         height="40"
         width="40"
         x="320" />
      <rect
         id="rect47"
         height="40"
         style="fill:#7c7c7c;stroke:none"
         width="40"
         y="0"
         x="360" />
      <rect
         id="rect49"
         style="fill:none"
         y="0"
         height="40"
         width="40"
         x="360" />
      <rect
         id="rect51"
         height="40"
         style="fill:#666666;stroke:none"
         width="40"
         y="0"
         x="400" />
      <rect
         id="rect53"
         style="fill:none"
         y="0"
         height="40"
         width="40"
         x="400" />
      <rect
         id="rect55"
         height="40"
         style="fill:#cccccc;stroke:none"
         width="40"
         y="0"
         x="440" />
      <rect
         id="rect57"
         style="fill:none"
         y="0"
         height="40"
         width="40"
         x="440" />
      <rect
         id="rect59"
         height="40"
         style="fill:#ffffff;stroke:none"
         width="40"
         y="0"
         x="480" />
      <rect
         id="rect61"
         style="fill:none"
         y="0"
         height="40"
         width="40"
         x="480" />
      <rect
         id="rect63"
         style="stroke:none"
         y="0"
         height="40"
         width="40"
         x="520" />
      <rect
         id="rect65"
         style="fill:none"
         y="0"
         height="40"
         width="40"
         x="520" />
      <rect
         id="rect67"
         height="40"
         style="fill:#7d7d7d;stroke:none"
         width="40"
         y="0"
         x="560" />
      <rect
         id="rect69"
         style="fill:none"
         y="0"
         height="40"
         width="40"
         x="560" />
      <rect
         id="rect71"
         height="40"
         style="fill:#333333;stroke:none"
         width="40"
         y="0"
         x="600" />
      <rect
         id="rect73"
         style="fill:none"
         y="0"
         height="40"
         width="40"
         x="600" />
      <rect
         id="rect75"
         height="40"
         style="fill:#777777;stroke:none"
         width="40"
         y="0"
         x="640" />
      <rect
         id="rect77"
         style="fill:none"
         y="0"
         height="40"
         width="40"
         x="640" />
      <rect
         id="rect79"
         height="40"
         style="fill:#7c7c7c;stroke:none"
         width="40"
         y="0"
         x="680" />
      <rect
         id="rect81"
         style="fill:none"
         y="0"
         height="40"
         width="40"
         x="680" />
      <rect
         id="rect83"
         height="40"
         style="fill:#777777;stroke:none"
         width="40"
         y="0"
         x="720" />
      <rect
         id="rect85"
         style="fill:none"
         y="0"
         height="40"
         width="40"
         x="720" />
      <rect
         id="rect87"
         height="40"
         style="fill:#727272;stroke:none"
         width="40"
         y="0"
         x="760" />
      <rect
         id="rect89"
         style="fill:none"
         y="0"
         height="40"
         width="40"
         x="760" />
      <rect
         id="rect91"
         height="40"
         style="fill:#777777;stroke:none"
         width="40"
         y="0"
         x="800" />
      <rect
         id="rect93"
         style="fill:none"
         y="0"
         height="40"
         width="40"
         x="800" />
      <rect
         id="rect95"
         height="40"
         style="fill:#7c7c7c;stroke:none"
         width="40"
         y="0"
         x="840" />
      <rect
         id="rect97"
         style="fill:none"
         y="0"
         height="40"
         width="40"
         x="840" />
      <rect
         id="rect99"
         height="40"
         style="fill:#777777;stroke:none"
         width="40"
         y="0"
         x="880" />
      <rect
         id="rect101"
         style="fill:none"
         y="0"
         height="40"
         width="40"
         x="880" />
      <rect
         id="rect103"
         height="40"
         style="fill:#898989;stroke:none"
         width="40"
         y="0"
         x="920" />
      <rect
         id="rect105"
         style="fill:none"
         y="0"
         height="40"
         width="40"
         x="920" />
      <rect
         id="rect107"
         height="40"
         style="fill:#cccccc;stroke:none"
         width="40"
         y="0"
         x="960" />
      <rect
         id="rect109"
         style="fill:none"
         y="0"
         height="40"
         width="40"
         x="960" />
      <rect
         id="rect111"
         height="40"
         style="fill:#ffffff;stroke:none"
         width="40"
         y="0"
         x="1000" />
      <rect
         id="rect113"
         style="fill:none"
         y="0"
         height="40"
         width="40"
         x="1000" />
      <rect
         id="rect115"
         style="stroke:none"
         y="0"
         height="40"
         width="40"
         x="1040" />
      <rect
         id="rect117"
         style="fill:none"
         y="0"
         height="40"
         width="40"
         x="1040" />
      <rect
         id="rect119"
         height="40"
         style="fill:#6f6f6f;stroke:none"
         width="40"
         y="0"
         x="1080" />
      <rect
         id="rect121"
         style="fill:none"
         y="0"
         height="40"
         width="40"
         x="1080" />
      <rect
         id="rect123"
         height="40"
         style="fill:#727272;stroke:none"
         width="40"
         y="0"
         x="1120" />
      <rect
         id="rect125"
         style="fill:none"
         y="0"
         height="40"
         width="40"
         x="1120" />
      <rect
         id="rect127"
         height="40"
         style="fill:#545454;stroke:none"
         width="40"
         y="0"
         x="1160" />
      <rect
         id="rect129"
         style="fill:none"
         y="0"
         height="40"
         width="40"
         x="1160" />
      <rect
         id="rect131"
         height="40"
         style="fill:#ffffff;stroke:none"
         width="40"
         y="0"
         x="1200" />
      <rect
         id="rect133"
         style="fill:none"
         y="0"
         height="40"
         width="40"
         x="1200" />
      <rect
         id="rect135"
         style="stroke:none"
         y="0"
         height="40"
         width="40"
         x="1240" />
      <rect
         id="rect137"
         style="fill:none"
         y="0"
         height="40"
         width="40"
         x="1240" />
      <rect
         id="rect139"
         height="40"
         style="fill:#d1d1d1;stroke:none"
         width="40"
         y="0"
         x="1280" />
      <rect
         id="rect141"
         style="fill:none"
         y="0"
         height="40"
         width="40"
         x="1280" />
      <rect
         id="rect143"
         height="40"
         style="fill:#707070;stroke:none"
         width="40"
         y="0"
         x="1320" />
      <rect
         id="rect145"
         style="fill:none"
         y="0"
         height="40"
         width="40"
         x="1320" />
      <rect
         id="rect147"
         height="40"
         style="fill:#ffffff;stroke:none"
         width="40"
         y="0"
         x="1360" />
      <rect
         id="rect149"
         style="fill:none"
         y="0"
         height="40"
         width="40"
         x="1360" />
      <rect
         id="rect151"
         style="stroke:none"
         y="0"
         height="40"
         width="40"
         x="1400" />
      <rect
         id="rect153"
         style="fill:none"
         y="0"
         height="40"
         width="40"
         x="1400" />
      <rect
         id="rect155"
         height="40"
         style="fill:#ffffff;stroke:none"
         width="40"
         y="0"
         x="1440" />
      <rect
         id="rect157"
         style="fill:none"
         y="0"
         height="40"
         width="40"
         x="1440" />
      <rect
         id="rect159"
         height="40"
         style="fill:#ffffff;stroke:none"
         width="40"
         y="0"
         x="1480" />
      <rect
         id="rect161"
         style="fill:none"
         y="0"
         height="40"
         width="40"
         x="1480" />
      <rect
         id="rect163"
         height="40"
         style="fill:#ffffff;stroke:none"
         width="40"
         y="0"
         x="1520" />
      <rect
         id="rect165"
         style="fill:none"
         y="0"
         height="40"
         width="40"
         x="1520" />
      <text
         id="text167"
         xml:space="preserve"
         style="font-size:32px;font-family:'Lucida Sans';stroke:none;text-rendering:optimizeLegibility"
         y="82"
         x="12">↓</text>
      <rect
         id="rect169"
         style="stroke:none"
         y="100"
         height="40"
         width="40"
         x="0" />
      <rect
         id="rect171"
         style="fill:none"
         y="100"
         height="40"
         width="40"
         x="0" />
      <rect
         id="rect173"
         style="stroke:none"
         y="100"
         height="40"
         width="40"
         x="40" />
      <rect
         id="rect175"
         style="fill:none"
         y="100"
         height="40"
         width="40"
         x="40" />
    </g>
    <g
       id="g177"
       style="font-size:32px;font-family:'Lucida Sans';fill:#4c4c4c;stroke:#4c4c4c">
      <rect
         id="rect179"
         style="stroke:none"
         y="100"
         height="40"
         width="40"
         x="80" />
      <rect
         id="rect181"
         height="40"
         style="fill:none;stroke:#000000"
         width="40"
         y="100"
         x="80" />
      <rect
         id="rect183"
         height="40"
         style="fill:#616161;stroke:none"
         width="40"
         y="100"
         x="120" />
      <rect
         id="rect185"
         height="40"
         style="fill:none;stroke:#000000"
         width="40"
         y="100"
         x="120" />
      <rect
         id="rect187"
         height="40"
         style="fill:#7c7c7c;stroke:none"
         width="40"
         y="100"
         x="160" />
      <rect
         id="rect189"
         height="40"
         style="fill:none;stroke:#000000"
         width="40"
         y="100"
         x="160" />
      <rect
         id="rect191"
         height="40"
         style="fill:#545454;stroke:none"
         width="40"
         y="100"
         x="200" />
      <rect
         id="rect193"
         height="40"
         style="fill:none;stroke:#000000"
         width="40"
         y="100"
         x="200" />
      <rect
         id="rect195"
         height="40"
         style="fill:#aaaaaa;stroke:none"
         width="40"
         y="100"
         x="240" />
      <rect
         id="rect197"
         height="40"
         style="fill:none;stroke:#000000"
         width="40"
         y="100"
         x="240" />
      <rect
         id="rect199"
         height="40"
         style="fill:#666666;stroke:none"
         width="40"
         y="100"
         x="280" />
      <rect
         id="rect201"
         height="40"
         style="fill:none;stroke:#000000"
         width="40"
         y="100"
         x="280" />
      <rect
         id="rect203"
         height="40"
         style="fill:#616161;stroke:none"
         width="40"
         y="100"
         x="320" />
      <rect
         id="rect205"
         height="40"
         style="fill:none;stroke:#000000"
         width="40"
         y="100"
         x="320" />
      <rect
         id="rect207"
         height="40"
         style="fill:#727272;stroke:none"
         width="40"
         y="100"
         x="360" />
      <rect
         id="rect209"
         height="40"
         style="fill:none;stroke:#000000"
         width="40"
         y="100"
         x="360" />
      <rect
         id="rect211"
         height="40"
         style="fill:#545454;stroke:none"
         width="40"
         y="100"
         x="400" />
      <rect
         id="rect213"
         height="40"
         style="fill:none;stroke:#000000"
         width="40"
         y="100"
         x="400" />
      <rect
         id="rect215"
         height="40"
         style="fill:#aaaaaa;stroke:none"
         width="40"
         y="100"
         x="440" />
      <rect
         id="rect217"
         height="40"
         style="fill:none;stroke:#000000"
         width="40"
         y="100"
         x="440" />
      <rect
         id="rect219"
         style="stroke:none"
         y="100"
         height="40"
         width="40"
         x="480" />
      <rect
         id="rect221"
         height="40"
         style="fill:none;stroke:#000000"
         width="40"
         y="100"
         x="480" />
      <rect
         id="rect223"
         height="40"
         style="fill:#616161;stroke:none"
         width="40"
         y="100"
         x="520" />
      <rect
         id="rect225"
         height="40"
         style="fill:none;stroke:#000000"
         width="40"
         y="100"
         x="520" />
      <rect
         id="rect227"
         height="40"
         style="fill:#7c7c7c;stroke:none"
         width="40"
         y="100"
         x="560" />
      <rect
         id="rect229"
         height="40"
         style="fill:none;stroke:#000000"
         width="40"
         y="100"
         x="560" />
      <rect
         id="rect231"
         height="40"
         style="fill:#545454;stroke:none"
         width="40"
         y="100"
         x="600" />
      <rect
         id="rect233"
         height="40"
         style="fill:none;stroke:#000000"
         width="40"
         y="100"
         x="600" />
      <rect
         id="rect235"
         height="40"
         style="fill:#aaaaaa;stroke:none"
         width="40"
         y="100"
         x="640" />
      <rect
         id="rect237"
         height="40"
         style="fill:none;stroke:#000000"
         width="40"
         y="100"
         x="640" />
      <rect
         id="rect239"
         height="40"
         style="fill:#666666;stroke:none"
         width="40"
         y="100"
         x="680" />
      <rect
         id="rect241"
         height="40"
         style="fill:none;stroke:#000000"
         width="40"
         y="100"
         x="680" />
      <rect
         id="rect243"
         height="40"
         style="fill:#616161;stroke:none"
         width="40"
         y="100"
         x="720" />
      <rect
         id="rect245"
         height="40"
         style="fill:none;stroke:#000000"
         width="40"
         y="100"
         x="720" />
      <rect
         id="rect247"
         height="40"
         style="fill:#878787;stroke:none"
         width="40"
         y="100"
         x="760" />
      <rect
         id="rect249"
         height="40"
         style="fill:none;stroke:#000000"
         width="40"
         y="100"
         x="760" />
      <rect
         id="rect251"
         height="40"
         style="fill:#545454;stroke:none"
         width="40"
         y="100"
         x="800" />
      <rect
         id="rect253"
         height="40"
         style="fill:none;stroke:#000000"
         width="40"
         y="100"
         x="800" />
      <rect
         id="rect255"
         height="40"
         style="fill:#aaaaaa;stroke:none"
         width="40"
         y="100"
         x="840" />
      <rect
         id="rect257"
         height="40"
         style="fill:none;stroke:#000000"
         width="40"
         y="100"
         x="840" />
      <rect
         id="rect259"
         height="40"
         style="fill:#ffffff;stroke:none"
         width="40"
         y="100"
         x="880" />
      <rect
         id="rect261"
         height="40"
         style="fill:none;stroke:#000000"
         width="40"
         y="100"
         x="880" />
      <rect
         id="rect263"
         height="40"
         style="fill:#ffffff;stroke:none"
         width="40"
         y="100"
         x="920" />
      <rect
         id="rect265"
         height="40"
         style="fill:none;stroke:#000000"
         width="40"
         y="100"
         x="920" />
    </g>
  </g>
</svg>
