<svg xmlns="http://www.w3.org/2000/svg" xmlns:xlink="http://www.w3.org/1999/xlink" version="1.2" width="210.00mm" height="297.00mm" viewBox="0 0 119.5016 169.0094">
<!-- Page: 1/1 -->
<text transform="translate(5.6906, 2.8453)" font-family="serif" font-size="2.2001" text-anchor="start" fill="currentColor">
<tspan/>
</text>
<line transform="translate(5.6906, 4.8453)" stroke-linejoin="round" stroke-linecap="round" stroke-width="0.1000" stroke="currentColor" x1="0.0500" y1="-0.0000" x2="8.7523" y2="-0.0000"/>
<rect transform="translate(11.5556, 4.8453)" x="-0.0650" y="0.1861" width="0.1300" height="3.1472" ry="0.0400" fill="currentColor"/>
<a style="color:inherit;" xlink:href="textedit:///Users/mbp-15_touch/Dropbox/tesis/GenoMus/ly/rhythm/lilypond_framework_rhythmical_examples_GenoMus.ly:8:2:3">
</a>
<path transform="translate(5.8206, 4.8453) scale(0.0040, -0.0040)" d="M490 -250h-92c-6 0 -10 4 -10 10v480c0 6 4 10 10 10h92c6 0 10 -4 10 -10v-480c0 -6 -4 -10 -10 -10zM270 -250h-93c-6 0 -10 4 -10 10v480c0 6 4 10 10 10h93c6 0 10 -4 10 -10v-480c0 -6 -4 -10 -10 -10z" fill="currentColor"/>
<a style="color:inherit;" xlink:href="textedit:///Users/mbp-15_touch/Dropbox/tesis/GenoMus/ly/rhythm/lilypond_framework_rhythmical_examples_GenoMus.ly:23:2:3">
<path transform="translate(11.4906, 4.8453) scale(0.0040, -0.0040)" d="M218 136c55 0 108 -28 108 -89c0 -71 -55 -121 -102 -149c-35 -21 -75 -34 -116 -34c-55 0 -108 28 -108 89c0 71 55 121 102 149c35 21 75 34 116 34z" fill="currentColor"/>
</a>
<text transform="translate(5.3906, 4.8453)" font-family="serif" font-size="2.2001" text-anchor="start" fill="currentColor">
<tspan/>
</text>
</svg>
