<svg xmlns="http://www.w3.org/2000/svg" xmlns:xlink="http://www.w3.org/1999/xlink" version="1.2" width="210.00mm" height="297.00mm" viewBox="0 0 119.5016 169.0094">
<!-- Page: 1/1 -->
<text transform="translate(5.6906, 2.8453)" font-family="serif" font-size="2.2001" text-anchor="start" fill="currentColor">
<tspan/>
</text>
<line transform="translate(14.2264, 9.6213)" stroke-linejoin="round" stroke-linecap="round" stroke-width="0.1000" stroke="currentColor" x1="0.0500" y1="-0.0000" x2="8.2542" y2="-0.0000"/>
<line transform="translate(14.2264, 8.6213)" stroke-linejoin="round" stroke-linecap="round" stroke-width="0.1000" stroke="currentColor" x1="0.0500" y1="-0.0000" x2="8.2542" y2="-0.0000"/>
<line transform="translate(14.2264, 7.6213)" stroke-linejoin="round" stroke-linecap="round" stroke-width="0.1000" stroke="currentColor" x1="0.0500" y1="-0.0000" x2="8.2542" y2="-0.0000"/>
<line transform="translate(14.2264, 6.6213)" stroke-linejoin="round" stroke-linecap="round" stroke-width="0.1000" stroke="currentColor" x1="0.0500" y1="-0.0000" x2="8.2542" y2="-0.0000"/>
<line transform="translate(14.2264, 5.6213)" stroke-linejoin="round" stroke-linecap="round" stroke-width="0.1000" stroke="currentColor" x1="0.0500" y1="-0.0000" x2="8.2542" y2="-0.0000"/>
<rect transform="translate(21.2656, 7.6213)" x="-0.0650" y="-3.0000" width="0.1300" height="3.3139" ry="0.0400" fill="currentColor"/>
<a style="color:inherit;" xlink:href="textedit:///Users/mbp-15_touch/Dropbox/tesis/GenoMus/ly/lilypond_framework_examples_GenoMus.ly:8:2:3">
</a>
<path transform="translate(15.0264, 8.6213) scale(0.0040, -0.0040)" d="M376 262c4 0 9 1 13 1c155 0 256 -128 256 -261c0 -76 -33 -154 -107 -210c-22 -17 -47 -28 -73 -36c3 -35 5 -70 5 -105c0 -19 -1 -39 -2 -58c-7 -120 -90 -228 -208 -228c-108 0 -195 88 -195 197c0 58 53 103 112 103c54 0 95 -47 95 -103c0 -52 -43 -95 -95 -95
c-11 0 -21 2 -31 6c26 -39 68 -65 117 -65c96 0 157 92 163 191c1 18 2 37 2 55c0 31 -1 61 -4 92c-29 -5 -58 -8 -89 -8c-188 0 -333 172 -333 374c0 177 131 306 248 441c-19 62 -37 125 -45 190c-6 52 -7 104 -7 156c0 115 55 224 149 292c3 2 7 3 10 3c4 0 7 0 10 -3
c71 -84 133 -245 133 -358c0 -143 -86 -255 -180 -364c21 -68 39 -138 56 -207zM461 -203c68 24 113 95 113 164c0 90 -66 179 -173 190c24 -116 46 -231 60 -354zM74 28c0 -135 129 -247 264 -247c28 0 55 2 82 6c-14 127 -37 245 -63 364c-79 -8 -124 -61 -124 -119
c0 -44 25 -91 81 -123c5 -5 7 -10 7 -15c0 -11 -10 -22 -22 -22c-3 0 -6 1 -9 2c-80 43 -117 115 -117 185c0 88 58 174 160 197c-14 58 -29 117 -46 175c-107 -121 -213 -243 -213 -403zM408 1045c-99 -48 -162 -149 -162 -259c0 -74 18 -133 36 -194
c80 97 146 198 146 324c0 55 -4 79 -20 129z" fill="currentColor"/>
<a style="color:inherit;" xlink:href="textedit:///Users/mbp-15_touch/Dropbox/tesis/GenoMus/ly/lilypond_framework_examples_GenoMus.ly:17:5:6">
<path transform="translate(20.6785, 9.1213) scale(0.0040, -0.0040)" d="M-50 0c0 28 22 50 50 50s50 -22 50 -50s-22 -50 -50 -50s-50 22 -50 50z" fill="currentColor"/>
</a>
<a style="color:inherit;" xlink:href="textedit:///Users/mbp-15_touch/Dropbox/tesis/GenoMus/ly/lilypond_framework_examples_GenoMus.ly:17:7:8">
<path transform="translate(20.0468, 12.1833) scale(0.0040, -0.0040)" d="M253 245l-50 -163c-30 -99 -121 -255 -218 -255c-45 0 -87 27 -87 69c0 39 17 77 52 77c24 0 44 -20 44 -44c0 -30 -38 -24 -38 -54c0 -10 11 -11 23 -11h6c48 0 61 58 73 108l68 273h-49c-11 0 -19 8 -19 19s8 19 19 19h60c32 96 118 191 213 191c45 0 87 -27 87 -69
c0 -39 -17 -77 -52 -77c-24 0 -44 19 -44 43c0 30 38 25 38 55c0 10 -10 11 -22 11h-7c-62 0 -70 -88 -86 -154h55c11 0 19 -8 19 -19s-8 -19 -19 -19h-66z" fill="currentColor"/>
</a>
<a style="color:inherit;" xlink:href="textedit:///Users/mbp-15_touch/Dropbox/tesis/GenoMus/ly/lilypond_framework_examples_GenoMus.ly:17:2:3">
<path transform="translate(20.0264, 8.1213) scale(0.0040, -0.0040)" d="M218 136c55 0 108 -28 108 -89c0 -71 -55 -121 -102 -149c-35 -21 -75 -34 -116 -34c-55 0 -108 28 -108 89c0 71 55 121 102 149c35 21 75 34 116 34z" fill="currentColor"/>
</a>
<path transform="translate(21.3306, 4.6613) scale(0.0040, -0.0040)" d="M0 0c0 -177 201 -293 201 -470c0 -33 -9 -65 -23 -95c18 -37 29 -75 29 -117c0 -63 -15 -125 -41 -183c-5 -8 -13 -12 -20 -12c-13 0 -26 11 -23 27c26 52 42 110 42 168c0 97 -94 190 -165 257v-75h-16v500h16zM151 -517c5 15 8 31 8 47c0 96 -91 190 -159 257
c0 -118 90 -206 151 -304z" fill="currentColor"/>
<text transform="translate(9.6585, 7.6213)" font-family="serif" font-size="2.2001" text-anchor="start" fill="currentColor">
<tspan/>
</text>
</svg>
