<?xml version="1.0" encoding="UTF-8" standalone="no"?>
<svg
   xmlns:dc="http://purl.org/dc/elements/1.1/"
   xmlns:cc="http://creativecommons.org/ns#"
   xmlns:rdf="http://www.w3.org/1999/02/22-rdf-syntax-ns#"
   xmlns:svg="http://www.w3.org/2000/svg"
   xmlns="http://www.w3.org/2000/svg"
   id="svg2"
   height="228"
   width="655.72559"
   version="1.1">
  <metadata
     id="metadata396">
    <rdf:RDF>
      <cc:Work
         rdf:about="">
        <dc:format>image/svg+xml</dc:format>
        <dc:type
           rdf:resource="http://purl.org/dc/dcmitype/StillImage" />
        <dc:title></dc:title>
      </cc:Work>
    </rdf:RDF>
  </metadata>
  <defs
     id="defs394" />
  <rect
     id="rect4"
     style="fill:#ffffff"
     height="70"
     width="0"
     y="0"
     x="6.725564" />
  <rect
     id="rect6"
     style="fill:#000000"
     height="70"
     width="5"
     ry="2.5"
     rx="2.5"
     y="0"
     x="6.725564" />
  <rect
     id="rect8"
     style="fill:#ef7f10"
     height="40.166302"
     width="5"
     ry="2.5"
     rx="2.5"
     y="29.8337"
     x="12.725564" />
  <rect
     id="rect10"
     style="fill:#696969"
     height="70"
     width="5"
     ry="2.5"
     rx="2.5"
     y="0"
     x="18.725563" />
  <rect
     id="rect12"
     style="fill:#ef8310"
     height="15.33851"
     width="5"
     ry="2.5"
     rx="2.5"
     y="54.661491"
     x="24.725563" />
  <rect
     id="rect14"
     style="fill:#696969"
     height="70"
     width="5"
     ry="2.5"
     rx="2.5"
     y="0"
     x="30.725563" />
  <rect
     id="rect16"
     style="fill:#ef8310"
     height="15.33851"
     width="5"
     ry="2.5"
     rx="2.5"
     y="54.661491"
     x="36.725563" />
  <rect
     id="rect18"
     style="fill:#696969"
     height="70"
     width="5"
     ry="2.5"
     rx="2.5"
     y="0"
     x="42.725563" />
  <rect
     id="rect20"
     style="fill:#ef1f10"
     height="35.688839"
     width="5"
     ry="2.5"
     rx="2.5"
     y="34.311161"
     x="48.725563" />
  <rect
     id="rect22"
     style="fill:#696969"
     height="70"
     width="5"
     ry="2.5"
     rx="2.5"
     y="0"
     x="54.725563" />
  <rect
     id="rect24"
     style="fill:#ef8710"
     height="55.510719"
     width="5"
     ry="2.5"
     rx="2.5"
     y="14.48928"
     x="60.725563" />
  <rect
     id="rect26"
     style="fill:#000000"
     height="149.81203"
     width="5"
     ry="5.3504295"
     rx="2.5"
     y="0"
     x="0" />
  <rect
     id="rect28"
     style="fill:#ef1810"
     height="20.344419"
     width="5"
     ry="2.5"
     rx="2.5"
     y="49.655579"
     x="72.725563" />
  <rect
     id="rect30"
     style="fill:#696969"
     height="70"
     width="5"
     ry="2.5"
     rx="2.5"
     y="0"
     x="78.725563" />
  <rect
     id="rect32"
     style="fill:#ef2310"
     height="10.86105"
     width="5"
     ry="2.5"
     rx="2.5"
     y="59.13895"
     x="84.725563" />
  <rect
     id="rect34"
     style="fill:#3210ef"
     height="38.150002"
     width="5"
     ry="2.5"
     rx="2.5"
     y="31.85"
     x="90.725563" />
  <rect
     id="rect36"
     style="fill:#6910ef"
     height="31"
     width="5"
     ry="2.5"
     rx="2.5"
     y="39"
     x="96.725563" />
  <rect
     id="rect38"
     style="fill:#696969"
     height="5"
     width="5"
     ry="2.5"
     rx="2.5"
     y="65"
     x="102.72556" />
  <rect
     id="rect40"
     style="fill:#696969"
     height="70"
     width="5"
     ry="2.5"
     rx="2.5"
     y="0"
     x="108.72556" />
  <rect
     id="rect42"
     style="fill:#ef4f10"
     height="37.92757"
     width="5"
     ry="2.5"
     rx="2.5"
     y="32.07243"
     x="114.72556" />
  <rect
     id="rect44"
     style="fill:#696969"
     height="57"
     width="5"
     ry="2.5"
     rx="2.5"
     y="13"
     x="120.72556" />
  <rect
     id="rect46"
     style="fill:#10efc6"
     height="39.450001"
     width="5"
     ry="2.5"
     rx="2.5"
     y="30.549999"
     x="126.72556" />
  <rect
     id="rect48"
     style="fill:#7410ef"
     height="41.400002"
     width="5"
     ry="2.5"
     rx="2.5"
     y="28.6"
     x="132.72557" />
  <rect
     id="rect50"
     style="fill:#10efc6"
     height="39.450001"
     width="5"
     ry="2.5"
     rx="2.5"
     y="30.549999"
     x="138.72557" />
  <rect
     id="rect52"
     style="fill:#10efb7"
     height="45.299999"
     width="5"
     ry="2.5"
     rx="2.5"
     y="24.700001"
     x="144.72557" />
  <rect
     id="rect54"
     style="fill:#10efc6"
     height="39.450001"
     width="5"
     ry="2.5"
     rx="2.5"
     y="30.549999"
     x="150.72557" />
  <rect
     id="rect56"
     style="fill:#10e7ef"
     height="47.25"
     width="5"
     ry="2.5"
     rx="2.5"
     y="22.75"
     x="156.72557" />
  <rect
     id="rect58"
     style="fill:#696969"
     height="18"
     width="5"
     ry="2.5"
     rx="2.5"
     y="52"
     x="162.72557" />
  <rect
     id="rect60"
     style="fill:#000000"
     height="5"
     width="5"
     ry="2.5"
     rx="2.5"
     y="65"
     x="168.72557" />
  <rect
     id="rect62"
     style="fill:#000000"
     height="70"
     width="5"
     ry="2.5"
     rx="2.5"
     y="0"
     x="174.72557" />
  <rect
     id="rect64"
     style="fill:#ef3210"
     height="41.549889"
     width="5"
     ry="2.5"
     rx="2.5"
     y="28.450109"
     x="180.72557" />
  <rect
     id="rect66"
     style="fill:#ef10d5"
     height="40.75"
     width="5"
     ry="2.5"
     rx="2.5"
     y="29.25"
     x="186.72557" />
  <rect
     id="rect68"
     style="fill:#10e7ef"
     height="29.002356"
     width="5"
     ry="2.5"
     rx="2.5"
     y="40.997646"
     x="192.72557" />
  <rect
     id="rect70"
     style="fill:#696969"
     height="5"
     width="5"
     ry="2.5"
     rx="2.5"
     y="65"
     x="198.72557" />
  <rect
     id="rect72"
     style="fill:#696969"
     height="70"
     width="5"
     ry="2.5"
     rx="2.5"
     y="0"
     x="204.72557" />
  <rect
     id="rect74"
     style="fill:#ef3510"
     height="16.722099"
     width="5"
     ry="2.5"
     rx="2.5"
     y="53.277901"
     x="210.72557" />
  <rect
     id="rect76"
     style="fill:#7410ef"
     height="41.400002"
     width="5"
     ry="2.5"
     rx="2.5"
     y="28.6"
     x="216.72557" />
  <rect
     id="rect78"
     style="fill:#10ef3d"
     height="17.79525"
     width="5"
     ry="2.5"
     rx="2.5"
     y="52.20475"
     x="222.72557" />
  <rect
     id="rect80"
     style="fill:#696969"
     height="5"
     width="5"
     ry="2.5"
     rx="2.5"
     y="65"
     x="228.72557" />
  <rect
     id="rect82"
     style="fill:#696969"
     height="5"
     width="5"
     ry="2.5"
     rx="2.5"
     y="65"
     x="234.72557" />
  <rect
     id="rect84"
     style="fill:#696969"
     height="70"
     width="5"
     ry="2.5"
     rx="2.5"
     y="0"
     x="240.72557" />
  <rect
     id="rect86"
     style="fill:#ef3910"
     height="56.89431"
     width="5"
     ry="2.5"
     rx="2.5"
     y="13.10569"
     x="246.72557" />
  <rect
     id="rect88"
     style="fill:#10e7ef"
     height="42.049999"
     width="5"
     ry="2.5"
     rx="2.5"
     y="27.950001"
     x="252.72557" />
  <rect
     id="rect90"
     style="fill:#ef6910"
     height="59.133041"
     width="5"
     ry="2.5"
     rx="2.5"
     y="10.86696"
     x="258.72556" />
  <rect
     id="rect92"
     style="fill:#696969"
     height="5"
     width="5"
     ry="2.5"
     rx="2.5"
     y="65"
     x="264.72556" />
  <rect
     id="rect94"
     style="fill:#696969"
     height="5"
     width="5"
     ry="2.5"
     rx="2.5"
     y="65"
     x="270.72556" />
  <rect
     id="rect96"
     style="fill:#000000"
     height="5"
     width="5"
     ry="2.5"
     rx="2.5"
     y="65"
     x="276.72556" />
  <rect
     id="rect98"
     style="fill:#000000"
     height="70"
     width="5"
     ry="2.5"
     rx="2.5"
     y="0"
     x="282.72556" />
  <rect
     id="rect100"
     style="fill:#ef8710"
     height="55.510719"
     width="5"
     ry="2.5"
     rx="2.5"
     y="14.48928"
     x="288.72556" />
  <rect
     id="rect102"
     style="fill:#696969"
     height="70"
     width="5"
     ry="2.5"
     rx="2.5"
     y="0"
     x="294.72556" />
  <rect
     id="rect104"
     style="fill:#ef1810"
     height="20.344419"
     width="5"
     ry="2.5"
     rx="2.5"
     y="49.655579"
     x="300.72556" />
  <rect
     id="rect106"
     style="fill:#696969"
     height="70"
     width="5"
     ry="2.5"
     rx="2.5"
     y="0"
     x="306.72556" />
  <rect
     id="rect108"
     style="fill:#ef2310"
     height="10.86105"
     width="5"
     ry="2.5"
     rx="2.5"
     y="59.13895"
     x="312.72556" />
  <rect
     id="rect110"
     style="fill:#3210ef"
     height="38.150002"
     width="5"
     ry="2.5"
     rx="2.5"
     y="31.85"
     x="318.72556" />
  <rect
     id="rect112"
     style="fill:#1410ef"
     height="33.697762"
     width="5"
     ry="2.5"
     rx="2.5"
     y="36.302238"
     x="324.72556" />
  <rect
     id="rect114"
     style="fill:#696969"
     height="5"
     width="5"
     ry="2.5"
     rx="2.5"
     y="65"
     x="330.72556" />
  <rect
     id="rect116"
     style="fill:#696969"
     height="70"
     width="5"
     ry="2.5"
     rx="2.5"
     y="0"
     x="336.72556" />
  <rect
     id="rect118"
     style="fill:#ef4f10"
     height="37.92757"
     width="5"
     ry="2.5"
     rx="2.5"
     y="32.07243"
     x="342.72556" />
  <rect
     id="rect120"
     style="fill:#696969"
     height="57"
     width="5"
     ry="2.5"
     rx="2.5"
     y="13"
     x="348.72556" />
  <rect
     id="rect122"
     style="fill:#10efc6"
     height="39.450001"
     width="5"
     ry="2.5"
     rx="2.5"
     y="30.549999"
     x="354.72556" />
  <rect
     id="rect124"
     style="fill:#696969"
     height="37.5"
     width="5"
     ry="2.5"
     rx="2.5"
     y="32.5"
     x="360.72556" />
  <rect
     id="rect126"
     style="fill:#10efc6"
     height="39.450001"
     width="5"
     ry="2.5"
     rx="2.5"
     y="30.549999"
     x="366.72556" />
  <rect
     id="rect128"
     style="fill:#10efc6"
     height="39.450001"
     width="5"
     ry="2.5"
     rx="2.5"
     y="30.549999"
     x="372.72556" />
  <rect
     id="rect130"
     style="fill:#696969"
     height="18"
     width="5"
     ry="2.5"
     rx="2.5"
     y="52"
     x="378.72556" />
  <rect
     id="rect132"
     style="fill:#696969"
     height="5"
     width="5"
     ry="2.5"
     rx="2.5"
     y="65"
     x="384.72556" />
  <rect
     id="rect134"
     style="fill:#696969"
     height="70"
     width="5"
     ry="2.5"
     rx="2.5"
     y="0"
     x="390.72556" />
  <rect
     id="rect136"
     style="fill:#ef3210"
     height="41.549889"
     width="5"
     ry="2.5"
     rx="2.5"
     y="28.450109"
     x="396.72556" />
  <rect
     id="rect138"
     style="fill:#ef10d5"
     height="40.75"
     width="5"
     ry="2.5"
     rx="2.5"
     y="29.25"
     x="402.72556" />
  <rect
     id="rect140"
     style="fill:#10e7ef"
     height="29.002356"
     width="5"
     ry="2.5"
     rx="2.5"
     y="40.997646"
     x="408.72556" />
  <rect
     id="rect142"
     style="fill:#696969"
     height="5"
     width="5"
     ry="2.5"
     rx="2.5"
     y="65"
     x="414.72556" />
  <rect
     id="rect144"
     style="fill:#696969"
     height="70"
     width="5"
     ry="2.5"
     rx="2.5"
     y="0"
     x="420.72556" />
  <rect
     id="rect146"
     style="fill:#ef3510"
     height="16.722099"
     width="5"
     ry="2.5"
     rx="2.5"
     y="53.277901"
     x="426.72556" />
  <rect
     id="rect148"
     style="fill:#7410ef"
     height="41.400002"
     width="5"
     ry="2.5"
     rx="2.5"
     y="28.6"
     x="432.72556" />
  <rect
     id="rect150"
     style="fill:#b0ef10"
     height="12.67715"
     width="5"
     ry="2.5"
     rx="2.5"
     y="57.322849"
     x="438.72556" />
  <rect
     id="rect152"
     style="fill:#696969"
     height="5"
     width="5"
     ry="2.5"
     rx="2.5"
     y="65"
     x="444.72556" />
  <rect
     id="rect154"
     style="fill:#696969"
     height="5"
     width="5"
     ry="2.5"
     rx="2.5"
     y="65"
     x="450.72556" />
  <rect
     id="rect156"
     style="fill:#696969"
     height="70"
     width="5"
     ry="2.5"
     rx="2.5"
     y="0"
     x="456.72556" />
  <rect
     id="rect158"
     style="fill:#ef3910"
     height="56.89431"
     width="5"
     ry="2.5"
     rx="2.5"
     y="13.10569"
     x="462.72556" />
  <rect
     id="rect160"
     style="fill:#10e7ef"
     height="42.049999"
     width="5"
     ry="2.5"
     rx="2.5"
     y="27.950001"
     x="468.72556" />
  <rect
     id="rect162"
     style="fill:#ef5310"
     height="13.09978"
     width="5"
     ry="2.5"
     rx="2.5"
     y="56.900219"
     x="474.72556" />
  <rect
     id="rect164"
     style="fill:#696969"
     height="5"
     width="5"
     ry="2.5"
     rx="2.5"
     y="65"
     x="480.72556" />
  <rect
     id="rect166"
     style="fill:#696969"
     height="5"
     width="5"
     ry="2.5"
     rx="2.5"
     y="65"
     x="486.72556" />
  <rect
     id="rect168"
     style="fill:#000000"
     height="5"
     width="5"
     ry="2.5"
     rx="2.5"
     y="65"
     x="492.72556" />
  <rect
     id="rect170"
     style="fill:#000000"
     height="227.44737"
     width="5"
     ry="8.1231203"
     rx="2.5"
     y="0"
     x="512.72559" />
  <rect
     id="rect172"
     style="fill:#ef7810"
     height="24.82188"
     width="5"
     ry="2.5"
     rx="2.5"
     y="45.17812"
     x="518.72559" />
  <rect
     id="rect174"
     style="fill:#000000"
     height="70"
     width="5"
     ry="2.5"
     rx="2.5"
     y="80"
     x="6.725565" />
  <rect
     id="rect176"
     style="fill:#ef4810"
     height="22.583151"
     width="5"
     ry="2.5"
     rx="2.5"
     y="127.41685"
     x="12.725565" />
  <rect
     id="rect178"
     style="fill:#696969"
     height="70"
     width="5"
     ry="2.5"
     rx="2.5"
     y="80"
     x="18.725563" />
  <rect
     id="rect180"
     style="fill:#696969"
     height="57"
     width="5"
     ry="2.5"
     rx="2.5"
     y="93"
     x="24.725567" />
  <rect
     id="rect182"
     style="fill:#3210ef"
     height="38.150002"
     width="5"
     ry="2.5"
     rx="2.5"
     y="111.85"
     x="30.725567" />
  <rect
     id="rect184"
     style="fill:#10ef3d"
     height="50.5"
     width="5"
     ry="2.5"
     rx="2.5"
     y="99.5"
     x="36.725567" />
  <rect
     id="rect186"
     style="fill:#3210ef"
     height="38.150002"
     width="5"
     ry="2.5"
     rx="2.5"
     y="111.85"
     x="42.725563" />
  <rect
     id="rect188"
     style="fill:#1092ef"
     height="44.650002"
     width="5"
     ry="2.5"
     rx="2.5"
     y="105.35"
     x="48.725563" />
  <rect
     id="rect190"
     style="fill:#696969"
     height="18"
     width="5"
     ry="2.5"
     rx="2.5"
     y="132"
     x="54.725563" />
  <rect
     id="rect192"
     style="fill:#000000"
     height="5"
     width="5"
     ry="2.5"
     rx="2.5"
     y="145"
     x="60.725563" />
  <rect
     id="rect194"
     style="fill:#000000"
     height="70"
     width="5"
     ry="2.5"
     rx="2.5"
     y="80"
     x="66.725563" />
  <rect
     id="rect196"
     style="fill:#ef4f10"
     height="37.92757"
     width="5"
     ry="2.5"
     rx="2.5"
     y="112.07243"
     x="72.725563" />
  <rect
     id="rect198"
     style="fill:#696969"
     height="57"
     width="5"
     ry="2.5"
     rx="2.5"
     y="93"
     x="78.725563" />
  <rect
     id="rect200"
     style="fill:#10efc6"
     height="39.450001"
     width="5"
     ry="2.5"
     rx="2.5"
     y="110.55"
     x="84.725563" />
  <rect
     id="rect202"
     style="fill:#d510ef"
     height="31.65"
     width="5"
     ry="2.5"
     rx="2.5"
     y="118.35"
     x="90.725563" />
  <rect
     id="rect204"
     style="fill:#10efc6"
     height="39.450001"
     width="5"
     ry="2.5"
     rx="2.5"
     y="110.55"
     x="96.725563" />
  <rect
     id="rect206"
     style="fill:#1810ef"
     height="33.599998"
     width="5"
     ry="2.5"
     rx="2.5"
     y="116.4"
     x="102.72556" />
  <rect
     id="rect208"
     style="fill:#10efc6"
     height="39.450001"
     width="5"
     ry="2.5"
     rx="2.5"
     y="110.55"
     x="108.72557" />
  <rect
     id="rect210"
     style="fill:#d510ef"
     height="31.65"
     width="5"
     ry="2.5"
     rx="2.5"
     y="118.35"
     x="114.72557" />
  <rect
     id="rect212"
     style="fill:#10efc6"
     height="39.450001"
     width="5"
     ry="2.5"
     rx="2.5"
     y="110.55"
     x="120.72557" />
  <rect
     id="rect214"
     style="fill:#bb10ef"
     height="27.1"
     width="5"
     ry="2.5"
     rx="2.5"
     y="122.9"
     x="126.72557" />
  <rect
     id="rect216"
     style="fill:#696969"
     height="18"
     width="5"
     ry="2.5"
     rx="2.5"
     y="132"
     x="132.72557" />
  <rect
     id="rect218"
     style="fill:#696969"
     height="5"
     width="5"
     ry="2.5"
     rx="2.5"
     y="145"
     x="138.72556" />
  <rect
     id="rect220"
     style="fill:#696969"
     height="70"
     width="5"
     ry="2.5"
     rx="2.5"
     y="80"
     x="144.72556" />
  <rect
     id="rect222"
     style="fill:#ef3210"
     height="41.549889"
     width="5"
     ry="2.5"
     rx="2.5"
     y="108.45011"
     x="150.72556" />
  <rect
     id="rect224"
     style="fill:#ef10d5"
     height="40.75"
     width="5"
     ry="2.5"
     rx="2.5"
     y="109.25"
     x="156.72556" />
  <rect
     id="rect226"
     style="fill:#10ef5a"
     height="48.390034"
     width="5"
     ry="2.5"
     rx="2.5"
     y="101.60996"
     x="162.72556" />
  <rect
     id="rect228"
     style="fill:#696969"
     height="5"
     width="5"
     ry="2.5"
     rx="2.5"
     y="145"
     x="168.72556" />
  <rect
     id="rect230"
     style="fill:#696969"
     height="70"
     width="5"
     ry="2.5"
     rx="2.5"
     y="80"
     x="174.72556" />
  <rect
     id="rect232"
     style="fill:#ef3510"
     height="16.722099"
     width="5"
     ry="2.5"
     rx="2.5"
     y="133.27789"
     x="180.72556" />
  <rect
     id="rect234"
     style="fill:#7410ef"
     height="41.400002"
     width="5"
     ry="2.5"
     rx="2.5"
     y="108.6"
     x="186.72556" />
  <rect
     id="rect236"
     style="fill:#10e0ef"
     height="37.755905"
     width="5"
     ry="2.5"
     rx="2.5"
     y="112.24409"
     x="192.72556" />
  <rect
     id="rect238"
     style="fill:#696969"
     height="5"
     width="5"
     ry="2.5"
     rx="2.5"
     y="145"
     x="198.72557" />
  <rect
     id="rect240"
     style="fill:#696969"
     height="5"
     width="5"
     ry="2.5"
     rx="2.5"
     y="145"
     x="204.72557" />
  <rect
     id="rect242"
     style="fill:#696969"
     height="5"
     width="5"
     ry="2.5"
     rx="2.5"
     y="145"
     x="210.72557" />
  <rect
     id="rect244"
     style="fill:#696969"
     height="70"
     width="5"
     ry="2.5"
     rx="2.5"
     y="80"
     x="216.72557" />
  <rect
     id="rect246"
     style="fill:#ef8310"
     height="15.33851"
     width="5"
     ry="2.5"
     rx="2.5"
     y="134.6615"
     x="222.72557" />
  <rect
     id="rect248"
     style="fill:#696969"
     height="70"
     width="5"
     ry="2.5"
     rx="2.5"
     y="80"
     x="228.72557" />
  <rect
     id="rect250"
     style="fill:#ef1f10"
     height="35.688839"
     width="5"
     ry="2.5"
     rx="2.5"
     y="114.31116"
     x="234.72557" />
  <rect
     id="rect252"
     style="fill:#696969"
     height="70"
     width="5"
     ry="2.5"
     rx="2.5"
     y="80"
     x="240.72557" />
  <rect
     id="rect254"
     style="fill:#ef7810"
     height="24.82188"
     width="5"
     ry="2.5"
     rx="2.5"
     y="125.17812"
     x="246.72557" />
  <rect
     id="rect256"
     style="fill:#696969"
     height="70"
     width="5"
     ry="2.5"
     rx="2.5"
     y="80"
     x="252.72557" />
  <rect
     id="rect258"
     style="fill:#ef4810"
     height="22.583151"
     width="5"
     ry="2.5"
     rx="2.5"
     y="127.41685"
     x="258.72556" />
  <rect
     id="rect260"
     style="fill:#696969"
     height="70"
     width="5"
     ry="2.5"
     rx="2.5"
     y="80"
     x="264.72559" />
  <rect
     id="rect262"
     style="fill:#696969"
     height="57"
     width="5"
     ry="2.5"
     rx="2.5"
     y="93"
     x="270.72559" />
  <rect
     id="rect264"
     style="fill:#3210ef"
     height="38.150002"
     width="5"
     ry="2.5"
     rx="2.5"
     y="111.85"
     x="276.72559" />
  <rect
     id="rect266"
     style="fill:#10ef3d"
     height="50.5"
     width="5"
     ry="2.5"
     rx="2.5"
     y="99.5"
     x="282.72559" />
  <rect
     id="rect268"
     style="fill:#3210ef"
     height="38.150002"
     width="5"
     ry="2.5"
     rx="2.5"
     y="111.85"
     x="288.72559" />
  <rect
     id="rect270"
     style="fill:#1092ef"
     height="44.650002"
     width="5"
     ry="2.5"
     rx="2.5"
     y="105.35"
     x="294.72559" />
  <rect
     id="rect272"
     style="fill:#696969"
     height="18"
     width="5"
     ry="2.5"
     rx="2.5"
     y="132"
     x="300.72559" />
  <rect
     id="rect274"
     style="fill:#000000"
     height="5"
     width="5"
     ry="2.5"
     rx="2.5"
     y="145"
     x="306.72559" />
  <rect
     id="rect290"
     style="fill:#10efc6"
     height="39.450001"
     width="5"
     ry="2.5"
     rx="2.5"
     y="30.549999"
     x="532.72559" />
  <rect
     id="rect292"
     style="fill:#3210ef"
     height="38.150002"
     width="5"
     ry="2.5"
     rx="2.5"
     y="31.85"
     x="538.72559" />
  <rect
     id="rect294"
     style="fill:#10efc6"
     height="39.450001"
     width="5"
     ry="2.5"
     rx="2.5"
     y="30.549999"
     x="544.72559" />
  <rect
     id="rect296"
     style="fill:#107fef"
     height="34.965"
     width="5"
     ry="2.5"
     rx="2.5"
     y="35.035"
     x="550.72559" />
  <rect
     id="rect298"
     style="fill:#696969"
     height="18"
     width="5"
     ry="2.5"
     rx="2.5"
     y="52"
     x="556.72559" />
  <rect
     id="rect300"
     style="fill:#000000"
     height="5"
     width="5"
     ry="2.5"
     rx="2.5"
     y="65"
     x="562.72559" />
  <rect
     id="rect302"
     style="fill:#000000"
     height="70"
     width="5"
     ry="2.5"
     rx="2.5"
     y="0"
     x="568.72559" />
  <rect
     id="rect304"
     style="fill:#ef3210"
     height="41.549889"
     width="5"
     ry="2.5"
     rx="2.5"
     y="28.450109"
     x="574.72559" />
  <rect
     id="rect306"
     style="fill:#ef10d5"
     height="40.75"
     width="5"
     ry="2.5"
     rx="2.5"
     y="29.25"
     x="580.72559" />
  <rect
     id="rect308"
     style="fill:#10ef5a"
     height="48.390034"
     width="5"
     ry="2.5"
     rx="2.5"
     y="21.609964"
     x="586.72559" />
  <rect
     id="rect310"
     style="fill:#696969"
     height="5"
     width="5"
     ry="2.5"
     rx="2.5"
     y="65"
     x="592.72559" />
  <rect
     id="rect312"
     style="fill:#696969"
     height="70"
     width="5"
     ry="2.5"
     rx="2.5"
     y="0"
     x="598.72559" />
  <rect
     id="rect314"
     style="fill:#ef3510"
     height="16.722099"
     width="5"
     ry="2.5"
     rx="2.5"
     y="53.277901"
     x="604.72559" />
  <rect
     id="rect316"
     style="fill:#7410ef"
     height="41.400002"
     width="5"
     ry="2.5"
     rx="2.5"
     y="28.6"
     x="610.72559" />
  <rect
     id="rect318"
     style="fill:#bf10ef"
     height="26.496084"
     width="5"
     ry="2.5"
     rx="2.5"
     y="43.503914"
     x="616.72559" />
  <rect
     id="rect320"
     style="fill:#696969"
     height="5"
     width="5"
     ry="2.5"
     rx="2.5"
     y="65"
     x="622.72559" />
  <rect
     id="rect322"
     style="fill:#696969"
     height="5"
     width="5"
     ry="2.5"
     rx="2.5"
     y="65"
     x="628.72559" />
  <rect
     id="rect324"
     style="fill:#000000"
     height="5"
     width="5"
     ry="2.5"
     rx="2.5"
     y="65"
     x="634.72559" />
  <rect
     id="rect326"
     style="fill:#000000"
     height="70"
     width="5"
     ry="2.5"
     rx="2.5"
     y="158"
     x="518.72559" />
  <rect
     id="rect328"
     style="fill:#ef8710"
     height="55.510719"
     width="5"
     ry="2.5"
     rx="2.5"
     y="172.48929"
     x="524.72559" />
  <rect
     id="rect330"
     style="fill:#696969"
     height="70"
     width="5"
     ry="2.5"
     rx="2.5"
     y="158"
     x="530.72559" />
  <rect
     id="rect332"
     style="fill:#ef1810"
     height="20.344419"
     width="5"
     ry="2.5"
     rx="2.5"
     y="207.65558"
     x="536.72559" />
  <rect
     id="rect334"
     style="fill:#696969"
     height="70"
     width="5"
     ry="2.5"
     rx="2.5"
     y="158"
     x="542.72559" />
  <rect
     id="rect336"
     style="fill:#ef2310"
     height="10.86105"
     width="5"
     ry="2.5"
     rx="2.5"
     y="217.13895"
     x="548.72559" />
  <rect
     id="rect338"
     style="fill:#3210ef"
     height="38.150002"
     width="5"
     ry="2.5"
     rx="2.5"
     y="189.85001"
     x="554.72559" />
  <rect
     id="rect340"
     style="fill:#696969"
     height="37.5"
     width="5"
     ry="2.5"
     rx="2.5"
     y="190.5"
     x="560.72559" />
  <rect
     id="rect342"
     style="fill:#000000"
     height="5"
     width="5"
     ry="2.5"
     rx="2.5"
     y="223"
     x="566.72559" />
  <rect
     id="rect346"
     style="fill:#ef2a10"
     height="26.205469"
     width="5"
     ry="2.5"
     rx="2.5"
     y="121.79453"
     x="518.72559" />
  <rect
     id="rect348"
     style="fill:#10efc6"
     height="39.450001"
     width="5"
     ry="2.5"
     rx="2.5"
     y="108.55"
     x="524.72559" />
  <rect
     id="rect350"
     style="fill:#ef104c"
     height="29.700001"
     width="5"
     ry="2.5"
     rx="2.5"
     y="118.3"
     x="530.72559" />
  <rect
     id="rect352"
     style="fill:#696969"
     height="5"
     width="5"
     ry="2.5"
     rx="2.5"
     y="143"
     x="536.72559" />
  <rect
     id="rect354"
     style="fill:#696969"
     height="70"
     width="5"
     ry="2.5"
     rx="2.5"
     y="78"
     x="542.72559" />
  <rect
     id="rect356"
     style="fill:#ef3210"
     height="41.549889"
     width="5"
     ry="2.5"
     rx="2.5"
     y="106.45011"
     x="548.72559" />
  <rect
     id="rect358"
     style="fill:#ef10d5"
     height="40.75"
     width="5"
     ry="2.5"
     rx="2.5"
     y="107.25"
     x="554.72559" />
  <rect
     id="rect360"
     style="fill:#ef4410"
     height="38.623852"
     width="5"
     ry="2.5"
     rx="2.5"
     y="109.37615"
     x="560.72559" />
  <rect
     id="rect362"
     style="fill:#000000"
     height="5"
     width="5"
     ry="2.5"
     rx="2.5"
     y="143"
     x="566.72559" />
  <rect
     id="rect364"
     style="fill:#000000"
     height="70"
     width="5"
     ry="2.5"
     rx="2.5"
     y="78"
     x="572.72559" />
  <rect
     id="rect366"
     style="fill:#ef3510"
     height="16.722099"
     width="5"
     ry="2.5"
     rx="2.5"
     y="131.27789"
     x="578.72559" />
  <rect
     id="rect368"
     style="fill:#7410ef"
     height="41.400002"
     width="5"
     ry="2.5"
     rx="2.5"
     y="106.6"
     x="584.72559" />
  <rect
     id="rect370"
     style="fill:#ef5e10"
     height="21.377985"
     width="5"
     ry="2.5"
     rx="2.5"
     y="126.62201"
     x="590.72559" />
  <rect
     id="rect372"
     style="fill:#696969"
     height="5"
     width="5"
     ry="2.5"
     rx="2.5"
     y="143"
     x="596.72559" />
  <rect
     id="rect374"
     style="fill:#696969"
     height="5"
     width="5"
     ry="2.5"
     rx="2.5"
     y="143"
     x="602.72559" />
  <rect
     id="rect376"
     style="fill:#696969"
     height="70"
     width="5"
     ry="2.5"
     rx="2.5"
     y="78"
     x="608.72559" />
  <rect
     id="rect378"
     style="fill:#ef3910"
     height="56.89431"
     width="5"
     ry="2.5"
     rx="2.5"
     y="91.10569"
     x="614.72559" />
  <rect
     id="rect380"
     style="fill:#10e7ef"
     height="42.049999"
     width="5"
     ry="2.5"
     rx="2.5"
     y="105.95"
     x="620.72559" />
  <rect
     id="rect382"
     style="fill:#ef3d10"
     height="32.066521"
     width="5"
     ry="2.5"
     rx="2.5"
     y="115.93348"
     x="626.72559" />
  <rect
     id="rect384"
     style="fill:#696969"
     height="5"
     width="5"
     ry="2.5"
     rx="2.5"
     y="143"
     x="632.72559" />
  <rect
     id="rect386"
     style="fill:#696969"
     height="5"
     width="5"
     ry="2.5"
     rx="2.5"
     y="143"
     x="638.72559" />
  <rect
     id="rect388"
     style="fill:#696969"
     height="5"
     width="5"
     ry="2.5"
     rx="2.5"
     y="143"
     x="644.72559" />
  <rect
     id="rect390"
     style="fill:#000000"
     height="5"
     width="5"
     ry="2.5"
     rx="2.5"
     y="143"
     x="650.72559" />
</svg>
